<svg xmlns="http://www.w3.org/2000/svg" width="23.142" height="18" viewBox="0 0 23.142 18"><defs><style>.a{fill:#fff;}</style></defs><path class="a" d="M21.786,32c-2.2.125-6.578.58-9.28,2.234a.618.618,0,0,0-.292.529V49.38a.636.636,0,0,0,.935.542c2.78-1.4,6.8-1.781,8.787-1.885a1.253,1.253,0,0,0,1.206-1.232V33.231A1.26,1.26,0,0,0,21.786,32ZM10.636,34.231C7.935,32.578,3.559,32.123,1.357,32A1.26,1.26,0,0,0,0,33.231V46.806a1.253,1.253,0,0,0,1.206,1.232c1.988.1,6.01.487,8.79,1.886a.634.634,0,0,0,.933-.541V34.753A.6.6,0,0,0,10.636,34.231Z" transform="translate(0 -31.996)"/></svg>