<svg xmlns="http://www.w3.org/2000/svg" width="18.467" height="16.535" viewBox="0 0 18.467 16.535"><defs><style>.a{fill:#6c757d;}</style></defs><path class="a" d="M18.152,18.9a.664.664,0,0,0-.464-.089l-.149-7.257a.665.665,0,0,0-.665-.651H14.942a.665.665,0,0,0-.665.651l-.157,7.633a.662.662,0,0,0-.9-.318l-.352.175v-3.8a.665.665,0,0,0-.665-.665h-.8a.665.665,0,0,0-.665.665v4.862l-.837.418V19.461a.665.665,0,0,0-.962-.595L5.614,20.523V19.461a.665.665,0,0,0-.962-.595L.368,21A.665.665,0,0,0,0,21.6v5.171a.665.665,0,0,0,.665.665H17.8a.665.665,0,0,0,.665-.665V19.461A.665.665,0,0,0,18.152,18.9ZM3.737,25.153a.665.665,0,0,1-.665.665h-1.2a.665.665,0,0,1-.665-.665v-.827a.665.665,0,0,1,.665-.665h1.2a.665.665,0,0,1,.665.665Zm5.1,0a.665.665,0,0,1-.665.665h-1.2a.665.665,0,0,1-.665-.665v-.827a.665.665,0,0,1,.665-.665h1.2a.665.665,0,0,1,.665.665Zm5.1,0a.665.665,0,0,1-.665.665h-1.2a.665.665,0,0,1-.665-.665v-.827a.665.665,0,0,1,.665-.665h1.2a.665.665,0,0,1,.665.665Z" transform="translate(0 -10.899)"/></svg>