<svg xmlns="http://www.w3.org/2000/svg" width="24.098" height="27.541" viewBox="0 0 24.098 27.541"><defs><style>.a{fill:#d8d8d8;}</style></defs><path class="a" d="M17.213,24.1V26.25a1.291,1.291,0,0,1-1.291,1.291H1.291A1.291,1.291,0,0,1,0,26.25V6.455A1.291,1.291,0,0,1,1.291,5.164H5.164V21.086A3.016,3.016,0,0,0,8.176,24.1Zm0-18.5V0H8.176A1.291,1.291,0,0,0,6.885,1.291v19.8a1.291,1.291,0,0,0,1.291,1.291H22.807A1.291,1.291,0,0,0,24.1,21.086V6.885H18.5A1.3,1.3,0,0,1,17.213,5.594ZM23.72,3.925,20.173.378A1.291,1.291,0,0,0,19.26,0h-.326V5.164H24.1V4.838a1.291,1.291,0,0,0-.378-.913Z"/></svg>