<svg xmlns="http://www.w3.org/2000/svg" width="8.5" height="15.114" viewBox="0 0 8.5 15.114"><defs><style>.a{fill:#fff;}</style></defs><path class="a" d="M6.211,6.89,3.023,5.957a.871.871,0,0,1,.245-1.706H5.225a1.8,1.8,0,0,1,1.01.31A.46.46,0,0,0,6.81,4.5l1.027-1a.479.479,0,0,0-.053-.723,4.174,4.174,0,0,0-2.553-.886V.472A.474.474,0,0,0,4.758,0H3.814a.474.474,0,0,0-.472.472V1.889H3.268A3.234,3.234,0,0,0,.05,5.42,3.379,3.379,0,0,0,2.524,8.271l3.026.886A.871.871,0,0,1,5.3,10.863H3.347a1.8,1.8,0,0,1-1.01-.31.46.46,0,0,0-.576.059l-1.027,1a.478.478,0,0,0,.053.723,4.174,4.174,0,0,0,2.553.886v1.417a.474.474,0,0,0,.472.472h.945a.474.474,0,0,0,.472-.472V13.219a3.334,3.334,0,0,0,3.12-2.146A3.241,3.241,0,0,0,6.211,6.89Z" transform="translate(-0.036)"/></svg>