<svg xmlns="http://www.w3.org/2000/svg" width="21" height="14" viewBox="0 0 21 14"><defs><style>.a{fill:#fff;}</style></defs><path class="a" d="M20.874,70.468A11.694,11.694,0,0,0,10.5,64,11.7,11.7,0,0,0,.127,70.468a1.179,1.179,0,0,0,0,1.064A11.694,11.694,0,0,0,10.5,78a11.7,11.7,0,0,0,10.373-6.468,1.179,1.179,0,0,0,0-1.064ZM10.5,76.25A5.25,5.25,0,1,1,15.751,71,5.25,5.25,0,0,1,10.5,76.25Zm0-8.75a3.474,3.474,0,0,0-.923.138,1.745,1.745,0,0,1-2.439,2.439A3.492,3.492,0,1,0,10.5,67.5Z" transform="translate(-0.001 -64)"/></svg>