<svg xmlns="http://www.w3.org/2000/svg" xmlns:xlink="http://www.w3.org/1999/xlink" width="539.587" height="204" viewBox="0 0 539.587 204">
  <defs>
    <linearGradient id="linear-gradient" x1="0.198" y1="-0.243" x2="0.762" y2="0.739" gradientUnits="objectBoundingBox">
      <stop offset="0" stop-color="#82ff92"/>
      <stop offset="1" stop-color="#56b956"/>
    </linearGradient>
    <linearGradient id="linear-gradient-2" x1="0.198" y1="-0.243" x2="0.762" y2="0.739" gradientUnits="objectBoundingBox">
      <stop offset="0" stop-color="#9af6a5"/>
      <stop offset="1" stop-color="#1bad47"/>
    </linearGradient>
  </defs>
  <g id="Group_4637" data-name="Group 4637" transform="translate(-1227.868 -23)">
    <g id="Group_74" data-name="Group 74" transform="translate(1390.455 23)">
      <g id="Group_71" data-name="Group 71" transform="translate(-51)">
        <text id="FinEdge" transform="translate(236 142)" fill="#44c465" font-size="109" font-family="Cairo-SemiBold, Cairo" font-weight="600" letter-spacing="0.012em"><tspan x="-191.241" y="0">Fin</tspan><tspan y="0" fill="#3f4351">Edge</tspan></text>
      </g>
    </g>
    <g id="Group_789" data-name="Group 789" transform="translate(1227.667 23.443)">
      <g id="Group_786" data-name="Group 786">
        <g id="Group_787" data-name="Group 787">
          <path id="Path_629" data-name="Path 629" d="M4663.2-1481.25c0,6.78-5.5,2.5-12,4.125-3.5.5-3.395-.272-5.75.213-3.184.654-3.775.182-3.791-3.063,0-3.571.059-7.145-.021-10.714-.045-1.831.613-2.814,2.463-3.226,4.748-1.057,9.473-2.242,14.205-3.387,3.174-.768,4.607.3,4.613,3.506C4662.926-1485.631,4663.182-1489.411,4663.2-1481.25Z" transform="translate(-4538.825 1576.432)" fill="url(#linear-gradient)"/>
          <path id="Path_630" data-name="Path 630" d="M4538.094-1602.829c0-6.7-.525-13.439.1-20.075,1.5-15.76,8.65-28.867,20.424-39.341a60.782,60.782,0,0,1,37.813-15.523c30.73-1.854,58.461,19.886,64.359,50.46.752,3.895-.758,6.342-4.547,7.453-1.74.51-3.5.986-5.27,1.379-2.605.58-4.033-.5-4.344-3.169-2.484-20.953-19.674-38.215-40.324-40.991a47.31,47.31,0,0,0-52.727,36.8,76.9,76.9,0,0,0-1.131,12.774c-.191,4.878,0,9.765-.076,14.648-.021,1.6.459,2.5,2.141,2.616.646.044,1.27.292,1.92.4a2.622,2.622,0,0,1,2.5,2.966c-.061,3.862.006,7.726-.033,11.59-.021,2.395-.852,3.091-3.119,2.548-1.213-.291-2.426-.584-4.087-.989-.074-.018,1.081,72.863.677,72.764-3.083-.755-6.465-1.6-9.838-2.49-2.429-.638-3.089-1.068-3.277-3.177-.017-.128-.028-.644-.028-1.264C4539.22-1518.918,4537.957-1602.829,4538.094-1602.829Z" transform="translate(-4537.685 1677.879)" fill="url(#linear-gradient-2)"/>
        </g>
        <path id="Path_631" data-name="Path 631" d="M4616.227-1560.135c.029-8.235.117-18.068.543-26.283.422-8.116,8.688-15.779,17.033-16.525a19.519,19.519,0,0,1,21.271,15.44,32.977,32.977,0,0,1,.391,5.644c.154,3.36,1.354,4.769,4.662,5.153a49.093,49.093,0,0,0,6.691.472c2.064-.047,3.021-1.531,3.223-3.486a34.39,34.39,0,0,0-26.6-37.19c-18.75-4.462-38.174,8.616-41.045,27.672a38.415,38.415,0,0,0-.43,5.643c-.041,10.787-.057,16.612-.184,27.4-.016,1.675-.154,6.693-.154,6.693,0,10.784-.023,21.573.02,32.361a37.941,37.941,0,0,0,.432,5.644c2.863,19.055,22.291,32.132,41.045,27.669a34.391,34.391,0,0,0,26.6-37.189c-.2-1.957-1.156-3.439-3.229-3.486a48.686,48.686,0,0,0-6.687.474c-3.311.383-4.516,1.79-4.662,5.151a32.781,32.781,0,0,1-.391,5.644,19.528,19.528,0,0,1-21.268,15.443c-8.35-.748-16.613-8.413-17.039-16.528-.428-8.214-.16-16.464-.2-24.7-.006-1.289.482-1.745,1.9-1.588,3.031.336,6.094.536,9.143.625a224.377,224.377,0,0,0,39.844-2.131c1.947-.293,2.674-1.1,2.662-3.134-.055-9.337-.055-3.8-.047-13.136a265.477,265.477,0,0,1-27.279,1.426c-16.443.109-18.213-.551-24.105-.742-1.627-.053-2.154-.753-2.139-2.287Z" transform="translate(-4573.652 1644.076)" fill="#343548"/>
      </g>
    </g>
  </g>
</svg>
