<svg xmlns="http://www.w3.org/2000/svg" width="32" height="15.998" viewBox="0 0 32 15.998"><defs><style>.a{fill:#71B6F9;}</style></defs><path class="a" d="M23.962,96h-16a8,8,0,1,0,5.711,13.6h4.575A8,8,0,1,0,23.962,96Zm-11.6,8.6a.6.6,0,0,1-.6.6H9.16v2.6a.6.6,0,0,1-.6.6h-1.2a.6.6,0,0,1-.6-.6v-2.6h-2.6a.6.6,0,0,1-.6-.6v-1.2a.6.6,0,0,1,.6-.6h2.6v-2.6a.6.6,0,0,1,.6-.6h1.2a.6.6,0,0,1,.6.6v2.6h2.6a.6.6,0,0,1,.6.6Zm10.8,3.8a2,2,0,1,1,2-2,2,2,0,0,1-2,2Zm3.2-4.8a2,2,0,1,1,2-2A2,2,0,0,1,26.358,103.6Z" transform="translate(0.041 -96)"/></svg>