<svg id="undraw_runner_start_x0uu" xmlns="http://www.w3.org/2000/svg" width="182.036" height="146.118" viewBox="0 0 182.036 146.118">
  <rect id="Rectangle_27" data-name="Rectangle 27" width="174.873" height="1.928" transform="translate(0 127.8)" fill="#3f3d56"/>
  <rect id="Rectangle_28" data-name="Rectangle 28" width="174.873" height="1.928" transform="translate(0 144.19)" fill="#3f3d56"/>
  <path id="Path_157" data-name="Path 157" d="M909.193,286.209c-.1-.171-2.569-4.285-3.423-12.83-.784-7.839-.28-21.052,6.573-39.483,12.982-34.917-2.992-63.089-3.155-63.37l.788-.457a69.933,69.933,0,0,1,6.6,18.692,81.547,81.547,0,0,1-3.377,45.453c-12.96,34.857-3.325,51.358-3.226,51.521Z" transform="translate(-749.405 -156.635)" fill="#3f3d56"/>
  <circle id="Ellipse_5" data-name="Ellipse 5" cx="5.92" cy="5.92" r="5.92" transform="translate(148.792 0)" fill="#3f3d56"/>
  <circle id="Ellipse_6" data-name="Ellipse 6" cx="5.92" cy="5.92" r="5.92" transform="translate(167.463 21.86)" fill="#3f3d56"/>
  <circle id="Ellipse_7" data-name="Ellipse 7" cx="5.92" cy="5.92" r="5.92" transform="translate(154.712 36.433)" fill="#af6eeb"/>
  <circle id="Ellipse_8" data-name="Ellipse 8" cx="5.92" cy="5.92" r="5.92" transform="translate(170.196 48.729)" fill="#af6eeb"/>
  <circle id="Ellipse_9" data-name="Ellipse 9" cx="5.92" cy="5.92" r="5.92" transform="translate(150.158 67.856)" fill="#3f3d56"/>
  <path id="Path_158" data-name="Path 158" d="M936.154,622.122s-5.92-14.573,11.841-25.5Z" transform="translate(-772.789 -492.33)" fill="#3f3d56"/>
  <path id="Path_159" data-name="Path 159" d="M818.463,658.338s-2.694-15.5-23.549-15.364Z" transform="translate(-662.379 -528.81)" fill="#3f3d56"/>
  <circle id="Ellipse_10" data-name="Ellipse 10" cx="8.733" cy="8.733" r="8.733" transform="translate(20.342 73.805)" fill="#a0616a"/>
  <path id="Path_160" data-name="Path 160" d="M270.87,442.32a8.86,8.86,0,0,0-5.084.1,8.651,8.651,0,0,0-4.047,3.311,20.767,20.767,0,0,0-2.293,4.776,16.714,16.714,0,0,0-.819,2.8,9.583,9.583,0,0,0,1.74,7.311c-.256-.674.388-1.409,1.094-1.555a4.676,4.676,0,0,1,2.122.288,13.112,13.112,0,0,0,3.766.443,2.623,2.623,0,0,0,1.4-.333c1.268-.848.6-3.038,1.652-4.139a4.874,4.874,0,0,1,1.4-.823,7.268,7.268,0,0,0,3.441-4.561c.341-1.18,1.186-4.569.465-5.665C275.055,443.284,271.975,442.592,270.87,442.32Z" transform="translate(-240.213 -370.645)" fill="#2f2e41"/>
  <path id="Path_161" data-name="Path 161" d="M356.261,448.206a5.2,5.2,0,0,0-3.978.222c-2.278,1.068-6.306,3.657-6.153,8.556a28.3,28.3,0,0,0,2.556,11.289l-.426,13.845-2.13,25.134s-10.437,8.52-6.39,10.65S350.6,507.678,350.6,507.678l5.325-14.271,1.917-13.845s3.2-14.484,0-20.874C357.844,458.688,361.535,450.131,356.261,448.206Z" transform="translate(-303.423 -375.298)" fill="#a0616a"/>
  <path id="Path_162" data-name="Path 162" d="M538.435,552.5s-3.621,15.336,9.159,19.6S577.2,583.6,577.2,583.6l2.13,3.621,4.9-6.6-.852-5.112-8.307-2.343s-15.549-11.928-22.365-12.78l.852-7.881Z" transform="translate(-460.157 -457.608)" fill="#a0616a"/>
  <path id="Path_163" data-name="Path 163" d="M660.007,494.717l4.514,7.409s14.91,8.52,18.744,14.271,12.993,11.928,12.993,11.928l-4.047,9.585s-11.5-13.419-16.4-14.7-26.625-18.744-26.625-18.744Z" transform="translate(-547.69 -412.133)" fill="#a0616a"/>
  <path id="Path_164" data-name="Path 164" d="M375.212,366.192c-1.663.261-3.327.523-4.969.889a60.832,60.832,0,0,0-11.069,3.829,129.589,129.589,0,0,0-14.579,7.512,28.167,28.167,0,0,0-3.614,2.454,6.588,6.588,0,0,0-1.879,2.254,7.115,7.115,0,0,0-.5,1.964,17.551,17.551,0,0,0,.327,7.116,11.007,11.007,0,0,0,3.859,5.895,6.364,6.364,0,0,0,1.67.926,9.728,9.728,0,0,0,2.487.417c2.688.214,5.495.41,7.982-.631a32.048,32.048,0,0,0,4.373-2.685c6.158-3.836,13.983-3.672,20.717-6.373a4.408,4.408,0,0,0,1.779-1.105,4.809,4.809,0,0,0,.771-1.531l2.554-7.069c.539-1.493,1.079-2.987,1.532-4.509.474-1.592.851-3.21,1.228-4.827a13.864,13.864,0,0,0,.534-4.288c-.184-2.122-.674-2.208-2.623-1.9Q380.5,365.363,375.212,366.192Z" transform="translate(-303.097 -309.572)" fill="#af6eeb"/>
  <path id="Path_165" data-name="Path 165" d="M326.261,448.206a5.2,5.2,0,0,0-3.978.222c-2.278,1.068-6.307,3.657-6.153,8.556a28.3,28.3,0,0,0,2.556,11.289l-.426,13.845-2.13,25.134s-10.437,8.52-6.39,10.65S320.6,507.678,320.6,507.678l5.325-14.271,1.917-13.845s3.2-14.484,0-20.874C327.844,458.688,331.535,450.131,326.261,448.206Z" transform="translate(-279.813 -375.298)" fill="#a0616a"/>
  <path id="Path_166" data-name="Path 166" d="M541.034,364.22s18.923-1.713,18.071,10-7.242,31.95-7.242,31.95l-16.4.852s-2.13-13.845.852-18.531Z" transform="translate(-457.61 -309.363)" fill="#2f2e41"/>
  <path id="Path_167" data-name="Path 167" d="M609.658,382.5a21.327,21.327,0,0,1,7.242,8.946c2.556,5.964,10.224,17.679,10.224,17.679l-12.567,8.946-9.372-9.585Z" transform="translate(-513.062 -323.818)" fill="#2f2e41"/>
  <path id="Path_168" data-name="Path 168" d="M723.883,661.446s-4.047,1.491-1.278,4.473a26.965,26.965,0,0,1,4.26,6.177s-.852,5.538,2.769,5.325,5.112-7.668,4.26-10.224-1.917-14.7-1.917-14.7-7.455.639-7.242,1.7S726.014,660.594,723.883,661.446Z" transform="translate(-604.71 -536.308)" fill="#2f2e41"/>
  <path id="Path_169" data-name="Path 169" d="M840.263,648.529s-3.834,1.917-2.769,3.621,4.473,6.6,4.473,6.6-1.278,6.39,2.343,7.029,5.751-7.668,5.112-9.372-.639-8.307-.639-8.307.213-6.6-1.917-6.6a33.495,33.495,0,0,0-5.751.852S841.967,648.316,840.263,648.529Z" transform="translate(-695.743 -527.651)" fill="#2f2e41"/>
  <rect id="Rectangle_29" data-name="Rectangle 29" width="6.177" height="10.78" transform="translate(20.448 131.607)" fill="#af6eeb"/>
</svg>
