<svg xmlns="http://www.w3.org/2000/svg" width="16.264" height="16.264" viewBox="0 0 16.264 16.264">
  <path id="info-circle-solid" d="M16.132,8a8.132,8.132,0,1,0,8.132,8.132A8.133,8.133,0,0,0,16.132,8Zm0,3.607a1.377,1.377,0,1,1-1.377,1.377A1.377,1.377,0,0,1,16.132,11.607Zm1.836,8.329a.394.394,0,0,1-.393.393H14.689a.394.394,0,0,1-.393-.393v-.787a.394.394,0,0,1,.393-.393h.393v-2.1h-.393a.394.394,0,0,1-.393-.393v-.787a.394.394,0,0,1,.393-.393h2.1a.394.394,0,0,1,.393.393v3.279h.393a.394.394,0,0,1,.393.393Z" transform="translate(-8 -8)" fill="#6c757d"/>
</svg>
