<svg xmlns="http://www.w3.org/2000/svg" xmlns:xlink="http://www.w3.org/1999/xlink" viewBox="0 0 394.42 127.55"><defs><style>.cls-1{fill:#3f4351;}.cls-2{fill:url(#linear-gradient);}.cls-3{fill:url(#linear-gradient-2);}.cls-4{fill:url(#linear-gradient-3);}</style><linearGradient id="linear-gradient" x1="13.28" y1="-2.89" x2="119.47" y2="100.21" gradientUnits="userSpaceOnUse"><stop offset="0" stop-color="#803be2"/><stop offset="1" stop-color="#50b0ff"/></linearGradient><linearGradient id="linear-gradient-2" x1="-3.51" y1="14.41" x2="102.67" y2="117.51" xlink:href="#linear-gradient"/><linearGradient id="linear-gradient-3" x1="-13.83" y1="25.04" x2="92.36" y2="128.14" xlink:href="#linear-gradient"/></defs><title>qAsset 5</title><g id="Layer_2" data-name="Layer 2"><g id="Layer_1-2" data-name="Layer 1"><path class="cls-1" d="M177.1,25.33V69H166.43L151.31,30.67h-1V69h-6.1V25.33h10.86l14.8,38.36H171V25.33Z"/><path class="cls-1" d="M188.08,65.76q-3.24-4-3.24-12.48,0-8.7,3.31-12.7t10.6-4q7.37,0,10.64,4t3.27,12.67q0,8.44-3.24,12.44t-10.67,4Q191.33,69.72,188.08,65.76Zm15.4-2.26A5.91,5.91,0,0,0,205.87,60a25.63,25.63,0,0,0,.69-6.73,25.81,25.81,0,0,0-.73-7,5.84,5.84,0,0,0-2.41-3.52,8.8,8.8,0,0,0-4.67-1.05,9,9,0,0,0-4.7,1.05,5.8,5.8,0,0,0-2.44,3.55,25.91,25.91,0,0,0-.73,7,25.25,25.25,0,0,0,.7,6.7A5.82,5.82,0,0,0,194,63.5a8.9,8.9,0,0,0,4.76,1.08A8.74,8.74,0,0,0,203.48,63.5Z"/><path class="cls-1" d="M217.17,37.27h5.91L228.66,64h1.21l6.67-26h6.16l6.73,26h1.21l5.59-26.68h5.84L255,69h-9.65l-5.72-23.18L233.87,69h-9.65Z"/><path class="cls-1" d="M275.09,30.67V44.26h17.15v5.27H275.09V63.69h21V69H269V25.33h27.06v5.34Z"/><path class="cls-1" d="M304,65.76q-2.67-4-2.67-12.1,0-9,3.17-13t10.16-4a35.24,35.24,0,0,1,7.44.89V23.81H328V69h-5.9V67.12a20.05,20.05,0,0,1-9.28,2.6C308.71,69.72,305.76,68.4,304,65.76ZM317.51,64a24.52,24.52,0,0,0,3.43-1l1.15-.44v-20a36.16,36.16,0,0,0-6.74-.76q-4.38,0-6.16,2.67c-1.18,1.77-1.77,4.76-1.77,9,0,3.81.49,6.6,1.49,8.38A5.36,5.36,0,0,0,314,64.39,16.37,16.37,0,0,0,317.51,64Z"/><path class="cls-1" d="M338,81.76c-2.14-1.38-3.2-3.67-3.2-6.89a8,8,0,0,1,1-4.35,17,17,0,0,1,3.85-3.78,4.15,4.15,0,0,1-1.5-1.84,6.35,6.35,0,0,1-.47-2.41,4.77,4.77,0,0,1,.41-1.88A34.8,34.8,0,0,1,340,57.15q-4.82-2.53-4.82-9.46,0-11.05,12.38-11a28.85,28.85,0,0,1,6.48.82l9.65-.25V42.1L358,41.91a7,7,0,0,1,1.46,2.51,11.49,11.49,0,0,1,.44,3.52q0,5.66-3,8.1c-2,1.63-5.16,2.44-9.43,2.44a15.52,15.52,0,0,1-3.11-.25,10.51,10.51,0,0,0-1,3.49,1.86,1.86,0,0,0,1.24,2,12,12,0,0,0,3.84.45h2.22a34.19,34.19,0,0,1,7.12.69,7,7,0,0,1,4.12,2.58A9.16,9.16,0,0,1,363.36,73q0,5.58-3.58,8.19t-11.59,2.6Q341.2,83.82,338,81.76Zm17.4-4.06a4.64,4.64,0,0,0,1.94-4.23,4,4,0,0,0-.73-2.63,3.68,3.68,0,0,0-2.19-1.15,28.36,28.36,0,0,0-4.32-.35L343.61,69a9.6,9.6,0,0,0-2.35,2.42,5.06,5.06,0,0,0-.63,2.6,4.11,4.11,0,0,0,1.84,3.84q1.84,1.11,6.22,1.11Q353.46,78.93,355.39,77.7Zm-2.85-25.31c1-1,1.49-2.58,1.49-4.83s-.51-3.79-1.53-4.76-2.64-1.46-4.89-1.46-3.94.49-5,1.49-1.56,2.59-1.56,4.79.52,3.79,1.56,4.77,2.7,1.46,5,1.46S351.54,53.36,352.54,52.39Z"/><path class="cls-1" d="M370.92,66q-3.1-3.78-3.11-12,0-8.82,3.33-13.11t10.32-4.29q13,0,13,14.74L394,55.63H373.78a14.18,14.18,0,0,0,.89,5.3,5.11,5.11,0,0,0,2.67,2.7,13.06,13.06,0,0,0,5.2.82c1.31,0,2.8,0,4.45-.09s3.13-.16,4.44-.29l1.78-.19.13,4.58a75.16,75.16,0,0,1-12,1.26Q374,69.72,370.92,66Zm17.59-15q0-5.15-1.62-7.3t-5.43-2.16q-4,0-5.84,2.25T373.72,51Z"/><path class="cls-1" d="M159.48,100.61H153.7l-1.08,3.63h-.88l3.71-12.55h2.29l3.7,12.55h-.88Zm-2.41-8.11h-.94l-2.19,7.26h5.31Z"/><path class="cls-1" d="M177.91,103.41v.83h-6.8V91.69h.9v11.72Z"/><path class="cls-1" d="M182.49,92.5v4.94h5.45v.81h-5.45v5.18H189v.81h-7.43V91.69H189v.81Z"/><path class="cls-1" d="M200,100.61h-5.78l-1.08,3.63h-.88l3.7-12.55h2.29l3.71,12.55H201Zm-2.42-8.11h-.93l-2.2,7.26h5.31Z"/><path class="cls-1" d="M205.81,91.69h4.54a4.07,4.07,0,0,1,2.89.9,3.65,3.65,0,0,1,.94,2.78q0,3.09-2.5,3.65l2.68,5.22h-1l-2.61-5.06h-4v5.06h-.9Zm4.56,6.67c1.92,0,2.88-1,2.88-2.92a2.54,2.54,0,0,0-2.9-2.92h-3.64v5.84Z"/><path class="cls-1" d="M227.47,91.69v12.55H225.6L219.91,92.5h-.35v11.74h-.89V91.69h1.89l5.63,11.74h.4V91.69Z"/><path class="cls-1" d="M232.51,91.69h.9v12.55h-.9Z"/><path class="cls-1" d="M247.23,91.69v12.55h-1.87L239.67,92.5h-.34v11.74h-.9V91.69h1.89L246,103.43h.4V91.69Z"/><path class="cls-1" d="M253.73,103.71a3.78,3.78,0,0,1-1.5-2.1,11.72,11.72,0,0,1-.46-3.62,12.26,12.26,0,0,1,.45-3.64,3.89,3.89,0,0,1,1.48-2.12,5,5,0,0,1,2.8-.7,19.76,19.76,0,0,1,3.42.34l.59.11-.05.81a21.54,21.54,0,0,0-4-.43,4,4,0,0,0-2.15.51,3.06,3.06,0,0,0-1.19,1.7,10.82,10.82,0,0,0-.39,3.24,13,13,0,0,0,.35,3.36,3.24,3.24,0,0,0,1.18,1.84,4,4,0,0,0,2.32.58,10.86,10.86,0,0,0,1.42-.08c.46-.05,1-.14,1.62-.26V98.79h-2.48v-.85h3.38v6a19.82,19.82,0,0,1-4,.43A5,5,0,0,1,253.73,103.71Z"/><path class="cls-1" d="M271.85,92.5v4.94h5.46v.81h-5.46v5.18h6.54v.81H271V91.69h7.44v.81Z"/><path class="cls-1" d="M285.5,98l-4-6.34h1.06l3.53,5.69,3.53-5.69h1l-4,6.36,4,6.19h-1l-3.51-5.58-3.56,5.58h-1Z"/><path class="cls-1" d="M294.46,91.69H299a3.85,3.85,0,0,1,2.9,1,4.12,4.12,0,0,1,.92,2.95,4.53,4.53,0,0,1-1,3.14,3.69,3.69,0,0,1-2.87,1h-3.67v4.46h-.9ZM299,98.93q2.88,0,2.88-3.33a3.34,3.34,0,0,0-.69-2.33,2.83,2.83,0,0,0-2.19-.75h-3.66v6.41Z"/><path class="cls-1" d="M307.87,92.5v4.94h5.46v.81h-5.46v5.18h6.54v.81H307V91.69h7.44v.81Z"/><path class="cls-1" d="M318.73,91.69h4.53a4.05,4.05,0,0,1,2.89.9,3.65,3.65,0,0,1,1,2.78q0,3.09-2.51,3.65l2.69,5.22h-1l-2.61-5.06h-4v5.06h-.9Zm4.55,6.67c1.92,0,2.88-1,2.88-2.92a3,3,0,0,0-.71-2.21,3,3,0,0,0-2.19-.71h-3.63v5.84Z"/><path class="cls-1" d="M331.58,91.69h.9v12.55h-.9Z"/><path class="cls-1" d="M338.4,92.5v4.94h5.45v.81H338.4v5.18h6.53v.81H337.5V91.69h7.43v.81Z"/><path class="cls-1" d="M358.06,91.69v12.55h-1.88L350.5,92.5h-.35v11.74h-.9V91.69h1.89l5.64,11.74h.39V91.69Z"/><path class="cls-1" d="M364.4,103.67a3.62,3.62,0,0,1-1.39-2.1,13.8,13.8,0,0,1-.38-3.63,14.21,14.21,0,0,1,.35-3.52,3.71,3.71,0,0,1,1.37-2.12,4.77,4.77,0,0,1,2.92-.77,19.2,19.2,0,0,1,3.24.34l-.05.83a17.76,17.76,0,0,0-3.23-.34,4,4,0,0,0-2.3.55,2.86,2.86,0,0,0-1.06,1.79,17,17,0,0,0-.29,3.58,12.59,12.59,0,0,0,.28,3A2.88,2.88,0,0,0,365,103a4.35,4.35,0,0,0,2.51.59,14.38,14.38,0,0,0,3-.36l.05.83a15.91,15.91,0,0,1-3.2.36A4.93,4.93,0,0,1,364.4,103.67Z"/><path class="cls-1" d="M375.59,92.5v4.94H381v.81h-5.45v5.18h6.53v.81h-7.43V91.69h7.43v.81Z"/><path class="cls-2" d="M117.83,77.45a14.58,14.58,0,0,0,0-28.26,14.18,14.18,0,0,0-3.59-.45,12.26,12.26,0,0,0-1.36.07,11.57,11.57,0,0,0,6.74-10.46,11.49,11.49,0,0,0-11.49-11.49,12,12,0,0,0-1.81.14,11.74,11.74,0,0,0-2.46.67,10.17,10.17,0,0,0,1.19-2.14A10.73,10.73,0,0,0,90.53,11.77c0-.34,0-.68,0-1a10.74,10.74,0,0,0-21.47,0V36.89H88.9v-9a4.74,4.74,0,1,1,4.71,0v9h0v4.71H69.11V52.32h31.28v.13a4.73,4.73,0,1,1,0,4.46V57H69.11V67.89h37.8v4.72h0V84.09a4.73,4.73,0,1,1-4.72,0V72.61H84.54V99.54a4.34,4.34,0,0,1,1,.74,4.73,4.73,0,1,1-6.69,0,4.28,4.28,0,0,1,1-.74V72.61H69.11v44.2a10.57,10.57,0,0,0,.29,2.47,10.73,10.73,0,0,0,21.18-2.47,10.2,10.2,0,0,0-.19-2,10.74,10.74,0,0,0,14.66-13.7,10.34,10.34,0,0,0-1-1.86,11.6,11.6,0,0,0,2.12.56,11.32,11.32,0,0,0,1.95.17,11.47,11.47,0,0,0,8.66-19,11.26,11.26,0,0,0-4.57-3.2,14.89,14.89,0,0,0,2,.14A14.18,14.18,0,0,0,117.83,77.45Zm-2.48-14.83a.93.93,0,0,1,.93-.93h2.32a.93.93,0,0,1,.93.93v2.31a.93.93,0,0,1-.93.93h-2.32a.93.93,0,0,1-.93-.93ZM101.9,40.41a.93.93,0,0,1-.93.93H98.65a.93.93,0,0,1-.93-.93V38.09a.93.93,0,0,1,.93-.93H101a.93.93,0,0,1,.93.93Z"/><path class="cls-3" d="M49,0A10.74,10.74,0,0,0,38.23,10.74c0,.35,0,.69.05,1A10.74,10.74,0,0,0,23.76,25.53,10.17,10.17,0,0,0,25,27.67,11.74,11.74,0,0,0,22.49,27a12,12,0,0,0-1.81-.14,11.47,11.47,0,0,0-8.71,19,11.35,11.35,0,0,0,4,3,12.26,12.26,0,0,0-1.36-.07,14.18,14.18,0,0,0-3.59.45,14.58,14.58,0,0,0,0,28.26,14.18,14.18,0,0,0,3.59.45,14.89,14.89,0,0,0,2-.14A11.26,11.26,0,0,0,12,81,11.47,11.47,0,0,0,22.63,99.81a11.6,11.6,0,0,0,2.12-.56,10.34,10.34,0,0,0-1,1.86,10.74,10.74,0,0,0,14.66,13.7,10.2,10.2,0,0,0-.19,2,10.73,10.73,0,0,0,21.18,2.47,10.57,10.57,0,0,0,.29-2.47v-8.47H37.86V96.52a4.69,4.69,0,0,1,0-8.16V67.87h4.71v0H59.7V57H29.4V70.9a4.91,4.91,0,0,1,1,.74,4.73,4.73,0,1,1-6.7,0,4.65,4.65,0,0,1,1-.74V52.32h35V41.61H28.76a4.73,4.73,0,1,1,0-4.72H42.25v-9a4.73,4.73,0,1,1,4.72,0v9H59.7V10.74A10.74,10.74,0,0,0,49,0ZM11.61,64.79a.93.93,0,0,1-.93.93H8.36a.93.93,0,0,1-.93-.93V62.48a.93.93,0,0,1,.93-.93h2.32a.93.93,0,0,1,.93.93Zm8.89,24.4a.93.93,0,0,1,.93-.93h2.32a.93.93,0,0,1,.93.93v2.32a.93.93,0,0,1-.93.93H21.43a.93.93,0,0,1-.93-.93Z"/><path class="cls-4" d="M42.57,88.36a4.69,4.69,0,0,1,0,8.16v7.1H59.7v-31H42.57Z"/></g></g></svg>