<svg xmlns="http://www.w3.org/2000/svg" xmlns:xlink="http://www.w3.org/1999/xlink" width="216.696" height="159.84" viewBox="0 0 216.696 159.84"><defs><style>.a,.l{fill:#af6eeb;}.a,.d,.g{opacity:0.1;}.b{fill:url(#a);}.c{fill:#3f3d56;}.e{fill:#fbbebe;}.f{fill:#575a89;}.h{fill:#9e9e9e;}.i{fill:#444053;}.j{fill:#f6f8fb;}.k{opacity:0.05;}.m{fill:#ffd037;}.n{fill:#a8a8a8;}.o{opacity:0.2;}</style><linearGradient id="a" x1="0.5" y1="1" x2="0.5" gradientUnits="objectBoundingBox"><stop offset="0" stop-color="gray" stop-opacity="0.251"/><stop offset="0.54" stop-color="gray" stop-opacity="0.122"/><stop offset="1" stop-color="gray" stop-opacity="0.102"/></linearGradient></defs><g transform="translate(0.009 -0.004)"><path class="a" d="M61.83,433.31c3.422,13.224,10.659,24.655,22.1,30.2,23.777,11.516,77.4,5.577,117.42-1.241,20.7-3.526,38.9-13.258,52.116-26.952Z" transform="translate(-59.505 -356.673)"/><path class="a" d="M294.237,58.68H272.278a1.725,1.725,0,1,1,0-3.434h3.8a1.725,1.725,0,1,1,0-3.434h-2.711a1.726,1.726,0,1,1,0-3.434h11.461a32.844,32.844,0,0,0-8.941-2.23c-31.253-3.631-42.41-1.229-46.346,1.239a46.2,46.2,0,0,1-16.063,6.371c-19.281,3.6-55.341,7.929-88.023-1.379C109.209,47.745,97.135,55.567,89.9,68.644H298.051a28.256,28.256,0,0,0-2.579-10.381,2,2,0,0,1-1.235.418Z" transform="translate(-82.045 -44.29)"/><path class="a" d="M50.454,293.19a79.3,79.3,0,0,0,.851,23.072L244.1,322.642a81.792,81.792,0,0,0,13.4-18.482ZM126.7,309.649h-3.8a1.726,1.726,0,1,1,0,3.434H100.95a1.725,1.725,0,1,1,0-3.434h3.8a1.725,1.725,0,1,1,0-3.434h-2.713a1.726,1.726,0,1,1,0-3.434h21.959a1.725,1.725,0,1,1,0,3.434H126.7a1.725,1.725,0,1,1,0,3.434Z" transform="translate(-49.99 -244.156)"/><path class="a" d="M268.042,168.5,57.561,173.129a69.833,69.833,0,0,0-5.041,19.666H264.354a74.716,74.716,0,0,0,3.057-12.535A53.658,53.658,0,0,0,268.042,168.5ZM95.255,183.678h-3.8a1.726,1.726,0,1,1,0,3.436H69.5a1.726,1.726,0,1,1,0-3.436h3.8a1.725,1.725,0,1,1,0-3.434H70.586a1.726,1.726,0,1,1,0-3.434H92.545a1.725,1.725,0,1,1,0,3.434h2.711a1.725,1.725,0,1,1,0,3.434Z" transform="translate(-52.029 -144.028)"/><ellipse class="a" cx="88.051" cy="8.1" rx="88.051" ry="8.1" transform="translate(19.318 137.669)"/><path class="b" d="M876.41,335.095a.293.293,0,0,1,0-.041v-.061h0a1.683,1.683,0,0,0-.25-.632,4.982,4.982,0,0,0-1.824-1.726c-1.3-.713-3.087-1.018-3.607-2.38a7.27,7.27,0,0,1-.242-1.322,4,4,0,0,0-2.638-3c-.619-.207-1.286-.264-1.887-.52-1.343-.571-2.053-1.98-2.653-3.282l-2.332-5.045a1.962,1.962,0,0,1-1.909-.215,3.959,3.959,0,0,1-1.235-1.527c-.8-1.556-1.147-3.319-2.088-4.8s-2.823-2.652-4.486-2.007a7.653,7.653,0,0,1-1,.416c-1.424.333-3-1.294-4.22-.5a1.379,1.379,0,0,0-.479.524.224.224,0,0,1,0-.039,2.521,2.521,0,0,0-.26,1.028h0v.248c0,.284.018.571.022.859a3.81,3.81,0,0,1-.055.721v-.02a2.442,2.442,0,0,1-.1.394c-.317.851-1.2,1.409-1.607,2.208v-.039a2.091,2.091,0,0,0-.12.27,2.01,2.01,0,0,0-.112.652c-.035,1.5,1.558,2.917,1.743,4.531a2.408,2.408,0,0,0,1.365,2.155l.213.142c-.085,0-.171.012-.268.014a.661.661,0,0,0-.112.012,1.2,1.2,0,0,0-1.012.177c-.745.591-2.506.136-3.288,0s-3.461.23-3.835,1.716-1.016,4.551-1.016,4.551a8.87,8.87,0,0,1-.238,2.307.115.115,0,0,0,0,.079c0,.546.02,3.826-.508,4.671a1.907,1.907,0,0,0-.024,1.168,3.508,3.508,0,0,0-.985,2.1c.169,1.121,2.443,4.645,5.7,2.758,0,0,1.854-3.39-.479-5.193l.1-.394c.705.867,1.227,1.489,1.227,1.489s.028.073.071.2H841.9a9.263,9.263,0,0,1,.548,2.577,3.15,3.15,0,0,1-.173.948h.061c-.018.067-.037.134-.061.2a1.717,1.717,0,0,1-.613.829c-1.629,1.154-3.495,9.4-3.495,9.4s-3.7,13.326-4.434,14.085c-.611.622,3.227,2.376,6.107,2.167a4.7,4.7,0,0,0,1.182-.225c.018.2.037.394.057.573.061.591.124,1.139.164,1.31.1.429.305,4.814.305,4.814a30.938,30.938,0,0,0-.315,4.83c0,.136.018.266.029.394l-.359.055c-.544,1.221,1.7,11.412,2,12.269a8.158,8.158,0,0,1,.339,2.078,2.266,2.266,0,0,0-.034,1.121,2.727,2.727,0,0,1,.2.758,2.089,2.089,0,0,0,.069,1.087,2.057,2.057,0,0,1-.033,1.182,18.081,18.081,0,0,1-.678,4.584,2.64,2.64,0,0,0,.424,2.616,1.635,1.635,0,0,0,.138.16s3.369.028,3.962,0h.077a5.979,5.979,0,0,0,.305-3.991,4.855,4.855,0,0,1-.067-2.87v-2.34s.611-.563,0-1.773-.51-1.576-.51-1.576.68-1.946-.033-2.573.136-3,.136-3l.24-7.919a3.1,3.1,0,0,0-.384-.1c-.014-.13-.028-.264-.041-.406-.14-1.434-.26-3.384.051-3.94s.461-5.405.51-8.776l3.1.118c.065,1.576.134,3.014.177,3.2.1.429.307,4.814.307,4.814a30.819,30.819,0,0,0-.317,4.83c0,.136.018.266.03.394l-.359.055c-.544,1.221,1.7,11.412,2,12.269a8.2,8.2,0,0,1,.341,2.078,2.282,2.282,0,0,0-.035,1.121,2.725,2.725,0,0,1,.2.758A2.088,2.088,0,0,0,853.09,397a2.058,2.058,0,0,1-.033,1.182,18.083,18.083,0,0,1-.678,4.584,2.64,2.64,0,0,0,.437,2.612,1.631,1.631,0,0,0,.138.16s3.369.028,3.961,0h.077a5.98,5.98,0,0,0,.305-3.991,4.855,4.855,0,0,1-.067-2.87v-2.336s.611-.563,0-1.773-.51-1.576-.51-1.576.68-1.946-.034-2.573.136-3,.136-3l.244-7.919a3.033,3.033,0,0,0-.394-.1c-.014-.13-.028-.264-.042-.406-.14-1.434-.26-3.384.051-3.94a33.359,33.359,0,0,0,.459-6.249c0-.2,0-.394.016-.591a30.557,30.557,0,0,0,4.251-.477s-1.661-5.872-1.152-6.828c.219-.412-.1-2.6-.528-4.966a3.451,3.451,0,0,0,2.124.768c.743,1.428,3,4.714,4.275,5.22,1.493.591.372-4.649-.339-5.407a6.378,6.378,0,0,1-.843-1.353c.02-.024.041-.043.061-.065s.035-5.575-.305-5.474-.747-.825-.747-.825L862.9,339.57l-.441-3.865h0c.368.272.806.445,1.182.715,1.024.751,1.359,2.068,1.808,3.235a5.313,5.313,0,0,0,1.744,2.514,2.635,2.635,0,0,0,2.955.152,3.838,3.838,0,0,0,1.194-2.551,2.338,2.338,0,0,0,2.98-2.309c-.045-.362-.179-.758.01-1.076.378-.626,1.576-.262,1.97-.881a.658.658,0,0,0,.1-.357A.244.244,0,0,0,876.41,335.095Zm-19.13,5.078c-.022.353.463,3.185.857,5.427a6.879,6.879,0,0,0-2.248-3.91,1.764,1.764,0,0,0-.016-.2h.016s-.053-.563-.061-1.365a15.041,15.041,0,0,1,.158-2.124v-.018h-.026a1.112,1.112,0,0,1,.026-.179,6.4,6.4,0,0,1,.479-1.722,4.759,4.759,0,0,1,.364-.619C857.04,337.372,857.3,339.816,857.28,340.173Zm1.06,6.564c.173.967.3,1.647.3,1.647l1.046,7.182v.033c-.563-3.032-1.282-6.227-1.282-6.227A12.405,12.405,0,0,0,858.34,346.737Z" transform="translate(-679.3 -256.232)"/><path class="c" d="M886.947,321.962c-.2-1.82-2.167-3.39-1.576-5.122.321-.944,1.326-1.521,1.665-2.458a5.744,5.744,0,0,0,.126-1.956,2.054,2.054,0,0,1,.7-1.757c1.182-.788,2.7.833,4.082.5a7.211,7.211,0,0,0,.971-.414c1.609-.64,3.43.526,4.334,2s1.243,3.231,2.019,4.779a3.92,3.92,0,0,0,1.194,1.519,1.856,1.856,0,0,0,1.848.215l2.256,5.023c.591,1.294,1.269,2.7,2.561,3.266.579.254,1.225.311,1.824.518a3.939,3.939,0,0,1,2.561,2.984,7.355,7.355,0,0,0,.234,1.318c.5,1.355,2.23,1.659,3.489,2.364a4.879,4.879,0,0,1,1.773,1.716,1.137,1.137,0,0,1,.156,1.123c-.38.615-1.536.252-1.9.877a1.636,1.636,0,0,0,0,1.072,2.278,2.278,0,0,1-2.884,2.3,3.87,3.87,0,0,1-1.154,2.539,2.481,2.481,0,0,1-2.854-.15,5.28,5.28,0,0,1-1.684-2.5c-.435-1.162-.76-2.474-1.751-3.221-.359-.268-.788-.441-1.139-.711a4.8,4.8,0,0,1-1.464-2.561,26.813,26.813,0,0,0-1.182-3.571,5.376,5.376,0,0,0-2.508-2.709c-1.074-.483-2.311-.451-3.42-.843-1.909-.674-3.321-2.279-5.22-3.036a8.45,8.45,0,0,1-1.714-.969A2.354,2.354,0,0,1,886.947,321.962Z" transform="translate(-720.727 -258.016)"/><g class="d" transform="translate(164.547 53.132)"><path d="M894.72,316.839a2,2,0,0,0,.106-.238,5.794,5.794,0,0,0,.126-1.956,3.509,3.509,0,0,1,.061-.654,2.759,2.759,0,0,0-.258,1.245A9.059,9.059,0,0,1,894.72,316.839Z" transform="translate(-892.87 -313.99)"/><path d="M911.465,368.552a2.481,2.481,0,0,1-2.854-.152,5.193,5.193,0,0,1-1.676-2.5c-.435-1.162-.758-2.474-1.751-3.221-.357-.268-.788-.443-1.137-.711a4.828,4.828,0,0,1-1.466-2.551,26.515,26.515,0,0,0-1.182-3.571,5.376,5.376,0,0,0-2.508-2.709c-1.072-.483-2.309-.451-3.418-.843-1.911-.674-3.323-2.279-5.22-3.036a8.556,8.556,0,0,1-1.716-.969,2.435,2.435,0,0,1-1.32-2.145c-.2-1.706-1.931-3.193-1.661-4.8a2.5,2.5,0,0,0-.116.268c-.591,1.734,1.379,3.3,1.576,5.122a2.431,2.431,0,0,0,1.32,2.145,8.561,8.561,0,0,0,1.716.969c1.9.756,3.309,2.364,5.22,3.036,1.109.394,2.346.36,3.418.843a5.417,5.417,0,0,1,2.508,2.709A24.161,24.161,0,0,1,902.38,360a4.816,4.816,0,0,0,1.466,2.551c.357.268.788.443,1.137.711.985.747,1.316,2.059,1.751,3.221a5.277,5.277,0,0,0,1.686,2.5,2.485,2.485,0,0,0,2.854.152,2.909,2.909,0,0,0,.963-1.639A2.419,2.419,0,0,1,911.465,368.552Z" transform="translate(-885.331 -335.952)"/><path d="M1038.152,446.439a.831.831,0,0,0-.095.461c.445-.439,1.45-.181,1.8-.747a.718.718,0,0,0,.091-.463C1039.492,446.123,1038.487,445.865,1038.152,446.439Z" transform="translate(-1007.97 -419.746)"/><path d="M1023.362,461.7c-.037.2-.075.408-.122.613a2.313,2.313,0,0,0,2.8-1.812A2.291,2.291,0,0,1,1023.362,461.7Z" transform="translate(-996.073 -431.639)"/></g><path class="e" d="M898.974,369.092s.656,1.324-1.28,1.351,1.247,8.6,1.247,8.6l3.219,4.1,4-2.167.231-5.977.3-3.611s-3.743-1.215-3.053-2.823S898.974,369.092,898.974,369.092Z" transform="translate(-730.209 -304.198)"/><path class="f" d="M965.75,538.8s2.364,2.326,5.122-.76l-2.118-2.248h-2.679Z" transform="translate(-785.361 -438.965)"/><path class="g" d="M965.725,535.79,965.4,538.8s2.364,2.326,5.122-.76" transform="translate(-785.08 -438.965)"/><path class="e" d="M976.536,537.87a15.436,15.436,0,0,0,1.641,3.25c.689.755,1.773,5.975.329,5.384s-4.2-4.99-4.367-5.744a25.527,25.527,0,0,1-.229-2.89Z" transform="translate(-791.913 -440.636)"/><path class="f" d="M832.42,538.1l12.737.492-1.477-5.386-6.416-.13Z" transform="translate(-668.448 -428.065)"/><path class="g" d="M841.41,538.1l12.739.492-1.477-5.386-6.418-.13Z" transform="translate(-675.667 -428.065)"/><path class="e" d="M879.215,599.049c-.3.561-.185,2.5-.049,3.94.087.914.181,1.617.181,1.617s-4.761,1.477-5.482.2a3.893,3.893,0,0,1-.305-1.562,31.505,31.505,0,0,1,.305-4.808s-.2-4.365-.3-4.793c-.039-.171-.1-.715-.16-1.3-.087-.875-.169-1.848-.169-1.848l6.5-3.447s0,.646-.012,1.641C879.693,591.805,879.589,598.359,879.215,599.049Z" transform="translate(-711.074 -480.12)"/><path class="g" d="M880.648,669.156s-4.761,1.477-5.482.2a3.891,3.891,0,0,1-.305-1.562,21.41,21.41,0,0,1,5.606-.252C880.553,668.453,880.648,669.156,880.648,669.156Z" transform="translate(-712.375 -544.67)"/><path class="c" d="M879.176,695.582H879.1c-.573.022-3.832,0-3.832,0a1.788,1.788,0,0,1-.134-.157,2.687,2.687,0,0,1-.423-2.6,18.5,18.5,0,0,0,.656-4.564,2.115,2.115,0,0,0,.033-1.182,2.134,2.134,0,0,1-.067-1.083,2.8,2.8,0,0,0-.2-.754,2.252,2.252,0,0,1,.034-1.117,8.364,8.364,0,0,0-.329-2.068c-.3-.853-2.462-11-1.936-12.213,0,0,4.6-.788,6.337-.2l-.231,7.88s-.821,2.364-.132,2.988.033,2.561.033,2.561-.1.361.493,1.576,0,1.773,0,1.773v2.33a4.984,4.984,0,0,0,.065,2.856A6.133,6.133,0,0,1,879.176,695.582Z" transform="translate(-710.74 -546.275)"/><path class="e" d="M926.5,594.953c-.3.562-.185,2.5-.049,3.94.087.914.181,1.617.181,1.617s-4.761,1.477-5.482.2a3.9,3.9,0,0,1-.305-1.562,31.508,31.508,0,0,1,.305-4.808s-.2-4.365-.3-4.793c-.053-.23-.146-2.429-.219-4.4-.061-1.682-.11-3.2-.11-3.2l6.5,1s0,2.858-.081,5.8A34.7,34.7,0,0,1,926.5,594.953Z" transform="translate(-749.048 -476.024)"/><path class="g" d="M927.938,669.156s-4.761,1.477-5.482.2a3.894,3.894,0,0,1-.305-1.562,21.41,21.41,0,0,1,5.606-.252C927.843,668.453,927.938,669.156,927.938,669.156Z" transform="translate(-750.349 -544.67)"/><path class="c" d="M926.442,695.55h-.075c-.573.022-3.832,0-3.832,0a1.8,1.8,0,0,1-.134-.158,2.687,2.687,0,0,1-.424-2.6,18.48,18.48,0,0,0,.65-4.572,2.115,2.115,0,0,0,.034-1.182,2.133,2.133,0,0,1-.067-1.083,2.806,2.806,0,0,0-.2-.754,2.251,2.251,0,0,1,.034-1.117,8.367,8.367,0,0,0-.329-2.068c-.3-.853-2.462-11-1.937-12.213,0,0,4.6-.788,6.337-.2l-.23,7.88s-.821,2.364-.132,2.988.034,2.561.034,2.561-.1.361.492,1.576,0,1.773,0,1.773v2.33a4.984,4.984,0,0,0,.065,2.856A6.169,6.169,0,0,1,926.442,695.55Z" transform="translate(-748.69 -546.243)"/><circle class="g" cx="4.629" cy="4.629" r="4.629" transform="translate(166.696 57.184)"/><circle class="e" cx="4.629" cy="4.629" r="4.629" transform="translate(166.696 56.987)"/><path class="g" d="M873.24,590.487l6.5-3.447s0,.646-.012,1.641c-.949.567-2.382,1.42-3.759,2.226-.749.439-1.479.865-2.106,1.221a2.8,2.8,0,0,1-.455.2C873.323,591.46,873.24,590.487,873.24,590.487Z" transform="translate(-711.074 -480.12)"/><path class="g" d="M927.063,582.9s0,2.858-.081,5.8h-.024a10.937,10.937,0,0,1-1.456-.045c-.849-.091-1.529-.315-1.773-.76a11.645,11.645,0,0,0-3.049-2.791c-.061-1.682-.11-3.2-.11-3.2Z" transform="translate(-749.081 -475.992)"/><path class="f" d="M859.342,394.85a18.751,18.751,0,0,0-.095,3.867c2.986,2.462,2.429,7.649,2.429,7.649s2.3,10.508,1.806,11.459,1.115,6.8,1.115,6.8a28.659,28.659,0,0,1-4.151.477,10.924,10.924,0,0,1-1.456-.045c-.849-.091-1.529-.315-1.773-.76-.918-1.607-4.891-4-4.891-4s-2.517,1.509-4.862,2.882c-.749.439-1.479.865-2.106,1.221a3.909,3.909,0,0,1-1.645.451c-2.787.207-6.5-1.538-5.91-2.157.723-.756,4.3-14.02,4.3-14.02s1.8-8.209,3.38-9.357a1.7,1.7,0,0,0,.591-.825c.54-1.5-.362-3.9-.362-3.9s-5.088-6.27-4.86-6.633a9.189,9.189,0,0,0,.23-2.3s.625-3.053.985-4.531,2.955-1.84,3.709-1.708,2.46.591,3.181,0,1.938.23,1.938.23l2.99.823,2.689-1.576s2.695.138,2.925.5,3.776,1.052,3.776,1.052c1.8,1.213,1.739,6.993,1.739,6.993s-4.334,3.774-5.22,5.713A6.516,6.516,0,0,0,859.342,394.85Z" transform="translate(-682.569 -312.973)"/><path class="f" d="M954.369,418.2l.985.788,1.018,9.16,1.016,9.194s.394.92.723.821.3,5.449.3,5.449-3.77-2.319-5.122.76l-1.052-7.425s-1.347-7.584-1.314-8.175-.69-6.993-.69-6.993Z" transform="translate(-772.898 -344.54)"/><path class="f" d="M851.9,420.37l-.723.886s.067,3.808-.492,4.728,1.544,6.3,2.332,5.975,2.561-8.733,2.561-8.831S851.9,420.37,851.9,420.37Z" transform="translate(-692.891 -346.282)"/><path class="f" d="M848.171,447.87s-2.3,2.33-2.135,3.447,2.364,4.625,5.516,2.74C851.552,454.057,854.475,448.559,848.171,447.87Z" transform="translate(-689.223 -368.365)"/><path class="g" d="M888.525,800.137c-.573.022-3.831,0-3.831,0a1.744,1.744,0,0,1-.134-.158A4.814,4.814,0,0,1,888.525,800.137Z" transform="translate(-720.164 -650.825)"/><path class="g" d="M935.835,800.137c-.573.022-3.831,0-3.831,0a1.743,1.743,0,0,1-.134-.158A4.814,4.814,0,0,1,935.835,800.137Z" transform="translate(-758.155 -650.825)"/><path class="g" d="M872,509.11c-.5,4.818-.337,14.38-.232,18.627-.749.439-1.479.865-2.106,1.221a3.909,3.909,0,0,1-1.645.451C867.807,528.125,870.7,514.933,872,509.11Z" transform="translate(-706.871 -417.541)"/><path class="g" d="M888.895,495.23c-.014.069-.252,1.117-.615,2.734A6.977,6.977,0,0,1,888.895,495.23Z" transform="translate(-723.152 -406.395)"/><path class="g" d="M909.684,492.59s2.791,17.532-5.474,19.7C904.208,512.281,909.929,511.412,909.684,492.59Z" transform="translate(-735.943 -404.276)"/><path class="g" d="M937.976,515.557a10.917,10.917,0,0,1-1.456-.045l-2.23-23.972C935.712,492.47,937.414,509.482,937.976,515.557Z" transform="translate(-760.098 -403.432)"/><path class="g" d="M898.008,331.384a1.219,1.219,0,0,1,.439.045,1.915,1.915,0,0,1,.555.418,1.98,1.98,0,0,0,1.879.364,2.48,2.48,0,0,1,.707-.2,1.127,1.127,0,0,1,.9.591c.2.315.3.689.463,1.026a1.29,1.29,0,0,0,.8.739,1.407,1.407,0,0,1,.512.118.725.725,0,0,1,.221.305c.307.664.552,1.448,1.208,1.773a1.806,1.806,0,0,0,.77.167,1.61,1.61,0,0,0,.788-.142,1.509,1.509,0,0,0,.579-.577,3.6,3.6,0,0,0,.361-2.3,6.336,6.336,0,0,0-1.03-2.77,5.782,5.782,0,0,0-5.289-2.441,7.373,7.373,0,0,0-1.054.2,5.758,5.758,0,0,0-3.242,2.011,6.829,6.829,0,0,1-.6.745C897.315,331.421,897.661,331.392,898.008,331.384Z" transform="translate(-730.13 -272.49)"/><path class="c" d="M898.008,330.384a1.219,1.219,0,0,1,.439.045,1.915,1.915,0,0,1,.555.418,1.98,1.98,0,0,0,1.879.364,2.48,2.48,0,0,1,.707-.2,1.127,1.127,0,0,1,.9.591c.2.315.3.69.463,1.026a1.29,1.29,0,0,0,.8.739,1.406,1.406,0,0,1,.512.118.725.725,0,0,1,.221.305c.307.664.552,1.448,1.208,1.773a1.807,1.807,0,0,0,.77.167,1.61,1.61,0,0,0,.788-.142,1.509,1.509,0,0,0,.579-.577,3.6,3.6,0,0,0,.361-2.3,6.336,6.336,0,0,0-1.03-2.77,5.782,5.782,0,0,0-5.289-2.441,7.365,7.365,0,0,0-1.054.2,5.758,5.758,0,0,0-3.242,2.011,6.826,6.826,0,0,1-.6.745C897.315,330.422,897.661,330.392,898.008,330.384Z" transform="translate(-730.13 -271.687)"/><path class="g" d="M873.459,398.2s.231,1.84-.557,2.3S873.459,398.2,873.459,398.2Z" transform="translate(-710.603 -328.48)"/><path class="g" d="M961.57,461.933s1.871-2.758,2.135-1.97S961.57,461.933,961.57,461.933Z" transform="translate(-782.004 -377.962)"/><path class="g" d="M962.24,468.74s1.846-2.265,2.023-1.379S962.24,468.74,962.24,468.74Z" transform="translate(-782.542 -383.852)"/><path class="g" d="M889.366,458.338a3,3,0,0,1-1.856-.611h-.161a2.915,2.915,0,0,1-2.027.762,2.876,2.876,0,0,1-2.1-.843h-.215a3.1,3.1,0,0,1-3.995-.073l-.77-.014s.9,2.4.362,3.9l13.165.234a18.739,18.739,0,0,1,.095-3.867v-.018l-.723-.014a3.03,3.03,0,0,1-1.773.54Z" transform="translate(-715.089 -376.146)"/><path class="g" d="M889.366,460.338a3,3,0,0,1-1.856-.611h-.161a2.915,2.915,0,0,1-2.027.762,2.876,2.876,0,0,1-2.1-.843h-.215a3.1,3.1,0,0,1-3.995-.073l-.77-.014s.9,2.4.362,3.9l13.165.234a18.739,18.739,0,0,1,.095-3.867v-.018l-.723-.014a3.03,3.03,0,0,1-1.773.54Z" transform="translate(-715.089 -377.752)"/><path class="c" d="M889.366,459.338a3,3,0,0,1-1.856-.611h-.161a2.915,2.915,0,0,1-2.027.762,2.876,2.876,0,0,1-2.1-.843h-.215a3.1,3.1,0,0,1-3.995-.073l-.77-.014s.9,2.4.362,3.9l13.165.234a18.739,18.739,0,0,1,.095-3.867v-.018l-.723-.014a3.03,3.03,0,0,1-1.773.54Z" transform="translate(-715.089 -376.949)"/><path class="g" d="M931.75,395.83s2.772.177,2.789.571S931.75,395.83,931.75,395.83Z" transform="translate(-758.058 -326.576)"/><path class="g" d="M886.2,387.3s-2.772.177-2.789.571S886.2,387.3,886.2,387.3Z" transform="translate(-719.241 -319.727)"/><path class="g" d="M937.649,427.973c-.028-.02-.055-.035-.083-.053.709.638.591,2.033-.28,3.183s-2.193,1.629-3,1.113c.026.022.047.045.075.067.788.6,2.167.13,3.077-1.06S938.441,428.578,937.649,427.973Z" transform="translate(-760.098 -352.345)"/><path class="g" d="M871.422,430.321c-.7-1.265-.611-2.661.183-3.191-.03.014-.061.026-.091.041-.871.485-.985,1.936-.264,3.244s2.021,1.97,2.892,1.493a.758.758,0,0,0,.083-.055C873.356,432.248,872.123,431.586,871.422,430.321Z" transform="translate(-709.097 -351.71)"/><path class="g" d="M875.132,387.255h0l-.254.394-.648-.345.341-.524A1.429,1.429,0,0,1,875.132,387.255Z" transform="translate(-711.869 -319.309)"/><path class="e" d="M855.294,427.058s.577-2.715-.2-3.577-.526-5.386.656-5.287,2.955,3.676,2.659,4.432S857,427.255,857,427.255Z" transform="translate(-696.149 -344.533)"/><path class="g" d="M907.834,344.87a1.509,1.509,0,0,1-.579.577,1.61,1.61,0,0,1-.788.142,1.806,1.806,0,0,1-.77-.167c-.656-.327-.9-1.111-1.208-1.773a.724.724,0,0,0-.2-.311,1.407,1.407,0,0,0-.506-.124,1.3,1.3,0,0,1-.8-.739c-.169-.335-.27-.705-.463-1.026a1.085,1.085,0,0,0-.9-.591,2.423,2.423,0,0,0-.707.207,1.986,1.986,0,0,1-1.879-.366,1.917,1.917,0,0,0-.556-.418,1.219,1.219,0,0,0-.439-.045c-.227,0-.451.022-.678.039a4.955,4.955,0,0,1-.36.422c.345-.03.691-.059,1.038-.067a1.22,1.22,0,0,1,.439.045,1.916,1.916,0,0,1,.556.418,1.986,1.986,0,0,0,1.879.366,2.421,2.421,0,0,1,.707-.207,1.127,1.127,0,0,1,.9.591c.2.315.3.689.463,1.026a1.29,1.29,0,0,0,.8.739,1.407,1.407,0,0,1,.506.124.726.726,0,0,1,.221.305c.307.664.552,1.448,1.208,1.773a1.807,1.807,0,0,0,.77.167,1.61,1.61,0,0,0,.788-.142,1.509,1.509,0,0,0,.579-.577,3.267,3.267,0,0,0,.394-1.824A3.009,3.009,0,0,1,907.834,344.87Z" transform="translate(-730.154 -281.93)"/><ellipse class="f" cx="1.773" cy="1.202" rx="1.773" ry="1.202" transform="translate(158.246 82.275)"/><path class="h" d="M60.772,0A60.772,60.772,0,1,1,0,60.772,60.772,60.772,0,0,1,60.772,0Z" transform="translate(41.457 28.821)"/><path class="i" d="M470.884,547.663c0,9.593-15.082.819-31.251.819s-32.523,8.412-32.523-1.182c0-5.47,5.212-13.078,12.69-18.6h0c5.634-4.164,12.552-7.147,19.5-7.147,7.147,0,14.148,3.229,19.733,7.661C466.083,534.8,470.884,542.309,470.884,547.663Z" transform="translate(-336.768 -427.531)"/><path class="j" d="M510.763,529.191c-8.595-1.294-24.139-2.872-39.233-.514,5.634-4.164,12.552-7.147,19.5-7.147C498.177,521.53,505.178,524.759,510.763,529.191Z" transform="translate(-388.498 -427.515)"/><path class="k" d="M333.093,281.31s-18.306,11.7-18.157,30.01S333.093,281.31,333.093,281.31Z" transform="translate(-262.751 -234.616)"/><path class="l" d="M817.067,113.432s-16.587-1-14.63,10.624a2.825,2.825,0,0,0,1.473,2.986s.03-.861,1.7-.569a7.682,7.682,0,0,0,1.8.087,3.742,3.742,0,0,0,2.2-.91h0s4.663-1.925,6.477-9.546c0,0,1.341-1.663,1.288-2.088l-2.8,1.194a5,5,0,0,1,.2,3.7s-.091-3.623-.628-3.546c-.108.018-1.454.7-1.454.7s1.645,3.518.394,6.073c0,0,.471-4.334-.918-5.819l-1.97,1.15s1.923,3.633.619,6.6c0,0,.335-4.547-1.032-6.318L808,119.137s1.806,3.581.705,6.04c0,0-.144-5.293-1.091-5.693a10.929,10.929,0,0,0-1.8,1.944s1.237,2.6.471,3.969c0,0-.471-3.526-.857-3.546a11.736,11.736,0,0,0-1.72,3.94,8.517,8.517,0,0,1,1.341-4.162,4.673,4.673,0,0,0-2.382,1.235s.242-1.653,2.758-1.8a10.773,10.773,0,0,1,1.631-1.879,10.22,10.22,0,0,0-4.034.465s1.34-1.558,4.493-.851l1.773-1.438s-3.306-.453-4.708.047c0,0,1.613-1.379,5.183-.374l1.921-1.148a17.611,17.611,0,0,0-4.5-.394s1.773-.955,5.061.081l1.379-.617s-2.066-.406-2.671-.469-.636-.232-.636-.232a7.16,7.16,0,0,1,3.887.451A17.507,17.507,0,0,0,817.067,113.432Z" transform="translate(-654.09 -99.791)"/><path class="l" d="M763.761,87.25s-7.485-.453-6.611,4.8a1.281,1.281,0,0,0,.666,1.349s.012-.394.768-.256a3.558,3.558,0,0,0,.813.039,1.712,1.712,0,0,0,1-.412h0s2.106-.871,2.925-4.314c0,0,.607-.751.591-.944l-1.265.54a2.262,2.262,0,0,1,.093,1.67s-.041-1.637-.284-1.6c-.049,0-.658.315-.658.315a3.736,3.736,0,0,1,.183,2.744s.213-1.958-.414-2.63l-.89.52a3.936,3.936,0,0,1,.28,2.982s.15-2.055-.467-2.854l-.808.628A3.85,3.85,0,0,1,760,92.559s-.065-2.391-.495-2.573a4.938,4.938,0,0,0-.813.879s.559,1.182.213,1.795c0,0-.213-1.594-.394-1.6a5.282,5.282,0,0,0-.776,1.773,3.837,3.837,0,0,1,.6-1.881,2.11,2.11,0,0,0-1.076.557s.108-.747,1.249-.812a4.914,4.914,0,0,1,.737-.849,4.619,4.619,0,0,0-1.822.211,2.058,2.058,0,0,1,2.031-.394l.788-.648a6.841,6.841,0,0,0-2.127.02,2.586,2.586,0,0,1,2.342-.167l.867-.52a7.881,7.881,0,0,0-2.033-.175,3.118,3.118,0,0,1,2.287.037l.62-.28s-.934-.183-1.206-.211-.29-.1-.29-.1a3.229,3.229,0,0,1,1.753.2A7.925,7.925,0,0,0,763.761,87.25Z" transform="translate(-617.796 -78.776)"/><ellipse class="a" cx="5.305" cy="0.896" rx="5.305" ry="0.896" transform="translate(206.077 142.016)"/><ellipse class="a" cx="5.305" cy="0.896" rx="5.305" ry="0.896" transform="translate(3.901 156.926)"/><ellipse class="a" cx="5.305" cy="0.896" rx="5.305" ry="0.896" transform="translate(34.697 158.051)"/><ellipse class="l" cx="7.921" cy="1.34" rx="7.921" ry="1.34" transform="translate(191.85 151.178)"/><path class="l" d="M1050.9,792.517a2.311,2.311,0,0,0,.756-1.141,1.016,1.016,0,0,0-.528-1.16c-.484-.185-1,.152-1.395.491a1.87,1.87,0,0,1-1.357.654,2.063,2.063,0,0,0,.638-1.932.812.812,0,0,0-.177-.394c-.27-.288-.756-.166-1.079.061a4.021,4.021,0,0,0-1.316,3.365,6.333,6.333,0,0,1-.018-1.379,1.425,1.425,0,0,0-.52-1.227,1.575,1.575,0,0,0-.788-.185,1.639,1.639,0,0,0-1.288.364,1.267,1.267,0,0,0,.051,1.576,5.106,5.106,0,0,0,1.332,1.068,2.955,2.955,0,0,1,.953.908.949.949,0,0,1,.071.164h2.886A8.041,8.041,0,0,0,1050.9,792.517Z" transform="translate(-847.855 -642.188)"/><path class="l" d="M97.178,723.55s1.081,1.414-.5,3.546-2.886,3.94-2.364,5.271c0,0,2.386-3.967,4.334-4.025S99.313,725.936,97.178,723.55Z" transform="translate(-85.495 -589.738)"/><path class="g" d="M97.437,723.55a1.775,1.775,0,0,1,.221.443c1.9,2.226,2.9,4.3,1.083,4.355-1.7.049-3.743,3.083-4.222,3.849a1.835,1.835,0,0,0,.059.175s2.386-3.967,4.334-4.025S99.573,725.936,97.437,723.55Z" transform="translate(-85.755 -589.738)"/><path class="m" d="M118.52,731.385c0,.5-.057.9-.126.9s-.124-.394-.124-.9.069-.264.14-.264S118.52,730.886,118.52,731.385Z" transform="translate(-104.827 -595.771)"/><path class="m" d="M119.521,734.332c-.437.238-.818.382-.851.321s.3-.3.733-.54.264-.065.3,0S119.967,734.093,119.521,734.332Z" transform="translate(-105.146 -598.123)"/><path class="l" d="M70.4,723.55s-1.081,1.414.5,3.546,2.886,3.94,2.364,5.271c0,0-2.388-3.967-4.334-4.025S68.263,725.936,70.4,723.55Z" transform="translate(-64.434 -589.738)"/><path class="g" d="M70.388,723.55a1.7,1.7,0,0,0-.221.443c-1.9,2.226-2.906,4.3-1.083,4.355,1.7.049,3.743,3.083,4.22,3.849a1.814,1.814,0,0,1-.057.175s-2.388-3.967-4.334-4.025S68.251,725.936,70.388,723.55Z" transform="translate(-64.423 -589.738)"/><path class="m" d="M70.1,731.385c0,.5.055.9.124.9s.124-.394.124-.9-.069-.264-.138-.264S70.1,730.886,70.1,731.385Z" transform="translate(-66.146 -595.771)"/><path class="m" d="M65.51,734.332c.437.238.819.382.853.321s-.3-.3-.733-.54-.266-.065-.3,0S65.073,734.093,65.51,734.332Z" transform="translate(-62.247 -598.123)"/><path class="n" d="M71.85,760.723s3.026-.093,3.94-.743,4.655-1.424,4.881-.394,4.547,5.181,1.131,5.208-7.937-.534-8.847-1.087S71.85,760.723,71.85,760.723Z" transform="translate(-67.551 -618.273)"/><path class="o" d="M81.859,771.1c-3.416.028-7.937-.534-8.847-1.087-.693-.422-.969-1.936-1.062-2.636h-.1s.2,2.441,1.1,2.994,5.431,1.115,8.847,1.087c.985,0,1.326-.361,1.308-.879C82.968,770.9,82.594,771.1,81.859,771.1Z" transform="translate(-67.551 -624.934)"/><path class="i" d="M401.371,443.159c1.156-.065,6.6-.475,10.056-2.447a3.918,3.918,0,0,1,1.826-.538c1.1-.032,2.364.427,1.554,3-1.312,4.2-8.93,8.93-13.657,8.668a15.666,15.666,0,0,1-13.5-8.526,3.94,3.94,0,0,1-.487-2.027c.041-1.3.514-2.929,2.955-1.113,3.3,2.453,9.554,2.917,10.809,2.986A4.182,4.182,0,0,0,401.371,443.159Z" transform="translate(-320.747 -361.534)"/><path class="i" d="M623.371,443.159c1.156-.065,6.6-.475,10.056-2.447a3.917,3.917,0,0,1,1.826-.538c1.1-.032,2.364.427,1.554,3-1.312,4.2-8.93,8.93-13.657,8.668a15.666,15.666,0,0,1-13.5-8.526,3.94,3.94,0,0,1-.487-2.027c.041-1.3.514-2.929,2.955-1.113,3.3,2.453,9.554,2.917,10.809,2.986A4.184,4.184,0,0,0,623.371,443.159Z" transform="translate(-499.015 -361.534)"/></g></svg>