<svg xmlns="http://www.w3.org/2000/svg" width="17.547" height="19.888" viewBox="0 0 17.547 19.888"><defs><style>.a{fill:#6c757d;}</style></defs><g transform="translate(0)"><g transform="translate(7.226 0.159)"><g transform="translate(0)"><path class="a" d="M225.909,12.2,218.153,4.44A1.166,1.166,0,1,0,216.5,6.089l7.758,7.757a1.165,1.165,0,0,0,1.648-1.648Z" transform="translate(-216.163 -4.1)"/></g></g><g transform="translate(4.17 3.22)"><g transform="translate(0)"><path class="a" d="M140.315,82.9l-.058.293a12.526,12.526,0,0,1-2.762,5.6l4.22,4.22a12.484,12.484,0,0,1,5.568-2.79l.293-.058Z" transform="translate(-137.494 -82.905)"/></g></g><g transform="translate(0 9.982)"><path class="a" d="M33.532,256.989l-2.884,2.884a1.748,1.748,0,0,0,0,2.472l1.648,1.648a1.748,1.748,0,0,0,2.472,0l2.884-2.884Zm.412,4.532a.583.583,0,0,1-.824-.824l.824-.824a.583.583,0,0,1,.824.824Z" transform="translate(-30.136 -256.989)"/></g><g transform="translate(6.28 13.443)"><g transform="translate(0)"><path class="a" d="M195.482,349.928l.793-.793a1.746,1.746,0,0,0,0-2.472l-.589-.589a11.036,11.036,0,0,0-.938.709l.7.7a.581.581,0,0,1,0,.823l-.806.806-1.184-1.147-1.648,1.648,2.644,2.562a1.165,1.165,0,0,0,1.647-1.649Z" transform="translate(-191.813 -346.075)"/></g></g><g transform="translate(11.72)"><path class="a" d="M332.447,0a.582.582,0,0,0-.583.583V1.748a.583.583,0,1,0,1.165,0V.583A.582.582,0,0,0,332.447,0Z" transform="translate(-331.864)"/></g><g transform="translate(15.216 4.661)"><path class="a" d="M423.612,120h-1.165a.583.583,0,0,0,0,1.165h1.165a.583.583,0,1,0,0-1.165Z" transform="translate(-421.864 -120)"/></g><g transform="translate(14.051 1.165)"><path class="a" d="M394.024,30.17a.582.582,0,0,0-.824,0l-1.165,1.165a.583.583,0,1,0,.824.824l1.165-1.165A.582.582,0,0,0,394.024,30.17Z" transform="translate(-391.864 -30)"/></g></g></svg>