<svg xmlns="http://www.w3.org/2000/svg" width="16" height="16" viewBox="0 0 16 16"><defs><style>.a{fill:#71b6f9;}</style></defs><path class="a" d="M14.286,32H1.714A1.715,1.715,0,0,0,0,33.714V46.286A1.715,1.715,0,0,0,1.714,48H14.286A1.715,1.715,0,0,0,16,46.286V33.714A1.715,1.715,0,0,0,14.286,32ZM5.714,44a.571.571,0,0,1-.571.571H4A.571.571,0,0,1,3.429,44V39.429A.571.571,0,0,1,4,38.857H5.143a.571.571,0,0,1,.571.571Zm3.429,0a.571.571,0,0,1-.571.571H7.429A.571.571,0,0,1,6.857,44V36a.571.571,0,0,1,.571-.571H8.571A.571.571,0,0,1,9.143,36Zm3.429,0a.571.571,0,0,1-.571.571H10.857A.571.571,0,0,1,10.286,44V41.714a.571.571,0,0,1,.571-.571H12a.571.571,0,0,1,.571.571Z" transform="translate(0 -32)"/></svg>