<svg xmlns="http://www.w3.org/2000/svg" width="18" height="15.75" viewBox="0 0 18 15.75"><defs><style>.a{fill:#fff;}</style></defs><path class="a" d="M17.753,43.5a.844.844,0,0,1,0,1.193L14.94,47.5a.844.844,0,0,1-1.44-.6V45.5H11.433a.422.422,0,0,1-.308-.134L8.644,42.708,10.519,40.7l1.856,1.988H13.5V41.282a.844.844,0,0,1,1.44-.6ZM.422,37.063H3.375l1.856,1.988,1.875-2.009-2.48-2.658a.422.422,0,0,0-.308-.134H.422A.422.422,0,0,0,0,34.672v1.969A.422.422,0,0,0,.422,37.063Zm13.078,0v1.406a.844.844,0,0,0,1.44.6l2.812-2.812a.844.844,0,0,0,0-1.193L14.94,32.248a.844.844,0,0,0-1.44.6V34.25H11.433a.422.422,0,0,0-.308.134l-7.75,8.3H.422A.422.422,0,0,0,0,43.109v1.969a.422.422,0,0,0,.422.422H4.317a.422.422,0,0,0,.308-.134l7.75-8.3Z" transform="translate(0 -32)"/></svg>