<svg xmlns="http://www.w3.org/2000/svg" xmlns:xlink="http://www.w3.org/1999/xlink" width="279.738" height="159.54" viewBox="0 0 279.738 159.54"><defs><style>.a{fill:#bbb;}.a,.b,.g,.i,.t{opacity:0.1;}.b,.k,.m{fill:#fff;}.c{fill:url(#a);}.d{fill:#be6f72;}.e{fill:#3f3d56;}.f{fill:#65617d;}.h{fill:#e3e8f4;}.j{fill:#fff67a;}.k{opacity:0.3;}.l{opacity:0.04;}.m{opacity:0.22;}.n{fill:#f8d33f;}.o{fill:url(#b);}.p{fill:#f86d70;}.q{fill:#fbbebe;}.r{fill:#444053;}.s{fill:#e8e8f0;}.t,.u{fill:#af6eeb;}</style><linearGradient id="a" x1="0.5" y1="1" x2="0.5" gradientUnits="objectBoundingBox"><stop offset="0" stop-color="gray" stop-opacity="0.251"/><stop offset="0.54" stop-color="gray" stop-opacity="0.122"/><stop offset="1" stop-color="gray" stop-opacity="0.102"/></linearGradient><linearGradient id="b" x1="0" y1="0.5" x2="1" y2="0.5" xlink:href="#a"/></defs><g transform="translate(0.02 0)"><path class="a" d="M196.962,265.636c5.4-.308,12.109-3.973,17.322-5.595q9.255-2.871,18.584-5.524,32.475-9.241,65.647-15.747,3.1-.609,6.2-1.188a43.894,43.894,0,0,0-14.49-17.4,44.524,44.524,0,0,0,.245-4.592c0-24.242-19.373-43.894-43.28-43.894a42.591,42.591,0,0,0-21,5.514c-16.921-11.131-39.006-17.867-63.17-17.867-34.336,0-64.478,13.6-81.558,34.086l80.272,13.561,49.232,8.314c-56.125,1.675-112.424,3.34-168.387-.592a44.361,44.361,0,0,0-6.387,56h0c0,.878.037,1.748.1,2.611,1.426.408,2.8.8,4.037,1.064q29.736,6.282,59.854,10.514c-14.8,9.123-32.815,10.414-49.882,14.278a50.017,50.017,0,0,0,31.856,11H266.309c19.941,0,36.1-13.881,36.1-31.008h0a44.059,44.059,0,0,0,5.869-16.112C271.382,266.619,234.024,263.526,196.962,265.636Z" transform="translate(-28.815 -150.635)"/><path class="b" d="M307.717,254.327a44.014,44.014,0,0,0-18.584-36.047,45.155,45.155,0,0,0,.245-4.59c0-24.242-19.383-43.887-43.28-43.887a42.615,42.615,0,0,0-21.007,5.512c-16.921-11.135-39.008-17.875-63.172-17.875-39.3,0-73.136,17.838-88.14,43.417-.834-.049-1.673-.076-2.519-.076-23.9,0-43.28,19.652-43.28,43.894A44.143,44.143,0,0,0,35.1,268.8h0c0,21.811,20.586,39.493,45.97,39.493H265.229c19.938,0,36.1-13.884,36.1-31.01h0a44.141,44.141,0,0,0,6.387-22.958Z" transform="translate(-28 -149.199)"/><path class="c" d="M769.991,279.424a2.723,2.723,0,0,0-1.193-.523c-.457-.105-.924-.171-1.389-.245l-6.02-.868a7.091,7.091,0,0,0-1.844-.1,2.34,2.34,0,0,0-1.6.831,1.25,1.25,0,0,0-.279.782,2.063,2.063,0,0,0,.274.812,2.714,2.714,0,0,1,.149.359,8.223,8.223,0,0,0,.215.819.694.694,0,0,0,.1.161.263.263,0,0,1,0,.042c-.066.337.147.69.051,1.015-.083.279-.355.447-.526.68a1.022,1.022,0,0,0-.024,1.127c.183.284.516.477.611.8.125.428-.213.841-.513,1.171a18.161,18.161,0,0,0-1.531,1.929,1.2,1.2,0,0,0-.245.575c-.027.425.381.8.311,1.223-.056.333-.381.536-.663.734a4.124,4.124,0,0,0-1.956,3.03,10.613,10.613,0,0,0-2.367-5.379,3.847,3.847,0,0,1-.878-1.377c-.054-.213-.064-.44-.137-.646-.245-.648-1.022-.927-1.362-1.523-.245-.421-.245-.961-.548-1.33s-.78-.452-1.042-.809a5.185,5.185,0,0,1-.333-.753,1.646,1.646,0,0,0-.452-.543,1.3,1.3,0,0,0-.112-.081.389.389,0,0,0,.13-.289c0-.286-.284-.474-.531-.616-.318-.181-.628-.377-.932-.58a2.178,2.178,0,0,0,.834-.682,2.242,2.242,0,0,0,.318-1.467,1.851,1.851,0,0,0-.438-1.122c-.154-.164-.347-.281-.509-.435a3.569,3.569,0,0,1-.734-1.57,3.194,3.194,0,0,0-1.259-1.893c-.323-.188-.7-.276-1.015-.474a.886.886,0,0,1-.469-.932c.073-.245.3-.413.455-.621a1.237,1.237,0,0,0-.311-1.712c-.181-.115-.4-.215-.44-.425a.778.778,0,0,1-.567-.6,2.317,2.317,0,0,1,0-.871q.1-.682.188-1.36a.885.885,0,0,0,.68,0,5.988,5.988,0,0,0,.734.959,9.578,9.578,0,0,1,1.712,2.971,1.789,1.789,0,0,0,.643,1.037c.125.071.267.108.389.183a1.452,1.452,0,0,1,.381.391c.293.389.587.775.878,1.164l.015.059a.343.343,0,0,0,.039.1.325.325,0,0,0,.21.108,3.564,3.564,0,0,0,2.69-.093c.7-.44,1.012-1.311,1.609-1.893.423-.413,1.022-.734,1.142-1.316a4.319,4.319,0,0,1-.421-.154c.122-.122.245-.264.411-.425a5.178,5.178,0,0,0,.65-.775,5,5,0,0,0,.489-1.1q.707-2.015,1.418-4.032c.225-.636.45-1.276.734-1.9.293-.67.641-1.313.961-1.971a26.164,26.164,0,0,0,1.9-5.355,1.956,1.956,0,0,0,.076-.78,2.057,2.057,0,0,0-.694-1.056,5.1,5.1,0,0,0-1.042-.863,1.712,1.712,0,0,0-1.306-.21,1.887,1.887,0,0,0-1.164,1.467,15.393,15.393,0,0,0-.152,1.956c-.088.941-.411,1.851-.489,2.795-.042.545,0,1.1-.066,1.643a6,6,0,0,1-.734,2.025,13.106,13.106,0,0,1-3.162,3.9c-.149.125-.3.245-.45.379a2.328,2.328,0,0,1,.032-.318,1.919,1.919,0,0,0-.311.11.931.931,0,0,0-.037-.367c-.2-.584-1.066-.734-1.223-1.328a2.714,2.714,0,0,1-.042-.445,11.326,11.326,0,0,0-.528-1.467,6.267,6.267,0,0,0-.245-1.411,3.947,3.947,0,0,0-.65-.734,2.879,2.879,0,0,1-.619-1.166c-.032-.12-.061-.245-.1-.364a1.667,1.667,0,0,0-.088-.8c-.223-.553-.8-.907-1.005-1.467-.161-.435-.09-.978-.4-1.316a1.431,1.431,0,0,0-.58-.35,12.893,12.893,0,0,0-3.489-.824,2.971,2.971,0,0,1-1.888-.567c-.56-.548-.587-1.533-1.242-1.956a1.484,1.484,0,0,0-1.841.428,2.331,2.331,0,0,0-.186.245,2.617,2.617,0,0,1-.051-1c0-.083.017-.169.024-.245a4.89,4.89,0,0,0,2.651-2.093v.015l.029.076c.071.178.183.35.35.369h0a.489.489,0,0,0,.3-.11,2.511,2.511,0,0,0,.406-.352q.093-.1.176-.213a2.77,2.77,0,0,0,.289-.489,2.909,2.909,0,0,0,.245-.819c.044-.284.049-.575.1-.858a5.278,5.278,0,0,1,.178-.648c.024-.071.049-.142.071-.213s.054-.166.078-.245a5.663,5.663,0,0,0,.245-1.55v-.264a2.58,2.58,0,0,0-.822-1.822c-.421-.345-.978-.489-1.286-.956a4.548,4.548,0,0,1-.362-1.083,2.445,2.445,0,0,0-1.922-1.729,2.14,2.14,0,0,0-1.521.418h0l-.034.027h0a2.445,2.445,0,0,0-.606.675,2.017,2.017,0,0,1-.861-.489c-.245-.227-.433-.514-.68-.734a1.748,1.748,0,0,0-1.741-.367,2.081,2.081,0,0,0-1.245,1.426,4.97,4.97,0,0,1-.391,1.5c-.218.328-.575.489-.824.787a1.482,1.482,0,0,0-.308.653h0a1.77,1.77,0,0,0-.042.408h0a.745.745,0,0,0,.015.181v.029a1.3,1.3,0,0,0,.042.2h0a1.712,1.712,0,0,0,.364.67,1.609,1.609,0,0,0,.589.425,2.381,2.381,0,0,0,.284.09l.291.066.1.024a4.876,4.876,0,0,0-.137,4.306,1.963,1.963,0,0,1-.024.205,16.908,16.908,0,0,0,.127,2.883,1.547,1.547,0,0,1-.178,1.1,2.084,2.084,0,0,1-.355.315c.132-.171.266-.34.4-.509a1.744,1.744,0,0,0-1.379-.357,6.39,6.39,0,0,0-2.69.822,3.011,3.011,0,0,1-1.736.66c-.369-.042-.734-.245-1.093-.147a2.215,2.215,0,0,0-.56.333.758.758,0,0,1-.46.142,9.927,9.927,0,0,0-1.438-1.176,11.329,11.329,0,0,1-1.43-1.533c-.792-.956-1.582-1.915-2.36-2.88A5.547,5.547,0,0,1,714.443,244a2.667,2.667,0,0,1-.017-.311,7.9,7.9,0,0,1,.186-1.467.734.734,0,0,0,0-.355c-.073-.245-.355-.335-.6-.389h0c.032-.188.054-.381.066-.565a42.858,42.858,0,0,1,.433-6.3,4.281,4.281,0,0,1,1.015-2.169c.893-.9,2.387-1.12,3.071-2.188a2.5,2.5,0,0,0-.374-2.934,3.7,3.7,0,0,0-2.88-1.066,1.487,1.487,0,0,0-.839.225,1.783,1.783,0,0,0-.509.773l-1.049,2.55a15.42,15.42,0,0,0-.768,2.049c-.293,1.071-.359,2.2-.592,3.281a8.534,8.534,0,0,1-.829,2.633c-.328.861-.682,1.712-.978,2.589-.073.22-.33.873-.489,1.467a.9.9,0,0,0-.166.125,4.419,4.419,0,0,0-.347.516c-.223.293-.584.45-.829.734s-.3.8.044.946a1,1,0,0,0,.213.046.694.694,0,0,1,.589.968c-.054.381-.245.734-.276,1.115a3.009,3.009,0,0,0,.712,1.871,16.128,16.128,0,0,0,1.306,1.758c.345.386.734.734,1.081,1.105,1.323,1.36,2.374,2.949,3.563,4.426a9.811,9.811,0,0,0,1.45,1.521,10.928,10.928,0,0,0,1.1.756l2.044,1.3a2.24,2.24,0,0,0,.773.364,1.029,1.029,0,0,0,.274,0c.012.061.022.12.037.181a10.766,10.766,0,0,1,.548,1.875c.039.653-.02,1.32.027,1.981.044.609.178,1.223.213,1.822a11.707,11.707,0,0,1-.489,3.423,20.415,20.415,0,0,1-1.467,4.839,2.846,2.846,0,0,0-.489,1.306.677.677,0,0,0,.015.171h0l-.367.208c-.108.061-.215.122-.313.186a2.617,2.617,0,0,0-1.152,1.161c-.154.423-.083.907-.269,1.318a.58.58,0,0,1-.029.054c-.2.381-.584.665-.672,1.083h0c-.066.32.061.66,0,.978v.012a3.527,3.527,0,0,0-.132.489.583.583,0,0,0,.015.161.932.932,0,0,0,.293.477,1.958,1.958,0,0,0,.286.227q.157.1.323.191l.064.034c.093.049.186.1.281.139l.064.027c.11.049.223.093.335.132l.078.024c.088.029.178.056.269.078l.061.02.056.012.245.051.09.017q.161.027.33.044h.1c.083,0,.164.012.245.015h.447a2.737,2.737,0,0,0,.345-.032h.037c.1-.015.205-.032.308-.054l.078-.017c.1-.022.191-.044.286-.073l.051-.015c.115-.034.23-.071.342-.115a8.986,8.986,0,0,0,1.13-.56c.245-.134.489-.271.734-.4a5.7,5.7,0,0,1,.557-.245,3.147,3.147,0,0,1,1.467-.245,5.745,5.745,0,0,1,.734.149q0,.04,0,.081.3,1.761.589,3.521a7.172,7.172,0,0,1,1.012-.609,2.249,2.249,0,0,0-.13.55,2.176,2.176,0,0,0,0,.438.95.95,0,0,1-.068.672c-.086.112-.245.176-.291.3a1.035,1.035,0,0,0-.024.4.636.636,0,0,1-.582.592.929.929,0,0,1-.369,1.091,1.292,1.292,0,0,0-.284.186.846.846,0,0,0-.164.369,6.533,6.533,0,0,1-1.915,3.147,6.162,6.162,0,0,0-.946.924,4.211,4.211,0,0,0-.428.844q-.978,2.391-1.986,4.785a10.618,10.618,0,0,0-.851,2.761c-.293,2.636-2.641,4.871-2.2,7.487a3.668,3.668,0,0,0,.763,1.787,4.5,4.5,0,0,0,1.956,1.2,35.612,35.612,0,0,0,5.854,1.538l3.11.638a13.6,13.6,0,0,0,1.853.293,12.132,12.132,0,0,1,2.252.171,6.994,6.994,0,0,0,1.352.359c.4.022.895-.064,1.132.264s.054.76.279,1.051c.362.462,1.245,0,1.638.435a2.026,2.026,0,0,1,.245.54.979.979,0,0,0,.245.308,2.068,2.068,0,0,1,.029.418,7.208,7.208,0,0,1-.352,1.668q-.44,1.489-.878,2.981a6.606,6.606,0,0,0-.245,1.076,2.585,2.585,0,0,0,0,.533,1.464,1.464,0,0,0,.878,1.274,1.609,1.609,0,0,0,1.188-.147,5.251,5.251,0,0,0,.978-.66,6.678,6.678,0,0,0,1.411-1.452c1.223-1.829.826-4.3,1.685-6.326.57-1.35,1.68-2.445,2.049-3.868a1.548,1.548,0,0,0,.029-.836,1.733,1.733,0,0,0-1.161-.944h-.022a10.031,10.031,0,0,0-1.223-.35c-.1-.022-.208-.039-.313-.056a1.919,1.919,0,0,1-.54-.7,1.641,1.641,0,0,0-.115-.423.44.44,0,0,0-.352-.2c-.245-.024-.572.064-.839.044-.545-.039-.907-.575-1.4-.822a2.851,2.851,0,0,0-1.541-.149,1.426,1.426,0,0,1-.557-.034,2.1,2.1,0,0,1-.587-.4,2.46,2.46,0,0,0-2.154-.433,2.348,2.348,0,0,1-.734.166c-.477-.027-.814-.452-1.166-.775-.963-.883-2.335-1.115-3.5-1.695a.8.8,0,0,1-.421-.362c-.134-.333.169-.665.443-.892l2.01-1.67c2.2-1.829,4.952-3.206,5.974-5.888a3.407,3.407,0,0,1,.489-1.005,1.362,1.362,0,0,1,.271-.245,2.054,2.054,0,0,1,1.5-.293,5.078,5.078,0,0,1,1.77.773q1.313.795,2.555,1.712a22.6,22.6,0,0,1,2.335,1.917c1.284,1.223,2.352,2.673,3.548,3.991a11.4,11.4,0,0,0,4.223,3.179,5.435,5.435,0,0,0,5.093-.455c1.646-1.223,2.174-3.409,2.589-5.414.917-.885,1.193-2.232,1.641-3.423.281-.756.641-1.467.944-2.22.362-.885.646-1.8.929-2.712a13.042,13.042,0,0,0,.65-2.829c.117-1.523-.291-3.145.137-4.575a16.878,16.878,0,0,0,1.633-.628,8.093,8.093,0,0,1,2.587-.223h.056a1.335,1.335,0,0,0,.861-.2,1.37,1.37,0,0,0,.355-1.042A3.179,3.179,0,0,0,769.991,279.424Zm-35.429-41.71a1.816,1.816,0,0,1-.619.044Z" transform="translate(-541.555 -201.189)"/><path class="d" d="M793.342,314.4a2.689,2.689,0,0,1-1.017.54l-1.734.621a6.459,6.459,0,0,1-2.917.555c-.555-.068-2.934-.418-3.294-.851-.548-.67,1.372-1.655,2.027-2.22a2.776,2.776,0,0,0,.411-.362,1.474,1.474,0,0,0,.178-1.093,16.876,16.876,0,0,1-.127-2.878,5.814,5.814,0,0,1,.1-.682c.245-1.125,1.291-.714,2.117-.416a16.558,16.558,0,0,1,2.873,1.245,2.061,2.061,0,0,1,.709.6,3.057,3.057,0,0,1,.159,1.956,1.832,1.832,0,0,0,.286,1.438,3.7,3.7,0,0,1,.462.489A.917.917,0,0,1,793.342,314.4Z" transform="translate(-599.371 -262.406)"/><path class="d" d="M715.932,237.018c.245-1.083.3-2.2.592-3.274a15.336,15.336,0,0,1,.768-2.042l1.078-2.516a1.775,1.775,0,0,1,.509-.77,1.506,1.506,0,0,1,.839-.225,3.737,3.737,0,0,1,2.88,1.064,2.469,2.469,0,0,1,.374,2.917c-.685,1.069-2.179,1.284-3.071,2.184a4.276,4.276,0,0,0-1.015,2.164,42.643,42.643,0,0,0-.433,6.282,2.083,2.083,0,0,1-.734,1.736,2.139,2.139,0,0,1-1.1.213l-1.6.027c-.269,0-1.245.169-1.423-.034-.313-.355.4-2.12.531-2.514.289-.873.643-1.724.978-2.582A8.587,8.587,0,0,0,715.932,237.018Z" transform="translate(-545.91 -202.647)"/><path class="e" d="M833.5,571.647c-.369,1.413-1.479,2.514-2.049,3.861-.858,2.017-.472,4.485-1.685,6.309a6.664,6.664,0,0,1-1.411,1.455,5.237,5.237,0,0,1-.978.658,1.609,1.609,0,0,1-1.188.147,1.463,1.463,0,0,1-.878-1.272,2.561,2.561,0,0,1,0-.531,6.583,6.583,0,0,1,.245-1.073q.44-1.484.878-2.973a7.2,7.2,0,0,0,.352-1.663c.032-.616-.359-1.418-.193-1.993.076-.259.359-.489.489-.707a4.093,4.093,0,0,0,.421-1,6.216,6.216,0,0,1,.758-1.985,4.658,4.658,0,0,1,.954-.893,2.528,2.528,0,0,1,.91-.511,2.228,2.228,0,0,1,.978.046,9.6,9.6,0,0,1,1.223.347h.022a1.712,1.712,0,0,1,1.161.941A1.538,1.538,0,0,1,833.5,571.647Z" transform="translate(-630.354 -460.458)"/><path class="e" d="M924.89,442.165a1.355,1.355,0,0,1-.355,1.039,1.335,1.335,0,0,1-.861.2h-.066a8.241,8.241,0,0,0-2.587.223,9.782,9.782,0,0,1-1.861.665,4.54,4.54,0,0,1-2.55-.822,25.372,25.372,0,0,0-2.316-1.1c-.518-.213-1.577-.35-1.827-.917a8.355,8.355,0,0,1-.215-.817,2.7,2.7,0,0,0-.149-.359,2.066,2.066,0,0,1-.274-.809,1.249,1.249,0,0,1,.279-.782,2.345,2.345,0,0,1,1.6-.824,7.091,7.091,0,0,1,1.844.1l6.02.866a14.1,14.1,0,0,1,1.389.245,2.724,2.724,0,0,1,1.193.523A3.091,3.091,0,0,1,924.89,442.165Z" transform="translate(-695.73 -361.038)"/><path class="f" d="M794.675,450.239c-.734,1.548-.205,3.379-.337,5.091a12.976,12.976,0,0,1-.65,2.822c-.284.91-.567,1.822-.929,2.7-.3.734-.663,1.467-.944,2.215a8.889,8.889,0,0,1-1.641,3.423c-.416,2-.944,4.186-2.589,5.4a5.42,5.42,0,0,1-5.093.455,11.4,11.4,0,0,1-4.223-3.179c-1.2-1.318-2.264-2.753-3.548-3.981a22.244,22.244,0,0,0-2.34-1.915q-1.242-.9-2.555-1.7a5.117,5.117,0,0,0-1.77-.77,2.054,2.054,0,0,0-1.5.293,1.364,1.364,0,0,0-.271.245,3.366,3.366,0,0,0-.489,1c-1.027,2.675-3.783,4.049-5.983,5.873l-2.01,1.665c-.274.227-.577.56-.443.89a.8.8,0,0,0,.421.362c1.169.577,2.541.809,3.5,1.69.352.323.69.748,1.166.773a2.342,2.342,0,0,0,.734-.164,2.467,2.467,0,0,1,2.154.43,2.1,2.1,0,0,0,.587.4,1.425,1.425,0,0,0,.558.034,2.976,2.976,0,0,1,1.54.149c.467.232.851.78,1.4.819.266.02.584-.068.839-.044a.44.44,0,0,1,.352.2,1.619,1.619,0,0,1,.115.421c.1.345.438.555.658.839a2.317,2.317,0,0,1,.352,1.577,6.729,6.729,0,0,1-2.142,4.5,2.651,2.651,0,0,1-1.318.734,1.223,1.223,0,0,1-1.306-.58,2.01,2.01,0,0,0-.245-.538c-.394-.433-1.276.027-1.638-.435-.225-.289-.064-.751-.279-1.049s-.734-.245-1.132-.262a7.173,7.173,0,0,1-1.352-.359,12.149,12.149,0,0,0-2.252-.171,13.593,13.593,0,0,1-1.853-.293l-3.11-.636a36.861,36.861,0,0,1-5.854-1.533,4.711,4.711,0,0,1-1.956-1.2,3.669,3.669,0,0,1-.763-1.785c-.443-2.609,1.9-4.839,2.2-7.468a10.477,10.477,0,0,1,.851-2.753q1-2.387,1.985-4.776a4.254,4.254,0,0,1,.416-.846,6.142,6.142,0,0,1,.946-.922,6.511,6.511,0,0,0,1.915-3.14.846.846,0,0,1,.164-.369,1.373,1.373,0,0,1,.284-.183.929.929,0,0,0,.369-1.088.636.636,0,0,0,.582-.592,1.021,1.021,0,0,1,.024-.4c.059-.127.205-.191.291-.3a.945.945,0,0,0,.068-.67,2.176,2.176,0,0,1,0-.438,2.247,2.247,0,0,1,.655-1.367c.584-.575,1.416-.425,2.223-.562a12.728,12.728,0,0,0,2.347-.751,23.061,23.061,0,0,1,6.629-1.533,14.473,14.473,0,0,1,6.695,1.066,3.807,3.807,0,0,1,.863.489,1.637,1.637,0,0,1,.452.54,5.032,5.032,0,0,0,.333.751c.262.357.756.472,1.042.809s.311.907.548,1.325c.34.6,1.127.873,1.362,1.521.073.205.083.43.137.643a3.677,3.677,0,0,0,.878,1.374,10.566,10.566,0,0,1,2.367,5.379,4.092,4.092,0,0,1,1.956-3.022c.281-.183.606-.386.663-.719.071-.421-.337-.795-.311-1.223a1.2,1.2,0,0,1,.245-.572,18.092,18.092,0,0,1,1.531-1.924c.3-.33.638-.734.513-1.169-.1-.325-.428-.516-.611-.8a1.017,1.017,0,0,1,.024-1.125c.171-.232.443-.4.526-.677.1-.325-.117-.677-.051-1.012a1.252,1.252,0,0,1,.5-.653,3.08,3.08,0,0,1,3.142-.778c1.144.159,2.428.4,3.074,1.362A2.32,2.32,0,0,1,794.675,450.239Z" transform="translate(-570.807 -367.546)"/><path class="g" d="M924.867,442.165a1.355,1.355,0,0,1-.355,1.039,1.335,1.335,0,0,1-.861.2h-.066c.1-.509.719-.8.826-1.316a1.164,1.164,0,0,0-.269-.888,4.408,4.408,0,0,0-2.2-1.384,14.579,14.579,0,0,0-7.35-.55,7.4,7.4,0,0,0-1.932.594,6.294,6.294,0,0,0-.587.416,2.067,2.067,0,0,1-.274-.809,1.25,1.25,0,0,1,.279-.782,2.345,2.345,0,0,1,1.6-.824,7.091,7.091,0,0,1,1.844.1l6.02.866c.465.066.932.132,1.389.245a2.723,2.723,0,0,1,1.193.523A3.07,3.07,0,0,1,924.867,442.165Z" transform="translate(-695.707 -361.038)"/><path class="g" d="M833.5,572.99c-.369,1.413-1.479,2.514-2.049,3.861-.858,2.017-.472,4.484-1.685,6.309a6.666,6.666,0,0,1-1.411,1.455,5.24,5.24,0,0,1-.978.658,1.609,1.609,0,0,1-1.188.147,1.463,1.463,0,0,1-.878-1.271,2.561,2.561,0,0,1,0-.531l.015.039c.213.513.56,1.051,1.108,1.142a1.5,1.5,0,0,0,1.13-.4,6.983,6.983,0,0,0,1.724-2.545,10.588,10.588,0,0,0,.827-2.11c.1-.416.144-.841.245-1.257.465-2.02,2.047-3.668,2.4-5.714a1.4,1.4,0,0,0,.02-.428,2.162,2.162,0,0,0-.21-.533,2.643,2.643,0,0,1-.186-.592,1.712,1.712,0,0,1,1.161.941,1.538,1.538,0,0,1-.039.829Z" transform="translate(-630.354 -461.801)"/><path class="g" d="M796.127,519.963a3.543,3.543,0,0,1-1.1,1.506,5.38,5.38,0,0,1-2.374,1.027,2.362,2.362,0,0,1-1.223-.015c-.543-.188-.934-.7-1.489-.844a10.192,10.192,0,0,0-1.223-.071,4.339,4.339,0,0,1-1.863-1.091c-1.783-1.34-4.123-1.773-5.905-3.113a.548.548,0,0,1-.191-.2.588.588,0,0,1-.037-.276,5.623,5.623,0,0,1,.536-2.35,8.2,8.2,0,0,1,1.007-1.435,43.547,43.547,0,0,1,5.113-5.578,7.747,7.747,0,0,1,2.69-1.651,4.032,4.032,0,0,1,2.357-.044,1.362,1.362,0,0,0-.271.245,3.363,3.363,0,0,0-.489,1c-1.029,2.678-3.785,4.052-5.986,5.876l-2.01,1.665c-.274.227-.577.56-.443.89a.8.8,0,0,0,.421.362c1.169.577,2.541.809,3.5,1.69.352.323.69.748,1.166.773a2.342,2.342,0,0,0,.734-.164,2.467,2.467,0,0,1,2.154.43,2.1,2.1,0,0,0,.587.4,1.425,1.425,0,0,0,.558.034,2.976,2.976,0,0,1,1.54.149c.467.232.851.78,1.4.819C795.555,520.026,795.873,519.933,796.127,519.963Z" transform="translate(-596.676 -412.28)"/><path class="e" d="M744.785,400.772a2.6,2.6,0,0,0-1.149,1.154c-.157.423-.083.907-.271,1.318s-.611.7-.7,1.137c-.066.32.064.658,0,.978a4.2,4.2,0,0,0-.135.509c-.024.364.289.66.594.863a4.964,4.964,0,0,0,4.443.489,20.061,20.061,0,0,0,1.868-.956,3.7,3.7,0,0,1,2.012-.489c.4.044.79.191,1.193.245a1.252,1.252,0,0,0,1.117-.333,1.394,1.394,0,0,0,.245-.579,8.66,8.66,0,0,0-.137-4.115c-.323-1.35-.812-2.648-1.157-3.991a18.31,18.31,0,0,0-.841-2.956,3.879,3.879,0,0,0-2.056-2.176.384.384,0,0,0-.245-.032.416.416,0,0,0-.159.117,7.519,7.519,0,0,0-1.677,2.822c-.384,1.171-.489,2.413-.841,3.59a3.676,3.676,0,0,1-.734,1.518A8.381,8.381,0,0,1,744.785,400.772Z" transform="translate(-567.823 -326.276)"/><path class="g" d="M754.021,405.046a1.425,1.425,0,0,1-.257.579,1.24,1.24,0,0,1-1.117.33c-.4-.049-.787-.2-1.191-.245a3.687,3.687,0,0,0-2.012.489c-.626.313-1.223.7-1.871.954a4.937,4.937,0,0,1-2.966.169,4.786,4.786,0,0,1-1.467-.646,1.052,1.052,0,0,1-.594-.863,4.188,4.188,0,0,1,.135-.506c.064-.32-.064-.658,0-.978.093-.44.518-.734.7-1.139s.115-.892.269-1.316a2.607,2.607,0,0,1,1.152-1.157,8.785,8.785,0,0,0,1.389-.895,1.383,1.383,0,0,0,.13-.181,4.4,4.4,0,0,0,.582-1.347c.359-1.179.457-2.418.839-3.592a7.533,7.533,0,0,1,1.68-2.819.369.369,0,0,1,.156-.117.391.391,0,0,1,.245.029,3.907,3.907,0,0,1,2.056,2.179,19.247,19.247,0,0,1,.841,2.954c.342,1.342.834,2.646,1.157,3.993A8.7,8.7,0,0,1,754.021,405.046Z" transform="translate(-567.838 -326.221)"/><path class="g" d="M800.817,311.431a4.89,4.89,0,0,1-5.957-2.69,5.789,5.789,0,0,1,.1-.682c.244-1.125,1.291-.714,2.117-.416a16.561,16.561,0,0,1,2.873,1.245,2.062,2.062,0,0,1,.709.6A3.013,3.013,0,0,1,800.817,311.431Z" transform="translate(-607.362 -262.429)"/><circle class="d" cx="4.89" cy="4.89" r="4.89" transform="translate(187.088 39.207)"/><path class="g" d="M807.427,448.209c0,.406-.55.535-.959.513a30.964,30.964,0,0,0-4.355-.367c-1.836.166-3.524,1.181-5.365,1.274a16.259,16.259,0,0,0-2.13.061c-.9.169-1.712.719-2.633.8-.8.068-1.589-.232-2.389-.2a3.839,3.839,0,0,0-1.6.455,2.247,2.247,0,0,1,.655-1.367c.584-.575,1.416-.425,2.223-.562a12.734,12.734,0,0,0,2.347-.751,23.061,23.061,0,0,1,6.629-1.533,14.473,14.473,0,0,1,6.693,1.059,3.806,3.806,0,0,1,.863.489A.384.384,0,0,1,807.427,448.209Z" transform="translate(-602.179 -367.566)"/><path class="h" d="M779.362,333.365l-1.981-.734-.836-.308a4.043,4.043,0,0,0-1.066-.284,2.714,2.714,0,0,0-2.372,1.379,7.45,7.45,0,0,0-.868,2.731q-.337,1.942-.572,3.9a25.458,25.458,0,0,0-.257,3.555,42.118,42.118,0,0,0,1.4,8.959,31.506,31.506,0,0,1,.78,3.973c.059.553.086,1.108.144,1.663.064.624.166,1.24.269,1.858l.589,3.514a4.645,4.645,0,0,1,2.47-1c.8-.029,1.592.269,2.389.2a27.283,27.283,0,0,0,2.634-.795,15.87,15.87,0,0,1,2.132-.061c1.839-.093,3.528-1.11,5.362-1.274a29.455,29.455,0,0,1,4.357.364c.406.024.956-.105.956-.513,0-.284-.284-.472-.531-.614a26.167,26.167,0,0,1-3.313-2.365,11.186,11.186,0,0,1-2.6-2.577c-1.6-2.482-1.049-5.839-2.411-8.458-1.108-2.127,0-4.915,0-7.314a11.125,11.125,0,0,0-.937-5.475l-.951-2.409a.394.394,0,0,0-.112-.183.374.374,0,0,0-.218-.066,2.294,2.294,0,0,0-1.58.506c-.447.364-.734.888-1.174,1.267A1.786,1.786,0,0,1,779.362,333.365Z" transform="translate(-589.646 -280.338)"/><path class="e" d="M809.445,327.232a4.338,4.338,0,0,1,.773-1.89,1.486,1.486,0,0,1,1.841-.425c.655.425.682,1.408,1.242,1.956a3.013,3.013,0,0,0,1.888.567,12.8,12.8,0,0,1,3.489.822,1.426,1.426,0,0,1,.58.347c.306.347.244.88.4,1.313.208.558.782.912,1.005,1.467a2.926,2.926,0,0,1-.205,1.939c-.369,1.137-.6,2.318-.961,3.46a7.7,7.7,0,0,1-1.712,3.127c-.372.381-.924.734-1.413.506l-.188,1.357a2.306,2.306,0,0,0,0,.868.778.778,0,0,0,.567.6c.037.21.259.311.44.425a1.223,1.223,0,0,1,.311,1.712c-.154.208-.381.372-.455.619a.879.879,0,0,0,.469.929c.318.2.692.286,1.015.474a3.156,3.156,0,0,1,1.259,1.885,3.494,3.494,0,0,0,.734,1.567c.161.154.355.271.509.433a1.856,1.856,0,0,1,.438,1.122,2.227,2.227,0,0,1-.318,1.467,4.431,4.431,0,0,1-2.2,1.223,18.543,18.543,0,0,0-3.511,2.3,3.746,3.746,0,0,1-1.6.753,14.029,14.029,0,0,1-2.369-.276,5.882,5.882,0,0,0-1.413.186l-1.467.318a9.512,9.512,0,0,0-.9-3.36,16.7,16.7,0,0,1-.626-6.358,49.8,49.8,0,0,1,1.022-6.343,40.443,40.443,0,0,1,.734-4.426,29.158,29.158,0,0,0,1.279-4.118C810.468,331.47,808.922,329.511,809.445,327.232Z" transform="translate(-616.533 -275.594)"/><path class="e" d="M851,352.337a2.691,2.691,0,0,1,.281.795,2.868,2.868,0,0,0,.619,1.164,4.009,4.009,0,0,1,.65.734,5.481,5.481,0,0,1,.245,1.408,11.308,11.308,0,0,1,.528,1.467,2.687,2.687,0,0,0,.042.445c.159.592,1.029.734,1.223,1.325.13.384-.093.8-.051,1.206a1.061,1.061,0,0,1,.022.381.775.775,0,0,1-.279.357,5.624,5.624,0,0,0-1.609,2.863,16.307,16.307,0,0,0-.369,3.308l-.956-1.264a1.453,1.453,0,0,0-.381-.391c-.122-.073-.264-.11-.389-.183a1.769,1.769,0,0,1-.643-1.032,9.535,9.535,0,0,0-1.712-2.964,3.235,3.235,0,0,1-.927-1.511,2.783,2.783,0,0,1,.044-.817,13.925,13.925,0,0,1,1.286-4.663c.364-.665.836-1.267,1.186-1.942C850.043,352.577,850.373,351.413,851,352.337Z" transform="translate(-646.964 -296.178)"/><path class="e" d="M721.461,306.6a1.117,1.117,0,0,1-.152.587.773.773,0,0,1-.773.245,2.235,2.235,0,0,1-.773-.362l-2.044-1.294a11.314,11.314,0,0,1-1.1-.753,9.8,9.8,0,0,1-1.45-1.518c-1.188-1.467-2.24-3.059-3.563-4.4-.359-.367-.734-.719-1.081-1.1a16.087,16.087,0,0,1-1.306-1.756,2.991,2.991,0,0,1-.712-1.866c.039-.381.223-.734.276-1.113a.693.693,0,0,0-.589-.966,1,1,0,0,1-.213-.046c-.34-.142-.289-.668-.044-.944s.606-.43.829-.734a4.428,4.428,0,0,1,.347-.516,1.323,1.323,0,0,1,.57-.286,8.818,8.818,0,0,1,4.34-.164c.245.054.523.152.6.389a.716.716,0,0,1,0,.352,7.87,7.87,0,0,0-.186,1.467,2.6,2.6,0,0,0,.017.308,5.532,5.532,0,0,0,1.443,2.724c.778.963,1.567,1.919,2.36,2.873a11.288,11.288,0,0,0,1.43,1.528,8.165,8.165,0,0,1,1.5,1.254,2.745,2.745,0,0,1,.245,1.5A33.324,33.324,0,0,1,721.461,306.6Z" transform="translate(-541.547 -248.907)"/><path class="d" d="M878.261,345.79a3.945,3.945,0,0,0,1.139-1.863l1.418-4.022c.225-.636.45-1.274.734-1.893.293-.668.641-1.311.961-1.956a26.092,26.092,0,0,0,1.9-5.318,1.971,1.971,0,0,0,.076-.78,2.051,2.051,0,0,0-.694-1.054,5.083,5.083,0,0,0-1.042-.861,1.712,1.712,0,0,0-1.306-.21,1.887,1.887,0,0,0-1.164,1.467,15.323,15.323,0,0,0-.152,1.956c-.088.939-.411,1.846-.489,2.788-.042.545,0,1.1-.066,1.638a5.983,5.983,0,0,1-.734,2.022,13.129,13.129,0,0,1-3.162,3.888,5.084,5.084,0,0,0-.949.912,2.976,2.976,0,0,0-.457,1.139,2.624,2.624,0,0,0,.2,1.851,2.717,2.717,0,0,0,1.9,1.13C877.357,346.829,877.584,346.492,878.261,345.79Z" transform="translate(-667.294 -277.891)"/><path class="e" d="M794.639,269.676a2.281,2.281,0,0,1,2.215-1.2,2.445,2.445,0,0,1,1.922,1.726,4.461,4.461,0,0,0,.362,1.081c.3.472.866.609,1.286.951a2.575,2.575,0,0,1,.822,1.819,5.5,5.5,0,0,1-.325,2.056,6.537,6.537,0,0,0-.245.861c-.049.284-.054.572-.1.856a2.788,2.788,0,0,1-1.122,1.851.489.489,0,0,1-.3.11c-.191-.022-.308-.245-.379-.445-.389-1.122-.3-2.494-1.012-3.389a3.7,3.7,0,0,0-1.159-.863,1.494,1.494,0,0,0-.592-.223,1.558,1.558,0,0,0-.856.313,5.328,5.328,0,0,1-1.692.748,2.078,2.078,0,0,1-1.748-.377c-.337-.279-.584-.7-.958-.914a7.384,7.384,0,0,0-1.135-.355,1.68,1.68,0,0,1-.68-2.563c.245-.293.606-.46.824-.785a4.953,4.953,0,0,0,.391-1.5,2.066,2.066,0,0,1,1.245-1.421,1.748,1.748,0,0,1,1.741.364c.245.22.44.5.68.734a1.956,1.956,0,0,0,1.809.489" transform="translate(-602.632 -232.665)"/><path class="g" d="M828.758,419.575a.949.949,0,0,0-.259,1.037,22.89,22.89,0,0,0,2.844-.408c.665-.1,1.831-.049,2.279-.658.8-1.078-1.672-.839-2.125-.8A4.66,4.66,0,0,0,828.758,419.575Z" transform="translate(-632.731 -346.573)"/><path class="e" d="M714.672,290.366a7.87,7.87,0,0,0-.186,1.467,4.273,4.273,0,0,1-2.2-.34l-2.022-.69a.575.575,0,0,0-.773.144,17.119,17.119,0,0,1-1.223,1.357,1,1,0,0,1-.213-.046c-.34-.142-.289-.668-.044-.944s.606-.43.829-.734a4.413,4.413,0,0,1,.347-.516,1.322,1.322,0,0,1,.57-.286,8.818,8.818,0,0,1,4.34-.164c.245.054.523.152.6.389A.717.717,0,0,1,714.672,290.366Z" transform="translate(-541.6 -248.907)"/><path class="g" d="M714.672,290.366a7.87,7.87,0,0,0-.186,1.467,4.273,4.273,0,0,1-2.2-.34l-2.022-.69a.575.575,0,0,0-.773.144,17.119,17.119,0,0,1-1.223,1.357,1,1,0,0,1-.213-.046c-.34-.142-.289-.668-.044-.944s.606-.43.829-.734a4.413,4.413,0,0,1,.347-.516,1.322,1.322,0,0,1,.57-.286,8.818,8.818,0,0,1,4.34-.164c.245.054.523.152.6.389A.717.717,0,0,1,714.672,290.366Z" transform="translate(-541.6 -248.907)"/><path class="g" d="M796.532,480.182a1.221,1.221,0,0,1,.853.641l-2.832-.719-1.467-.374c-.259-.066-1.188-.142-1.36-.345-.245-.3.624-.093.78-.071.474.071.949.144,1.421.23C794.818,479.7,795.673,479.964,796.532,480.182Z" transform="translate(-604.962 -392.301)"/><path class="g" d="M797.737,487.3a5.3,5.3,0,0,0-1.247-.215c-.44-.105-.873-.245-1.306-.379-.878-.286-1.748-.611-2.651-.822-.166-.037-.734-.046-.707-.257s.567-.284.7-.293a6.933,6.933,0,0,1,2.541.582A11.2,11.2,0,0,1,797.737,487.3Z" transform="translate(-605.07 -396.909)"/><path class="g" d="M797.766,469.338a18.777,18.777,0,0,0-2.636-.91,1.071,1.071,0,0,1-.672-.205.792.792,0,0,1-.218-.391,4.556,4.556,0,0,1,1.9.477,5.975,5.975,0,0,1,.89.474C797.235,468.908,797.543,469.267,797.766,469.338Z" transform="translate(-606.893 -383.692)"/><path class="e" d="M869.256,384.46a4.277,4.277,0,0,0,3,4.727c-.12.58-.719.9-1.142,1.313-.6.579-.9,1.448-1.609,1.888a3.589,3.589,0,0,1-2.69.093.328.328,0,0,1-.21-.11.3.3,0,0,1-.039-.1,6.292,6.292,0,0,1-.186-3.325,10.858,10.858,0,0,1,1.3-2.528C868.148,385.6,868.192,384.729,869.256,384.46Z" transform="translate(-661.276 -320.708)"/><path class="e" d="M753.993,327.1a6.358,6.358,0,0,0-2.69.819,3.008,3.008,0,0,1-1.736.658c-.369-.042-.734-.245-1.093-.147a2.144,2.144,0,0,0-.56.333.633.633,0,0,1-.616.1l-.245,3.384a12.408,12.408,0,0,0,.125,3.854,10.8,10.8,0,0,1,.548,1.873c.039.65-.02,1.318.027,1.976.044.609.178,1.208.213,1.817a11.557,11.557,0,0,1-.489,3.406,20.263,20.263,0,0,1-1.467,4.824,2.847,2.847,0,0,0-.489,1.3.665.665,0,0,0,.015.171c-.245.134-.472.262-.68.394a2.607,2.607,0,0,0-1.152,1.157c-.154.423-.083.907-.269,1.316s-.611.7-.7,1.139c-.066.32.061.658,0,.978a4.178,4.178,0,0,0-.134.506,1.062,1.062,0,0,0,.594.863,4.785,4.785,0,0,0,1.467.646l1.46-5.8h0a46.725,46.725,0,0,0,3.308-7.7,16.55,16.55,0,0,1,.956-2.533,11.9,11.9,0,0,0,.734-1.438,10.83,10.83,0,0,0,.352-1.934,13.537,13.537,0,0,1,.575-2.232,9.578,9.578,0,0,0,.624-2.391c.081-1.179-.347-2.423.108-3.514a4.672,4.672,0,0,1,.746-1.122c.631-.773,1.206-1.582,1.836-2.355A1.7,1.7,0,0,0,753.993,327.1Z" transform="translate(-567.876 -277.364)"/><g class="i" transform="translate(185.975 36.207)"><path d="M816.34,271.81l-.306.022-.034.024A1.8,1.8,0,0,0,816.34,271.81Z" transform="translate(-809.308 -271.81)"/><path d="M801.258,287.682a6.588,6.588,0,0,1-.313,1.428,6.539,6.539,0,0,0-.245.861c-.049.284-.054.572-.1.856a2.788,2.788,0,0,1-1.122,1.851.489.489,0,0,1-.3.11c-.191-.022-.308-.245-.379-.445-.389-1.122-.3-2.494-1.012-3.389a3.7,3.7,0,0,0-1.159-.863,1.494,1.494,0,0,0-.592-.223,1.558,1.558,0,0,0-.856.313,5.327,5.327,0,0,1-1.692.748,2.078,2.078,0,0,1-1.748-.377c-.337-.279-.584-.7-.958-.915a7.386,7.386,0,0,0-1.135-.355,1.67,1.67,0,0,1-.954-1.091.7.7,0,0,1-.02-.093,1.711,1.711,0,0,0,.02.826,1.67,1.67,0,0,0,.954,1.091,8.244,8.244,0,0,1,1.135.355,9.246,9.246,0,0,1,.958.914,2.078,2.078,0,0,0,1.748.377,5.328,5.328,0,0,0,1.692-.748,1.558,1.558,0,0,1,.856-.313,1.5,1.5,0,0,1,.592.223,3.7,3.7,0,0,1,1.142.87c.716.895.624,2.267,1.012,3.389.071.2.188.423.379.445a.489.489,0,0,0,.32-.117,2.788,2.788,0,0,0,1.125-1.858c.044-.284.049-.572.1-.856a6.531,6.531,0,0,1,.245-.861,5.505,5.505,0,0,0,.325-2.056C801.268,287.751,801.263,287.716,801.258,287.682Z" transform="translate(-788.631 -282.606)"/></g><path class="j" d="M672.381,372.81l-.166,2.232A46.427,46.427,0,0,1,667.337,391a45.283,45.283,0,0,1-24.281,21.956q-1.577.624-3.274,1.164l-1.262-3.961a46.318,46.318,0,0,0,9.1-3.981,40.279,40.279,0,0,0,15.933-16.911,45.425,45.425,0,0,0,4.181-12.3H652.4V372.81Z" transform="translate(-489.25 -311.907)"/><path class="b" d="M644.971,412.973A45.274,45.274,0,0,0,669.25,391.02a46.334,46.334,0,0,0,4.878-15.957l.166-2.232h1.712l-.166,2.232a46.363,46.363,0,0,1-4.878,15.957,45.283,45.283,0,0,1-24.279,21.953q-1.577.624-3.277,1.166l-.166-.521Q644.125,413.3,644.971,412.973Z" transform="translate(-492.816 -311.922)"/><path class="j" d="M435.381,410.158l-1.262,3.961q-1.7-.543-3.277-1.166A45.274,45.274,0,0,1,406.564,391a46.332,46.332,0,0,1-4.878-15.957l-.166-2.232h19.968v4.157H406.154a45.453,45.453,0,0,0,4.194,12.3,40.254,40.254,0,0,0,15.931,16.909,46.216,46.216,0,0,0,9.1,3.983Z" transform="translate(-310.202 -311.907)"/><path class="b" d="M432.295,412.973a45.274,45.274,0,0,1-24.279-21.953,46.332,46.332,0,0,1-4.878-15.957l-.166-2.232H401.26l.166,2.232A46.362,46.362,0,0,0,406.3,391.02a45.283,45.283,0,0,0,24.279,21.953q1.577.624,3.277,1.166l.166-.521Q433.143,413.3,432.295,412.973Z" transform="translate(-310.005 -311.922)"/><path class="j" d="M541.054,593v22.415H494.92V593l1.467-1.956c14.95-5.306,17.98-19.144,18.584-24.618a22.5,22.5,0,0,0,.154-2.279h5.7a22.5,22.5,0,0,0,.154,2.279c.614,5.475,3.643,19.317,18.584,24.618Z" transform="translate(-380.763 -456.46)"/><rect class="g" width="46.134" height="2.812" transform="translate(114.157 136.543)"/><path class="k" d="M498.832,591.047c14.95-5.306,17.98-19.144,18.584-24.618a22.5,22.5,0,0,0,.154-2.279h-2.445a22.522,22.522,0,0,1-.154,2.279c-.614,5.475-3.643,19.317-18.584,24.618L494.92,593v22.415h2.445V593Z" transform="translate(-380.763 -456.46)"/><path class="l" d="M466.26,372.81H470.4v4.157h-3.771Q466.4,374.913,466.26,372.81Z" transform="translate(-359.111 -311.907)"/><path class="l" d="M511.874,513.243l-1.262,3.961q-1.7-.543-3.277-1.166a43.8,43.8,0,0,1-4.565-6.778,46.212,46.212,0,0,0,9.1,3.983Z" transform="translate(-386.694 -414.992)"/><path class="l" d="M638.51,513.251a46.317,46.317,0,0,0,9.1-3.981,43.984,43.984,0,0,1-4.565,6.781q-1.577.624-3.274,1.164Z" transform="translate(-489.243 -414.999)"/><path class="l" d="M699.465,372.81q-.144,2.1-.367,4.157H695.33V372.81Z" transform="translate(-532.169 -311.907)"/><path class="l" d="M582.973,566.429a15.807,15.807,0,0,1-6.013,0,22.5,22.5,0,0,0,.154-2.279h5.7A22.5,22.5,0,0,0,582.973,566.429Z" transform="translate(-442.743 -456.46)"/><path class="j" d="M468.26,344.65c.105,30.824,13.309,55.751,29.587,55.751s29.479-24.927,29.587-55.751Z" transform="translate(-360.622 -290.633)"/><path class="m" d="M473.517,344.65H468.26c.105,30.824,13.309,55.751,29.587,55.751a15.98,15.98,0,0,0,2.629-.223C485.428,397.665,473.617,373.8,473.517,344.65Z" transform="translate(-360.622 -290.633)"/><path class="n" d="M0,0H31.379V8.069H0Z" transform="translate(121.534 145.124)"/><path class="b" d="M498.557,594.6h29.912v-1.1H497.09v8.069h1.467Z" transform="translate(-375.556 -448.376)"/><path class="o" d="M232.68,341.791c-.565-.188-3.89-2.819-4.142-4.01S230.3,325.5,230.3,325.5a4.516,4.516,0,0,1-.489-.037v-.178l.413-14.573s1.695-9.781-1.506-9.211-1.193,9.211-1.193,9.211-.364,4.387-.621,5.7c-.245,1.269-1.364,6.438-.6,8.045a1.751,1.751,0,0,0,.093.166h0s.127,5.514-1.254,6.267c-1.318.716-1.866,4.323-1.912,4.646l-.071-.029h0a3.832,3.832,0,0,1-1.02-.932c-.029-.037-.051-.076-.078-.115a5.385,5.385,0,0,0-1.658-8.409,3.472,3.472,0,0,0-.325-1.35c-.636-1.36-4.157-3.137-6.658-3.179-1.154-.034-2.1.293-2.445,1.2a6.9,6.9,0,0,0-.2,1.452,3.694,3.694,0,0,1-1.582,2.352,9.912,9.912,0,0,0-1.054-1.015,23.027,23.027,0,0,1-2.445-2.69s-5.084-5.265-5.46-6.707-5.455-10.106-6.585-8.6,3.89,8.084,3.89,8.084a15.292,15.292,0,0,0,1.687,3.2c.734.807,6.358,8.974,6.358,8.974l.269.558a4.886,4.886,0,0,0-2.658,2.665c-.562,1.829.668,3.668,1.518,5.379,1.658,3.34,1.9,7.6-.245,10.651-1.917,2.695-5.243,3.976-8.355,5.1a8.223,8.223,0,0,0,5.282,1.753c-.719,2.083-3.267,2.773-5.438,3.159a7.826,7.826,0,0,0,4.335,1.736,12.99,12.99,0,0,0,2.32.183h.191l.191-.015a6.636,6.636,0,0,0,.79-.1,4.15,4.15,0,0,0,2.8-1.844c.489-.853.66-2.017,1.548-2.445a1.978,1.978,0,0,1,.734-.174h.477l3.7.037h.472a3.058,3.058,0,0,0,2.69-1.069,2.964,2.964,0,0,0,.335-1.357c.078-1.171,0-2.377.032-3.558.315,2.149.646,5.5-.139,6.737a11.493,11.493,0,0,1-2.294,2.487,4.4,4.4,0,0,0-.606.621c-.12.086-.191.132-.191.132l-.076.227a4.305,4.305,0,0,0-.6,1.384.961.961,0,0,0-.046.394c.086.174-.611.89-.408,1.191a10.785,10.785,0,0,0-2.071,5.135l-3.179,4.827c-1.633,4.291-4.079,4.732-4.079,4.732s-5.744-3.854-5.9-4.042a22.19,22.19,0,0,0-2.352-1.13,2.489,2.489,0,0,0-1.13-1.032c-.753-.313-.817-1.467-.817-1.467-.093-2.726-1.695-2.934-1.695-2.934a5.2,5.2,0,0,0-3.035.54l-.23.017c-1.11.09-2.445.191-3.912.289-4.081.269-5.052,2.912-5.052,2.912a.814.814,0,0,0,.156,1.176c.658.611,4.868,0,5.047-.015a2.734,2.734,0,0,1-.959-.066c.663-.024,1.575-.049,2.352-.049h.188a10.175,10.175,0,0,0-.071,1.242c0,.783,2.164,1.284,2.164,1.284l6.59,5.869a26.1,26.1,0,0,1,6.778,4.514,3.381,3.381,0,0,0,4.966.364c2.79-.69,10.818-10.395,10.825-10.4h0c0,.284.169,9.722.489,11.617h0a1.259,1.259,0,0,0,.071.281c.377.814-.127,3.039-.345,3.978a11.053,11.053,0,0,0-.159,2.382s-3.01,11.493-2.761,12.5-1.631,5.7-1.631,5.7v3.912l.328-.017a2.1,2.1,0,0,0-.117.2l-.022.042a13.913,13.913,0,0,0,3.357.313,9.417,9.417,0,0,1,3.668,1.039,10.212,10.212,0,0,0,3.2.528c2.416.156,2.416-1.066,2.416-1.066-.276-1.665-4.093-2.223-4.211-2.24-.308-.193-.6-.4-.834-.584l-.049-.039a1.049,1.049,0,0,0,.042-.112c.408-1.663-1.851-2.384-1.851-2.384V409c1.467-.753,1.758-5.922,1.758-5.922s2.2-6.392,2.509-7.458a7.049,7.049,0,0,0,0-2.663l.22-1.379a6.782,6.782,0,0,0,.472-1.127,2.785,2.785,0,0,1,.533-1.316c.345-.408-.377-1.379-.377-1.379l.628-1.628V384.34l1.467-6.485s1.538-7.553,1-10.025a4.253,4.253,0,0,1,.628-3.729,3.094,3.094,0,0,1-.323.147,9.336,9.336,0,0,0,.379-1.042l3.3.408v.049h1.191s-.377-4.646-.377-6.519,1.269-8.595,1.269-8.595S233.245,341.979,232.68,341.791Zm-14.654-5.423c0,.183-.017.374-.029.57l-.066.1-.122-.1-.149.232-.044.022c-.323-.166-.489-1.117-.721-.912l-.032.027c-.051-.059-.1-.076-.157-.027l-.049.042V336.1a5.5,5.5,0,0,0,1.369.174C218.028,336.306,218.026,336.338,218.026,336.367ZM229,358h.071l-.117.308C228.973,358.208,228.988,358.108,229,358Zm-12.052,55.45-.45-.112.245-.042.227.149.027.02Zm4.6-.658c-.149-.078-.3-.169-.447-.262C221.151,412.56,221.344,412.66,221.549,412.795Z" transform="translate(-141.777 -258.012)"/><path class="p" d="M347.9,390.03l-2.961,7.717h.719l-2.785,2.22,5.027.626Z" transform="translate(-259.046 -294.659)"/><path class="g" d="M347.9,390.03l-2.961,7.717-.746-.2-1.32,2.421,5.027.626Z" transform="translate(-259.046 -294.659)"/><path class="p" d="M344.44,366.893h4.643l1.7-14.023H344.44Z" transform="translate(-260.232 -266.585)"/><path class="g" d="M344.44,366.893h4.643l1.7-14.023H344.44Z" transform="translate(-260.232 -266.585)"/><path class="q" d="M333.889,442.816l1-.169,2.3-.391s6.918-1.56,8.346-1.687a8.917,8.917,0,0,0,2.5-.714c.374-.161.611-.284.611-.284l-2.492-4.551-3.866-2.866a6.693,6.693,0,0,1-3.48-1.944,2.291,2.291,0,0,1-.32-2.171c.631-1.956-3.768,1.871-3.768,1.871s.042.917,0,2.086c0,.23-.022.469-.039.714a4.813,4.813,0,0,1-.039.489,7.863,7.863,0,0,1-.763,3.071C332.826,438.016,333.889,442.816,333.889,442.816Z" transform="translate(-258.751 -353.211)"/><path class="g" d="M338.79,432.4h.1c.176,0,.318-.374.489-.391a5.072,5.072,0,0,0,3.506-1.4,2.294,2.294,0,0,1-.32-2.169c.631-1.956-3.768,1.868-3.768,1.868S338.841,431.227,338.79,432.4Z" transform="translate(-262.811 -353.512)"/><path class="q" d="M316.89,407.1a5.357,5.357,0,0,0,5.36,5.36,3.729,3.729,0,0,0,.523-.024,5.36,5.36,0,1,0-5.883-5.335Z" transform="translate(-246.266 -333.766)"/><path class="e" d="M264.091,386.705a6.591,6.591,0,0,0-.193,1.445c-.262,1.739-2.03,2.78-3.629,3.509s-3.4,1.592-3.912,3.272c-.558,1.817.66,3.638,1.506,5.343,1.648,3.321,1.883,7.556-.245,10.593-1.89,2.69-5.184,3.966-8.284,5.086a8.167,8.167,0,0,0,5.245,1.746c-.712,2.071-3.242,2.758-5.4,3.14a7.757,7.757,0,0,0,4.306,1.726,9.764,9.764,0,0,0,3.423.064,4.112,4.112,0,0,0,2.783-1.834c.489-.848.655-2.005,1.538-2.433a2.783,2.783,0,0,1,1.254-.183l3.668.039c1.142,0,2.494-.088,3.083-1.064a2.934,2.934,0,0,0,.333-1.35c.159-2.406-.3-4.949.687-7.145.3-.663-1.616-1.712-1.416-2.413a22.542,22.542,0,0,0,.856-6.825c0-1.944,1.264-3.619,2.308-5.26s1.917-3.712,1.093-5.472C272.167,386.725,265.189,383.871,264.091,386.705Z" transform="translate(-195.112 -321.503)"/><path class="q" d="M330.13,752.712l.934.619.144.1.027.017,1.108.734,2.587.435,2.274-.156s.655-1.369-.374-1.338a2.141,2.141,0,0,1-.939-.271l-.142-.071h0c-.149-.078-.3-.166-.445-.259h0c-.306-.193-.594-.4-.826-.582-.342-.264-.57-.465-.57-.465Z" transform="translate(-256.268 -597.976)"/><path class="g" d="M334,757.584l.144.1.027.017,1.108.734,2.587.435,2.274-.156s.655-1.369-.374-1.338a2.141,2.141,0,0,1-.939-.271c.181.142.333.3.347.425.042.35-1.682.978-1.682.978l-2.431-.643s-.413-.117-.978-.264l-.054-.015Z" transform="translate(-259.192 -602.23)"/><path class="e" d="M317,757.123a13.766,13.766,0,0,0,3.333.311,9.389,9.389,0,0,1,3.648,1.029,10.23,10.23,0,0,0,3.179.523c2.4.157,2.4-1.061,2.4-1.061-.274-1.655-4.064-2.2-4.181-2.225h0a4.656,4.656,0,0,1,.445.259h0c.269.176.56.406.582.592.042.347-1.682.978-1.682.978l-2.431-.641s-.413-.12-.978-.267h-.054a20.84,20.84,0,0,0-2.548-.526,1.769,1.769,0,0,0-1.692.978A.3.3,0,0,0,317,757.123Z" transform="translate(-246.349 -601.172)"/><path class="q" d="M188.54,573.055l1.059.812s.308-.015.768-.029h.147c.658-.024,1.565-.049,2.335-.049a7.415,7.415,0,0,1,1.489.083c.528.186,1.467-3.022,1.467-3.022l-1.061-.245-.352-.083-.245-.059-.863-.2-2.616.3-1.839,1.183Z" transform="translate(-149.3 -461.076)"/><path class="g" d="M188.54,573.055l1.059.812s.308-.015.768-.029a.926.926,0,0,1-.489-.438c-.685-1.9,2.712-2.712,2.712-2.712l1.582-.068.308-.015h.245l-.352-.083-.245-.059-.863-.2-2.616.3-1.839,1.184Z" transform="translate(-149.3 -461.076)"/><path class="e" d="M178.953,570.906c.641.592,4.837,0,5.013-.015a2.64,2.64,0,0,1-.951-.066,1.049,1.049,0,0,1-.734-.526c-.685-1.9,2.712-2.712,2.712-2.712l1.582-.068.306-.015,3.846-.166.186-1.059s-1.249.117-3.211.274c-1.1.09-2.445.191-3.9.286-4.052.269-5.015,2.9-5.015,2.9A.813.813,0,0,0,178.953,570.906Z" transform="translate(-141.801 -458.069)"/><path class="q" d="M371.643,326.859a1.083,1.083,0,0,0,.093.166l.934,1.369,2.431.245.027-.963.408-14.5s1.682-9.722-1.5-9.162-1.184,9.162-1.184,9.162-.362,4.362-.616,5.673C371.992,320.12,370.885,325.269,371.643,326.859Z" transform="translate(-287.433 -259.918)"/><path class="q" d="M350.14,541.718l.692,1.183,1.548,2.648s2.807,1.029,3.526.245a10.155,10.155,0,0,0,1.117-3.179c.245-1.017.408-1.875.408-1.875Z" transform="translate(-271.385 -438.774)"/><path class="g" d="M350.14,541.756l.692,1.184a.818.818,0,0,0,.117-.125c.782-1,4.228-.213,6.074-.149.245-1.017.408-1.875.408-1.875Z" transform="translate(-271.385 -438.812)"/><path class="g" d="M206.16,570.777a7.415,7.415,0,0,1,1.489.083c.528.186,1.467-3.022,1.467-3.022l-1.413-.333,3.846-.166.186-1.059s-1.249.117-3.211.274a4.034,4.034,0,0,0-1.069.893l-.059.073A6.408,6.408,0,0,0,206.16,570.777Z" transform="translate(-162.611 -458.069)"/><path class="g" d="M330.13,752.682l1.078.714c1.609-.291,3.079-.748,3.252-1.467a.246.246,0,0,0,0-.034c-.342-.264-.57-.465-.57-.465Z" transform="translate(-256.268 -597.946)"/><path class="g" d="M317.09,758.275a37.321,37.321,0,0,0,4.24-.455,20.85,20.85,0,0,0-2.55-.531A1.759,1.759,0,0,0,317.09,758.275Z" transform="translate(-246.417 -602.366)"/><path class="e" d="M206.64,552.708c0,.78,2.149,1.279,2.149,1.279l6.546,5.827a25.865,25.865,0,0,1,6.729,4.487c2.616,2.648,4.925.374,4.925.374,2.773-.685,10.759-10.346,10.759-10.346s.186,11.033.56,11.842-.125,3.022-.342,3.959a11,11,0,0,0-.156,2.367s-2.991,11.436-2.741,12.434-1.621,5.673-1.621,5.673v3.9s7.323-.281,7.727-1.932-1.836-2.369-1.836-2.369v-.406c1.467-.748,1.743-5.888,1.743-5.888s2.184-6.358,2.494-7.416a6.934,6.934,0,0,0,0-2.651l.218-1.369a6.836,6.836,0,0,0,.467-1.122,2.773,2.773,0,0,1,.531-1.308c.342-.406-.374-1.372-.374-1.372l.624-1.621v-1.775l1.467-6.45s1.528-7.512,1-9.974a4.22,4.22,0,0,1,.624-3.707c-2.5,1.311-3.763-1.607-4.176-2.861-.105-.323-.156-.538-.156-.538a17.494,17.494,0,0,0-6.634-.963,7.637,7.637,0,0,0-1.9.4c-3.553,1.279-4.113,6.575-4.113,6.575l-3.147,4.8c-1.621,4.269-4.052,4.7-4.052,4.7s-5.7-3.832-5.869-4.02a22.84,22.84,0,0,0-2.338-1.122,2.47,2.47,0,0,0-1.122-1.027c-.748-.313-.809-1.467-.809-1.467-.093-2.712-1.682-2.934-1.682-2.934C206.608,546.228,206.64,551.93,206.64,552.708Z" transform="translate(-162.974 -438.765)"/><rect class="p" width="3.365" height="10.439" transform="translate(78.755 98.706) rotate(180)"/><rect class="g" width="3.365" height="10.439" transform="translate(78.755 98.706) rotate(180)"/><path class="g" d="M372.439,397.41a.148.148,0,0,0,0,.022,1.083,1.083,0,0,0,.093.166l.934,1.369,2.431.245.027-.963A9.7,9.7,0,0,1,372.439,397.41Z" transform="translate(-288.231 -330.492)"/><path class="p" d="M363.092,398.18s.125,5.482-1.247,6.23-1.9,4.646-1.9,4.646,4.157,2.734,5.084,3.937,3.054,4.069,2.616,4.753,1.061,3.8,1.061,3.8-2.744,5.609-2.12,7.729.685,7.727.685,7.727h1.186s-.374-4.612-.374-6.482,1.245-8.539,1.245-8.539.562-6.543,0-6.729-3.863-2.8-4.113-3.991,1.746-12.226,1.746-12.226A10.915,10.915,0,0,1,363.092,398.18Z" transform="translate(-278.789 -331.073)"/><path class="g" d="M336.12,451.8a5.335,5.335,0,0,0,.814,2.137l2.3-.391s6.918-1.56,8.346-1.687a8.917,8.917,0,0,0,2.5-.714,11.042,11.042,0,0,0-3.093-5.074l-.878-.814a14.708,14.708,0,0,0-4.426-2.829c.1.086,7.36,6.282,5.771,7.5s-5.868-1.743-5.868-1.743L336.726,444l-.176-.152-.281.438a4.087,4.087,0,0,1,.418.2,7.16,7.16,0,0,1,3.423,4.255C341.111,452.106,336.12,451.8,336.12,451.8Z" transform="translate(-260.793 -364.503)"/><path class="r" d="M330,541.653s4.612,2.555,5.732,1.122a1.906,1.906,0,0,1,1.4-.489c-.105-.323-.156-.538-.156-.538a17.492,17.492,0,0,0-6.634-.963C330.134,541.313,330,541.653,330,541.653Z" transform="translate(-256.17 -438.773)"/><path class="s" d="M332.122,443.878l5.042,4.338s4.262,2.969,5.868,1.743-5.773-7.5-5.773-7.5h0a14.916,14.916,0,0,1,4.423,2.822l.878.814c2.308,2.14,2.829,2.14,2.907,5.284a4.418,4.418,0,0,1-.447,2.088c-.748.734-1.271,6.062-1.157,6.685s-1.394,6.005-.9,7.5-6.113-.748-7.23.687S330,467.22,330,467.22s2.555-6.546,3.179-6.981,1.372-3.8,0-5.36a5.814,5.814,0,0,1-1.494-3.054s4.988.308,3.988-3.054a7.057,7.057,0,0,0-3.834-4.455Z" transform="translate(-256.17 -364.526)"/><path class="g" d="M350.03,493.38s-1.934,3.646-4.436,4.592c-.081.029-.159.056-.245.081C342.738,498.848,350.225,494.51,350.03,493.38Z" transform="translate(-267.348 -402.995)"/><path class="q" d="M243.122,336.113a14.555,14.555,0,0,0,1.682,3.179c.748.809,6.294,8.913,6.294,8.913l.469.978.4.834,3.553-.374.245-1.433-.137-.166a16.788,16.788,0,0,0-1.983-2.078,22.973,22.973,0,0,1-2.431-2.677s-5.047-5.238-5.421-6.671-5.423-10.025-6.543-8.539S243.122,336.113,243.122,336.113Z" transform="translate(-187.489 -277.983)"/><g class="i" transform="translate(59.692 64.011)"><path d="M278.43,519.068a2.785,2.785,0,0,0-1.254.181c-.88.428-1.047,1.585-1.536,2.433a4.112,4.112,0,0,1-2.785,1.834,6.219,6.219,0,0,1-.675.093,7.663,7.663,0,0,0,2.142-.093,4.112,4.112,0,0,0,2.785-1.834c.489-.848.655-2.005,1.536-2.433a1.956,1.956,0,0,1,.734-.171Z" transform="translate(-272.18 -486.405)"/><path d="M319.677,399.427c0-1.944,1.264-3.619,2.306-5.26s1.917-3.712,1.093-5.472c-.7-1.5-4.949-3.521-7.4-3.123,2.4.311,5.355,1.89,5.932,3.123.824,1.761-.051,3.832-1.093,5.472s-2.311,3.316-2.306,5.26a22.827,22.827,0,0,1-.858,6.825c-.2.7,1.712,1.751,1.418,2.411-.993,2.2-.528,4.739-.687,7.145a2.971,2.971,0,0,1-.335,1.35,2.859,2.859,0,0,1-2.467,1.056h.853c1.139,0,2.492-.088,3.081-1.064a2.971,2.971,0,0,0,.335-1.35c.159-2.406-.306-4.947.687-7.145.3-.66-1.616-1.712-1.418-2.411A22.555,22.555,0,0,0,319.677,399.427Z" transform="translate(-304.741 -385.521)"/></g><path class="g" d="M290.12,411.379l.4.834,3.553-.374.245-1.433-.137-.166C293.8,410.426,290.966,411.793,290.12,411.379Z" transform="translate(-226.041 -340.184)"/><path class="g" d="M303.866,421.266s-.873-1.369-1.372-1-.692-1.122-.978-.873-1.12.944-1.467-.027c-.271-.773-3.225-5.661-4.423-7.627-.308-.509-.5-.822-.5-.822s-3.365,1.682-4.174,1.122v1.183l.685.064,3.668,6.847s1.154,1.836,1.076,2.477,1.479,3.445,1.729,3.631,2.934,3.3,2.934,3.3,1.372,6.732.186,8.6a12.762,12.762,0,0,1-3.24,3.24,10.459,10.459,0,0,0-.528,2c.09.188-.719,1-.345,1.247s.873,1.993.873,1.993,1.746-2.8,2.69-3.24,2.152-6.172,2.152-6.172.345-3.379.372-5.56S303.117,421.266,303.866,421.266Z" transform="translate(-226.668 -340.698)"/><path class="p" d="M303.1,421.266s-.871-1.369-1.369-1-.694-1.122-.978-.873-1.117.944-1.467-.027c-.274-.773-3.228-5.661-4.423-7.627l-.5-.822s-3.365,1.682-4.176,1.122v1.183l.687.064,3.668,6.847s1.157,1.836,1.076,2.477,1.467,3.445,1.729,3.631,2.934,3.3,2.934,3.3,1.372,6.732.188,8.6a11.464,11.464,0,0,1-2.257,2.5A4.363,4.363,0,0,0,296.738,443a.929.929,0,0,0-.044.391c.09.186-.719,1-.345,1.247s.878,2,.878,2,1.746-2.8,2.69-3.24,2.154-6.172,2.154-6.172.342-3.379.372-5.56S302.362,421.266,303.1,421.266Z" transform="translate(-226.087 -340.698)"/><path class="g" d="M307.09,569.21a12.538,12.538,0,0,1,3.668,1.245c1.049.756-3.988-1.183-3.988-1.183Z" transform="translate(-238.62 -460.283)"/><path class="g" d="M333.83,596.35s2.731,2.276,2.242,4.333-1.751,7.231-1.751,7.231Z" transform="translate(-259.063 -480.786)"/><path class="g" d="M224.983,578.45s-3.849.421-3.6.919,3.6-.46,3.6-.46Z" transform="translate(-174.104 -467.263)"/><path class="g" d="M351.03,651.949s.245.311-1.183,0-.374-1.269-.374-1.269Z" transform="translate(-270.598 -521.832)"/><path class="g" d="M345.18,673.034a9.1,9.1,0,0,1-3.005,0C341.125,672.723,345.18,673.034,345.18,673.034Z" transform="translate(-265.236 -538.615)"/><path class="g" d="M323.134,741.965s-.342-.374-2.056.311-2.4.716-2.9.489S323.134,741.965,323.134,741.965Z" transform="translate(-247.216 -590.718)"/><path class="g" d="M338.811,576.28l-2.431,3.382S337.688,576.7,338.811,576.28Z" transform="translate(-260.99 -465.624)"/><path class="g" d="M316.068,449.15s-.105,1.122-1.673,1.56a4.283,4.283,0,0,0-1.866.792" transform="translate(-242.972 -369.58)"/><path class="g" d="M297.278,415.88a6.709,6.709,0,0,1-4.228,1.157" transform="translate(-228.255 -344.445)"/><path class="g" d="M316.78,540.4s.6.379,2.054-1.279" transform="translate(-246.182 -437.55)"/><path class="g" d="M372.7,466.288a1.062,1.062,0,0,0-.35-.822l-.406-.489a1.885,1.885,0,0,0-.267-.274c-.245-.188-.558-.245-.812-.413" transform="translate(-287.046 -381.018)"/><path class="t" d="M858.554,123.767s-20.586-1.242-18.166,13.185a3.506,3.506,0,0,0,1.829,3.707s.037-1.069,2.113-.7a9.658,9.658,0,0,0,2.237.108,4.66,4.66,0,0,0,2.734-1.13h0s5.788-2.391,8.037-11.85c0,0,1.665-2.064,1.6-2.594l-3.475,1.484a6.2,6.2,0,0,1,.245,4.59s-.112-4.5-.78-4.4c-.135.022-1.8.868-1.8.868s2.042,4.365.5,7.539c0,0,.584-5.379-1.139-7.223l-2.445,1.428s2.387,4.509.768,8.189c0,0,.416-5.644-1.284-7.842l-2.215,1.729s2.242,4.445.875,7.5c0,0-.179-6.57-1.355-7.067a13.622,13.622,0,0,0-2.235,2.411s1.536,3.228.582,4.93c0,0-.584-4.377-1.064-4.4,0,0-1.932,2.9-2.132,4.89a10.536,10.536,0,0,1,1.665-5.164,5.822,5.822,0,0,0-2.959,1.531s.3-2.049,3.436-2.228a13.545,13.545,0,0,1,2.022-2.335,12.724,12.724,0,0,0-5.005.577s1.663-1.934,5.578-1.054l2.188-1.787s-4.1-.56-5.844.059c0,0,2-1.712,6.433-.465l2.382-1.423a21.85,21.85,0,0,0-5.582-.489s2.2-1.186,6.282.1l1.712-.765s-2.563-.5-3.313-.584-.79-.286-.79-.286a8.889,8.889,0,0,1,4.815.536S858.618,123.995,858.554,123.767Z" transform="translate(-641.608 -123.74)"/><path class="t" d="M785.83,138.822s-9.292-.562-8.2,5.957a1.594,1.594,0,0,0,.824,1.677s.017-.489.956-.32a4.282,4.282,0,0,0,1.01.049,2.1,2.1,0,0,0,1.235-.511h0s2.616-1.078,3.634-5.353c0,0,.751-.934.721-1.174l-1.57.67a2.815,2.815,0,0,1,.115,2.076s-.051-2.034-.352-1.986c-.061,0-.817.391-.817.391s.924,1.973.227,3.409c0,0,.264-2.431-.516-3.264l-1.105.646a4.866,4.866,0,0,1,.347,3.7s.188-2.55-.58-3.543l-1,.79s1.012,2.01.4,3.387c0,0-.081-2.968-.614-3.191a6.134,6.134,0,0,0-1.01,1.091s.694,1.467.264,2.225c0,0-.264-1.978-.489-1.986a6.634,6.634,0,0,0-.963,2.2,4.781,4.781,0,0,1,.753-2.335,2.631,2.631,0,0,0-1.338.692s.137-.924,1.553-1.007a6.686,6.686,0,0,1,.914-1.054,5.734,5.734,0,0,0-2.262.262,2.555,2.555,0,0,1,2.521-.489l.978-.807a8.437,8.437,0,0,0-2.641.027s.9-.773,2.907-.21l1.076-.643a9.669,9.669,0,0,0-2.523-.218,3.86,3.86,0,0,1,2.839.044l.77-.345s-1.159-.23-1.5-.264-.357-.13-.357-.13a4.008,4.008,0,0,1,2.176.245A9.864,9.864,0,0,0,785.83,138.822Z" transform="translate(-594.275 -135.125)"/><ellipse class="u" cx="9.832" cy="1.663" rx="9.832" ry="1.663" transform="translate(214.18 155.8)"/><path class="u" d="M932.727,742.578a2.846,2.846,0,0,0,.937-1.416,1.263,1.263,0,0,0-.655-1.44c-.6-.23-1.245.188-1.731.609a2.311,2.311,0,0,1-1.682.812,2.568,2.568,0,0,0,.792-2.4,1.008,1.008,0,0,0-.22-.489c-.335-.357-.939-.205-1.34.076-1.272.895-1.626,2.624-1.633,4.176a7.847,7.847,0,0,1-.022-1.712,1.764,1.764,0,0,0-.648-1.523,1.934,1.934,0,0,0-.978-.23,2.03,2.03,0,0,0-1.6.455,1.576,1.576,0,0,0,.061,1.956,6.227,6.227,0,0,0,1.655,1.325,3.668,3.668,0,0,1,1.181,1.127,1.02,1.02,0,0,1,.088.2h3.585A9.968,9.968,0,0,0,932.727,742.578Z" transform="translate(-704.648 -587.835)"/></g></svg>