<svg xmlns="http://www.w3.org/2000/svg" width="26.714" height="23.465" viewBox="0 0 26.714 23.465"><defs><style>.a{fill:#579ffb;}</style></defs><path class="a" d="M17.748,40.051l.682-2.83.007-.027a1.964,1.964,0,0,1,1.385-1.385l2.068-.554a1.845,1.845,0,0,0-1.416-.662h-.61a9.089,9.089,0,0,0-.59-1.423l.432-.431a1.85,1.85,0,0,0,0-2.614l-1.3-1.3a1.848,1.848,0,0,0-2.614,0l-.432.431a9.113,9.113,0,0,0-1.423-.59v-.61A1.85,1.85,0,0,0,12.083,26.2H10.238A1.85,1.85,0,0,0,8.39,28.051v.61a9.106,9.106,0,0,0-1.423.59l-.432-.432a1.848,1.848,0,0,0-2.614,0l-1.3,1.3a1.85,1.85,0,0,0,0,2.614l.431.431a9.091,9.091,0,0,0-.59,1.423h-.61A1.85,1.85,0,0,0,0,36.441v1.845a1.85,1.85,0,0,0,1.848,1.848h.61a9.094,9.094,0,0,0,.59,1.423l-.432.431a1.85,1.85,0,0,0,0,2.614l1.3,1.3a1.848,1.848,0,0,0,2.614,0l.432-.431a9.09,9.09,0,0,0,1.423.59v.61a1.85,1.85,0,0,0,1.848,1.848h1.6a2.923,2.923,0,0,1,.628-3.192Zm-6.588,2.273a4.96,4.96,0,1,1,4.96-4.96A4.966,4.966,0,0,1,11.161,42.324Z" transform="translate(0 -26.203)"/><path class="a" d="M220.419,183.031l-.02-.02a.318.318,0,0,0-.22-.091.31.31,0,0,0-.219.091l-1.339,1.339a1.085,1.085,0,0,1-1.535-1.535l1.339-1.339a.31.31,0,0,0,0-.439l-.019-.019a1.183,1.183,0,0,0-1.143-.306l-2.75.737a1.187,1.187,0,0,0-.837.837l0,.008-.733,3.042-5.436,5.436a2.143,2.143,0,0,0,0,3.031l.129.129a2.129,2.129,0,0,0,1.516.628h0a2.129,2.129,0,0,0,1.515-.628L216.1,188.5l3.042-.733.008,0a1.187,1.187,0,0,0,.837-.837l.737-2.75A1.187,1.187,0,0,0,220.419,183.031ZM210,192.311a.62.62,0,1,1,.182-.438A.616.616,0,0,1,210,192.311Zm3.654-3.873L211.091,191a.465.465,0,0,1-.658-.658L213,187.78a.465.465,0,1,1,.658.658Z" transform="translate(-194.051 -171.093)"/></svg>