<svg xmlns="http://www.w3.org/2000/svg" width="21.129" height="18.559" viewBox="0 0 21.129 18.559"><defs><style>.a{fill:#6c757d;}</style></defs><path class="a" d="M14.038,37.156l.539-2.238.005-.021a1.553,1.553,0,0,1,1.1-1.1l1.635-.438a1.459,1.459,0,0,0-1.12-.524h-.482a7.189,7.189,0,0,0-.467-1.126l.341-.341a1.464,1.464,0,0,0,0-2.067l-1.032-1.032a1.462,1.462,0,0,0-2.067,0l-.341.341a7.208,7.208,0,0,0-1.126-.467v-.482A1.463,1.463,0,0,0,9.557,26.2H8.1a1.463,1.463,0,0,0-1.462,1.462v.482a7.2,7.2,0,0,0-1.126.467l-.341-.341a1.462,1.462,0,0,0-2.067,0L2.07,29.3a1.464,1.464,0,0,0,0,2.067l.341.341a7.191,7.191,0,0,0-.467,1.126H1.462A1.464,1.464,0,0,0,0,34.3V35.76a1.463,1.463,0,0,0,1.462,1.462h.482a7.193,7.193,0,0,0,.467,1.126l-.341.341a1.464,1.464,0,0,0,0,2.067L3.1,41.788a1.462,1.462,0,0,0,2.067,0l.341-.341a7.189,7.189,0,0,0,1.126.467V42.4A1.464,1.464,0,0,0,8.1,43.858H9.364a2.312,2.312,0,0,1,.5-2.525Zm-5.21,1.8a3.923,3.923,0,1,1,3.923-3.923A3.928,3.928,0,0,1,8.827,38.954Z" transform="translate(0 -26.203)"/><path class="a" d="M217.588,182.538l-.016-.016a.252.252,0,0,0-.174-.072.245.245,0,0,0-.173.072l-1.059,1.059a.859.859,0,0,1-1.214-1.214l1.059-1.059a.245.245,0,0,0,0-.347l-.015-.015a.936.936,0,0,0-.9-.242l-2.175.583a.938.938,0,0,0-.662.662l0,.006-.58,2.406-4.3,4.3a1.695,1.695,0,0,0,0,2.4l.1.1a1.684,1.684,0,0,0,1.2.5h0a1.684,1.684,0,0,0,1.2-.5l4.3-4.3,2.406-.579.006,0a.939.939,0,0,0,.662-.662l.583-2.175A.939.939,0,0,0,217.588,182.538Zm-8.239,7.34a.49.49,0,1,1,.144-.347A.487.487,0,0,1,209.349,189.878Zm2.89-3.064-2.029,2.029a.368.368,0,1,1-.52-.52l2.029-2.029a.368.368,0,1,1,.52.52Z" transform="translate(-196.732 -173.096)"/></svg>