<svg xmlns="http://www.w3.org/2000/svg" width="43.743" height="34.995" viewBox="0 0 43.743 34.995"><defs><style>.a{fill:#71b6f9;}</style></defs><path class="a" d="M33.943,25.469l4.785-4.785a2.188,2.188,0,0,0-.877-3.629l-2.856-.918V6.561a2.187,2.187,0,0,0-2.187-2.187H28.433V1.64A1.64,1.64,0,0,0,26.793,0H16.951a1.64,1.64,0,0,0-1.64,1.64V4.374H10.936A2.187,2.187,0,0,0,8.749,6.561v9.576l-2.856.918a2.188,2.188,0,0,0-.877,3.629L9.8,25.469C8.6,28.453,5.85,30.62,1.64,30.62A1.64,1.64,0,0,0,0,32.261v1.094a1.64,1.64,0,0,0,1.64,1.64,12.606,12.606,0,0,0,9.792-4.06,6.572,6.572,0,0,0,6.065,4.06h8.749a6.572,6.572,0,0,0,6.065-4.06,12.606,12.606,0,0,0,9.792,4.06,1.64,1.64,0,0,0,1.64-1.64V32.261a1.64,1.64,0,0,0-1.64-1.64C37.946,30.62,35.163,28.5,33.943,25.469ZM13.123,8.749h17.5v5.983l-8.079-2.6a2.187,2.187,0,0,0-1.339,0l-8.079,2.6Z"/></svg>