<svg xmlns="http://www.w3.org/2000/svg" width="18" height="18" viewBox="0 0 18 18"><defs><style>.a{fill:#a3acb4;}</style></defs><path class="a" d="M17,8a9,9,0,1,0,9,9A9,9,0,0,0,17,8Zm0,16.258A7.258,7.258,0,1,1,24.258,17,7.256,7.256,0,0,1,17,24.258Zm3.694-9.515L18.437,17l2.257,2.257a.436.436,0,0,1,0,.617l-.82.82a.436.436,0,0,1-.617,0L17,18.437l-2.257,2.257a.436.436,0,0,1-.617,0l-.82-.82a.436.436,0,0,1,0-.617L15.563,17l-2.257-2.257a.436.436,0,0,1,0-.617l.82-.82a.436.436,0,0,1,.617,0L17,15.563l2.257-2.257a.436.436,0,0,1,.617,0l.82.82a.436.436,0,0,1,0,.617Z" transform="translate(-8 -8)"/></svg>