<svg xmlns="http://www.w3.org/2000/svg" xmlns:xlink="http://www.w3.org/1999/xlink" width="211.457" height="120.598" viewBox="0 0 211.457 120.598"><defs><style>.a{fill:#bbb;}.a,.b,.g,.i,.t{opacity:0.1;}.b,.k,.m{fill:#fff;}.c{fill:url(#a);}.d{fill:#be6f72;}.e{fill:#3f3d56;}.f{fill:#65617d;}.h{fill:#e3e8f4;}.j{fill:#fff67a;}.k{opacity:0.3;}.l{opacity:0.04;}.m{opacity:0.22;}.n{fill:#f8d33f;}.o{fill:url(#b);}.p{fill:#f86d70;}.q{fill:#fbbebe;}.r{fill:#444053;}.s{fill:#e8e8f0;}.t,.u{fill:#af6eeb;}</style><linearGradient id="a" x1="0.5" y1="1" x2="0.5" gradientUnits="objectBoundingBox"><stop offset="0" stop-color="gray" stop-opacity="0.251"/><stop offset="0.54" stop-color="gray" stop-opacity="0.122"/><stop offset="1" stop-color="gray" stop-opacity="0.102"/></linearGradient><linearGradient id="b" x1="0" y1="0.5" x2="1" y2="0.5" xlink:href="#a"/></defs><g transform="translate(0.02 0)"><path class="a" d="M155.979,239.69c4.085-.233,9.153-3,13.094-4.229q7-2.17,14.048-4.175,24.548-6.985,49.623-11.9,2.34-.46,4.687-.9a33.18,33.18,0,0,0-10.953-13.155,33.662,33.662,0,0,0,.185-3.471,32.949,32.949,0,0,0-32.716-33.18,32.2,32.2,0,0,0-15.877,4.168c-12.791-8.414-29.485-13.506-47.751-13.506-25.955,0-48.74,10.282-61.65,25.766l60.678,10.251,37.215,6.284c-42.426,1.266-84.982,2.525-127.286-.447a33.533,33.533,0,0,0-4.828,42.328h0c0,.664.028,1.322.078,1.974,1.078.309,2.118.608,3.052.8q22.478,4.748,45.244,7.948c-11.184,6.9-24.805,7.872-37.707,10.793a37.808,37.808,0,0,0,24.081,8.318H208.4c15.073,0,27.291-10.493,27.291-23.439h0a33.3,33.3,0,0,0,4.436-12.179C212.234,240.433,183.995,238.1,155.979,239.69Z" transform="translate(-28.88 -152.759)"/><path class="b" d="M239.436,230.678a33.271,33.271,0,0,0-14.048-27.249,34.144,34.144,0,0,0,.185-3.469,32.949,32.949,0,0,0-32.716-33.174,32.213,32.213,0,0,0-15.879,4.166c-12.791-8.417-29.487-13.512-47.753-13.512-29.711,0-55.285,13.484-66.626,32.82-.63-.037-1.264-.057-1.9-.057a32.952,32.952,0,0,0-32.716,33.18,33.369,33.369,0,0,0,5.382,18.238h0c0,16.487,15.561,29.853,34.749,29.853H207.319c15.072,0,27.289-10.5,27.289-23.441h0a33.367,33.367,0,0,0,4.828-17.354Z" transform="translate(-28 -151.211)"/><path class="c" d="M754.8,266.447a2.059,2.059,0,0,0-.9-.4c-.346-.079-.7-.129-1.05-.185l-4.551-.656a5.361,5.361,0,0,0-1.394-.074,1.769,1.769,0,0,0-1.213.628.945.945,0,0,0-.211.591,1.559,1.559,0,0,0,.207.614,2.057,2.057,0,0,1,.113.272,6.209,6.209,0,0,0,.163.619.523.523,0,0,0,.078.122.207.207,0,0,1,0,.031c-.05.255.111.521.039.767-.063.211-.268.338-.4.514a.773.773,0,0,0-.018.852c.139.214.39.36.462.606.094.323-.161.636-.388.885a13.738,13.738,0,0,0-1.157,1.458.9.9,0,0,0-.185.434c-.02.322.288.6.235.924-.042.251-.288.4-.5.555a3.117,3.117,0,0,0-1.479,2.29,8.022,8.022,0,0,0-1.789-4.066,2.909,2.909,0,0,1-.664-1.041c-.041-.161-.048-.333-.1-.488-.185-.49-.773-.7-1.03-1.152-.185-.318-.185-.726-.414-1.005s-.59-.342-.787-.612a3.908,3.908,0,0,1-.251-.569,1.244,1.244,0,0,0-.342-.41.984.984,0,0,0-.085-.061.294.294,0,0,0,.1-.218c0-.216-.214-.359-.4-.466-.24-.137-.475-.285-.7-.438a1.648,1.648,0,0,0,.63-.516,1.7,1.7,0,0,0,.24-1.109,1.4,1.4,0,0,0-.331-.848c-.116-.124-.262-.213-.384-.329a2.7,2.7,0,0,1-.555-1.187,2.414,2.414,0,0,0-.952-1.431c-.244-.142-.529-.209-.767-.359a.669.669,0,0,1-.355-.7c.055-.185.227-.312.344-.469a.935.935,0,0,0-.235-1.294c-.137-.087-.3-.163-.333-.322a.588.588,0,0,1-.429-.455,1.752,1.752,0,0,1,0-.658q.072-.516.142-1.028a.67.67,0,0,0,.514,0,4.527,4.527,0,0,0,.554.725,7.238,7.238,0,0,1,1.294,2.246,1.352,1.352,0,0,0,.486.784c.094.054.2.081.294.139a1.1,1.1,0,0,1,.288.3c.222.294.444.586.664.88l.011.044a.259.259,0,0,0,.03.074.246.246,0,0,0,.159.081,2.694,2.694,0,0,0,2.033-.07c.532-.333.765-.991,1.216-1.431.32-.312.773-.555.863-.994a3.26,3.26,0,0,1-.318-.116c.092-.092.185-.2.311-.322a3.917,3.917,0,0,0,.492-.586,3.773,3.773,0,0,0,.37-.828q.534-1.523,1.072-3.048c.17-.481.34-.965.555-1.432.222-.506.484-.993.726-1.49a19.781,19.781,0,0,0,1.438-4.048,1.48,1.48,0,0,0,.057-.59,1.555,1.555,0,0,0-.525-.8,3.854,3.854,0,0,0-.787-.652,1.294,1.294,0,0,0-.987-.159,1.426,1.426,0,0,0-.88,1.109,11.642,11.642,0,0,0-.115,1.479c-.066.712-.31,1.4-.37,2.113-.031.412,0,.83-.05,1.242a4.533,4.533,0,0,1-.555,1.53,9.907,9.907,0,0,1-2.39,2.946c-.113.094-.229.185-.34.286a1.752,1.752,0,0,1,.024-.24,1.445,1.445,0,0,0-.235.083.7.7,0,0,0-.028-.277c-.148-.442-.806-.555-.924-1a2.059,2.059,0,0,1-.031-.336,8.55,8.55,0,0,0-.4-1.109,4.74,4.74,0,0,0-.185-1.067,2.985,2.985,0,0,0-.492-.554,2.176,2.176,0,0,1-.468-.882c-.024-.091-.046-.185-.072-.275a1.261,1.261,0,0,0-.067-.608c-.168-.418-.6-.686-.76-1.109-.122-.329-.068-.739-.3-.994a1.082,1.082,0,0,0-.438-.264,9.748,9.748,0,0,0-2.638-.623,2.246,2.246,0,0,1-1.427-.429c-.423-.414-.444-1.159-.939-1.479a1.122,1.122,0,0,0-1.392.323,1.756,1.756,0,0,0-.141.185,1.977,1.977,0,0,1-.039-.758c0-.063.013-.128.019-.185a3.7,3.7,0,0,0,2-1.582v.011l.022.057c.054.135.139.264.264.279h0a.37.37,0,0,0,.229-.083,1.9,1.9,0,0,0,.307-.266q.07-.078.133-.161a2.09,2.09,0,0,0,.218-.37,2.2,2.2,0,0,0,.185-.619c.033-.214.037-.434.074-.649a4,4,0,0,1,.135-.49c.019-.054.037-.107.054-.161s.041-.126.059-.185a4.281,4.281,0,0,0,.185-1.172v-.2a1.95,1.95,0,0,0-.621-1.377c-.318-.261-.739-.37-.972-.723a3.439,3.439,0,0,1-.274-.819,1.848,1.848,0,0,0-1.453-1.307,1.617,1.617,0,0,0-1.15.316h0l-.026.02h0a1.847,1.847,0,0,0-.458.51,1.524,1.524,0,0,1-.651-.37c-.185-.172-.327-.388-.514-.555a1.322,1.322,0,0,0-1.316-.277,1.573,1.573,0,0,0-.941,1.078,3.756,3.756,0,0,1-.3,1.137c-.165.248-.434.37-.623.6a1.12,1.12,0,0,0-.233.493h0a1.332,1.332,0,0,0-.031.309h0a.568.568,0,0,0,.011.137v.022a.986.986,0,0,0,.031.15h0a1.294,1.294,0,0,0,.275.506,1.217,1.217,0,0,0,.445.322,1.8,1.8,0,0,0,.214.068l.22.05.078.018a3.686,3.686,0,0,0-.1,3.255,1.479,1.479,0,0,1-.018.155,12.787,12.787,0,0,0,.1,2.179,1.17,1.17,0,0,1-.135.83,1.577,1.577,0,0,1-.268.238c.1-.129.2-.257.3-.384a1.318,1.318,0,0,0-1.042-.27,4.83,4.83,0,0,0-2.033.621,2.276,2.276,0,0,1-1.312.5c-.279-.031-.555-.185-.826-.111a1.674,1.674,0,0,0-.423.251.573.573,0,0,1-.348.107,7.5,7.5,0,0,0-1.087-.889,8.565,8.565,0,0,1-1.081-1.159c-.6-.723-1.2-1.447-1.784-2.177a4.194,4.194,0,0,1-1.091-2.063,2.024,2.024,0,0,1-.013-.235,5.973,5.973,0,0,1,.14-1.109.555.555,0,0,0,0-.268c-.055-.185-.268-.253-.451-.294h0c.024-.142.041-.288.05-.427a32.4,32.4,0,0,1,.327-4.761,3.236,3.236,0,0,1,.767-1.64c.675-.682,1.8-.847,2.322-1.654a1.887,1.887,0,0,0-.283-2.218,2.8,2.8,0,0,0-2.177-.806,1.124,1.124,0,0,0-.634.17,1.348,1.348,0,0,0-.385.584l-.793,1.928a11.648,11.648,0,0,0-.58,1.549c-.222.81-.272,1.664-.447,2.481a6.449,6.449,0,0,1-.627,1.991c-.248.651-.516,1.294-.739,1.957-.056.166-.25.66-.37,1.109a.677.677,0,0,0-.126.094,3.339,3.339,0,0,0-.262.39c-.168.222-.442.34-.627.555s-.224.608.033.715a.754.754,0,0,0,.161.035.525.525,0,0,1,.445.732c-.041.288-.185.555-.209.843a2.274,2.274,0,0,0,.538,1.414,12.193,12.193,0,0,0,.987,1.329c.261.292.555.555.817.835,1,1.028,1.795,2.229,2.693,3.346a7.414,7.414,0,0,0,1.1,1.15,8.262,8.262,0,0,0,.83.571l1.545.98a1.693,1.693,0,0,0,.584.275.776.776,0,0,0,.207,0c.009.046.017.091.028.137a8.138,8.138,0,0,1,.414,1.418c.03.494-.015,1,.02,1.5.033.46.135.924.161,1.377a8.847,8.847,0,0,1-.37,2.588,15.425,15.425,0,0,1-1.109,3.658,2.151,2.151,0,0,0-.37.987.513.513,0,0,0,.011.129h0l-.277.157c-.081.046-.163.092-.237.141a1.979,1.979,0,0,0-.871.878c-.116.32-.063.686-.2,1a.447.447,0,0,1-.022.041c-.148.288-.442.5-.508.819h0c-.05.242.046.5,0,.739v.009a2.66,2.66,0,0,0-.1.37.443.443,0,0,0,.011.122.7.7,0,0,0,.222.36,1.479,1.479,0,0,0,.216.172q.118.078.244.144l.048.026c.07.037.141.072.213.105l.048.02c.083.037.168.07.253.1l.059.018c.066.022.135.043.2.059l.046.015.042.009.185.039.068.013q.122.02.25.033h.074c.063,0,.124.009.185.011h.338a2.067,2.067,0,0,0,.261-.024h.028c.078-.011.155-.024.233-.041l.059-.013c.072-.017.144-.033.216-.055l.039-.011c.087-.026.174-.054.259-.087a6.793,6.793,0,0,0,.854-.423c.185-.1.37-.205.554-.3a4.314,4.314,0,0,1,.421-.185,2.379,2.379,0,0,1,1.109-.185,4.343,4.343,0,0,1,.555.113v.061q.225,1.331.445,2.662a5.412,5.412,0,0,1,.765-.46,1.7,1.7,0,0,0-.1.416,1.638,1.638,0,0,0,0,.331.718.718,0,0,1-.052.508c-.065.085-.185.133-.22.229a.783.783,0,0,0-.018.3.481.481,0,0,1-.44.447.7.7,0,0,1-.279.824.978.978,0,0,0-.214.14.64.64,0,0,0-.124.279,4.939,4.939,0,0,1-1.447,2.379,4.663,4.663,0,0,0-.715.7,3.185,3.185,0,0,0-.323.638q-.739,1.808-1.5,3.617a8.028,8.028,0,0,0-.643,2.087c-.222,1.992-2,3.682-1.664,5.66a2.773,2.773,0,0,0,.577,1.351,3.4,3.4,0,0,0,1.479.908,26.92,26.92,0,0,0,4.425,1.163l2.351.482a10.273,10.273,0,0,0,1.4.222,9.17,9.17,0,0,1,1.7.129,5.292,5.292,0,0,0,1.022.272c.3.017.677-.048.856.2s.041.575.211.795c.274.349.941,0,1.238.329a1.533,1.533,0,0,1,.185.409.74.74,0,0,0,.185.233,1.557,1.557,0,0,1,.022.316,5.447,5.447,0,0,1-.266,1.261q-.333,1.126-.664,2.253a5,5,0,0,0-.185.813,1.958,1.958,0,0,0,0,.4,1.107,1.107,0,0,0,.664.963,1.216,1.216,0,0,0,.9-.111,3.971,3.971,0,0,0,.739-.5,5.051,5.051,0,0,0,1.066-1.1c.924-1.383.625-3.253,1.273-4.782.431-1.02,1.27-1.848,1.549-2.924a1.169,1.169,0,0,0,.022-.632,1.31,1.31,0,0,0-.878-.713h-.017a7.575,7.575,0,0,0-.924-.264c-.078-.017-.157-.03-.237-.043a1.451,1.451,0,0,1-.409-.532,1.242,1.242,0,0,0-.087-.32.333.333,0,0,0-.266-.148c-.185-.018-.433.048-.634.033-.412-.03-.686-.434-1.055-.621a2.155,2.155,0,0,0-1.165-.113,1.079,1.079,0,0,1-.421-.026,1.585,1.585,0,0,1-.444-.305,1.859,1.859,0,0,0-1.628-.327,1.775,1.775,0,0,1-.555.126c-.36-.02-.616-.342-.882-.586a10.584,10.584,0,0,0-2.649-1.281.6.6,0,0,1-.318-.274c-.1-.251.128-.5.335-.675L725,283.211c1.664-1.383,3.743-2.423,4.516-4.451a2.574,2.574,0,0,1,.37-.76,1.029,1.029,0,0,1,.205-.185,1.553,1.553,0,0,1,1.137-.222,3.839,3.839,0,0,1,1.338.584q.993.6,1.932,1.294a17.082,17.082,0,0,1,1.765,1.449c.97.924,1.778,2.02,2.682,3.017a8.616,8.616,0,0,0,3.192,2.4,4.108,4.108,0,0,0,3.85-.344c1.244-.924,1.643-2.577,1.957-4.092a6.613,6.613,0,0,0,1.24-2.588c.213-.571.484-1.109.714-1.678.273-.669.488-1.36.7-2.05a9.861,9.861,0,0,0,.492-2.139c.089-1.152-.22-2.377.1-3.458a12.766,12.766,0,0,0,1.235-.475,6.116,6.116,0,0,1,1.956-.168h.043a1.009,1.009,0,0,0,.651-.153,1.036,1.036,0,0,0,.268-.787A2.4,2.4,0,0,0,754.8,266.447Zm-26.781-31.529a1.374,1.374,0,0,1-.468.033Z" transform="translate(-582.127 -207.308)"/><path class="d" d="M791.131,312.663a2.032,2.032,0,0,1-.769.408l-1.31.469a4.883,4.883,0,0,1-2.205.42,7.313,7.313,0,0,1-2.49-.643c-.414-.506,1.037-1.251,1.532-1.678a2.1,2.1,0,0,0,.311-.274,1.115,1.115,0,0,0,.135-.826,12.744,12.744,0,0,1-.1-2.176,4.421,4.421,0,0,1,.074-.516c.185-.85.976-.54,1.6-.314a12.516,12.516,0,0,1,2.172.941,1.558,1.558,0,0,1,.536.455,2.312,2.312,0,0,1,.12,1.479,1.386,1.386,0,0,0,.216,1.087,2.793,2.793,0,0,1,.349.37A.693.693,0,0,1,791.131,312.663Z" transform="translate(-644.511 -273.361)"/><path class="d" d="M715.343,234.862c.185-.819.226-1.664.447-2.475a11.613,11.613,0,0,1,.58-1.543l.815-1.9a1.34,1.34,0,0,1,.385-.582,1.138,1.138,0,0,1,.634-.17,2.824,2.824,0,0,1,2.177.8,1.866,1.866,0,0,1,.283,2.205c-.518.808-1.647.97-2.322,1.651a3.231,3.231,0,0,0-.767,1.636,32.227,32.227,0,0,0-.327,4.748,1.574,1.574,0,0,1-.554,1.312,1.617,1.617,0,0,1-.828.161l-1.212.02c-.2,0-.941.128-1.076-.026-.237-.268.3-1.6.4-1.9.218-.66.486-1.3.74-1.952A6.494,6.494,0,0,0,715.343,234.862Z" transform="translate(-586.826 -208.881)"/><path class="e" d="M831.494,571.109c-.279,1.068-1.118,1.9-1.549,2.919-.649,1.525-.357,3.39-1.273,4.769a5.035,5.035,0,0,1-1.067,1.1,3.961,3.961,0,0,1-.739.5,1.216,1.216,0,0,1-.9.111,1.106,1.106,0,0,1-.664-.961,1.94,1.94,0,0,1,0-.4,4.983,4.983,0,0,1,.185-.811q.333-1.122.664-2.248a5.437,5.437,0,0,0,.266-1.257c.024-.466-.272-1.072-.146-1.506.057-.2.272-.37.37-.534a3.094,3.094,0,0,0,.318-.756,4.7,4.7,0,0,1,.573-1.5,3.518,3.518,0,0,1,.721-.675,1.911,1.911,0,0,1,.688-.386,1.684,1.684,0,0,1,.739.035,7.255,7.255,0,0,1,.924.262h.017a1.294,1.294,0,0,1,.878.712A1.163,1.163,0,0,1,831.494,571.109Z" transform="translate(-677.941 -487.06)"/><path class="e" d="M921.7,441.11a1.024,1.024,0,0,1-.268.786,1.009,1.009,0,0,1-.651.153h-.05a6.23,6.23,0,0,0-1.956.168,7.393,7.393,0,0,1-1.407.5,3.432,3.432,0,0,1-1.928-.621,19.175,19.175,0,0,0-1.75-.832c-.392-.161-1.192-.264-1.381-.693a6.333,6.333,0,0,1-.163-.617,2.036,2.036,0,0,0-.113-.272,1.561,1.561,0,0,1-.207-.612.945.945,0,0,1,.211-.591,1.773,1.773,0,0,1,1.211-.623,5.36,5.36,0,0,1,1.394.074l4.551.654a10.648,10.648,0,0,1,1.05.185,2.059,2.059,0,0,1,.9.4A2.336,2.336,0,0,1,921.7,441.11Z" transform="translate(-748.483 -379.785)"/><path class="f" d="M782.91,449.316c-.554,1.17-.155,2.554-.255,3.848a9.811,9.811,0,0,1-.492,2.133c-.214.688-.429,1.377-.7,2.044-.229.555-.5,1.109-.713,1.675a6.719,6.719,0,0,1-1.24,2.588c-.314,1.512-.713,3.164-1.957,4.081a4.1,4.1,0,0,1-3.85.344,8.615,8.615,0,0,1-3.192-2.4c-.9-1-1.712-2.081-2.682-3.009a16.823,16.823,0,0,0-1.769-1.447q-.939-.682-1.932-1.283a3.867,3.867,0,0,0-1.338-.582,1.553,1.553,0,0,0-1.137.222,1.028,1.028,0,0,0-.205.185,2.543,2.543,0,0,0-.37.758c-.776,2.022-2.859,3.061-4.523,4.44l-1.519,1.259c-.207.172-.436.423-.335.673a.6.6,0,0,0,.318.274,10.576,10.576,0,0,1,2.649,1.277c.266.244.521.566.882.584a1.77,1.77,0,0,0,.555-.124,1.865,1.865,0,0,1,1.628.325,1.583,1.583,0,0,0,.444.3,1.076,1.076,0,0,0,.421.026,2.251,2.251,0,0,1,1.164.113c.353.176.643.59,1.055.619.2.015.442-.052.634-.033a.333.333,0,0,1,.266.148,1.23,1.23,0,0,1,.087.318c.076.261.331.42.5.634a1.752,1.752,0,0,1,.266,1.192,5.088,5.088,0,0,1-1.619,3.4,2,2,0,0,1-1,.555.924.924,0,0,1-.987-.438,1.518,1.518,0,0,0-.185-.407c-.3-.327-.965.02-1.238-.329-.17-.218-.048-.567-.211-.793s-.555-.185-.856-.2a5.423,5.423,0,0,1-1.022-.272,9.183,9.183,0,0,0-1.7-.129,10.278,10.278,0,0,1-1.4-.222L753,471.189a27.862,27.862,0,0,1-4.425-1.159,3.561,3.561,0,0,1-1.479-.906,2.774,2.774,0,0,1-.577-1.349c-.334-1.972,1.44-3.658,1.664-5.645a7.92,7.92,0,0,1,.643-2.081q.752-1.8,1.5-3.61a3.211,3.211,0,0,1,.314-.64,4.646,4.646,0,0,1,.715-.7,4.922,4.922,0,0,0,1.447-2.373.641.641,0,0,1,.124-.279,1.037,1.037,0,0,1,.214-.139.7.7,0,0,0,.279-.823.481.481,0,0,0,.44-.447.774.774,0,0,1,.019-.3c.044-.1.155-.144.22-.229a.714.714,0,0,0,.052-.506,1.647,1.647,0,0,1,0-.331,1.7,1.7,0,0,1,.5-1.033c.442-.434,1.07-.322,1.68-.425a9.624,9.624,0,0,0,1.774-.567,17.433,17.433,0,0,1,5.011-1.159,10.94,10.94,0,0,1,5.061.806,2.877,2.877,0,0,1,.653.37,1.237,1.237,0,0,1,.342.408,3.807,3.807,0,0,0,.251.568c.2.27.571.357.787.612s.235.686.414,1c.257.451.852.66,1.03,1.15.055.155.063.325.1.486a2.782,2.782,0,0,0,.664,1.039A7.987,7.987,0,0,1,774.2,457a3.093,3.093,0,0,1,1.479-2.285c.213-.139.458-.292.5-.543.054-.318-.255-.6-.235-.924a.906.906,0,0,1,.185-.433,13.679,13.679,0,0,1,1.157-1.455c.227-.25.482-.555.388-.884-.072-.246-.323-.39-.462-.6a.769.769,0,0,1,.018-.85c.129-.176.335-.3.4-.512.072-.246-.089-.512-.039-.765a.946.946,0,0,1,.381-.493,3.85,3.85,0,0,1,4.7.442A1.753,1.753,0,0,1,782.91,449.316Z" transform="translate(-613.69 -386.807)"/><path class="g" d="M921.678,441.11a1.025,1.025,0,0,1-.268.786,1.009,1.009,0,0,1-.651.153h-.05c.076-.384.543-.6.625-.994a.88.88,0,0,0-.2-.671,3.332,3.332,0,0,0-1.664-1.046,11.021,11.021,0,0,0-5.556-.416,5.6,5.6,0,0,0-1.46.449,4.755,4.755,0,0,0-.444.314,1.562,1.562,0,0,1-.207-.612.944.944,0,0,1,.211-.591,1.773,1.773,0,0,1,1.211-.623,5.36,5.36,0,0,1,1.394.074l4.551.654a10.654,10.654,0,0,1,1.05.185,2.058,2.058,0,0,1,.9.4A2.321,2.321,0,0,1,921.678,441.11Z" transform="translate(-748.458 -379.785)"/><path class="g" d="M831.494,572.558c-.279,1.068-1.118,1.9-1.549,2.919-.649,1.525-.357,3.39-1.273,4.769a5.036,5.036,0,0,1-1.067,1.1,3.958,3.958,0,0,1-.739.5,1.216,1.216,0,0,1-.9.111,1.106,1.106,0,0,1-.664-.961,1.941,1.941,0,0,1,0-.4l.011.03c.161.388.423.795.837.863a1.134,1.134,0,0,0,.854-.3,5.28,5.28,0,0,0,1.3-1.924,8.007,8.007,0,0,0,.625-1.6c.074-.314.109-.636.185-.95.351-1.527,1.547-2.772,1.811-4.32a1.058,1.058,0,0,0,.015-.323,1.634,1.634,0,0,0-.159-.4,2,2,0,0,1-.141-.447,1.294,1.294,0,0,1,.878.712A1.162,1.162,0,0,1,831.494,572.558Z" transform="translate(-677.941 -488.509)"/><path class="g" d="M792.365,516.474a2.679,2.679,0,0,1-.834,1.139,4.068,4.068,0,0,1-1.795.776,1.786,1.786,0,0,1-.924-.011c-.41-.142-.706-.527-1.126-.638a7.711,7.711,0,0,0-.924-.054,3.28,3.28,0,0,1-1.408-.824c-1.348-1.013-3.116-1.34-4.464-2.353a.413.413,0,0,1-.144-.15.444.444,0,0,1-.028-.209,4.251,4.251,0,0,1,.4-1.776,6.2,6.2,0,0,1,.762-1.085,32.922,32.922,0,0,1,3.865-4.216,5.857,5.857,0,0,1,2.033-1.248,3.047,3.047,0,0,1,1.782-.033,1.031,1.031,0,0,0-.205.185,2.542,2.542,0,0,0-.37.758c-.778,2.024-2.861,3.063-4.525,4.442l-1.519,1.259c-.207.172-.436.423-.334.673a.6.6,0,0,0,.318.274,10.573,10.573,0,0,1,2.649,1.277c.266.244.521.566.882.584a1.768,1.768,0,0,0,.554-.124,1.865,1.865,0,0,1,1.628.325,1.587,1.587,0,0,0,.444.305,1.079,1.079,0,0,0,.421.026,2.25,2.25,0,0,1,1.164.113c.353.176.643.59,1.055.619C791.933,516.522,792.173,516.452,792.365,516.474Z" transform="translate(-641.603 -435.075)"/><path class="e" d="M744.234,398.589a1.963,1.963,0,0,0-.869.872c-.118.32-.063.686-.205,1s-.462.527-.532.859c-.05.242.048.5,0,.739a3.19,3.19,0,0,0-.1.384c-.018.275.218.5.449.652a3.752,3.752,0,0,0,3.358.37,15.176,15.176,0,0,0,1.412-.723,2.793,2.793,0,0,1,1.521-.37c.3.033.6.144.9.185a.946.946,0,0,0,.845-.251,1.054,1.054,0,0,0,.185-.438,6.547,6.547,0,0,0-.1-3.111c-.244-1.02-.614-2-.874-3.017a13.836,13.836,0,0,0-.636-2.235,2.932,2.932,0,0,0-1.554-1.645.29.29,0,0,0-.185-.024.314.314,0,0,0-.12.089,5.684,5.684,0,0,0-1.268,2.133c-.29.885-.37,1.824-.636,2.713a2.778,2.778,0,0,1-.555,1.148A6.337,6.337,0,0,1,744.234,398.589Z" transform="translate(-610.471 -342.276)"/><path class="g" d="M751.22,401.8a1.078,1.078,0,0,1-.194.438.937.937,0,0,1-.845.25c-.3-.037-.6-.15-.9-.185a2.787,2.787,0,0,0-1.521.37c-.473.237-.924.53-1.414.721a3.732,3.732,0,0,1-2.242.128,3.618,3.618,0,0,1-1.109-.488.8.8,0,0,1-.449-.652,3.149,3.149,0,0,1,.1-.383c.048-.242-.048-.5,0-.739.07-.333.392-.555.532-.861s.087-.675.2-.994a1.971,1.971,0,0,1,.871-.874,6.64,6.64,0,0,0,1.05-.677,1.039,1.039,0,0,0,.1-.137,3.328,3.328,0,0,0,.44-1.018c.272-.891.346-1.828.634-2.715a5.694,5.694,0,0,1,1.27-2.131.279.279,0,0,1,.118-.089.3.3,0,0,1,.185.022,2.953,2.953,0,0,1,1.554,1.647,14.538,14.538,0,0,1,.636,2.233c.259,1.015.63,2,.874,3.018A6.575,6.575,0,0,1,751.22,401.8Z" transform="translate(-610.487 -342.218)"/><path class="g" d="M799.363,310.427a3.7,3.7,0,0,1-4.5-2.033,4.373,4.373,0,0,1,.074-.516c.185-.85.976-.54,1.6-.314a12.514,12.514,0,0,1,2.172.941,1.56,1.56,0,0,1,.536.455A2.278,2.278,0,0,1,799.363,310.427Z" transform="translate(-653.133 -273.385)"/><circle class="d" cx="3.697" cy="3.697" r="3.697" transform="translate(141.417 29.637)"/><path class="g" d="M802.685,447.788c0,.307-.416.4-.725.388a23.406,23.406,0,0,0-3.292-.277c-1.388.126-2.663.893-4.055.963a12.3,12.3,0,0,0-1.61.046c-.684.128-1.294.543-1.991.6-.6.052-1.2-.176-1.806-.152A2.9,2.9,0,0,0,788,449.7a1.7,1.7,0,0,1,.5-1.033c.442-.434,1.07-.322,1.68-.425a9.626,9.626,0,0,0,1.774-.567,17.433,17.433,0,0,1,5.011-1.159,10.941,10.941,0,0,1,5.059.8,2.878,2.878,0,0,1,.652.37A.291.291,0,0,1,802.685,447.788Z" transform="translate(-647.541 -386.828)"/><path class="h" d="M777.421,332.793l-1.5-.555-.632-.233a3.056,3.056,0,0,0-.806-.214,2.052,2.052,0,0,0-1.793,1.043,5.631,5.631,0,0,0-.656,2.065q-.255,1.468-.433,2.946a19.259,19.259,0,0,0-.194,2.688,31.831,31.831,0,0,0,1.059,6.772,23.833,23.833,0,0,1,.59,3c.044.418.065.837.109,1.257.048.471.126.937.2,1.4l.445,2.656a3.511,3.511,0,0,1,1.867-.76c.6-.022,1.2.2,1.806.152a20.616,20.616,0,0,0,1.991-.6,11.988,11.988,0,0,1,1.612-.046c1.39-.07,2.667-.839,4.053-.963a22.268,22.268,0,0,1,3.294.275c.307.018.723-.079.723-.388,0-.214-.214-.357-.4-.464a19.783,19.783,0,0,1-2.5-1.787,8.455,8.455,0,0,1-1.969-1.948c-1.207-1.876-.793-4.414-1.822-6.393-.837-1.608,0-3.715,0-5.528a8.411,8.411,0,0,0-.708-4.138l-.719-1.821a.3.3,0,0,0-.085-.139.283.283,0,0,0-.165-.05,1.734,1.734,0,0,0-1.194.383c-.338.275-.555.671-.887.957A1.35,1.35,0,0,1,777.421,332.793Z" transform="translate(-634.017 -292.709)"/><path class="e" d="M808.849,326.625a3.28,3.28,0,0,1,.584-1.429,1.123,1.123,0,0,1,1.392-.322c.5.322.516,1.065.939,1.479a2.278,2.278,0,0,0,1.427.429,9.679,9.679,0,0,1,2.638.621,1.079,1.079,0,0,1,.438.262c.231.262.185.665.3.993.157.421.591.689.76,1.109a2.212,2.212,0,0,1-.155,1.466c-.279.859-.455,1.752-.726,2.615a5.823,5.823,0,0,1-1.294,2.364c-.281.288-.7.554-1.068.383l-.142,1.026a1.745,1.745,0,0,0,0,.656.588.588,0,0,0,.429.455c.028.159.2.235.333.322a.924.924,0,0,1,.235,1.294c-.116.157-.288.281-.344.468a.664.664,0,0,0,.355.7c.24.148.523.216.767.359a2.385,2.385,0,0,1,.952,1.425,2.641,2.641,0,0,0,.554,1.185c.122.116.268.205.384.327a1.4,1.4,0,0,1,.331.848,1.684,1.684,0,0,1-.24,1.109,3.35,3.35,0,0,1-1.664.924,14.016,14.016,0,0,0-2.654,1.737,2.831,2.831,0,0,1-1.211.569,10.6,10.6,0,0,1-1.791-.209,4.447,4.447,0,0,0-1.068.141l-1.109.24a7.189,7.189,0,0,0-.678-2.54,12.623,12.623,0,0,1-.473-4.806,37.649,37.649,0,0,1,.773-4.795,30.564,30.564,0,0,1,.555-3.345,22.049,22.049,0,0,0,.967-3.113C809.621,329.828,808.453,328.348,808.849,326.625Z" transform="translate(-663.029 -287.591)"/><path class="e" d="M850.092,352.253a2.036,2.036,0,0,1,.213.6,2.167,2.167,0,0,0,.468.88,3.03,3.03,0,0,1,.492.555,4.142,4.142,0,0,1,.185,1.065,8.537,8.537,0,0,1,.4,1.109,2.018,2.018,0,0,0,.031.336c.12.447.778.555.924,1,.1.29-.07.606-.039.911a.8.8,0,0,1,.017.288.586.586,0,0,1-.211.27,4.252,4.252,0,0,0-1.216,2.164,12.333,12.333,0,0,0-.279,2.5l-.723-.956a1.1,1.1,0,0,0-.288-.3c-.092-.055-.2-.083-.294-.139a1.337,1.337,0,0,1-.486-.78,7.207,7.207,0,0,0-1.294-2.24,2.445,2.445,0,0,1-.7-1.142,2.1,2.1,0,0,1,.033-.617,10.528,10.528,0,0,1,.972-3.525c.275-.5.632-.957.9-1.468C849.369,352.434,849.618,351.554,850.092,352.253Z" transform="translate(-695.864 -309.801)"/><path class="e" d="M718.113,302.41a.845.845,0,0,1-.115.444.584.584,0,0,1-.584.185,1.689,1.689,0,0,1-.584-.274l-1.545-.978a8.552,8.552,0,0,1-.83-.569,7.416,7.416,0,0,1-1.1-1.148c-.9-1.109-1.693-2.312-2.693-3.327-.272-.277-.555-.543-.817-.834a12.154,12.154,0,0,1-.987-1.327,2.26,2.26,0,0,1-.538-1.41c.03-.288.168-.555.209-.841a.524.524,0,0,0-.445-.73.753.753,0,0,1-.161-.035c-.257-.107-.218-.5-.033-.713s.458-.325.627-.555a3.356,3.356,0,0,1,.262-.39,1,1,0,0,1,.431-.216,6.666,6.666,0,0,1,3.281-.124c.185.041.4.115.451.294a.543.543,0,0,1,0,.266,5.932,5.932,0,0,0-.141,1.109,1.927,1.927,0,0,0,.013.233,4.182,4.182,0,0,0,1.09,2.059c.588.728,1.185,1.451,1.784,2.172a8.531,8.531,0,0,0,1.081,1.155,6.173,6.173,0,0,1,1.137.948,2.074,2.074,0,0,1,.185,1.135A25.185,25.185,0,0,1,718.113,302.41Z" transform="translate(-582.119 -258.796)"/><path class="d" d="M877.268,341.395a3.886,3.886,0,0,0,.492-.582,3.842,3.842,0,0,0,.37-.826l1.072-3.041c.17-.481.34-.963.554-1.431.222-.5.484-.991.727-1.479a19.723,19.723,0,0,0,1.436-4.02,1.488,1.488,0,0,0,.057-.59,1.549,1.549,0,0,0-.525-.8,3.845,3.845,0,0,0-.787-.651,1.294,1.294,0,0,0-.987-.159,1.426,1.426,0,0,0-.88,1.109,11.578,11.578,0,0,0-.115,1.479c-.067.71-.31,1.4-.37,2.107-.031.412,0,.828-.05,1.238a4.525,4.525,0,0,1-.554,1.529,9.925,9.925,0,0,1-2.39,2.939,3.839,3.839,0,0,0-.717.689,2.251,2.251,0,0,0-.346.861,1.984,1.984,0,0,0,.15,1.4,2.054,2.054,0,0,0,1.432.854C876.584,342.18,876.755,341.925,877.268,341.395Z" transform="translate(-717.8 -290.069)"/><path class="e" d="M793.165,269.247a1.725,1.725,0,0,1,1.675-.908,1.848,1.848,0,0,1,1.453,1.3,3.373,3.373,0,0,0,.273.817c.229.357.654.46.972.719a1.946,1.946,0,0,1,.621,1.375,4.158,4.158,0,0,1-.246,1.554,4.95,4.95,0,0,0-.185.651c-.037.214-.041.432-.074.647a2.107,2.107,0,0,1-.848,1.4.37.37,0,0,1-.229.083c-.144-.017-.233-.185-.287-.336-.294-.848-.224-1.885-.765-2.562a2.8,2.8,0,0,0-.876-.652,1.13,1.13,0,0,0-.447-.168,1.178,1.178,0,0,0-.647.237,4.027,4.027,0,0,1-1.279.566,1.571,1.571,0,0,1-1.322-.285c-.255-.211-.442-.527-.725-.691a5.586,5.586,0,0,0-.858-.268,1.27,1.27,0,0,1-.514-1.937c.185-.222.458-.348.623-.593a3.742,3.742,0,0,0,.3-1.135,1.562,1.562,0,0,1,.941-1.074,1.322,1.322,0,0,1,1.316.275c.185.166.333.381.514.555a1.479,1.479,0,0,0,1.368.37" transform="translate(-648.029 -241.27)"/><path class="g" d="M828.68,419.361a.717.717,0,0,0-.2.784,17.305,17.305,0,0,0,2.15-.309c.5-.072,1.384-.037,1.723-.5.6-.815-1.264-.634-1.606-.6A3.522,3.522,0,0,0,828.68,419.361Z" transform="translate(-680.506 -364.177)"/><path class="e" d="M713,290.135a5.953,5.953,0,0,0-.141,1.109,3.23,3.23,0,0,1-1.663-.257l-1.529-.521a.434.434,0,0,0-.584.109,12.939,12.939,0,0,1-.924,1.026.754.754,0,0,1-.161-.035c-.257-.107-.218-.5-.033-.713s.458-.325.627-.555a3.347,3.347,0,0,1,.262-.39,1,1,0,0,1,.431-.216,6.665,6.665,0,0,1,3.281-.124c.185.041.4.115.451.294A.542.542,0,0,1,713,290.135Z" transform="translate(-582.176 -258.795)"/><path class="g" d="M713,290.135a5.953,5.953,0,0,0-.141,1.109,3.23,3.23,0,0,1-1.663-.257l-1.529-.521a.434.434,0,0,0-.584.109,12.939,12.939,0,0,1-.924,1.026.754.754,0,0,1-.161-.035c-.257-.107-.218-.5-.033-.713s.458-.325.627-.555a3.347,3.347,0,0,1,.262-.39,1,1,0,0,1,.431-.216,6.665,6.665,0,0,1,3.281-.124c.185.041.4.115.451.294A.542.542,0,0,1,713,290.135Z" transform="translate(-582.176 -258.795)"/><path class="g" d="M795.348,479.948a.923.923,0,0,1,.645.484l-2.141-.543-1.109-.283c-.2-.05-.9-.107-1.028-.261-.185-.225.471-.07.59-.054.359.054.717.109,1.074.174C794.052,479.586,794.7,479.784,795.348,479.948Z" transform="translate(-650.543 -413.518)"/><path class="g" d="M796.294,486.816a4,4,0,0,0-.943-.163c-.333-.08-.66-.185-.987-.286-.664-.216-1.322-.462-2-.621-.126-.028-.555-.035-.534-.194s.429-.214.53-.222a5.241,5.241,0,0,1,1.921.44A8.465,8.465,0,0,1,796.294,486.816Z" transform="translate(-650.66 -418.49)"/><path class="g" d="M796.905,468.97a14.2,14.2,0,0,0-1.993-.688.81.81,0,0,1-.508-.155.6.6,0,0,1-.165-.3,3.445,3.445,0,0,1,1.436.36,4.51,4.51,0,0,1,.673.359C796.5,468.645,796.737,468.916,796.905,468.97Z" transform="translate(-652.627 -404.229)"/><path class="e" d="M868.516,384.46a3.233,3.233,0,0,0,2.266,3.573c-.091.438-.543.68-.863.993-.451.438-.684,1.094-1.216,1.427a2.713,2.713,0,0,1-2.033.07.248.248,0,0,1-.159-.083.227.227,0,0,1-.029-.072,4.756,4.756,0,0,1-.141-2.514,8.205,8.205,0,0,1,.983-1.911C867.679,385.325,867.712,384.663,868.516,384.46Z" transform="translate(-711.307 -336.269)"/><path class="e" d="M751.211,327.093a4.805,4.805,0,0,0-2.033.619,2.274,2.274,0,0,1-1.312.5c-.279-.031-.555-.185-.826-.111a1.617,1.617,0,0,0-.423.251.479.479,0,0,1-.466.074l-.185,2.558a9.38,9.38,0,0,0,.094,2.913,8.172,8.172,0,0,1,.414,1.416c.029.492-.015,1,.02,1.494.033.46.135.913.161,1.373a8.735,8.735,0,0,1-.37,2.575,15.317,15.317,0,0,1-1.109,3.647,2.152,2.152,0,0,0-.37.985.5.5,0,0,0,.011.129c-.185.1-.357.2-.514.3a1.971,1.971,0,0,0-.871.874c-.116.32-.063.686-.2.994s-.462.529-.532.861c-.05.242.046.5,0,.739a3.174,3.174,0,0,0-.1.383.8.8,0,0,0,.449.652,3.618,3.618,0,0,0,1.109.488l1.1-4.381h0a35.319,35.319,0,0,0,2.5-5.817,12.513,12.513,0,0,1,.723-1.915,8.993,8.993,0,0,0,.555-1.087,8.187,8.187,0,0,0,.266-1.462,10.234,10.234,0,0,1,.434-1.687,7.24,7.24,0,0,0,.471-1.808c.061-.891-.262-1.832.081-2.656a3.533,3.533,0,0,1,.564-.848c.477-.584.911-1.2,1.388-1.78A1.282,1.282,0,0,0,751.211,327.093Z" transform="translate(-610.528 -289.501)"/><g class="i" transform="translate(140.576 27.369)"><path d="M816.257,271.81l-.231.017-.026.018A1.361,1.361,0,0,0,816.257,271.81Z" transform="translate(-810.941 -271.81)"/><path d="M798.176,287.3a4.981,4.981,0,0,1-.237,1.079,4.942,4.942,0,0,0-.185.651c-.037.214-.041.433-.074.647a2.108,2.108,0,0,1-.848,1.4.37.37,0,0,1-.229.083c-.144-.017-.233-.185-.286-.336-.294-.848-.224-1.885-.765-2.562a2.8,2.8,0,0,0-.876-.652,1.129,1.129,0,0,0-.447-.168,1.177,1.177,0,0,0-.647.237,4.026,4.026,0,0,1-1.279.566,1.571,1.571,0,0,1-1.322-.285c-.255-.211-.442-.527-.725-.691a5.59,5.59,0,0,0-.858-.268,1.263,1.263,0,0,1-.721-.824.539.539,0,0,1-.015-.07,1.294,1.294,0,0,0,.015.625,1.262,1.262,0,0,0,.721.824,6.232,6.232,0,0,1,.858.268,6.991,6.991,0,0,1,.725.691,1.571,1.571,0,0,0,1.322.285,4.027,4.027,0,0,0,1.279-.566,1.177,1.177,0,0,1,.647-.237,1.13,1.13,0,0,1,.447.168,2.8,2.8,0,0,1,.863.658c.542.677.471,1.713.765,2.562.054.153.142.32.287.336a.37.37,0,0,0,.242-.089,2.107,2.107,0,0,0,.85-1.4c.033-.214.037-.432.074-.647a4.932,4.932,0,0,1,.185-.651,4.16,4.16,0,0,0,.246-1.554C798.183,287.348,798.179,287.322,798.176,287.3Z" transform="translate(-788.631 -283.459)"/></g><path class="j" d="M664.116,372.81l-.126,1.688A35.1,35.1,0,0,1,660.3,386.56a34.231,34.231,0,0,1-18.354,16.6q-1.192.471-2.475.88l-.954-2.994a35.01,35.01,0,0,0,6.88-3.009,30.447,30.447,0,0,0,12.044-12.783,34.337,34.337,0,0,0,3.161-9.3H649.015V372.81Z" transform="translate(-525.69 -326.772)"/><path class="b" d="M644.549,403.175A34.224,34.224,0,0,0,662.9,386.58a35.024,35.024,0,0,0,3.687-12.062l.126-1.688h1.294l-.126,1.688a35.047,35.047,0,0,1-3.688,12.062,34.23,34.23,0,0,1-18.352,16.595q-1.192.471-2.477.882l-.126-.394Q643.909,403.424,644.549,403.175Z" transform="translate(-529.538 -326.789)"/><path class="j" d="M427.116,401.042l-.954,2.994q-1.285-.41-2.477-.882a34.223,34.223,0,0,1-18.352-16.595,35.024,35.024,0,0,1-3.687-12.062l-.126-1.688h15.094v3.142H405.023a34.357,34.357,0,0,0,3.17,9.3,30.428,30.428,0,0,0,12.042,12.781A34.936,34.936,0,0,0,427.116,401.042Z" transform="translate(-332.496 -326.772)"/><path class="b" d="M424.719,403.175a34.223,34.223,0,0,1-18.352-16.595,35.02,35.02,0,0,1-3.687-12.062l-.126-1.688H401.26l.126,1.688a35.046,35.046,0,0,0,3.688,12.062,34.23,34.23,0,0,0,18.352,16.595q1.192.471,2.477.882l.126-.394Q425.361,403.424,424.719,403.175Z" transform="translate(-332.284 -326.789)"/><path class="j" d="M529.793,585.961V602.9H494.92V585.961l1.109-1.479c11.3-4.011,13.591-14.471,14.048-18.609a17.03,17.03,0,0,0,.116-1.723h4.312a17,17,0,0,0,.116,1.723c.464,4.138,2.754,14.6,14.048,18.609Z" transform="translate(-408.633 -482.746)"/><rect class="g" width="34.873" height="2.126" transform="translate(86.287 103.215)"/><path class="k" d="M497.877,584.482c11.3-4.011,13.591-14.471,14.048-18.609a17.012,17.012,0,0,0,.116-1.723h-1.848a17.012,17.012,0,0,1-.116,1.723c-.464,4.138-2.754,14.6-14.048,18.609l-1.109,1.479V602.9h1.848V585.961Z" transform="translate(-408.633 -482.746)"/><path class="l" d="M466.26,372.81h3.127v3.142h-2.85Q466.369,374.4,466.26,372.81Z" transform="translate(-385.27 -326.772)"/><path class="l" d="M509.652,512.271l-.954,2.994q-1.285-.41-2.477-.882a33.113,33.113,0,0,1-3.451-5.124A34.936,34.936,0,0,0,509.652,512.271Z" transform="translate(-415.032 -438.002)"/><path class="l" d="M638.51,512.279a35.005,35.005,0,0,0,6.88-3.009,33.241,33.241,0,0,1-3.451,5.126q-1.192.471-2.475.88Z" transform="translate(-525.682 -438.01)"/><path class="l" d="M698.456,372.81q-.109,1.59-.277,3.142H695.33V372.81Z" transform="translate(-572 -326.772)"/><path class="l" d="M581.505,565.873a11.948,11.948,0,0,1-4.545,0,17.02,17.02,0,0,0,.116-1.723h4.312A17,17,0,0,0,581.505,565.873Z" transform="translate(-475.509 -482.746)"/><path class="j" d="M468.26,344.65c.079,23.3,10.061,42.143,22.365,42.143s22.284-18.842,22.365-42.143Z" transform="translate(-386.9 -303.817)"/><path class="m" d="M472.234,344.65H468.26c.079,23.3,10.061,42.143,22.365,42.143a12.086,12.086,0,0,0,1.987-.168C481.237,384.724,472.31,366.682,472.234,344.65Z" transform="translate(-386.9 -303.817)"/><path class="n" d="M0,0H23.72V6.1H0Z" transform="translate(91.864 109.701)"/><path class="b" d="M498.2,594.332H520.81V593.5H497.09v6.1H498.2Z" transform="translate(-405.226 -483.799)"/><path class="o" d="M219.475,331.949c-.427-.142-2.941-2.131-3.131-3.031s1.329-9.286,1.329-9.286a3.416,3.416,0,0,1-.37-.028v-.135l.312-11.016s1.281-7.393-1.139-6.963-.9,6.963-.9,6.963-.275,3.316-.469,4.31c-.185.959-1.031,4.867-.455,6.081a1.325,1.325,0,0,0,.07.126h0s.1,4.168-.948,4.737c-1,.542-1.41,3.268-1.445,3.512l-.054-.022h0a2.9,2.9,0,0,1-.771-.7c-.022-.028-.039-.057-.059-.087a4.071,4.071,0,0,0-1.253-6.357,2.625,2.625,0,0,0-.246-1.02c-.481-1.028-3.142-2.371-5.033-2.4-.872-.026-1.588.222-1.848.9a5.215,5.215,0,0,0-.148,1.1,2.792,2.792,0,0,1-1.2,1.778,7.485,7.485,0,0,0-.8-.767,17.4,17.4,0,0,1-1.848-2.033s-3.843-3.98-4.127-5.07-4.124-7.639-4.978-6.5,2.941,6.111,2.941,6.111a11.56,11.56,0,0,0,1.275,2.416c.555.61,4.806,6.784,4.806,6.784l.2.421a3.693,3.693,0,0,0-2.009,2.015c-.425,1.383.5,2.773,1.148,4.066,1.253,2.525,1.432,5.745-.185,8.051-1.449,2.037-3.963,3.005-6.316,3.852a6.216,6.216,0,0,0,3.992,1.325c-.543,1.575-2.469,2.1-4.111,2.388a5.916,5.916,0,0,0,3.277,1.312,9.817,9.817,0,0,0,1.754.139h.144l.144-.011a5.022,5.022,0,0,0,.6-.076,3.137,3.137,0,0,0,2.12-1.394c.37-.645.5-1.525,1.17-1.848a1.5,1.5,0,0,1,.554-.131h.36l2.8.028h.357a2.312,2.312,0,0,0,2.033-.808,2.241,2.241,0,0,0,.253-1.026c.059-.885,0-1.8.024-2.689.238,1.625.488,4.157-.105,5.092a8.689,8.689,0,0,1-1.734,1.88,3.33,3.33,0,0,0-.458.469c-.091.065-.144.1-.144.1l-.057.172a3.255,3.255,0,0,0-.451,1.046.726.726,0,0,0-.035.3c.065.131-.462.673-.309.9a8.152,8.152,0,0,0-1.566,3.882l-2.4,3.649c-1.235,3.244-3.083,3.577-3.083,3.577s-4.342-2.913-4.46-3.055a16.763,16.763,0,0,0-1.778-.854,1.882,1.882,0,0,0-.854-.78c-.569-.237-.617-1.109-.617-1.109-.07-2.061-1.281-2.218-1.281-2.218a3.933,3.933,0,0,0-2.294.408l-.174.013c-.839.068-1.848.144-2.957.218-3.085.2-3.819,2.2-3.819,2.2a.615.615,0,0,0,.118.889c.5.462,3.68,0,3.815-.011a2.066,2.066,0,0,1-.725-.05c.5-.018,1.19-.037,1.778-.037h.142a7.686,7.686,0,0,0-.054.939c0,.591,1.636.97,1.636.97l4.981,4.436a19.731,19.731,0,0,1,5.124,3.412,2.556,2.556,0,0,0,3.754.275c2.109-.521,8.177-7.857,8.183-7.865h0c0,.214.128,7.349.37,8.782h0a.948.948,0,0,0,.054.213c.285.616-.1,2.3-.261,3.007a8.355,8.355,0,0,0-.12,1.8s-2.275,8.687-2.087,9.451-1.233,4.31-1.233,4.31v2.957l.248-.013a1.589,1.589,0,0,0-.089.148l-.017.031a10.517,10.517,0,0,0,2.538.237,7.119,7.119,0,0,1,2.773.786,7.719,7.719,0,0,0,2.419.4c1.826.118,1.826-.806,1.826-.806-.209-1.259-3.094-1.68-3.183-1.693-.233-.146-.451-.3-.63-.442l-.037-.03a.8.8,0,0,0,.031-.085c.309-1.257-1.4-1.8-1.4-1.8v-.307c1.109-.569,1.329-4.477,1.329-4.477s1.664-4.832,1.9-5.638a5.328,5.328,0,0,0,0-2.013l.166-1.042a5.127,5.127,0,0,0,.357-.852,2.106,2.106,0,0,1,.4-.994c.261-.309-.285-1.042-.285-1.042l.475-1.231v-1.351l1.109-4.9s1.163-5.71.76-7.578a3.215,3.215,0,0,1,.475-2.819,2.34,2.34,0,0,1-.244.111,7.055,7.055,0,0,0,.286-.787l2.5.309v.037h.9s-.285-3.512-.285-4.928.959-6.5.959-6.5S219.9,332.092,219.475,331.949Zm-11.077-4.1c0,.139-.013.283-.022.431l-.05.076-.092-.078-.113.176-.033.017c-.244-.126-.37-.845-.545-.689l-.024.02c-.039-.044-.078-.057-.118-.02l-.037.031v-.164a4.16,4.16,0,0,0,1.035.131C208.4,327.8,208.4,327.828,208.4,327.85Zm8.3,16.354h.054l-.089.233C216.673,344.359,216.684,344.284,216.7,344.2Zm-9.111,41.915-.34-.085.185-.031.172.113.02.015Zm3.475-.5c-.113-.059-.227-.128-.338-.2C210.76,385.445,210.906,385.521,211.062,385.622Z" transform="translate(-150.766 -268.62)"/><path class="p" d="M346.67,390.03l-2.238,5.833h.543l-2.105,1.678,3.8.473Z" transform="translate(-279.512 -317.938)"/><path class="g" d="M346.67,390.03l-2.238,5.833-.564-.152-1,1.83,3.8.473Z" transform="translate(-279.512 -317.938)"/><path class="p" d="M344.44,363.47h3.51l1.288-10.6h-4.8Z" transform="translate(-280.791 -287.646)"/><path class="g" d="M344.44,363.47h3.51l1.288-10.6h-4.8Z" transform="translate(-280.791 -287.646)"/><path class="q" d="M333.774,439.074l.758-.128,1.741-.3s5.229-1.179,6.308-1.275a6.739,6.739,0,0,0,1.893-.54c.283-.122.462-.214.462-.214l-1.883-3.44-2.922-2.166a5.06,5.06,0,0,1-2.63-1.469,1.732,1.732,0,0,1-.242-1.641c.477-1.479-2.848,1.414-2.848,1.414s.031.693,0,1.577c0,.174-.017.355-.03.54a3.638,3.638,0,0,1-.03.37,5.944,5.944,0,0,1-.577,2.322C332.97,435.445,333.774,439.074,333.774,439.074Z" transform="translate(-276.981 -371.34)"/><path class="g" d="M338.79,431.294h.074c.133,0,.24-.283.37-.3a3.834,3.834,0,0,0,2.651-1.055,1.734,1.734,0,0,1-.242-1.64c.477-1.479-2.848,1.412-2.848,1.412S338.829,430.41,338.79,431.294Z" transform="translate(-281.361 -371.665)"/><path class="q" d="M316.89,405.8a4.05,4.05,0,0,0,4.052,4.052,2.819,2.819,0,0,0,.4-.018,4.052,4.052,0,1,0-4.447-4.033Z" transform="translate(-263.509 -350.359)"/><path class="e" d="M260.451,386.414a4.98,4.98,0,0,0-.146,1.092c-.2,1.314-1.534,2.1-2.743,2.652s-2.573,1.2-2.957,2.473c-.421,1.373.5,2.75,1.139,4.039,1.246,2.51,1.423,5.711-.185,8.007-1.429,2.033-3.919,3-6.262,3.845a6.173,6.173,0,0,0,3.965,1.32c-.538,1.566-2.451,2.085-4.081,2.373a5.864,5.864,0,0,0,3.255,1.3,7.38,7.38,0,0,0,2.588.048,3.109,3.109,0,0,0,2.1-1.386c.37-.641.5-1.516,1.163-1.839a2.1,2.1,0,0,1,.948-.139l2.773.03c.863,0,1.885-.067,2.331-.8a2.218,2.218,0,0,0,.251-1.02c.12-1.819-.229-3.741.519-5.4.226-.5-1.222-1.294-1.07-1.824a17.04,17.04,0,0,0,.647-5.159c0-1.469.956-2.736,1.745-3.976s1.449-2.806.826-4.137C266.557,386.429,261.281,384.272,260.451,386.414Z" transform="translate(-208.314 -337.127)"/><path class="q" d="M330.13,752.409l.706.468.109.072.02.013.837.555,1.956.329,1.719-.118s.5-1.035-.283-1.011a1.618,1.618,0,0,1-.71-.205l-.107-.054h0c-.113-.059-.225-.126-.336-.2h0c-.231-.146-.449-.3-.625-.44-.259-.2-.431-.351-.431-.351Z" transform="translate(-274.302 -635.442)"/><path class="g" d="M334,757.466l.109.072.02.013.837.555,1.956.329,1.719-.118s.5-1.035-.283-1.011a1.62,1.62,0,0,1-.71-.205c.137.107.251.224.262.322.031.264-1.272.739-1.272.739l-1.837-.486s-.312-.089-.739-.2l-.041-.011Z" transform="translate(-277.457 -640.032)"/><path class="e" d="M317,756.776a10.407,10.407,0,0,0,2.519.235,7.1,7.1,0,0,1,2.758.778,7.735,7.735,0,0,0,2.4.4c1.813.118,1.813-.8,1.813-.8-.207-1.251-3.072-1.664-3.161-1.682h0a3.565,3.565,0,0,1,.336.2h0c.2.133.423.307.44.447.031.263-1.272.739-1.272.739L321,756.6s-.312-.091-.739-.2h-.041a15.749,15.749,0,0,0-1.926-.4,1.337,1.337,0,0,0-1.279.739A.219.219,0,0,0,317,756.776Z" transform="translate(-263.599 -638.89)"/><path class="q" d="M188.54,572.373l.8.614s.233-.011.58-.022h.111c.5-.019,1.183-.037,1.765-.037a5.6,5.6,0,0,1,1.126.063c.4.14,1.109-2.285,1.109-2.285l-.8-.185-.266-.063-.185-.044-.652-.153-1.978.226-1.39.895Z" transform="translate(-158.883 -487.727)"/><path class="g" d="M188.54,572.373l.8.614s.233-.011.58-.022a.7.7,0,0,1-.37-.331c-.518-1.436,2.05-2.05,2.05-2.05l1.2-.052.233-.011h.185l-.266-.063-.185-.044-.652-.153-1.978.225-1.39.895Z" transform="translate(-158.883 -487.726)"/><path class="e" d="M178.87,569.777c.484.447,3.656,0,3.789-.011a2,2,0,0,1-.719-.05.793.793,0,0,1-.555-.4c-.518-1.438,2.05-2.05,2.05-2.05l1.2-.052.231-.011,2.907-.126.14-.8s-.945.089-2.427.207c-.834.068-1.848.144-2.944.216-3.063.2-3.791,2.19-3.791,2.19A.614.614,0,0,0,178.87,569.777Z" transform="translate(-150.792 -484.482)"/><path class="q" d="M371.579,321.278a.816.816,0,0,0,.07.126l.706,1.035,1.837.185.02-.728.309-10.957s1.272-7.349-1.131-6.926-.895,6.926-.895,6.926-.273,3.3-.466,4.288C371.843,316.184,371.006,320.077,371.579,321.278Z" transform="translate(-307.929 -270.677)"/><path class="q" d="M350.14,541.479l.523.895,1.17,2s2.122.778,2.665.185a7.675,7.675,0,0,0,.845-2.4c.185-.769.309-1.418.309-1.418Z" transform="translate(-290.613 -463.663)"/><path class="g" d="M350.14,541.52l.523.895a.612.612,0,0,0,.089-.094c.591-.754,3.2-.161,4.591-.113.185-.769.309-1.418.309-1.418Z" transform="translate(-290.613 -463.704)"/><path class="g" d="M206.16,569.679a5.6,5.6,0,0,1,1.126.063c.4.14,1.109-2.285,1.109-2.285l-1.068-.251,2.908-.126.14-.8s-.945.089-2.427.207a3.05,3.05,0,0,0-.808.675l-.044.056A4.844,4.844,0,0,0,206.16,569.679Z" transform="translate(-173.246 -484.482)"/><path class="g" d="M330.13,752.376l.815.54c1.216-.22,2.327-.566,2.458-1.109a.182.182,0,0,0,0-.026c-.259-.2-.431-.351-.431-.351Z" transform="translate(-274.302 -635.409)"/><path class="g" d="M317.09,758.032a28.208,28.208,0,0,0,3.205-.344,15.748,15.748,0,0,0-1.928-.4A1.329,1.329,0,0,0,317.09,758.032Z" transform="translate(-263.672 -640.178)"/><path class="e" d="M206.64,549.784c0,.59,1.625.967,1.625.967l4.948,4.4a19.552,19.552,0,0,1,5.087,3.392,2.533,2.533,0,0,0,3.723.283c2.1-.517,8.133-7.82,8.133-7.82s.14,8.34.423,8.952-.094,2.284-.259,2.992a8.318,8.318,0,0,0-.118,1.789s-2.261,8.645-2.072,9.4-1.225,4.288-1.225,4.288v2.944s5.536-.213,5.841-1.46-1.388-1.791-1.388-1.791v-.307c1.109-.566,1.318-4.451,1.318-4.451s1.651-4.806,1.885-5.606a5.242,5.242,0,0,0,0-2l.165-1.035a5.167,5.167,0,0,0,.353-.848,2.1,2.1,0,0,1,.4-.989c.259-.307-.283-1.037-.283-1.037l.471-1.225v-1.342l1.109-4.876s1.155-5.678.754-7.539a3.19,3.19,0,0,1,.471-2.8c-1.891.991-2.845-1.214-3.157-2.163-.079-.244-.118-.407-.118-.407a13.223,13.223,0,0,0-5.015-.728,5.776,5.776,0,0,0-1.44.3c-2.686.967-3.109,4.97-3.109,4.97l-2.379,3.628c-1.225,3.227-3.063,3.556-3.063,3.556s-4.31-2.9-4.436-3.039a17.267,17.267,0,0,0-1.767-.848,1.867,1.867,0,0,0-.848-.776c-.566-.237-.612-1.109-.612-1.109-.07-2.05-1.272-2.218-1.272-2.218C206.616,544.885,206.64,549.2,206.64,549.784Z" transform="translate(-173.637 -463.653)"/><rect class="p" width="2.543" height="7.891" transform="translate(59.527 74.613) rotate(180)"/><rect class="g" width="2.543" height="7.891" transform="translate(59.527 74.613) rotate(180)"/><path class="g" d="M372.439,397.41a.108.108,0,0,0,0,.017.82.82,0,0,0,.07.126l.706,1.035,1.837.185.02-.728A7.334,7.334,0,0,1,372.439,397.41Z" transform="translate(-308.79 -346.825)"/><path class="p" d="M362.323,398.18s.094,4.144-.943,4.71-1.44,3.512-1.44,3.512a26.4,26.4,0,0,1,3.843,2.976c.7.909,2.309,3.076,1.978,3.593s.8,2.874.8,2.874-2.074,4.24-1.6,5.843a33.47,33.47,0,0,1,.517,5.841h.9s-.283-3.486-.283-4.9.941-6.454.941-6.454.425-4.946,0-5.087-2.92-2.12-3.109-3.017,1.32-9.242,1.32-9.242A8.251,8.251,0,0,1,362.323,398.18Z" transform="translate(-298.602 -347.453)"/><path class="g" d="M336.12,449.515a4.032,4.032,0,0,0,.615,1.615l1.741-.3s5.229-1.179,6.308-1.275a6.739,6.739,0,0,0,1.893-.54,8.347,8.347,0,0,0-2.338-3.835l-.664-.615a11.118,11.118,0,0,0-3.346-2.139c.078.065,5.564,4.748,4.362,5.667s-4.436-1.318-4.436-1.318l-3.678-3.161-.133-.115-.213.331a3.084,3.084,0,0,1,.316.152,5.412,5.412,0,0,1,2.588,3.216C339.893,449.744,336.12,449.515,336.12,449.515Z" transform="translate(-279.185 -383.524)"/><path class="r" d="M330,541.43s3.486,1.932,4.333.848a1.441,1.441,0,0,1,1.061-.37c-.079-.244-.118-.407-.118-.407a13.222,13.222,0,0,0-5.015-.728Z" transform="translate(-274.196 -463.661)"/><path class="s" d="M331.6,443.532l3.811,3.279s3.222,2.244,4.436,1.318-4.364-5.669-4.364-5.669h0a11.276,11.276,0,0,1,3.344,2.133l.664.615c1.745,1.617,2.139,1.617,2.2,3.994a3.34,3.34,0,0,1-.338,1.578c-.566.555-.961,4.582-.874,5.053s-1.054,4.54-.684,5.671-4.621-.566-5.466.519-4.331-.848-4.331-.848,1.932-4.948,2.4-5.277a3.834,3.834,0,0,0,0-4.052,4.395,4.395,0,0,1-1.129-2.309s3.771.233,3.015-2.309a5.335,5.335,0,0,0-2.9-3.368Z" transform="translate(-274.196 -383.549)"/><path class="g" d="M348.752,493.38s-1.462,2.756-3.353,3.471c-.061.022-.12.043-.185.061C343.241,497.513,348.9,494.234,348.752,493.38Z" transform="translate(-286.257 -425.057)"/><path class="q" d="M242.138,334.11a11,11,0,0,0,1.272,2.4c.566.612,4.758,6.737,4.758,6.737l.355.739.3.63,2.686-.283.185-1.083-.1-.126a12.688,12.688,0,0,0-1.5-1.571,17.364,17.364,0,0,1-1.837-2.024s-3.815-3.959-4.1-5.042-4.1-7.578-4.946-6.454S242.138,334.11,242.138,334.11Z" transform="translate(-200.089 -290.168)"/><g class="i" transform="translate(45.117 48.387)"><path d="M276.9,519.065a2.105,2.105,0,0,0-.948.137c-.665.323-.791,1.2-1.161,1.839a3.108,3.108,0,0,1-2.105,1.386,4.708,4.708,0,0,1-.51.07,5.793,5.793,0,0,0,1.619-.07,3.108,3.108,0,0,0,2.105-1.386c.37-.641.5-1.516,1.161-1.839a1.479,1.479,0,0,1,.554-.129Z" transform="translate(-272.18 -494.375)"/><path d="M318.6,396.033c0-1.469.956-2.736,1.743-3.976s1.449-2.806.826-4.137c-.532-1.137-3.741-2.662-5.593-2.36,1.813.235,4.048,1.429,4.484,2.36.623,1.331-.039,2.9-.826,4.137s-1.747,2.506-1.743,3.976a17.256,17.256,0,0,1-.649,5.159c-.15.527,1.294,1.323,1.072,1.822-.75,1.664-.4,3.582-.519,5.4a2.246,2.246,0,0,1-.253,1.02,2.161,2.161,0,0,1-1.865.8h.645c.861,0,1.883-.067,2.329-.8a2.246,2.246,0,0,0,.253-1.02c.12-1.819-.231-3.739.519-5.4.226-.5-1.222-1.294-1.072-1.823A17.05,17.05,0,0,0,318.6,396.033Z" transform="translate(-307.314 -385.521)"/></g><path class="g" d="M290.12,411.1l.3.63,2.686-.283.185-1.083-.1-.126C292.905,410.38,290.76,411.414,290.12,411.1Z" transform="translate(-241.687 -357.284)"/><path class="g" d="M300.713,418.741s-.66-1.035-1.037-.754-.523-.848-.739-.66-.847.713-1.109-.02c-.205-.584-2.438-4.279-3.344-5.765-.233-.385-.379-.621-.379-.621s-2.543,1.272-3.155.848v.895l.518.048,2.773,5.175s.872,1.388.813,1.872a8.343,8.343,0,0,0,1.307,2.745c.189.141,2.218,2.5,2.218,2.5s1.037,5.089.14,6.5a9.647,9.647,0,0,1-2.449,2.449,7.905,7.905,0,0,0-.4,1.508c.068.142-.543.754-.261.943s.66,1.506.66,1.506,1.32-2.12,2.033-2.449,1.627-4.665,1.627-4.665.261-2.554.281-4.2S300.148,418.741,300.713,418.741Z" transform="translate(-242.364 -357.838)"/><path class="p" d="M299.943,418.741s-.658-1.035-1.035-.754-.525-.848-.739-.66-.845.713-1.109-.02c-.207-.584-2.44-4.279-3.344-5.765l-.379-.621s-2.543,1.272-3.157.848v.895l.519.048,2.773,5.175s.874,1.388.813,1.872a8.128,8.128,0,0,0,1.307,2.745c.2.141,2.218,2.5,2.218,2.5s1.037,5.089.142,6.5a8.667,8.667,0,0,1-1.706,1.889,3.3,3.3,0,0,0-1.109,1.778.7.7,0,0,0-.033.3c.068.14-.543.754-.261.943s.664,1.512.664,1.512,1.32-2.12,2.033-2.449,1.628-4.665,1.628-4.665.259-2.554.281-4.2S299.389,418.741,299.943,418.741Z" transform="translate(-241.736 -357.838)"/><path class="g" d="M307.012,569.21a9.476,9.476,0,0,1,2.773.941c.793.571-3.015-.895-3.015-.895Z" transform="translate(-255.26 -486.87)"/><path class="g" d="M333.83,596.35s2.065,1.721,1.695,3.275-1.323,5.466-1.323,5.466Z" transform="translate(-277.318 -508.994)"/><path class="g" d="M224.1,578.45s-2.909.318-2.721.7,2.721-.347,2.721-.347Z" transform="translate(-185.647 -494.403)"/><path class="g" d="M350.559,651.639s.185.235-.895,0-.283-.959-.283-.959Z" transform="translate(-289.764 -553.282)"/><path class="g" d="M344.4,673a6.874,6.874,0,0,1-2.272,0C341.339,672.765,344.4,673,344.4,673Z" transform="translate(-283.979 -571.391)"/><path class="g" d="M321.917,741.94s-.259-.283-1.554.235-1.813.542-2.19.37S321.917,741.94,321.917,741.94Z" transform="translate(-264.535 -627.611)"/><path class="g" d="M338.217,576.28l-1.837,2.556S337.369,576.6,338.217,576.28Z" transform="translate(-279.397 -492.634)"/><path class="g" d="M315.2,449.15s-.079.848-1.264,1.179a3.238,3.238,0,0,0-1.41.6" transform="translate(-259.955 -389.002)"/><path class="g" d="M296.246,415.88a5.071,5.071,0,0,1-3.2.874" transform="translate(-244.076 -361.882)"/><path class="g" d="M316.78,540.087s.457.286,1.553-.967" transform="translate(-263.419 -462.342)"/><path class="g" d="M372.256,465.8a.8.8,0,0,0-.264-.621l-.307-.37a1.425,1.425,0,0,0-.2-.207c-.185-.142-.421-.185-.614-.312" transform="translate(-307.512 -401.344)"/><path class="t" d="M854.072,123.761s-15.561-.939-13.732,9.966a2.65,2.65,0,0,0,1.383,2.8s.028-.808,1.6-.532a7.3,7.3,0,0,0,1.691.081,3.523,3.523,0,0,0,2.067-.854h0s4.375-1.808,6.076-8.957c0,0,1.259-1.56,1.209-1.961l-2.627,1.122a4.683,4.683,0,0,1,.185,3.469s-.085-3.4-.59-3.327c-.1.017-1.364.656-1.364.656s1.543,3.3.379,5.7c0,0,.442-4.066-.861-5.46l-1.848,1.079s1.8,3.408.58,6.19c0,0,.314-4.266-.97-5.928l-1.675,1.307s1.695,3.36.662,5.667c0,0-.135-4.967-1.024-5.342a10.3,10.3,0,0,0-1.689,1.822s1.161,2.44.44,3.726c0,0-.442-3.309-.8-3.327a10.983,10.983,0,0,0-1.612,3.7,7.965,7.965,0,0,1,1.259-3.9,4.4,4.4,0,0,0-2.236,1.157s.227-1.549,2.6-1.684a10.238,10.238,0,0,1,1.529-1.765,9.618,9.618,0,0,0-3.784.436s1.257-1.462,4.216-.8l1.654-1.351s-3.1-.423-4.418.044c0,0,1.514-1.294,4.863-.351l1.8-1.076a16.516,16.516,0,0,0-4.22-.37s1.664-.9,4.748.076l1.294-.579s-1.937-.381-2.5-.442-.6-.216-.6-.216a6.719,6.719,0,0,1,3.64.4A16.291,16.291,0,0,0,854.072,123.761Z" transform="translate(-690.085 -123.74)"/><path class="t" d="M783.806,138.819s-7.024-.425-6.2,4.5a1.2,1.2,0,0,0,.623,1.268s.013-.37.723-.242a3.237,3.237,0,0,0,.763.037,1.584,1.584,0,0,0,.933-.386h0s1.978-.815,2.747-4.046c0,0,.567-.706.545-.887l-1.187.506a2.128,2.128,0,0,1,.087,1.569s-.039-1.538-.266-1.5c-.046,0-.617.3-.617.3a3.508,3.508,0,0,1,.172,2.577s.2-1.837-.39-2.468l-.836.488a3.678,3.678,0,0,1,.263,2.8,5.24,5.24,0,0,0-.438-2.678l-.756.6a3.615,3.615,0,0,1,.3,2.56s-.061-2.244-.464-2.412a4.635,4.635,0,0,0-.763.824s.525,1.109.2,1.682c0,0-.2-1.5-.37-1.5a5.014,5.014,0,0,0-.728,1.664,3.614,3.614,0,0,1,.569-1.765,1.989,1.989,0,0,0-1.011.523s.1-.7,1.174-.762a5.047,5.047,0,0,1,.691-.8,4.335,4.335,0,0,0-1.71.2,1.932,1.932,0,0,1,1.906-.37l.739-.61a6.378,6.378,0,0,0-2,.02,2.43,2.43,0,0,1,2.2-.159l.813-.486a7.31,7.31,0,0,0-1.908-.165,2.918,2.918,0,0,1,2.146.033l.582-.261s-.876-.174-1.133-.2-.27-.1-.27-.1a3.03,3.03,0,0,1,1.645.185A7.457,7.457,0,0,0,783.806,138.819Z" transform="translate(-639.012 -136.024)"/><ellipse class="u" cx="7.432" cy="1.257" rx="7.432" ry="1.257" transform="translate(161.897 117.771)"/><path class="u" d="M930.508,741.472a2.152,2.152,0,0,0,.708-1.07.955.955,0,0,0-.5-1.089c-.455-.174-.941.142-1.309.46a1.747,1.747,0,0,1-1.272.614,1.941,1.941,0,0,0,.6-1.813.762.762,0,0,0-.166-.37c-.253-.27-.71-.155-1.013.057a3.775,3.775,0,0,0-1.235,3.157,5.933,5.933,0,0,1-.017-1.294,1.333,1.333,0,0,0-.49-1.152,1.462,1.462,0,0,0-.739-.174,1.535,1.535,0,0,0-1.207.344,1.191,1.191,0,0,0,.046,1.479,4.708,4.708,0,0,0,1.251,1,2.772,2.772,0,0,1,.893.852.767.767,0,0,1,.067.153h2.71A7.534,7.534,0,0,0,930.508,741.472Z" transform="translate(-758.105 -624.5)"/></g></svg>