<svg xmlns="http://www.w3.org/2000/svg" width="20" height="22.857" viewBox="0 0 20 22.857"><defs><style>.a{fill:#71b6f9;}</style></defs><path class="a" d="M17.857,11.428H6.786v-4.6a3.214,3.214,0,1,1,6.429-.04V7.5A1.069,1.069,0,0,0,14.286,8.57h1.429A1.069,1.069,0,0,0,16.786,7.5V6.785a6.786,6.786,0,1,0-13.571.067v4.576H2.143A2.143,2.143,0,0,0,0,13.57v7.143a2.143,2.143,0,0,0,2.143,2.143H17.857A2.143,2.143,0,0,0,20,20.713V13.57A2.143,2.143,0,0,0,17.857,11.428Z" transform="translate(0 0.001)"/></svg>