<svg xmlns="http://www.w3.org/2000/svg" width="99.803" height="139.991" viewBox="0 0 99.803 139.991">
  <g id="checklist_1_" data-name="checklist (1)" transform="translate(-35.042)">
    <g id="Group_4483" data-name="Group 4483" transform="translate(35.042)">
      <g id="Group_4480" data-name="Group 4480">
        <g id="Group_4468" data-name="Group 4468">
          <path id="Path_5916" data-name="Path 5916" d="M117.606,165.427V47.3a5.171,5.171,0,0,0-5.171-5.171H40.213A5.171,5.171,0,0,0,35.042,47.3V165.427a5.171,5.171,0,0,0,5.171,5.171h72.222A5.171,5.171,0,0,0,117.606,165.427Z" transform="translate(-35.042 -30.607)" fill="#ffc250"/>
          <path id="Path_5917" data-name="Path 5917" d="M334.115,42.124H316.808a5.171,5.171,0,0,1,5.171,5.171V165.426a5.171,5.171,0,0,1-5.171,5.171h17.307a5.171,5.171,0,0,0,5.171-5.171V47.3a5.171,5.171,0,0,0-5.171-5.171Z" transform="translate(-239.767 -30.606)" fill="#eab14d"/>
          <path id="Path_5918" data-name="Path 5918" d="M65.955,182.758V74.886A1.848,1.848,0,0,1,67.8,73.038h78.918a1.848,1.848,0,0,1,1.848,1.848V182.758a1.848,1.848,0,0,1-1.848,1.848H67.8A1.848,1.848,0,0,1,65.955,182.758Z" transform="translate(-57.503 -53.068)" fill="#f5f5f5"/>
          <path id="Path_5919" data-name="Path 5919" d="M315.355,73.038H298.048a1.848,1.848,0,0,1,1.848,1.848V182.758a1.848,1.848,0,0,1-1.848,1.848h17.307a1.848,1.848,0,0,0,1.848-1.848V74.886A1.848,1.848,0,0,0,315.355,73.038Z" transform="translate(-226.137 -53.068)" fill="#eaeaea"/>
          <path id="Path_5920" data-name="Path 5920" d="M169.011,6.436V3.713A3.713,3.713,0,0,0,165.3,0H150.753a3.713,3.713,0,0,0-3.713,3.713V6.436a1.519,1.519,0,0,1-1.519,1.519h-6.054a3.646,3.646,0,0,0-3.646,3.646V19.97H180.23V11.6a3.646,3.646,0,0,0-3.646-3.646H170.53a1.519,1.519,0,0,1-1.519-1.519Z" transform="translate(-108.266)" fill="#c2d0da"/>
        </g>
        <g id="Group_4473" data-name="Group 4473" transform="translate(19.204 30.434)">
          <g id="Group_4469" data-name="Group 4469">
            <path id="Path_5921" data-name="Path 5921" d="M105.278,130.855V114.576a3.266,3.266,0,0,1,3.266-3.266h16.279a3.266,3.266,0,0,1,3.266,3.266v16.279a3.266,3.266,0,0,1-3.266,3.266H108.544A3.266,3.266,0,0,1,105.278,130.855Z" transform="translate(-105.278 -111.31)" fill="#66b49d"/>
            <path id="Path_5922" data-name="Path 5922" d="M105.278,254.895V238.616a3.266,3.266,0,0,1,3.266-3.266h16.279a3.266,3.266,0,0,1,3.266,3.266v16.279a3.266,3.266,0,0,1-3.266,3.266H108.544A3.266,3.266,0,0,1,105.278,254.895Z" transform="translate(-105.278 -201.435)" fill="#66b49d"/>
            <path id="Path_5923" data-name="Path 5923" d="M105.278,378.934V362.655a3.266,3.266,0,0,1,3.266-3.266h16.279a3.266,3.266,0,0,1,3.266,3.266v16.279a3.266,3.266,0,0,1-3.266,3.266H108.544A3.266,3.266,0,0,1,105.278,378.934Z" transform="translate(-105.278 -291.559)" fill="#66b49d"/>
          </g>
          <g id="Group_4470" data-name="Group 4470" transform="translate(4.782 5.575)">
            <path id="Path_5924" data-name="Path 5924" d="M128.012,143.359h-.007a2.947,2.947,0,0,1-2.366-1.208l-2.467-3.388a2.113,2.113,0,1,1,3.416-2.487l1.43,1.965,4.182-5.682a2.113,2.113,0,1,1,3.4,2.5l-5.226,7.1A2.945,2.945,0,0,1,128.012,143.359Z" transform="translate(-122.767 -131.699)" fill="#f6f9f9"/>
          </g>
          <g id="Group_4471" data-name="Group 4471" transform="translate(4.782 40.228)">
            <path id="Path_5925" data-name="Path 5925" d="M128.012,270.1H128a2.946,2.946,0,0,1-2.366-1.208l-2.466-3.387a2.113,2.113,0,1,1,3.416-2.487l1.43,1.965L132.2,259.3a2.112,2.112,0,1,1,3.4,2.5l-5.226,7.1A2.944,2.944,0,0,1,128.012,270.1Z" transform="translate(-122.767 -258.438)" fill="#f6f9f9"/>
          </g>
          <g id="Group_4472" data-name="Group 4472" transform="translate(4.782 73.405)">
            <path id="Path_5926" data-name="Path 5926" d="M128.012,391.44h-.007a2.946,2.946,0,0,1-2.366-1.207l-2.467-3.388a2.113,2.113,0,0,1,3.416-2.487l1.43,1.964,4.182-5.682a2.113,2.113,0,1,1,3.4,2.5l-5.226,7.1a2.947,2.947,0,0,1-2.365,1.2Z" transform="translate(-122.767 -379.78)" fill="#f6f9f9"/>
          </g>
        </g>
        <g id="Group_4476" data-name="Group 4476" transform="translate(50.421 35.313)">
          <g id="Group_4474" data-name="Group 4474">
            <path id="Path_5927" data-name="Path 5927" d="M247.679,133.378H221.563a2.112,2.112,0,0,1,0-4.225h26.116a2.112,2.112,0,0,1,0,4.225Z" transform="translate(-219.451 -129.153)" fill="#ddeafb"/>
          </g>
          <g id="Group_4475" data-name="Group 4475" transform="translate(0 8.828)">
            <path id="Path_5928" data-name="Path 5928" d="M234.622,165.665H221.564a2.112,2.112,0,0,1,0-4.225h13.058a2.112,2.112,0,1,1,0,4.225Z" transform="translate(-219.452 -161.44)" fill="#ddeafb"/>
          </g>
        </g>
        <g id="Group_4479" data-name="Group 4479" transform="translate(50.421 69.228)">
          <g id="Group_4477" data-name="Group 4477" transform="translate(0)">
            <path id="Path_5929" data-name="Path 5929" d="M239.087,257.418H221.564a2.112,2.112,0,1,1,0-4.225h17.522a2.112,2.112,0,0,1,0,4.225Z" transform="translate(-219.452 -253.193)" fill="#ddeafb"/>
          </g>
          <g id="Group_4478" data-name="Group 4478" transform="translate(0 8.828)">
            <path id="Path_5930" data-name="Path 5930" d="M234.622,289.7H221.564a2.112,2.112,0,1,1,0-4.225h13.058a2.112,2.112,0,1,1,0,4.225Z" transform="translate(-219.452 -285.48)" fill="#ddeafb"/>
          </g>
        </g>
      </g>
      <g id="Group_4482" data-name="Group 4482" transform="translate(33.476 32.822)">
        <g id="Group_4481" data-name="Group 4481" transform="translate(3.469)">
          <path id="Path_5931" data-name="Path 5931" d="M301.708,180.147l-2.074-2.733-7.761-4.915-2.983-.47-39.74,62.8a16.358,16.358,0,0,0-2.082,4.918,12.8,12.8,0,0,1,11.345,7.184,16.356,16.356,0,0,0,3.556-3.985Z" transform="translate(-247.067 -157.816)" fill="#fc8086"/>
          <path id="Path_5932" data-name="Path 5932" d="M429.8,123.037l-3.353-2.124a5.6,5.6,0,0,0-7.73,1.737l-3.075,4.859.981,1.978,9.332,5.909,2.506.23,3.077-4.863A5.6,5.6,0,0,0,429.8,123.037Z" transform="translate(-369.552 -120.044)" fill="#8c9ba6"/>
        </g>
        <path id="Path_5933" data-name="Path 5933" d="M0,0H7.985V15.173H0Z" transform="matrix(0.535, -0.845, 0.845, 0.535, 45.296, 14.196)" fill="#c9e2e7"/>
        <path id="Path_5934" data-name="Path 5934" d="M249.193,426.875l-11.315,9.119a2.147,2.147,0,0,1-3.435-2.175l3.405-14.128A12.8,12.8,0,0,1,249.193,426.875Z" transform="translate(-234.378 -337.761)" fill="#7c8b96"/>
        <path id="Path_5935" data-name="Path 5935" d="M268.221,250.829l41.658-65.784-3.569-2.26-41.658,65.784A12.806,12.806,0,0,1,268.221,250.829Z" transform="translate(-256.374 -165.629)" fill="#fb636f"/>
      </g>
    </g>
  </g>
</svg>
