<svg id="Component_55_1" data-name="Component 55 – 1" xmlns="http://www.w3.org/2000/svg" xmlns:xlink="http://www.w3.org/1999/xlink" width="29" height="29" viewBox="0 0 29 29">
  <defs>
    <linearGradient id="linear-gradient" y1="0.5" x2="1" y2="0.5" gradientUnits="objectBoundingBox">
      <stop offset="0.184" stop-color="#cf681f"/>
      <stop offset="0.254" stop-color="#e78a48"/>
      <stop offset="0.338" stop-color="#ed9b62"/>
      <stop offset="0.428" stop-color="#eba971"/>
      <stop offset="0.517" stop-color="#f5ddae"/>
      <stop offset="0.597" stop-color="#eba971"/>
      <stop offset="0.692" stop-color="#ed9b62"/>
      <stop offset="0.766" stop-color="#e78a49"/>
      <stop offset="1" stop-color="#cf681f"/>
    </linearGradient>
    <linearGradient id="linear-gradient-2" x1="0.032" y1="0.968" x2="0.917" y2="0.083" gradientUnits="objectBoundingBox">
      <stop offset="0.184" stop-color="#9e4200"/>
      <stop offset="0.254" stop-color="#d9854a"/>
      <stop offset="0.338" stop-color="#ed9b62"/>
      <stop offset="0.428" stop-color="#eba971"/>
      <stop offset="0.517" stop-color="#f5ddae"/>
      <stop offset="0.597" stop-color="#eba971"/>
      <stop offset="0.692" stop-color="#ed9b62"/>
      <stop offset="0.766" stop-color="#d47533"/>
      <stop offset="0.881" stop-color="#9e4200"/>
    </linearGradient>
    <linearGradient id="linear-gradient-3" y1="0.5" x2="1" y2="0.5" gradientUnits="objectBoundingBox">
      <stop offset="0" stop-color="#f4b188"/>
      <stop offset="0.144" stop-color="#e18158"/>
      <stop offset="0.254" stop-color="#c76940"/>
      <stop offset="0.353" stop-color="#b5562c"/>
      <stop offset="0.512" stop-color="#7d331a"/>
      <stop offset="0.667" stop-color="#b85328"/>
      <stop offset="0.766" stop-color="#d1653a"/>
      <stop offset="0.861" stop-color="#dd784e"/>
      <stop offset="1" stop-color="#f4b188"/>
    </linearGradient>
    <linearGradient id="linear-gradient-4" x1="-0.307" y1="2.064" x2="4.743" y2="-7.721" gradientUnits="objectBoundingBox">
      <stop offset="0.045" stop-color="#7d331a"/>
      <stop offset="0.308" stop-color="#e58353"/>
      <stop offset="0.527" stop-color="#f4e3d6"/>
      <stop offset="0.721" stop-color="#e48250"/>
      <stop offset="1" stop-color="#7d331a"/>
    </linearGradient>
    <linearGradient id="linear-gradient-5" x1="-1.461" y1="4.836" x2="3.321" y2="-5.738" xlink:href="#linear-gradient-4"/>
    <linearGradient id="linear-gradient-6" x1="-2.661" y1="3.426" x2="3.845" y2="-2.597" xlink:href="#linear-gradient-4"/>
    <linearGradient id="linear-gradient-7" x1="-3.057" y1="7.392" x2="1.993" y2="-2.392" xlink:href="#linear-gradient-4"/>
    <linearGradient id="linear-gradient-8" x1="-3.504" y1="6.779" x2="2.065" y2="-1.955" xlink:href="#linear-gradient-4"/>
    <linearGradient id="linear-gradient-9" x1="-3.513" y1="9.375" x2="1.27" y2="-1.202" xlink:href="#linear-gradient-4"/>
    <linearGradient id="linear-gradient-10" x1="-5.454" y1="6.01" x2="1.054" y2="-0.013" xlink:href="#linear-gradient-4"/>
    <linearGradient id="linear-gradient-11" x1="-1.208" y1="3.842" x2="3.841" y2="-6.053" xlink:href="#linear-gradient-4"/>
    <linearGradient id="linear-gradient-12" x1="-8.309" y1="6.206" x2="1.477" y2="-0.132" xlink:href="#linear-gradient-4"/>
    <linearGradient id="linear-gradient-13" x1="-5.702" y1="6.676" x2="1.649" y2="-0.654" xlink:href="#linear-gradient-4"/>
    <linearGradient id="linear-gradient-14" x1="-3.886" y1="7.295" x2="1.737" y2="-1.421" xlink:href="#linear-gradient-4"/>
    <linearGradient id="linear-gradient-15" x1="-2.238" y1="8.669" x2="2.142" y2="-4.45" xlink:href="#linear-gradient-4"/>
    <linearGradient id="linear-gradient-16" x1="-1.753" y1="8.469" x2="2.403" y2="-6.21" xlink:href="#linear-gradient-4"/>
    <linearGradient id="linear-gradient-17" x1="-1.388" y1="7.867" x2="2.692" y2="-8.009" xlink:href="#linear-gradient-4"/>
    <linearGradient id="linear-gradient-18" x1="-1.115" y1="6.92" x2="3.065" y2="-9.523" xlink:href="#linear-gradient-4"/>
    <linearGradient id="linear-gradient-19" x1="-0.848" y1="5.288" x2="3.437" y2="-9.658" xlink:href="#linear-gradient-4"/>
    <linearGradient id="linear-gradient-20" x1="-0.55" y1="4.28" x2="3.677" y2="-10.658" xlink:href="#linear-gradient-4"/>
    <linearGradient id="linear-gradient-21" x1="-0.29" y1="3.036" x2="4.12" y2="-10.755" xlink:href="#linear-gradient-4"/>
    <linearGradient id="linear-gradient-22" x1="-0.013" y1="2.194" x2="4.368" y2="-12.195" xlink:href="#linear-gradient-4"/>
    <linearGradient id="linear-gradient-23" x1="-0.824" y1="1.983" x2="6.625" y2="-6.016" xlink:href="#linear-gradient-4"/>
    <linearGradient id="linear-gradient-24" x1="-1.465" y1="2.148" x2="7.037" y2="-4.874" xlink:href="#linear-gradient-4"/>
    <linearGradient id="linear-gradient-25" x1="-2.027" y1="2.484" x2="6.997" y2="-4.48" xlink:href="#linear-gradient-4"/>
    <linearGradient id="linear-gradient-26" x1="-3.152" y1="2.828" x2="7.232" y2="-3.726" xlink:href="#linear-gradient-4"/>
    <linearGradient id="linear-gradient-27" x1="-3.859" y1="3.152" x2="6.516" y2="-3.149" xlink:href="#linear-gradient-4"/>
    <linearGradient id="linear-gradient-28" x1="-4.191" y1="3.777" x2="5.2" y2="-2.81" xlink:href="#linear-gradient-4"/>
    <linearGradient id="linear-gradient-29" x1="-4.319" y1="4.41" x2="4.003" y2="-2.356" xlink:href="#linear-gradient-4"/>
    <linearGradient id="linear-gradient-30" x1="-3.944" y1="5.426" x2="2.851" y2="-2.152" xlink:href="#linear-gradient-4"/>
    <linearGradient id="linear-gradient-31" x1="-3.445" y1="8.233" x2="1.604" y2="-1.663" xlink:href="#linear-gradient-4"/>
    <linearGradient id="linear-gradient-32" x1="0.326" y1="1.067" x2="4.706" y2="-13.324" xlink:href="#linear-gradient-4"/>
    <linearGradient id="linear-gradient-33" x1="0.482" y1="0.607" x2="4.893" y2="-13.183" xlink:href="#linear-gradient-4"/>
    <linearGradient id="linear-gradient-34" x1="0.545" y1="0.41" x2="4.775" y2="-14.534" xlink:href="#linear-gradient-4"/>
    <linearGradient id="linear-gradient-35" x1="0.568" y1="0.349" x2="4.854" y2="-14.598" xlink:href="#linear-gradient-4"/>
    <linearGradient id="linear-gradient-36" x1="0.509" y1="0.533" x2="4.688" y2="-15.906" xlink:href="#linear-gradient-4"/>
    <linearGradient id="linear-gradient-37" x1="0.419" y1="0.837" x2="4.497" y2="-15.029" xlink:href="#linear-gradient-4"/>
    <linearGradient id="linear-gradient-38" x1="0.283" y1="1.28" x2="4.437" y2="-13.389" xlink:href="#linear-gradient-4"/>
    <linearGradient id="linear-gradient-39" x1="0.073" y1="1.79" x2="4.456" y2="-11.335" xlink:href="#linear-gradient-4"/>
    <linearGradient id="linear-gradient-40" x1="-0.774" y1="2.476" x2="4.848" y2="-6.241" xlink:href="#linear-gradient-4"/>
    <linearGradient id="linear-gradient-41" x1="-1.739" y1="2.722" x2="5.613" y2="-4.609" xlink:href="#linear-gradient-4"/>
    <linearGradient id="linear-gradient-42" x1="-3.365" y1="3.001" x2="6.419" y2="-3.337" xlink:href="#linear-gradient-4"/>
    <linearGradient id="linear-gradient-43" x1="-0.57" y1="1.666" x2="6.88" y2="-6.333" xlink:href="#linear-gradient-4"/>
    <linearGradient id="linear-gradient-44" x1="-0.49" y1="1.332" x2="8.012" y2="-5.689" xlink:href="#linear-gradient-4"/>
    <linearGradient id="linear-gradient-45" x1="-0.363" y1="1.19" x2="8.661" y2="-5.774" xlink:href="#linear-gradient-4"/>
    <linearGradient id="linear-gradient-46" x1="-0.493" y1="1.151" x2="9.893" y2="-5.404" xlink:href="#linear-gradient-4"/>
    <linearGradient id="linear-gradient-47" x1="-0.591" y1="1.167" x2="9.784" y2="-5.134" xlink:href="#linear-gradient-4"/>
    <linearGradient id="linear-gradient-48" x1="-0.696" y1="1.351" x2="8.696" y2="-5.236" xlink:href="#linear-gradient-4"/>
    <linearGradient id="linear-gradient-49" x1="-0.901" y1="1.641" x2="7.421" y2="-5.125" xlink:href="#linear-gradient-4"/>
    <linearGradient id="linear-gradient-50" x1="-1.034" y1="2.903" x2="4.543" y2="-5.834" xlink:href="#linear-gradient-4"/>
    <linearGradient id="linear-gradient-51" x1="-0.953" y1="2.124" x2="5.843" y2="-5.455" xlink:href="#linear-gradient-4"/>
    <linearGradient id="linear-gradient-52" x1="0.5" y1="1" x2="0.5" gradientUnits="objectBoundingBox">
      <stop offset="0" stop-color="#c2570f"/>
      <stop offset="0.308" stop-color="#e58353"/>
      <stop offset="0.527" stop-color="#f4d194"/>
      <stop offset="0.721" stop-color="#e48250"/>
      <stop offset="0.891" stop-color="#c2570f"/>
    </linearGradient>
  </defs>
  <path id="Path_5830" data-name="Path 5830" d="M181.685,390.044a14.324,14.324,0,1,1-14.324-14.325A14.324,14.324,0,0,1,181.685,390.044Z" transform="translate(-152.86 -375.543)" fill="url(#linear-gradient)"/>
  <path id="Path_5831" data-name="Path 5831" d="M168.622,404.16a12.856,12.856,0,1,1,12.855-12.855A12.87,12.87,0,0,1,168.622,404.16Z" transform="translate(-154.122 -376.805)" fill="url(#linear-gradient-2)"/>
  <path id="Path_5832" data-name="Path 5832" d="M180.4,395.813a10.492,10.492,0,0,1,.435,4.937,10.377,10.377,0,0,1-5.6,7.709,10.685,10.685,0,0,1-9.365,0,10.4,10.4,0,0,1-5.17-12.646,10.559,10.559,0,0,0,1.2,9.657,10.708,10.708,0,0,0,8.608,4.654v0l.043,0,.043,0v0a10.71,10.71,0,0,0,8.609-4.654,10.565,10.565,0,0,0,1.2-9.657Z" transform="translate(-156.096 -384.829)" fill="url(#linear-gradient-3)"/>
  <g id="Group_4395" data-name="Group 4395" transform="translate(1.893 7.902)">
    <path id="Path_5833" data-name="Path 5833" d="M158.677,406.2a2.278,2.278,0,0,0-2.346-1.909A2.28,2.28,0,0,0,158.677,406.2Z" transform="translate(-156.276 -396.648)" fill="url(#linear-gradient-4)"/>
    <path id="Path_5834" data-name="Path 5834" d="M160.682,396.785a2.277,2.277,0,0,0,2.477-1.734A2.278,2.278,0,0,0,160.682,396.785Z" transform="translate(-158.286 -392.369)" fill="url(#linear-gradient-5)"/>
    <path id="Path_5835" data-name="Path 5835" d="M163.029,390.083a2.659,2.659,0,0,0-1.655,3.118A2.658,2.658,0,0,0,163.029,390.083Z" transform="translate(-158.568 -390.083)" fill="url(#linear-gradient-6)"/>
    <path id="Path_5836" data-name="Path 5836" d="M198.466,406.2a2.279,2.279,0,0,0,2.346-1.909A2.278,2.278,0,0,0,198.466,406.2Z" transform="translate(-175.747 -396.648)" fill="url(#linear-gradient-7)"/>
    <path id="Path_5837" data-name="Path 5837" d="M194.776,400.91a2.278,2.278,0,0,0,2.127,2.15A2.278,2.278,0,0,0,194.776,400.91Z" transform="translate(-174.042 -395.086)" fill="url(#linear-gradient-8)"/>
    <path id="Path_5838" data-name="Path 5838" d="M196.35,396.785a2.278,2.278,0,0,0-2.477-1.734A2.277,2.277,0,0,0,196.35,396.785Z" transform="translate(-173.624 -392.369)" fill="url(#linear-gradient-9)"/>
    <path id="Path_5839" data-name="Path 5839" d="M196.221,393.2a2.658,2.658,0,0,0-1.654-3.118A2.658,2.658,0,0,0,196.221,393.2Z" transform="translate(-173.906 -390.083)" fill="url(#linear-gradient-10)"/>
    <path id="Path_5840" data-name="Path 5840" d="M162.588,398.093a2.279,2.279,0,0,0-2.342,1.778c0,.037,0,.072,0,.107A2.276,2.276,0,0,0,162.588,398.093Z" transform="translate(-158.083 -393.781)" fill="url(#linear-gradient-11)"/>
    <path id="Path_5841" data-name="Path 5841" d="M198.893,392.81a2.247,2.247,0,0,0-.884,1.793,10.378,10.378,0,0,1,.337,1.17A2.279,2.279,0,0,0,198.893,392.81Z" transform="translate(-175.536 -391.343)" fill="url(#linear-gradient-12)"/>
    <path id="Path_5842" data-name="Path 5842" d="M198.945,398.556c.035.269.063.539.078.811a2.279,2.279,0,0,0,1.488-2.561A2.279,2.279,0,0,0,198.945,398.556Z" transform="translate(-175.968 -393.19)" fill="url(#linear-gradient-13)"/>
    <path id="Path_5843" data-name="Path 5843" d="M199.051,402.362c-.009.132-.023.263-.037.395a2.277,2.277,0,0,0,2.107-2.154A2.289,2.289,0,0,0,199.051,402.362Z" transform="translate(-176 -394.944)" fill="url(#linear-gradient-14)"/>
    <path id="Path_5844" data-name="Path 5844" d="M197.582,409.09c-.062.158-.126.317-.2.472a1.9,1.9,0,1,0,.2-.472Z" transform="translate(-175.248 -398.468)" fill="url(#linear-gradient-15)"/>
    <path id="Path_5845" data-name="Path 5845" d="M196.156,412.068c-.09.152-.185.3-.283.45a1.965,1.965,0,1,0,.283-.45Z" transform="translate(-174.549 -399.953)" fill="url(#linear-gradient-16)"/>
    <path id="Path_5846" data-name="Path 5846" d="M194.444,414.6q-.209.262-.435.511a1.926,1.926,0,1,0,.435-.511Z" transform="translate(-173.687 -401.247)" fill="url(#linear-gradient-17)"/>
    <path id="Path_5847" data-name="Path 5847" d="M192.613,416.661q-.309.3-.641.579a1.7,1.7,0,1,0,.641-.579Z" transform="translate(-172.746 -402.329)" fill="url(#linear-gradient-18)"/>
    <path id="Path_5848" data-name="Path 5848" d="M190.476,418.511c-.223.165-.45.323-.685.471a1.625,1.625,0,1,0,.685-.471Z" transform="translate(-171.738 -403.217)" fill="url(#linear-gradient-19)"/>
    <path id="Path_5849" data-name="Path 5849" d="M187.911,420.032c-.006,0-.012.008-.018.01-.291.158-.592.3-.9.426a2.289,2.289,0,0,0,2.8.563A2.263,2.263,0,0,0,187.911,420.032Z" transform="translate(-170.447 -403.923)" fill="url(#linear-gradient-20)"/>
    <path id="Path_5850" data-name="Path 5850" d="M184.951,421.279a10.623,10.623,0,0,1-1.066.314,2.287,2.287,0,0,0,2.687.907A2.251,2.251,0,0,0,184.951,421.279Z" transform="translate(-169.009 -404.499)" fill="url(#linear-gradient-21)"/>
    <path id="Path_5851" data-name="Path 5851" d="M181.467,422.118a10.638,10.638,0,0,1-1.38.15,2.282,2.282,0,0,0,2.7,1.03A2.22,2.22,0,0,0,181.467,422.118Z" transform="translate(-167.254 -404.887)" fill="url(#linear-gradient-22)"/>
    <path id="Path_5852" data-name="Path 5852" d="M181.1,416.968a2.287,2.287,0,0,0-1.52,2.347c.216,0,.43,0,.645-.015A2.287,2.287,0,0,0,181.1,416.968Z" transform="translate(-167.015 -402.507)" fill="url(#linear-gradient-23)"/>
    <path id="Path_5853" data-name="Path 5853" d="M183.265,418.691a2.294,2.294,0,0,0,.743-2.594,2.284,2.284,0,0,0-1.153,2.674C182.993,418.748,183.129,418.719,183.265,418.691Z" transform="translate(-168.489 -402.104)" fill="url(#linear-gradient-24)"/>
    <path id="Path_5854" data-name="Path 5854" d="M186.241,417.829a2.288,2.288,0,0,0,.4-2.484,2.287,2.287,0,0,0-.983,2.7Q185.953,417.944,186.241,417.829Z" transform="translate(-169.771 -401.757)" fill="url(#linear-gradient-25)"/>
    <path id="Path_5855" data-name="Path 5855" d="M189.292,416.071a2.284,2.284,0,0,0-.321-2.613,2.276,2.276,0,0,0-.086,2.864C189.024,416.244,189.158,416.158,189.292,416.071Z" transform="translate(-171.105 -400.885)" fill="url(#linear-gradient-26)"/>
    <path id="Path_5856" data-name="Path 5856" d="M191.424,414.4a2.278,2.278,0,0,0-.167-2.85,2.276,2.276,0,0,0,0,2.98C191.316,414.486,191.372,414.443,191.424,414.4Z" transform="translate(-172.16 -400.003)" fill="url(#linear-gradient-27)"/>
    <path id="Path_5857" data-name="Path 5857" d="M193.6,412.069c.1-.114.19-.232.281-.351a2.291,2.291,0,0,0-.929-2.5A2.283,2.283,0,0,0,193.6,412.069Z" transform="translate(-173.082 -398.926)" fill="url(#linear-gradient-28)"/>
    <path id="Path_5858" data-name="Path 5858" d="M194.235,406.361a2.279,2.279,0,0,0,1.137,2.776c.03-.054.057-.111.087-.165A2.288,2.288,0,0,0,194.235,406.361Z" transform="translate(-173.732 -397.605)" fill="url(#linear-gradient-29)"/>
    <path id="Path_5859" data-name="Path 5859" d="M196.609,405.834a2.29,2.29,0,0,0-1.716-2.088,2.281,2.281,0,0,0,1.6,2.477C196.532,406.094,196.57,405.964,196.609,405.834Z" transform="translate(-174.083 -396.397)" fill="url(#linear-gradient-30)"/>
    <path id="Path_5860" data-name="Path 5860" d="M196.9,399.87a2.28,2.28,0,0,0-2.342-1.777,2.277,2.277,0,0,0,2.346,1.885C196.9,399.942,196.9,399.908,196.9,399.87Z" transform="translate(-173.94 -393.781)" fill="url(#linear-gradient-31)"/>
    <path id="Path_5861" data-name="Path 5861" d="M174.045,423.3a2.282,2.282,0,0,0,2.7-1.03,10.618,10.618,0,0,1-1.38-.15A2.22,2.22,0,0,0,174.045,423.3Z" transform="translate(-164.462 -404.887)" fill="url(#linear-gradient-32)"/>
    <path id="Path_5862" data-name="Path 5862" d="M172.966,421.593a10.623,10.623,0,0,1-1.066-.314,2.251,2.251,0,0,0-1.62,1.222A2.286,2.286,0,0,0,172.966,421.593Z" transform="translate(-162.722 -404.499)" fill="url(#linear-gradient-33)"/>
    <path id="Path_5863" data-name="Path 5863" d="M169.756,420.468c-.3-.129-.606-.268-.9-.426l-.018-.01a2.261,2.261,0,0,0-1.887,1A2.289,2.289,0,0,0,169.756,420.468Z" transform="translate(-161.185 -403.923)" fill="url(#linear-gradient-34)"/>
    <path id="Path_5864" data-name="Path 5864" d="M166.308,418.511a1.624,1.624,0,1,0,.685.471C166.759,418.834,166.531,418.676,166.308,418.511Z" transform="translate(-159.925 -403.217)" fill="url(#linear-gradient-35)"/>
    <path id="Path_5865" data-name="Path 5865" d="M164.753,417.24q-.332-.276-.641-.579a1.7,1.7,0,1,0,.641.579Z" transform="translate(-158.858 -402.329)" fill="url(#linear-gradient-36)"/>
    <path id="Path_5866" data-name="Path 5866" d="M162.655,415.107q-.225-.248-.434-.511a1.925,1.925,0,1,0,.434.511Z" transform="translate(-157.856 -401.247)" fill="url(#linear-gradient-37)"/>
    <path id="Path_5867" data-name="Path 5867" d="M160.838,412.518c-.1-.148-.193-.3-.283-.45a1.965,1.965,0,1,0,.283.45Z" transform="translate(-157.041 -399.953)" fill="url(#linear-gradient-38)"/>
    <path id="Path_5868" data-name="Path 5868" d="M159.45,409.563c-.07-.155-.133-.314-.2-.473a1.9,1.9,0,1,0,.2.473Z" transform="translate(-156.468 -398.468)" fill="url(#linear-gradient-39)"/>
    <path id="Path_5869" data-name="Path 5869" d="M158.335,402.757c-.013-.132-.027-.262-.036-.395a2.29,2.29,0,0,0-2.071-1.759A2.278,2.278,0,0,0,158.335,402.757Z" transform="translate(-156.228 -394.944)" fill="url(#linear-gradient-40)"/>
    <path id="Path_5870" data-name="Path 5870" d="M158.752,399.367c.015-.272.043-.542.078-.811a2.278,2.278,0,0,0-1.566-1.75A2.28,2.28,0,0,0,158.752,399.367Z" transform="translate(-156.686 -393.19)" fill="url(#linear-gradient-41)"/>
    <path id="Path_5871" data-name="Path 5871" d="M159.774,395.773a10.187,10.187,0,0,1,.337-1.169,2.251,2.251,0,0,0-.884-1.794A2.279,2.279,0,0,0,159.774,395.773Z" transform="translate(-157.463 -391.343)" fill="url(#linear-gradient-42)"/>
    <path id="Path_5872" data-name="Path 5872" d="M176.693,416.968a2.286,2.286,0,0,0,.875,2.332q.321.016.644.015A2.287,2.287,0,0,0,176.693,416.968Z" transform="translate(-165.657 -402.507)" fill="url(#linear-gradient-43)"/>
    <path id="Path_5873" data-name="Path 5873" d="M174.7,418.69c.136.03.272.059.41.082a2.285,2.285,0,0,0-1.153-2.674A2.29,2.29,0,0,0,174.7,418.69Z" transform="translate(-164.352 -402.104)" fill="url(#linear-gradient-44)"/>
    <path id="Path_5874" data-name="Path 5874" d="M172.373,418.041a2.287,2.287,0,0,0-.983-2.7,2.287,2.287,0,0,0,.4,2.484Q172.079,417.944,172.373,418.041Z" transform="translate(-163.14 -401.757)" fill="url(#linear-gradient-45)"/>
    <path id="Path_5875" data-name="Path 5875" d="M169.294,416.322a2.276,2.276,0,0,0-.086-2.864,2.285,2.285,0,0,0-.321,2.613C169.021,416.158,169.156,416.244,169.294,416.322Z" transform="translate(-161.954 -400.885)" fill="url(#linear-gradient-46)"/>
    <path id="Path_5876" data-name="Path 5876" d="M166.755,414.4c.053.045.109.087.162.13a2.276,2.276,0,0,0,0-2.98A2.278,2.278,0,0,0,166.755,414.4Z" transform="translate(-160.898 -400.003)" fill="url(#linear-gradient-47)"/>
    <path id="Path_5877" data-name="Path 5877" d="M164.2,411.718c.092.119.184.237.281.351a2.283,2.283,0,0,0,.647-2.851A2.29,2.29,0,0,0,164.2,411.718Z" transform="translate(-159.873 -398.926)" fill="url(#linear-gradient-48)"/>
    <path id="Path_5878" data-name="Path 5878" d="M162.565,409.137a2.28,2.28,0,0,0,1.137-2.776,2.289,2.289,0,0,0-1.224,2.612C162.508,409.026,162.534,409.083,162.565,409.137Z" transform="translate(-159.084 -397.605)" fill="url(#linear-gradient-49)"/>
    <path id="Path_5879" data-name="Path 5879" d="M162.559,400.91a2.278,2.278,0,0,0-2.124,2.11c0,.014,0,.027,0,.039A2.278,2.278,0,0,0,162.559,400.91Z" transform="translate(-158.172 -395.086)" fill="url(#linear-gradient-50)"/>
    <path id="Path_5880" data-name="Path 5880" d="M162.77,403.746a2.29,2.29,0,0,0-1.716,2.088c.039.13.076.26.121.389A2.281,2.281,0,0,0,162.77,403.746Z" transform="translate(-158.458 -396.397)" fill="url(#linear-gradient-51)"/>
  </g>
  <g id="Group_4396" data-name="Group 4396">
    <path id="Path_5881" data-name="Path 5881" d="M167.209,404.392a14.5,14.5,0,1,1,14.5-14.5A14.516,14.516,0,0,1,167.209,404.392Zm0-28.649a14.149,14.149,0,1,0,14.149,14.15A14.165,14.165,0,0,0,167.209,375.743Z" transform="translate(-152.709 -375.392)" fill="#d17f25"/>
  </g>
  <g id="Group_4397" data-name="Group 4397" transform="translate(1.469 1.469)">
    <path id="Path_5882" data-name="Path 5882" d="M168.471,404.186a13.031,13.031,0,1,1,13.031-13.03A13.046,13.046,0,0,1,168.471,404.186Zm0-25.711a12.68,12.68,0,1,0,12.68,12.681A12.7,12.7,0,0,0,168.471,378.475Z" transform="translate(-155.44 -378.124)" fill="#a1420a"/>
  </g>
  <g id="Group_4398" data-name="Group 4398" transform="translate(11.02 7.617)">
    <path id="Path_5883" data-name="Path 5883" d="M175.819,393.851h.96a.963.963,0,0,0,.737-.242.932.932,0,0,0,.223-.658,1.054,1.054,0,0,0-.23-.758,1.125,1.125,0,0,0-1.379,0,1.067,1.067,0,0,0-.23.764v.23h-2.7v-2.758c.162-.089.358-.187.588-.29a6.056,6.056,0,0,1,.818-.292,7.794,7.794,0,0,1,1.082-.216,10.475,10.475,0,0,1,1.379-.081,4.542,4.542,0,0,1,2.886.784,2.675,2.675,0,0,1,.98,2.217,2.533,2.533,0,0,1-.122.818,2.568,2.568,0,0,1-.709,1.1c-.149.135-.286.253-.413.351v.136c.144.09.3.2.466.324a2.647,2.647,0,0,1,.466.46,2.488,2.488,0,0,1,.365.649,2.394,2.394,0,0,1,.148.878,3.226,3.226,0,0,1-.257,1.3,2.635,2.635,0,0,1-.777,1.007,3.641,3.641,0,0,1-1.311.643,6.9,6.9,0,0,1-1.858.223,8.764,8.764,0,0,1-1.3-.088,8.522,8.522,0,0,1-1.027-.217,4.769,4.769,0,0,1-.8-.3,6.509,6.509,0,0,1-.6-.331v-2.852h2.7v.378a1.067,1.067,0,0,0,.23.764.919.919,0,0,0,.69.237.906.906,0,0,0,.689-.243,1.311,1.311,0,0,0,.23-.892,1.1,1.1,0,0,0-.223-.75.927.927,0,0,0-.723-.25h-.973Z" transform="translate(-173.197 -389.553)" fill="url(#linear-gradient-52)"/>
  </g>
  <g id="Group_4401" data-name="Group 4401" transform="translate(10.348 6.945)">
    <g id="Group_4399" data-name="Group 4399" transform="translate(0)">
      <path id="Path_5884" data-name="Path 5884" d="M176.35,400.543a9.4,9.4,0,0,1-1.406-.1,8.96,8.96,0,0,1-1.11-.234,5.382,5.382,0,0,1-.91-.34,7.06,7.06,0,0,1-.664-.366l-.313-.2v-3.895h2.622v-2.129h-2.622v-3.826l.346-.191c.176-.1.391-.2.637-.315a6.7,6.7,0,0,1,.91-.324,8.421,8.421,0,0,1,1.177-.236,11.188,11.188,0,0,1,1.468-.087,5.2,5.2,0,0,1,3.306.931,3.331,3.331,0,0,1,1.232,2.742,3.222,3.222,0,0,1-.157,1.034,3.3,3.3,0,0,1-.384.789,3.351,3.351,0,0,1-.381.469,3.4,3.4,0,0,1,.464.478,3.2,3.2,0,0,1,.466.822,3.082,3.082,0,0,1,.2,1.125,3.908,3.908,0,0,1-.313,1.573,3.307,3.307,0,0,1-.971,1.262,4.324,4.324,0,0,1-1.55.766A7.626,7.626,0,0,1,176.35,400.543Zm-4.134-1.383.188.119a6.828,6.828,0,0,0,.639.351,5.142,5.142,0,0,0,.865.324,8.769,8.769,0,0,0,1.077.227,9.143,9.143,0,0,0,1.365.093,7.342,7.342,0,0,0,1.968-.238,4.059,4.059,0,0,0,1.454-.716,3.049,3.049,0,0,0,.894-1.16,3.632,3.632,0,0,0,.29-1.466,2.813,2.813,0,0,0-.176-1.027,2.924,2.924,0,0,0-.425-.752,3.106,3.106,0,0,0-.538-.529l-.127-.1.117-.109a2.984,2.984,0,0,0,.8-1.255,2.945,2.945,0,0,0,.143-.948,3.073,3.073,0,0,0-1.131-2.532,4.947,4.947,0,0,0-3.138-.872,10.829,10.829,0,0,0-1.432.085,8.074,8.074,0,0,0-1.14.228,6.412,6.412,0,0,0-.872.311c-.239.108-.448.21-.618.3l-.208.115v3.4h2.622v2.667h-2.622Zm4.026-2.1a.553.553,0,0,1-.4-.115c-.042-.042-.115-.163-.115-.482v-.732h.488a.609.609,0,0,1,.422.115.713.713,0,0,1,.121.482,1.1,1.1,0,0,1-.107.6A.529.529,0,0,1,176.242,397.061ZM176,396v.463a.617.617,0,0,0,.046.3.584.584,0,0,0,.2.026.466.466,0,0,0,.193-.029,1.211,1.211,0,0,0,.054-.434.557.557,0,0,0-.052-.3.671.671,0,0,0-.222-.026Zm.206-3.13h-.475v-.488a.751.751,0,0,1,.116-.483.551.551,0,0,1,.4-.114.56.56,0,0,1,.4.113.74.74,0,0,1,.115.476.546.546,0,0,1-.117.385A.634.634,0,0,1,176.2,392.87ZM176,392.6h.206a.6.6,0,0,0,.255-.036.408.408,0,0,0,.032-.191.638.638,0,0,0-.044-.295.622.622,0,0,0-.2-.026.431.431,0,0,0-.208.034.8.8,0,0,0-.039.294Z" transform="translate(-171.947 -388.303)" fill="#c26b26"/>
    </g>
    <g id="Group_4400" data-name="Group 4400" transform="translate(0.471 0.471)">
      <path id="Path_5885" data-name="Path 5885" d="M176.754,400.476a9.037,9.037,0,0,1-1.335-.09,8.708,8.708,0,0,1-1.052-.222,5,5,0,0,1-.832-.31,6.85,6.85,0,0,1-.62-.341l-.094-.06v-3.165h3.107v.58a.89.89,0,0,0,.173.623.732.732,0,0,0,.545.176.72.72,0,0,0,.543-.18,1.1,1.1,0,0,0,.175-.754.917.917,0,0,0-.172-.616.746.746,0,0,0-.573-.182h-1.175v-2.458h1.161a.786.786,0,0,0,.588-.176.732.732,0,0,0,.17-.521.873.873,0,0,0-.173-.616.934.934,0,0,0-1.09,0,.888.888,0,0,0-.173.623v.431h-3.107V390.14l.1-.058c.167-.091.367-.191.6-.3a6.252,6.252,0,0,1,.845-.3,7.961,7.961,0,0,1,1.11-.222,10.724,10.724,0,0,1,1.405-.083,4.755,4.755,0,0,1,3.012.828,2.88,2.88,0,0,1,1.055,2.374,2.75,2.75,0,0,1-.132.883,2.782,2.782,0,0,1-.765,1.186q-.157.142-.3.259c.106.072.219.152.337.241a2.912,2.912,0,0,1,.5.495,2.705,2.705,0,0,1,.4.7,2.608,2.608,0,0,1,.162.953,3.44,3.44,0,0,1-.274,1.386,2.832,2.832,0,0,1-.835,1.083,3.85,3.85,0,0,1-1.383.68A7.127,7.127,0,0,1,176.754,400.476Zm-3.529-1.247c.143.086.307.174.488.263a4.6,4.6,0,0,0,.764.285,8.221,8.221,0,0,0,1,.21,8.5,8.5,0,0,0,1.274.086,6.717,6.717,0,0,0,1.8-.216,3.44,3.44,0,0,0,1.239-.605,2.433,2.433,0,0,0,.719-.931,3.038,3.038,0,0,0,.24-1.224,2.213,2.213,0,0,0-.134-.805,2.309,2.309,0,0,0-.335-.6,2.452,2.452,0,0,0-.431-.425q-.241-.183-.451-.314l-.1-.059v-.346l.077-.06c.123-.1.257-.211.4-.342a2.37,2.37,0,0,0,.654-1.017,2.344,2.344,0,0,0,.111-.753,2.464,2.464,0,0,0-.9-2.059,4.375,4.375,0,0,0-2.76-.74,10.381,10.381,0,0,0-1.352.08,7.545,7.545,0,0,0-1.053.21,5.907,5.907,0,0,0-.79.281c-.177.08-.333.155-.469.227v2.436h2.3v-.028a1.259,1.259,0,0,1,.287-.9,1.321,1.321,0,0,1,1.667,0,1.247,1.247,0,0,1,.288.9,1.13,1.13,0,0,1-.277.795,1.153,1.153,0,0,1-.885.306h-.758v1.651h.771a1.119,1.119,0,0,1,.874.317,1.3,1.3,0,0,1,.274.885,1.476,1.476,0,0,1-.285,1.031,1.1,1.1,0,0,1-.836.306,1.115,1.115,0,0,1-.835-.3,1.258,1.258,0,0,1-.286-.9v-.176h-2.3Z" transform="translate(-172.822 -389.178)" fill="#c26b26"/>
    </g>
  </g>
</svg>
