<svg id="Component_51_1" data-name="Component 51 – 1" xmlns="http://www.w3.org/2000/svg" xmlns:xlink="http://www.w3.org/1999/xlink" width="69.667" height="59.588" viewBox="0 0 69.667 59.588">
  <defs>
    <linearGradient id="linear-gradient" x1="-0.309" y1="-0.318" x2="1.194" y2="0.91" gradientUnits="objectBoundingBox">
      <stop offset="0" stop-color="#3b7aff"/>
      <stop offset="1" stop-color="#27bbe8"/>
    </linearGradient>
    <linearGradient id="linear-gradient-2" y1="0.5" x2="1" y2="0.5" gradientUnits="objectBoundingBox">
      <stop offset="0" stop-color="#f174ff"/>
      <stop offset="1" stop-color="#7556e8"/>
    </linearGradient>
  </defs>
  <path id="Path_4745" data-name="Path 4745" d="M1474.044,291.288c.352-.61.119-.884-.585-.885-3.228-.006-6.274-.021-9.319.045a1.954,1.954,0,0,0-1.26.958c-5.578,9.475-8.677,14.391-14.227,23.883l-.007.012a.917.917,0,0,1-1.586-.014c-1.224-2.15-2.4-4.217-3.577-6.285-1.433-2.519-.086-.186-1.562-2.679a1.633,1.633,0,0,0-1.119-.751c-3.045-.049-6.091-.038-9.32-.035a.918.918,0,0,0-.794,1.375c6.448,11.2,10.065,17.411,16.532,28.645a.918.918,0,0,0,1.59,0C1458.115,319.419,1464.7,307.5,1474.044,291.288Z" transform="translate(-1404.539 -276.428)" fill="url(#linear-gradient)"/>
  <path id="Path_4746" data-name="Path 4746" d="M1391.2,325.341a.535.535,0,0,1-.927.006c-1.75-2.981-3.4-5.774-5.007-8.591a1.354,1.354,0,0,1,.021-1.131c1.76-3.117,17-30.059,18.858-33.118a1.939,1.939,0,0,1,1.443-.654q7.872-.07,15.744-.008a1.6,1.6,0,0,0,1.747-1.052c.6-1.342,1.3-2.643,2.037-4.075a.536.536,0,0,0-.475-.782h-.778c-16.854,0-10.666-.013-27.52.029a2.107,2.107,0,0,1-2.162-1.288c-1.414-2.611-2.919-5.174-4.458-7.852a.536.536,0,0,1,.464-.8h51.647a.531.531,0,0,1,.478.775l0,.007q-6.807,11.865-13.61,23.732a1.386,1.386,0,0,1-1.423.773c-5.078-.024-10.156.04-15.232-.05a2.353,2.353,0,0,0-2.446,1.469C1408.044,295.62,1392.932,322.293,1391.2,325.341Z" transform="translate(-1385.152 -266.023)" fill="url(#linear-gradient-2)"/>
</svg>
