<svg id="Component_53_1" data-name="Component 53 – 1" xmlns="http://www.w3.org/2000/svg" xmlns:xlink="http://www.w3.org/1999/xlink" width="70.771" height="52.381" viewBox="0 0 70.771 52.381">
  <defs>
    <clipPath id="clip-path">
      <path id="Path_7211" data-name="Path 7211" d="M787.1,265.818l-.026,8.995c-.025,1.3-.032,1.857-.062,3.164l.026-8.994C787.073,267.676,787.079,267.123,787.1,265.818Z" fill="none"/>
    </clipPath>
    <clipPath id="clip-path-2">
      <path id="Path_7215" data-name="Path 7215" d="M789.7,270.208l-.025,8.995c-1.184,1.825-1.137,1.749-2.321,3.568l.026-8.994C788.562,271.957,788.516,272.033,789.7,270.208Z" fill="none"/>
    </clipPath>
    <clipPath id="clip-path-3">
      <path id="Path_7217" data-name="Path 7217" d="M783.994,273.677l-.026,8.994c-1.469.99-2.094,1.407-3.558,2.394l.025-8.994C781.9,275.084,782.525,274.666,783.994,273.677Z" fill="none"/>
    </clipPath>
    <clipPath id="clip-path-4">
      <path id="Path_7219" data-name="Path 7219" d="M751.108,277.183l-.025,8.994c-2.134-1.507-2.049-1.448-4.183-2.961l.025-8.994C749.059,275.735,748.975,275.675,751.108,277.183Z" fill="none"/>
    </clipPath>
    <clipPath id="clip-path-5">
      <path id="Path_7222" data-name="Path 7222" d="M758.964,278.086l-.025,8.994c-1.947-.67-2.768-.949-4.705-1.619l.026-8.994C756.2,277.137,757.018,277.416,758.964,278.086Z" fill="none"/>
    </clipPath>
    <clipPath id="clip-path-6">
      <path id="Path_7224" data-name="Path 7224" d="M772.879,278.525l-.025,8.994c-2.227.206-3.168.3-5.4.5l.026-8.994C769.712,278.82,770.652,278.731,772.879,278.525Z" fill="none"/>
    </clipPath>
    <clipPath id="clip-path-7">
      <path id="Path_7226" data-name="Path 7226" d="M781.106,278l-.025,8.994c-2.925.949-2.809.909-5.739,1.861l.026-8.995C778.3,278.907,778.181,278.948,781.106,278Z" fill="none"/>
    </clipPath>
    <clipPath id="clip-path-8">
      <path id="Path_7230" data-name="Path 7230" d="M765.87,280.754l-.025,8.994c-3.308-.368-3.176-.352-6.474-.716l.025-8.994C762.694,280.4,762.563,280.385,765.87,280.754Z" fill="none"/>
    </clipPath>
    <linearGradient id="linear-gradient" y1="0.5" x2="1" y2="0.5" gradientUnits="objectBoundingBox">
      <stop offset="0" stop-color="#db4d3f"/>
      <stop offset="1" stop-color="#e06b28"/>
    </linearGradient>
    <clipPath id="clip-path-9">
      <path id="Path_7238" data-name="Path 7238" d="M749.54,286.6l-.026,8.995c-.018.919-.025,1.3-.044,2.223l.026-8.994C749.514,287.9,749.521,287.515,749.54,286.6Z" fill="none"/>
    </clipPath>
    <clipPath id="clip-path-10">
      <path id="Path_7242" data-name="Path 7242" d="M751.359,289.684l-.025,8.994c-.831,1.278-.794,1.229-1.629,2.509l.025-9C750.566,290.912,750.529,290.961,751.359,289.684Z" fill="none"/>
    </clipPath>
    <clipPath id="clip-path-11">
      <path id="Path_7244" data-name="Path 7244" d="M747.347,292.119l-.025,8.994c-1.031.7-1.465.988-2.5,1.684l.026-8.994C745.883,293.106,746.316,292.816,747.347,292.119Z" fill="none"/>
    </clipPath>
    <clipPath id="clip-path-12">
      <path id="Path_7246" data-name="Path 7246" d="M724.24,294.584l-.026,8.994c-1.5-1.06-1.447-1.019-2.946-2.079l.025-8.995C722.792,293.564,722.741,293.524,724.24,294.584Z" fill="none"/>
    </clipPath>
    <clipPath id="clip-path-13">
      <path id="Path_7249" data-name="Path 7249" d="M729.758,295.218l-.025,9-3.307-1.136.025-8.995Z" fill="none"/>
    </clipPath>
    <clipPath id="clip-path-14">
      <path id="Path_7251" data-name="Path 7251" d="M739.539,295.525l-.025,8.994c-1.563.147-2.228.212-3.79.358l.025-8.994C737.312,295.736,737.976,295.671,739.539,295.525Z" fill="none"/>
    </clipPath>
    <clipPath id="clip-path-15">
      <path id="Path_7253" data-name="Path 7253" d="M745.323,295.156l-.025,8.994-4.033,1.31.026-8.994Z" fill="none"/>
    </clipPath>
    <clipPath id="clip-path-16">
      <path id="Path_7257" data-name="Path 7257" d="M734.614,297.092l-.026,8.995c-2.323-.255-2.234-.247-4.553-.505l.026-8.994C732.379,296.845,732.29,296.837,734.614,297.092Z" fill="none"/>
    </clipPath>
  </defs>
  <g id="Group_5173" data-name="Group 5173" transform="translate(-23 -63)">
    <g id="Group_5146" data-name="Group 5146" transform="translate(-696.028 -190.706)">
      <g id="Group_5102" data-name="Group 5102">
        <g id="Group_5101" data-name="Group 5101" style="isolation: isolate">
          <g id="Group_5067" data-name="Group 5067">
            <path id="Path_7206" data-name="Path 7206" d="M781.506,256.7l-.026,8.995-.748,1.914.025-8.995Z" fill="#eae9f9"/>
          </g>
          <g id="Group_5068" data-name="Group 5068">
            <path id="Path_7207" data-name="Path 7207" d="M748.961,261.6l-.025,8.995-1.774-1.678.026-8.995Z" fill="#eae9f9"/>
          </g>
          <g id="Group_5069" data-name="Group 5069">
            <path id="Path_7208" data-name="Path 7208" d="M789.8,264.633l-.026,8.995-2.694,1.185.025-8.995Z" fill="#eae9f9"/>
          </g>
          <path id="Path_7209" data-name="Path 7209" d="M779,267.264c.005-1.82-1.2-3.644-3.6-5.033-.288-.166-.588-.322-.9-.468-.1-.049-.212-.091-.317-.138-.182-.081-.362-.165-.55-.239-.021-.009-.045-.015-.066-.023-.424-.165-.862-.311-1.311-.442-.036-.011-.069-.026-.106-.036-.1-.029-.209-.049-.312-.077-.25-.066-.5-.129-.758-.185-.068-.015-.134-.036-.2-.05-.1-.021-.2-.034-.3-.053-.215-.041-.43-.079-.647-.112-.087-.014-.172-.033-.26-.045s-.19-.02-.285-.032q-.3-.039-.609-.068c-.1-.01-.194-.025-.291-.033s-.182-.008-.272-.015c-.206-.014-.412-.024-.619-.033-.1,0-.206-.014-.31-.016-.082,0-.165,0-.247,0-.224,0-.446,0-.669,0-.111,0-.222,0-.332,0-.066,0-.131.01-.2.013-.275.012-.549.032-.823.055-.11.009-.222.011-.332.022-.034,0-.068.01-.1.014-.467.049-.93.112-1.386.193-.022,0-.045.005-.067.009-.133.024-.262.058-.394.085-.226.045-.452.09-.673.143-.163.04-.321.086-.481.13-.21.057-.421.114-.626.179-.044.014-.091.024-.135.038-.074.024-.142.057-.216.082q-.491.166-.958.363c-.117.049-.234.1-.348.149a12.48,12.48,0,0,0-1.15.581l-.15.088c-.111.068-.207.14-.313.21-.15.1-.3.193-.441.293-.121.088-.229.18-.342.27s-.257.2-.374.31c-.024.021-.053.041-.077.063-.156.145-.3.292-.437.441-.028.031-.053.063-.08.093-.082.093-.166.186-.24.28-.032.041-.053.083-.083.124-.1.14-.2.283-.287.426-.037.06-.087.118-.121.179-.017.03-.026.061-.043.092-.067.125-.122.252-.178.379-.032.075-.076.148-.1.222-.009.025-.012.051-.021.076-.043.12-.073.242-.1.363-.021.083-.054.165-.071.248,0,.022,0,.044-.007.066-.024.127-.032.254-.044.382-.007.084-.026.167-.029.251,0,.036,0,.071,0,.107l-.026,8.995c0-.12.02-.24.031-.359s.02-.255.043-.382c.02-.105.051-.209.079-.313.032-.122.061-.243.1-.364.036-.1.083-.2.126-.3.055-.127.11-.254.178-.38.049-.091.108-.18.163-.271.089-.143.182-.285.287-.426s.206-.27.323-.4c.028-.031.052-.062.08-.093.157-.172.331-.339.514-.505.117-.105.248-.207.376-.31.112-.09.22-.181.341-.269.138-.1.291-.2.441-.294s.3-.2.462-.3a12.513,12.513,0,0,1,1.151-.582c.114-.052.23-.1.346-.148.312-.131.633-.252.96-.364.117-.04.231-.082.35-.12.206-.065.417-.122.628-.179.16-.043.317-.09.479-.129.223-.054.45-.1.677-.145.152-.031.3-.065.457-.092.456-.081.92-.145,1.387-.194.144-.015.289-.024.434-.036.273-.023.547-.043.823-.055.176-.007.352-.011.529-.014q.333-.008.667,0c.187,0,.373.008.56.015.206.008.411.019.617.033.188.013.376.029.564.047.2.02.406.042.607.068q.276.034.547.077.326.051.646.113c.169.032.338.065.506.1.256.056.508.12.758.186.139.037.28.072.418.112.448.131.887.278,1.31.443.211.082.414.172.617.262.105.046.214.089.317.138.308.146.608.3.9.467a7.054,7.054,0,0,1,3.38,3.675,4.238,4.238,0,0,1,.223,1.359h0Z" fill="#bcbde9"/>
          <g id="Group_5072" data-name="Group 5072" style="isolation: isolate">
            <g id="Group_5071" data-name="Group 5071" clip-path="url(#clip-path)">
              <g id="Group_5070" data-name="Group 5070" style="isolation: isolate">
                <path id="Path_7210" data-name="Path 7210" d="M787.1,265.818l-.026,8.995c-.025,1.3-.032,1.857-.062,3.164l.026-8.994c.03-1.307.036-1.86.062-3.165" fill="#2d2d6f"/>
              </g>
            </g>
          </g>
          <g id="Group_5073" data-name="Group 5073">
            <path id="Path_7212" data-name="Path 7212" d="M746.946,269.585l1.814,2.988-1.84,6.006-3.215-.629.025-8.995Z" fill="#bcbde9"/>
          </g>
          <g id="Group_5074" data-name="Group 5074">
            <path id="Path_7213" data-name="Path 7213" d="M787.379,273.777l-.025,8.995-3.385-.1.025-8.995Z" fill="#bcbde9"/>
          </g>
          <g id="Group_5077" data-name="Group 5077" style="isolation: isolate">
            <g id="Group_5076" data-name="Group 5076" clip-path="url(#clip-path-2)">
              <g id="Group_5075" data-name="Group 5075">
                <path id="Path_7214" data-name="Path 7214" d="M789.7,270.208l-.025,8.995c-1.184,1.825-1.137,1.749-2.321,3.568l.026-8.994c1.183-1.82,1.137-1.744,2.32-3.569" fill="#eae9f9"/>
              </g>
            </g>
          </g>
          <g id="Group_5080" data-name="Group 5080" style="isolation: isolate">
            <g id="Group_5079" data-name="Group 5079" clip-path="url(#clip-path-3)">
              <g id="Group_5078" data-name="Group 5078">
                <path id="Path_7216" data-name="Path 7216" d="M783.994,273.677l-.026,8.994c-1.469.99-2.094,1.407-3.558,2.394l.025-8.994c1.465-.987,2.09-1.405,3.559-2.394" fill="#eae9f9"/>
              </g>
            </g>
          </g>
          <g id="Group_5083" data-name="Group 5083" style="isolation: isolate">
            <g id="Group_5082" data-name="Group 5082" clip-path="url(#clip-path-4)">
              <g id="Group_5081" data-name="Group 5081">
                <path id="Path_7218" data-name="Path 7218" d="M751.108,277.183l-.025,8.994c-2.134-1.507-2.049-1.448-4.183-2.961l.025-8.994c2.134,1.513,2.05,1.453,4.183,2.961" fill="#bcbde9"/>
              </g>
            </g>
          </g>
          <g id="Group_5084" data-name="Group 5084">
            <path id="Path_7220" data-name="Path 7220" d="M754.26,276.467l-.026,8.995-3.151.716.026-8.995Z" fill="#eae9f9"/>
          </g>
          <g id="Group_5087" data-name="Group 5087" style="isolation: isolate">
            <g id="Group_5086" data-name="Group 5086" clip-path="url(#clip-path-5)">
              <g id="Group_5085" data-name="Group 5085">
                <path id="Path_7221" data-name="Path 7221" d="M758.964,278.086l-.025,8.994c-1.947-.67-2.768-.949-4.705-1.619l.026-8.994c1.937.67,2.758.949,4.7,1.619" fill="#eae9f9"/>
              </g>
            </g>
          </g>
          <g id="Group_5090" data-name="Group 5090" style="isolation: isolate">
            <g id="Group_5089" data-name="Group 5089" clip-path="url(#clip-path-6)">
              <g id="Group_5088" data-name="Group 5088">
                <path id="Path_7223" data-name="Path 7223" d="M772.879,278.525l-.025,8.994c-2.227.206-3.168.3-5.4.5l.026-8.994c2.227-.207,3.167-.3,5.394-.5" fill="#eae9f9"/>
              </g>
            </g>
          </g>
          <g id="Group_5093" data-name="Group 5093" style="isolation: isolate">
            <g id="Group_5092" data-name="Group 5092" clip-path="url(#clip-path-7)">
              <g id="Group_5091" data-name="Group 5091">
                <path id="Path_7225" data-name="Path 7225" d="M781.106,278l-.025,8.994c-2.925.949-2.809.909-5.739,1.861l.026-8.995c2.93-.952,2.813-.911,5.738-1.86" fill="#eae9f9"/>
              </g>
            </g>
          </g>
          <g id="Group_5094" data-name="Group 5094">
            <path id="Path_7227" data-name="Path 7227" d="M775.368,279.859l-.026,8.995-2.489-1.334.025-8.995Z" fill="#bcbde9"/>
          </g>
          <g id="Group_5095" data-name="Group 5095">
            <path id="Path_7228" data-name="Path 7228" d="M759.4,280.038l-.025,8.995-.432-1.952.026-8.995Z" fill="#eae9f9"/>
          </g>
          <g id="Group_5098" data-name="Group 5098" style="isolation: isolate">
            <g id="Group_5097" data-name="Group 5097" clip-path="url(#clip-path-8)">
              <g id="Group_5096" data-name="Group 5096">
                <path id="Path_7229" data-name="Path 7229" d="M765.87,280.754l-.025,8.994c-3.308-.368-3.176-.352-6.474-.716l.025-8.994c3.3.363,3.167.347,6.474.716" fill="#bcbde9"/>
              </g>
            </g>
          </g>
          <g id="Group_5099" data-name="Group 5099">
            <path id="Path_7231" data-name="Path 7231" d="M780.435,276.071l.671,1.928c-2.925.949-2.808.908-5.738,1.86l-2.489-1.334c-2.227.206-3.167.3-5.394.5l-1.615,1.727c-3.307-.369-3.176-.353-6.474-.716l-.432-1.952c-1.946-.67-2.767-.949-4.7-1.619l-3.152.716c-2.133-1.508-2.049-1.448-4.183-2.961l1.836-1.649c-.752-1.234-1.064-1.754-1.815-2.988l-3.215-.629c.031-1.95.037-1.871.072-3.818l3.232-.572c.8-1.226,1.132-1.741,1.926-2.964l-1.774-1.678c2.192-1.47,2.1-1.413,4.29-2.886l3.132.765c1.962-.64,2.794-.906,4.766-1.546l.5-1.938c3.318-.312,3.182-.3,6.494-.613l1.555,1.746c2.225.247,3.153.35,5.373.594l2.539-1.3c2.894.995,2.777.959,5.671,1.955l-.748,1.914c1.429,1.014,2.031,1.443,3.464,2.454l3.4-.043c1.115,1.838,1.068,1.762,2.178,3.6l-2.694,1.185c-.026,1.3-.032,1.858-.062,3.165l2.656,1.225c-1.183,1.825-1.137,1.749-2.32,3.569l-3.385-.1C782.525,274.666,781.9,275.084,780.435,276.071ZM758.2,272.223c4.781,2.761,12.505,2.761,17.255,0s4.72-7.232-.061-9.992-12.505-2.76-17.25,0-4.73,7.232.056,9.995" fill="url(#linear-gradient)"/>
          </g>
          <g id="Group_5100" data-name="Group 5100">
            <path id="Path_7232" data-name="Path 7232" d="M767.485,279.027l-.025,8.995-1.615,1.727.025-8.995Z" fill="#eae9f9"/>
          </g>
        </g>
      </g>
      <g id="Group_5138" data-name="Group 5138">
        <g id="Group_5137" data-name="Group 5137" style="isolation: isolate">
          <g id="Group_5103" data-name="Group 5103">
            <path id="Path_7233" data-name="Path 7233" d="M745.6,280.191l-.026,8.995-.521,1.348.026-8.995Z" fill="#f0f0f5"/>
          </g>
          <g id="Group_5104" data-name="Group 5104">
            <path id="Path_7234" data-name="Path 7234" d="M722.727,283.635l-.026,8.995-1.247-1.18.026-8.995Z" fill="#f0f0f5"/>
          </g>
          <g id="Group_5105" data-name="Group 5105">
            <path id="Path_7235" data-name="Path 7235" d="M751.431,285.763l-.026,8.995-1.891.832.026-8.995Z" fill="#f0f0f5"/>
          </g>
          <path id="Path_7236" data-name="Path 7236" d="M741.31,284.076a9.372,9.372,0,0,0-1.167-.559c-.026-.011-.048-.025-.074-.036s-.032-.01-.047-.015c-.3-.117-.606-.219-.921-.312-.026-.007-.05-.018-.076-.025-.071-.02-.147-.035-.22-.054-.175-.047-.352-.091-.532-.13-.048-.011-.094-.025-.143-.035-.069-.015-.142-.024-.212-.037-.151-.029-.3-.056-.454-.079-.062-.01-.122-.023-.184-.032s-.134-.014-.2-.023c-.142-.018-.283-.033-.425-.047-.069-.007-.138-.018-.207-.023s-.128-.006-.193-.011c-.143-.01-.287-.017-.431-.023-.074,0-.146-.01-.22-.011-.058,0-.117,0-.175,0-.156,0-.311,0-.467,0-.078,0-.157,0-.235,0-.047,0-.093.007-.139.009-.193.008-.385.022-.577.038-.078.007-.156.008-.234.016-.024,0-.048.007-.072.01q-.492.051-.974.136c-.016,0-.032,0-.047.006-.094.017-.184.041-.277.059-.159.032-.318.064-.474.1-.114.027-.225.06-.337.091-.148.04-.3.08-.441.125-.031.01-.063.017-.094.027-.052.017-.1.04-.152.058q-.345.117-.675.255c-.081.035-.163.068-.243.105a8.884,8.884,0,0,0-.81.409l-.1.062c-.079.047-.146.1-.221.147-.1.068-.212.135-.309.206s-.16.125-.238.188-.183.145-.265.219c-.017.015-.037.029-.054.044-.033.031-.056.064-.088.1a4.871,4.871,0,0,0-.364.391c-.024.029-.056.056-.079.086s-.038.058-.059.087c-.074.1-.139.2-.2.3-.026.042-.06.083-.084.126-.012.021-.019.043-.03.064-.048.089-.087.178-.126.267-.022.052-.053.1-.073.156-.006.018-.009.036-.015.053-.03.085-.051.17-.073.256-.015.058-.038.115-.05.173,0,.016,0,.031,0,.046-.017.09-.023.18-.031.269-.005.059-.019.118-.02.177,0,.025,0,.05,0,.075l-.026,8.995c0-.084.014-.167.021-.251s.015-.18.031-.27c.014-.074.036-.146.055-.219s.043-.171.074-.256.058-.14.088-.21c.039-.089.077-.178.125-.266.034-.064.076-.127.115-.19.062-.1.128-.2.2-.3.043-.058.09-.115.138-.172a4.855,4.855,0,0,1,.363-.391c.048-.046.092-.094.142-.14.082-.074.174-.145.264-.217s.155-.128.24-.19.2-.138.309-.206.209-.142.325-.209a8.884,8.884,0,0,1,.81-.409c.079-.036.161-.07.242-.1q.33-.138.677-.256c.081-.028.161-.058.244-.084.146-.046.295-.086.444-.127.111-.03.221-.062.334-.09.157-.038.316-.069.476-.1.107-.022.214-.047.322-.066.321-.057.647-.1.975-.136.1-.01.2-.017.3-.025.192-.016.385-.03.578-.039.124-.005.248-.008.372-.01.156,0,.312,0,.469,0,.131,0,.262.006.394.011s.289.013.433.023.265.02.4.033.286.03.428.048.255.034.382.054c.153.024.3.051.456.079.119.023.237.046.355.072.18.04.356.084.532.131.1.026.2.05.295.079.315.092.624.2.922.311.041.016.08.035.12.051a9.237,9.237,0,0,1,1.167.56c1.69.976,2.534,2.257,2.53,3.536l.026-8.995C743.843,286.333,743,285.052,741.31,284.076Z" fill="#bcbde9"/>
          <g id="Group_5108" data-name="Group 5108" style="isolation: isolate">
            <g id="Group_5107" data-name="Group 5107" clip-path="url(#clip-path-9)">
              <g id="Group_5106" data-name="Group 5106" style="isolation: isolate">
                <path id="Path_7237" data-name="Path 7237" d="M749.54,286.6l-.026,8.995c-.018.919-.025,1.3-.044,2.223l.026-8.994c.018-.919.025-1.3.044-2.224" fill="#2d2d6f"/>
              </g>
            </g>
          </g>
          <g id="Group_5109" data-name="Group 5109">
            <path id="Path_7239" data-name="Path 7239" d="M721.312,289.245l1.276,2.1-1.3,6.9-2.259-.445.026-8.995Z" fill="#eae9f9"/>
          </g>
          <g id="Group_5110" data-name="Group 5110">
            <path id="Path_7240" data-name="Path 7240" d="M749.73,292.192l-.026,8.995-2.383-.073.026-8.995Z" fill="#f0f0f5"/>
          </g>
          <g id="Group_5113" data-name="Group 5113" style="isolation: isolate">
            <g id="Group_5112" data-name="Group 5112" clip-path="url(#clip-path-10)">
              <g id="Group_5111" data-name="Group 5111">
                <path id="Path_7241" data-name="Path 7241" d="M751.359,289.684l-.025,8.994c-.831,1.278-.794,1.229-1.629,2.509l.025-9c.836-1.28.8-1.231,1.629-2.508" fill="#bcbde9"/>
              </g>
            </g>
          </g>
          <g id="Group_5116" data-name="Group 5116" style="isolation: isolate">
            <g id="Group_5115" data-name="Group 5115" clip-path="url(#clip-path-11)">
              <g id="Group_5114" data-name="Group 5114" style="isolation: isolate">
                <path id="Path_7243" data-name="Path 7243" d="M747.347,292.119l-.025,8.994c-1.031.7-1.465.988-2.5,1.684l.026-8.994c1.031-.7,1.464-.987,2.495-1.684" fill="#eae9f9"/>
              </g>
            </g>
          </g>
          <g id="Group_5119" data-name="Group 5119" style="isolation: isolate">
            <g id="Group_5118" data-name="Group 5118" clip-path="url(#clip-path-12)">
              <g id="Group_5117" data-name="Group 5117">
                <path id="Path_7245" data-name="Path 7245" d="M724.24,294.584l-.026,8.994c-1.5-1.06-1.447-1.019-2.946-2.079l.025-8.995c1.5,1.06,1.448,1.02,2.947,2.08" fill="#bcbde9"/>
              </g>
            </g>
          </g>
          <g id="Group_5120" data-name="Group 5120">
            <path id="Path_7247" data-name="Path 7247" d="M726.451,294.082l-.026,8.995-2.211.5.025-8.995Z" fill="#f0f0f5"/>
          </g>
          <g id="Group_5123" data-name="Group 5123" style="isolation: isolate">
            <g id="Group_5122" data-name="Group 5122" clip-path="url(#clip-path-13)">
              <g id="Group_5121" data-name="Group 5121">
                <path id="Path_7248" data-name="Path 7248" d="M729.758,295.218l-.025,9-3.307-1.136.025-8.995,3.307,1.136" fill="#eae9f9"/>
              </g>
            </g>
          </g>
          <g id="Group_5126" data-name="Group 5126" style="isolation: isolate">
            <g id="Group_5125" data-name="Group 5125" clip-path="url(#clip-path-14)">
              <g id="Group_5124" data-name="Group 5124">
                <path id="Path_7250" data-name="Path 7250" d="M739.539,295.525l-.025,8.994c-1.563.147-2.228.212-3.79.358l.025-8.994c1.563-.147,2.227-.212,3.79-.358" fill="#eae9f9"/>
              </g>
            </g>
          </g>
          <g id="Group_5129" data-name="Group 5129" style="isolation: isolate">
            <g id="Group_5128" data-name="Group 5128" clip-path="url(#clip-path-15)">
              <g id="Group_5127" data-name="Group 5127">
                <path id="Path_7252" data-name="Path 7252" d="M745.323,295.156l-.025,8.994-4.033,1.31.026-8.994,4.032-1.31" fill="#bcbde9"/>
              </g>
            </g>
          </g>
          <g id="Group_5130" data-name="Group 5130">
            <path id="Path_7254" data-name="Path 7254" d="M741.291,296.466l-.026,8.995-1.751-.941.026-8.995Z" fill="#f0f0f5"/>
          </g>
          <g id="Group_5131" data-name="Group 5131">
            <path id="Path_7255" data-name="Path 7255" d="M730.061,296.588l-.026,8.995-.3-1.369.025-8.995Z" fill="#f0f0f5"/>
          </g>
          <g id="Group_5134" data-name="Group 5134" style="isolation: isolate">
            <g id="Group_5133" data-name="Group 5133" clip-path="url(#clip-path-16)">
              <g id="Group_5132" data-name="Group 5132">
                <path id="Path_7256" data-name="Path 7256" d="M734.614,297.092l-.026,8.995c-2.323-.255-2.234-.247-4.553-.505l.026-8.994c2.318.257,2.229.249,4.553.5" fill="#bcbde9"/>
              </g>
            </g>
          </g>
          <g id="Group_5135" data-name="Group 5135">
            <path id="Path_7258" data-name="Path 7258" d="M744.852,293.8l.471,1.353-4.032,1.31-1.752-.941c-1.563.146-2.227.211-3.79.358l-1.135,1.209c-2.324-.255-2.235-.247-4.553-.5l-.3-1.37-3.307-1.136-2.211.5c-1.5-1.06-1.448-1.02-2.947-2.08l1.295-1.16c-.529-.868-.751-1.234-1.276-2.1l-2.259-.445c.025-1.369.021-1.312.046-2.682l2.278-.4c.561-.859.793-1.223,1.35-2.079l-1.247-1.18,3.017-2.031,2.2.54c1.383-.451,1.967-.638,3.35-1.088l.353-1.364c2.33-.217,2.236-.211,4.567-.428l1.093,1.225c1.559.177,2.215.247,3.775.418l1.783-.911c2.031.7,1.951.672,3.982,1.375l-.521,1.347c1.006.711,1.429,1.009,2.435,1.725l2.387-.033c.78,1.294.751,1.24,1.531,2.533l-1.891.832c-.019.92-.026,1.3-.044,2.224l1.863.865c-.83,1.277-.793,1.228-1.629,2.508l-2.383-.073C746.316,292.816,745.883,293.106,744.852,293.8Zm-15.627-2.7a13.362,13.362,0,0,0,12.124,0c3.336-1.938,3.319-5.084-.039-7.023a13.359,13.359,0,0,0-12.13,0c-3.336,1.939-3.323,5.081.045,7.025" fill="url(#linear-gradient)"/>
          </g>
          <g id="Group_5136" data-name="Group 5136">
            <path id="Path_7259" data-name="Path 7259" d="M735.749,295.883l-.025,8.995-1.135,1.209.026-8.995Z" fill="#f0f0f5"/>
          </g>
        </g>
      </g>
    </g>
  </g>
</svg>
