<svg id="doctor_man" data-name="doctor man" xmlns="http://www.w3.org/2000/svg" width="110.068" height="370.213" viewBox="0 0 110.068 370.213">
  <g id="Group_3520" data-name="Group 3520" transform="translate(25.371 45.953)">
    <g id="Group_3518" data-name="Group 3518">
      <path id="Path_4468" data-name="Path 4468" d="M1329.079,274.632c9.14-3.705,15.332-11.013,20.64-18.992-4.334-2.277-7.584-4.716-13.522-7.313-.614-.268-1.413-1.889-2.2-3.98-1.434-3.8-2.838-12.364-3.051-13.969h-15.005c-.192,1.448-1.354,9.165-2.633,12.82-.918,2.623-1.9,4.812-2.619,5.128-5.319,2.327-8.277,4.526-11.876,6.6C1306.982,264.309,1315.975,274.952,1329.079,274.632Z" transform="translate(-1298.81 -230.38)" fill="#bf7764"/>
    </g>
    <g id="Group_3519" data-name="Group 3519" transform="translate(15.787)">
      <path id="Path_4469" data-name="Path 4469" d="M1356.995,244.067a16.911,16.911,0,0,0,7.842-2.659c-1.08-4.171-1.988-9.763-2.155-11.028h-15.005c-.123.929-.645,4.434-1.341,7.794C1348.827,241.538,1352.624,244.235,1356.995,244.067Z" transform="translate(-1346.334 -230.38)" fill="#9b5f53"/>
    </g>
  </g>
  <g id="Group_3525" data-name="Group 3525" transform="translate(16.217 173.97)">
    <g id="Group_3522" data-name="Group 3522" transform="translate(0 169.98)">
      <g id="Group_3521" data-name="Group 3521">
        <path id="Path_4470" data-name="Path 4470" d="M1292.347,1141.274l2.673-6.118.678-7.723h13.144s.714,7.5,1.142,11.429-2.428,7.679-8,7.143S1292.347,1141.274,1292.347,1141.274Z" transform="translate(-1285.34 -1127.433)" fill="#b3b3b3"/>
        <path id="Path_4471" data-name="Path 4471" d="M1272.257,1165.89c1.1-3.121,4.181-5.207,6.585-6.021s6.895-1.6,10.716.516a19.411,19.411,0,0,1,3.851,3.3,6.926,6.926,0,0,0,2.278-2.092c1.073-1.807,2.33,5.947,2.561,8.611a25.977,25.977,0,0,1-.253,4.587H1271.6A15.793,15.793,0,0,1,1272.257,1165.89Z" transform="translate(-1271.254 -1148.532)" fill="#372f30"/>
        <path id="Path_4472" data-name="Path 4472" d="M1285.7,1159.146a15.73,15.73,0,0,0-6.86.727c-2.4.813-5.487,2.9-6.585,6.021a15.793,15.793,0,0,0-.654,8.9h3.1A16.929,16.929,0,0,1,1285.7,1159.146Z" transform="translate(-1271.254 -1148.534)" fill="#5f5959"/>
      </g>
      <path id="Path_4473" data-name="Path 4473" d="M1304.895,1168.765a.237.237,0,0,1-.286-.1,13.914,13.914,0,0,0-2.882-2.994c-2.976-2.107-7.07-1.018-9.671.56a.248.248,0,0,1-.325-.126.263.263,0,0,1,.054-.355c2.7-1.636,6.976-2.754,10.132-.519a14.509,14.509,0,0,1,3.02,3.129.285.285,0,0,1,0,.371A.181.181,0,0,1,1304.895,1168.765Z" transform="translate(-1284.899 -1151.841)" fill="#2f2821"/>
      <path id="Path_4474" data-name="Path 4474" d="M1303.477,1185.223h-.038c-7.644-.051-12.918.344-20.577.071a.257.257,0,0,1-.215-.284.248.248,0,0,1,.227-.268c7.655.273,12.927-.122,20.567-.071.145,0,.3-.005.373-.1a.844.844,0,0,0,.071-.421l.128-7.835a.252.252,0,0,1,.221-.271h0a.256.256,0,0,1,.216.282l-.128,7.835a1.354,1.354,0,0,1-.192.789A.77.77,0,0,1,1303.477,1185.223Z" transform="translate(-1278.862 -1159.898)" fill="#2f2821"/>
    </g>
    <g id="Group_3524" data-name="Group 3524" transform="translate(44.727 169.98)">
      <g id="Group_3523" data-name="Group 3523">
        <path id="Path_4475" data-name="Path 4475" d="M1436.649,1140.222s-5.859-3.279-8.6-5.065l-.765-7.723h-12.117s-.8,7.5-1.288,11.429,2.737,7.679,9.016,7.143S1436.649,1140.222,1436.649,1140.222Z" transform="translate(-1411.198 -1127.433)" fill="#b3b3b3"/>
        <path id="Path_4476" data-name="Path 4476" d="M1443.56,1164.318c-1.257-1.5-5.505-2.5-6.267-2.822-2.309-.972-6.37-6.642-6.37-6.642-4.525-2.192-6.792-2.158-11.228.245-2.047,1.109-3.565,3.611-4.287,5.129-1.714-1.106-5.648-2.875-6.5-4.281-1.245-2.053-2.705,6.754-2.972,9.781a28.847,28.847,0,0,0,.293,5.21h36.2S1445.6,1166.747,1443.56,1164.318Z" transform="translate(-1405.894 -1144.675)" fill="#372f30"/>
        <path id="Path_4477" data-name="Path 4477" d="M1478,1178.665a35.142,35.142,0,0,0-4.964-1.847,4.81,4.81,0,0,1-1.011-.623c-3.728,2.15-12.6,3.968-12.6,3.968C1465.617,1180.289,1471.811,1179.444,1478,1178.665Z" transform="translate(-1441.642 -1159.996)" fill="#5f5959"/>
      </g>
      <path id="Path_4478" data-name="Path 4478" d="M1441.245,1167.2a.255.255,0,0,0,.242-.212,12.821,12.821,0,0,1,1.419-3.961c1.956-3.207,6.639-4.043,10.054-3.779a.264.264,0,0,0,.266-.257.269.269,0,0,0-.231-.295c-3.549-.27-8.427.62-10.5,4.021a13.363,13.363,0,0,0-1.491,4.142.278.278,0,0,0,.184.333A.224.224,0,0,0,1441.245,1167.2Z" transform="translate(-1429.335 -1148.284)" fill="#2f2821"/>
      <path id="Path_4479" data-name="Path 4479" d="M1411.865,1185.223h.043c8.617-.051,17.365-.215,26-.488a.266.266,0,0,0,.242-.284.261.261,0,0,0-.256-.268c-8.63.273-17.373.437-25.987.488-.163,0-.343-.005-.42-.1a.763.763,0,0,1-.08-.421l-.145-7.835a.263.263,0,0,0-.249-.271h0a.265.265,0,0,0-.244.282l.145,7.835a1.231,1.231,0,0,0,.216.789A.928.928,0,0,0,1411.865,1185.223Z" transform="translate(-1409.145 -1159.898)" fill="#2f2821"/>
    </g>
    <path id="Path_4480" data-name="Path 4480" d="M1306.613,648.311a68.5,68.5,0,0,1,8.475,1.132l-.959,19.328c-1.763,8.64-4.5,39.994-5.291,55.945-.967,2.977-19.434,5.4-20.724,3.532.242-2.818-2.966-58.89-2.178-78.659C1286.119,645.023,1298.4,647.755,1306.613,648.311Z" transform="translate(-1280.976 -636.613)" fill="#014347"/>
    <path id="Path_4481" data-name="Path 4481" d="M1313.467,855.822c0,7.954,1.095,27.434.936,30.721s-4.03,60.968-4.03,60.968-9.659,3.341-16.689-.035c0,0-.449-28.026-.963-45.806s-.464-33.029-.069-41.246S1313.467,848.036,1313.467,855.822Z" transform="translate(-1285.34 -773.31)" fill="#014347"/>
    <path id="Path_4482" data-name="Path 4482" d="M1346.595,812.958c-.373-6.522-1.864-13.6-.186-20.5.373-2.05,1.491-3.727,1.863-5.59.692-3.6,2.1-6.889,3.165-10.252-.962,9.945-1.857,21.2-2.385,29.857.064,8.38,1.086,26.753.933,29.936-.08,1.668-1.117,17.349-2.119,32.388C1348.287,850.194,1347.791,831.544,1346.595,812.958Z" transform="translate(-1320.921 -723.176)" fill="#014145"/>
    <path id="Path_4483" data-name="Path 4483" d="M1385.2,648.969c-4.565.417-6.313,1.331-6.313,1.331l1.26,18.835c1.911,8.6,4.761,40.255,5.827,56.183,1.018,2.953,20.326,3.076,20.354-.547.02-2.608.937-55.022-.191-74.768C1405.873,645.443,1393.4,648.221,1385.2,648.969Z" transform="translate(-1343.13 -636.916)" fill="#014347"/>
    <path id="Path_4484" data-name="Path 4484" d="M1398.051,855.242c-.808,7.8-.513,28.437-.3,31.719s5.2,59.432,5.2,59.432,8.619,3.646,15.591.1c0,0-.019-28.031.2-45.82s.559-34.858.026-43.064S1398.851,847.515,1398.051,855.242Z" transform="translate(-1355.573 -772.413)" fill="#014347"/>
    <path id="Path_4485" data-name="Path 4485" d="M1450.667,886.822c-.186-2.05-2.275-7.583-2.275-7.583a39.722,39.722,0,0,1,4.367-6.161c.507,8.312.17,25.191-.045,42.777-.217,17.789-.2,45.82-.2,45.82-.249.127-.5.243-.753.352-.159-2.252-.31-4.5-.39-6.755C1451,932.722,1451.6,909.371,1450.667,886.822Z" transform="translate(-1389.548 -787.593)" fill="#013235"/>
    <path id="Path_4486" data-name="Path 4486" d="M1286.4,615.746v20.172c0,2.371,14.541,8.864,29.082,8.864s29.082-6.492,29.082-8.864V615.746Z" transform="translate(-1281.366 -615.746)" fill="#014347"/>
    <path id="Path_4487" data-name="Path 4487" d="M1325.605,635.047a106.853,106.853,0,0,0,18.955-2.3v-17H1286.4V629.8C1299.522,632.992,1312.24,635.394,1325.605,635.047Z" transform="translate(-1281.366 -615.746)" fill="#013235"/>
    <path id="Path_4488" data-name="Path 4488" d="M1371.317,694.193s-.337-6.435,3.813-9.148a98.341,98.341,0,0,1-12.665,4.562c.545,7,.83,19.789.83,19.789,1.052-6.7,1.425-12.273,2.025-15.214h0c.32.007.639.012.959.012.965,0,1.931-.034,2.892-.1l.01.148c.536,2.412.938,7.026,1.815,12.213C1370.994,701.122,1371.317,697.345,1371.317,694.193Z" transform="translate(-1332.165 -662.024)" fill="#013235"/>
  </g>
  <path id="Path_4489" data-name="Path 4489" d="M1241.051,312.1s9.654,7.814,9.039,12.118l-8.9,56.749c-.615,4.3-11.061,5.746-13.316,5.21s-5.439-2.792-5.433-8.342l10.219-49.561C1233.271,323.97,1236.747,311.485,1241.051,312.1Z" transform="translate(-1222.437 -238.985)" fill="#e6e6e6"/>
  <path id="Path_4490" data-name="Path 4490" d="M1460.083,309.791s-8.461,8.616-7.384,12.828l14.984,55.455c1.076,4.212,11.618,4.517,13.8,3.74s5.105-3.363,4.5-8.88l-15.515-48.167C1469.393,320.555,1464.295,308.714,1460.083,309.791Z" transform="translate(-1376.144 -237.412)" fill="#e6e6e6"/>
  <g id="Group_3526" data-name="Group 3526" transform="translate(19.371 58.755)">
    <path id="Path_4491" data-name="Path 4491" d="M1299.191,279.011c-6.1,3.594-12.063,7.258-17.866,11.319-1.775,15.5,1.1,34.4,1.1,34.4,2.871,20.543,1.854,53.39,4.725,73.933a250.583,250.583,0,0,0,51.1-.827c4.363-33.816,6.889-73.787,8.115-80.184,1.267-6.612-4.475-27.854-4.475-27.854s-10.443-6.266-18.532-10.789c0,0-3.614,16.769-6.331,16.769C1311.264,295.78,1299.191,279.011,1299.191,279.011Z" transform="translate(-1280.748 -275.658)" fill="#00c4c2"/>
    <path id="Path_4492" data-name="Path 4492" d="M1391.6,291.141s6.99-1.009,7.515-.483,3.246,3.648,3.246,3.648-1.189-16.087-1.189-17.241-5.212-4.691-5.212-4.691.049,7.584-.812,10.1S1391.6,291.141,1391.6,291.141Z" transform="translate(-1354.777 -271.226)" fill="#99e7e7"/>
    <path id="Path_4493" data-name="Path 4493" d="M1347.752,288.952s-12.3-9.377-14.2-13.331a8.674,8.674,0,0,1-.831-6.7,17.863,17.863,0,0,0-3.16,3.185,10.228,10.228,0,0,0-1.676,4.566c0,1.693,5.668,17.277,5.668,17.277s6.782-5.723,8.321-5.723S1347.752,288.952,1347.752,288.952Z" transform="translate(-1312.228 -268.917)" fill="#99e7e7"/>
    <path id="Path_4494" data-name="Path 4494" d="M1364.967,327.029s10.144.334,11.731,0l-3.075,6.925,7.937,61.558-7.452,13.354-11.645-13.211,6.638-60.748Z" transform="translate(-1335.319 -307.724)" fill="#fb3d3e"/>
  </g>
  <g id="Group_3529" data-name="Group 3529" transform="translate(16.033 64.282)">
    <path id="Path_4495" data-name="Path 4495" d="M1339.842,294.171s-9.923-4.118-17.991-8.086c-.248,11.74-8.508,71.757-9.439,78.466-3.727-11.368-22.043-70.42-24.093-75.452a4.9,4.9,0,0,1,.238-3.543c-5.492,2.906-11.874,5.9-16.511,9.144-1.776,15.5,1.1,34.4,1.1,34.4,2.871,20.543.847,82.454-2.448,105.636,15.152,1.466,51.273,3.289,66.361,1.272,2.78-43.052,6.029-107.588,7.255-113.985C1345.584,315.413,1339.842,294.171,1339.842,294.171Z" transform="translate(-1270.701 -285.556)" fill="#e6e6e6"/>
    <g id="Group_3528" data-name="Group 3528">
      <g id="Group_3527" data-name="Group 3527" transform="translate(0 17.434)">
        <path id="Path_4496" data-name="Path 4496" d="M1457.866,338.038l.773,8.478a63.028,63.028,0,0,1-.027,8.953c-.4,3.247-2.355,24.422-3.235,35.325-1.451,17.968-4,60.308-5.049,64.745-1.7,7.2-3.725,14.294-6.106,16.22,3.279-.143,6.239-.37,8.719-.7,2.779-43.052,6.029-107.588,7.255-113.985C1460.921,353.282,1459.344,344.686,1457.866,338.038Z" transform="translate(-1386.578 -338.038)" fill="#ccc"/>
        <path id="Path_4497" data-name="Path 4497" d="M1276.627,435.388c.492-8.018,1.605-36.525,1.605-44.758,0-5.1-2.958-19.83-4.822-31.384-.373-2.05-.927-11.245-1.943-13.576a173.556,173.556,0,0,0,1.681,23.576c2.871,20.543.847,82.454-2.448,105.636,1.228.119,2.573.24,4.014.361C1274.805,474.6,1275.548,452.953,1276.627,435.388Z" transform="translate(-1270.701 -343.135)" fill="#ccc"/>
        <path id="Path_4498" data-name="Path 4498" d="M1386.96,595.648h.4l2.811-72.3h-.4Z" transform="translate(-1348.339 -461.79)" fill="#ccc"/>
        <path id="Path_4499" data-name="Path 4499" d="M1310.793,623.966h.014l6.242-.325a8.051,8.051,0,0,0,3.276-.644,2.917,2.917,0,0,0,1.7-2.884l-.036-.219-19.2-.008h0a.261.261,0,1,0,0,.522l18.745.008a2.517,2.517,0,0,1-1.447,2.116,7.649,7.649,0,0,1-3.066.588l-6.241.325a.261.261,0,0,0,.013.522Z" transform="translate(-1291.955 -526.257)" fill="#ccc"/>
        <path id="Path_4500" data-name="Path 4500" d="M1416.653,624.237h.012l5.42-.282a6.979,6.979,0,0,0,2.845-.559,2.531,2.531,0,0,0,1.48-2.5l-.031-.19-16.675-.007h0a.227.227,0,0,0,0,.454l16.277.006a2.186,2.186,0,0,1-1.257,1.837,6.639,6.639,0,0,1-2.662.51l-5.419.282a.227.227,0,0,0,.011.453Z" transform="translate(-1363.375 -526.797)" fill="#ccc"/>
      </g>
      <path id="Path_4501" data-name="Path 4501" d="M1318.055,285.556c-.853.451-1.729.905-2.615,1.361a9.823,9.823,0,0,0-.419,1.808c-.745,5.032,1.627,33.036.322,44.031l10.343-1.371-3.534,7s4.982,6.808,6.473,8.858c4.5,5.8,13,16.451,13,16.451-4.28-13.194-21.811-69.677-23.813-74.594A4.9,4.9,0,0,1,1318.055,285.556Z" transform="translate(-1300.199 -285.556)" fill="#f2f2f2"/>
      <path id="Path_4502" data-name="Path 4502" d="M1410.956,337.715l-5.75-4.692,7.268-2.236c-1.118-13.231-2.8-26.462-3.541-39.88a9.1,9.1,0,0,0-.374-2.5c-.885-.42-1.763-.843-2.62-1.264-.233,11.033-7.668,65.616-9.32,77.608Z" transform="translate(-1354.79 -286.618)" fill="#f2f2f2"/>
    </g>
  </g>
  <g id="Group_3550" data-name="Group 3550" transform="translate(31.794 0)">
    <g id="Group_3548" data-name="Group 3548">
      <g id="Group_3547" data-name="Group 3547">
        <g id="Group_3544" data-name="Group 3544" transform="translate(1.201 10.81)">
          <g id="Group_3534" data-name="Group 3534" transform="translate(0 20.084)">
            <g id="Group_3531" data-name="Group 3531" transform="translate(27.677)">
              <path id="Path_4503" data-name="Path 4503" d="M1405.081,189.994a4.746,4.746,0,1,0,4.544-4.94A4.746,4.746,0,0,0,1405.081,189.994Z" transform="translate(-1405.077 -185.049)" fill="#bf7764"/>
              <g id="Group_3530" data-name="Group 3530" transform="translate(4.664 3.494)">
                <path id="Path_4504" data-name="Path 4504" d="M1419.374,200.352l.033,0a3.646,3.646,0,0,0,2.9-4.6.246.246,0,1,0-.474.135,3.154,3.154,0,0,1-2.511,3.982.246.246,0,0,0,.053.488Z" transform="translate(-1419.118 -195.569)" fill="#cf683c"/>
              </g>
            </g>
            <g id="Group_3533" data-name="Group 3533" transform="translate(0 1.04)">
              <ellipse id="Ellipse_134" data-name="Ellipse 134" cx="4.746" cy="4.746" rx="4.746" ry="4.746" transform="translate(0 0.014) rotate(-0.082)" fill="#bf7764"/>
              <g id="Group_3532" data-name="Group 3532" transform="translate(1.346 2.664)">
                <path id="Path_4505" data-name="Path 4505" d="M1328.261,201.99a.246.246,0,0,0,.066-.48,2.947,2.947,0,0,1-1.158-4.89.246.246,0,1,0-.347-.349,3.44,3.44,0,0,0,1.351,5.706A.254.254,0,0,0,1328.261,201.99Z" transform="translate(-1325.813 -196.2)" fill="#cf683c"/>
              </g>
            </g>
          </g>
          <path id="Path_4506" data-name="Path 4506" d="M1331.61,154.047s5.607,17.219,15.479,16.846c9.875-.436,14.022-18.079,14.022-18.079-1.545-7.29.624-14.735-.921-22.025-.07.036-8-6.425-14.879-6.193-6.864.344-14.488,7.458-14.571,7.424C1329.81,139.413,1332.541,146.654,1331.61,154.047Z" transform="translate(-1327.626 -124.59)" fill="#bf7764"/>
          <path id="Path_4507" data-name="Path 4507" d="M1346.72,141.778c-5.582-1.019-9.34-2.382-11.979-6.583a10.426,10.426,0,0,1-3.869,5.26,35.934,35.934,0,0,1-.13-8.435c.083.034,7.707-7.08,14.571-7.424,6.879-.232,14.808,6.229,14.879,6.193a40.04,40.04,0,0,1,.5,9.992A32.2,32.2,0,0,1,1346.72,141.778Z" transform="translate(-1327.627 -124.59)" fill="#9b5f53"/>
          <g id="Group_3543" data-name="Group 3543" transform="translate(7.782 18.127)">
            <g id="Group_3538" data-name="Group 3538" transform="translate(15.358 4.838)">
              <g id="Group_3537" data-name="Group 3537">
                <g id="Group_3535" data-name="Group 3535" transform="translate(0.327 0.096)">
                  <path id="Rectangle_905" data-name="Rectangle 905" d="M.922,0h0a.923.923,0,0,1,.923.923V2.714a.923.923,0,0,1-.923.923h0A.923.923,0,0,1,0,2.714V.922A.922.922,0,0,1,.922,0Z" transform="translate(0 0.077) rotate(-2.407)" fill="#1a1a1a"/>
                </g>
                <g id="Group_3536" data-name="Group 3536">
                  <path id="Path_4508" data-name="Path 4508" d="M1391.6,194.195l2.781-.116a.18.18,0,0,0,.171-.186h0a.18.18,0,0,0-.186-.171l-2.781.117a.179.179,0,0,0-.171.186h0A.179.179,0,0,0,1391.6,194.195Z" transform="translate(-1391.418 -193.721)" fill="#1a1a1a"/>
                </g>
              </g>
            </g>
            <g id="Group_3541" data-name="Group 3541" transform="translate(3.245 5.57)">
              <g id="Group_3540" data-name="Group 3540" transform="translate(0 0)">
                <g id="Group_3539" data-name="Group 3539">
                  <path id="Rectangle_906" data-name="Rectangle 906" d="M.923,0h0a.923.923,0,0,1,.923.923V2.714a.922.922,0,0,1-.922.922h0A.923.923,0,0,1,0,2.714V.923A.923.923,0,0,1,.923,0Z" transform="matrix(0.999, -0.042, 0.042, 0.999, 0, 0.077)" fill="#1a1a1a"/>
                </g>
              </g>
            </g>
            <path id="Path_4509" data-name="Path 4509" d="M1352.2,195.842l2.781-.116a.179.179,0,0,0,.171-.186h0a.179.179,0,0,0-.186-.171l-2.781.116a.18.18,0,0,0-.171.186h0A.179.179,0,0,0,1352.2,195.842Z" transform="translate(-1349.743 -189.983)" fill="#1a1a1a"/>
            <g id="Group_3542" data-name="Group 3542" transform="translate(8.159 3.966)">
              <path id="Path_4510" data-name="Path 4510" d="M1371.447,201.475l2.2,1.2a.822.822,0,0,0,1.019-.191l1.215-1.44a.821.821,0,0,0-.034-1.1,7.269,7.269,0,0,1-1.618-2.992,6.834,6.834,0,0,1,1-5.408.28.28,0,0,0-.453-.329,5.315,5.315,0,0,0-1.6,2.117c-.251.73.027,3.861.723,6.306a1.38,1.38,0,0,1-1.182,1.653A6.154,6.154,0,0,0,1371.447,201.475Z" transform="translate(-1370.882 -191.097)" fill="#a56356"/>
              <path id="Path_4511" data-name="Path 4511" d="M1372.819,202.769a.82.82,0,0,1-.307-.095l-2.621-1.428a.28.28,0,1,1,.268-.492l2.621,1.428a.26.26,0,0,0,.323-.06l1.215-1.44a.262.262,0,0,0-.009-.352,7.831,7.831,0,0,1-1.751-3.22,7.28,7.28,0,0,1,1.082-5.9.28.28,0,0,1,.453.329,6.834,6.834,0,0,0-1,5.408,7.268,7.268,0,0,0,1.618,2.992.821.821,0,0,1,.034,1.1l-1.215,1.44A.824.824,0,0,1,1372.819,202.769Z" transform="translate(-1369.746 -191.097)" fill="#bd6142"/>
            </g>
            <path id="Path_4512" data-name="Path 4512" d="M1350.267,179.283a8.242,8.242,0,0,1,1.42,1.707c-.188-.391-.641-1.83-.659-1.833.034,0,.068.007.1.013q.8,1.629,1.627,3.26c-2.141-.338-4.507.252-7.571,2.278.118-.541.217-1.928.366-2.483C1345.8,181.96,1349.156,179.283,1350.267,179.283Z" transform="translate(-1345.186 -179.157)" fill="#38192a"/>
            <path id="Path_4513" data-name="Path 4513" d="M1387.368,179.909c-.026.01-.7,2.057-.5,1.839.083-.559.371-.875.682-1.893a1.528,1.528,0,0,1,.544.01l-.684,1.509,1.032-1.436A22.165,22.165,0,0,1,1393,181.97c.274.543.568,1.809.818,2.343-3.252-1.536-5.7-1.74-8-.969C1386.277,182.222,1387.333,179.921,1387.368,179.909Z" transform="translate(-1372.318 -179.61)" fill="#38192a"/>
          </g>
        </g>
        <g id="Group_3546" data-name="Group 3546">
          <path id="Path_4514" data-name="Path 4514" d="M1320.676,133.22a47.624,47.624,0,0,1-2.02-6c-1.017-4.857-.691-10.394,2.594-14.113,1.018-1.153,2.718-2.119,4.028-1.313a11.045,11.045,0,0,1,2.9-4.884c3.315-3.238-4.938,13.615-4.856,15.569a168.575,168.575,0,0,1,.388,19.079C1322.776,141.293,1321.592,135.83,1320.676,133.22Z" transform="translate(-1318.145 -101.7)" fill="#3c2417"/>
          <path id="Path_4515" data-name="Path 4515" d="M1414.954,140.752c.539-2.08.4-4.342.665-6.474.608-4.925.668-10.085-2.917-13.518-1.111-1.064-2.885-1.885-4.124-.972-.67-1.794,2.762,8.53,2.843,10.484a183.239,183.239,0,0,0,1.372,19.038C1413.7,148.966,1414.26,143.43,1414.954,140.752Z" transform="translate(-1378.48 -110.311)" fill="#3c2417"/>
          <g id="Group_3545" data-name="Group 3545" transform="translate(1.875)">
            <path id="Path_4516" data-name="Path 4516" d="M1328.162,94.089a13.826,13.826,0,0,0-2.707,3.275,10.027,10.027,0,0,0-1.666,5.186c.024,3.574,2.693,6.41,5.309,8.522,4,3.231,8.464,5.912,13.3,7.005a18.073,18.073,0,0,0,13.229-1.805c2.134-2.045,4.032-4.52,3.866-7.549a8.994,8.994,0,0,0-1.777-4.579,13.513,13.513,0,0,0-11.411-5.9c-2.132.095-4.524.663-6.208-.807-.956-.834-1.442-2.157-2.237-3.178a6.15,6.15,0,0,0-6.777-1.885A8.681,8.681,0,0,0,1328.162,94.089Z" transform="translate(-1323.788 -92.049)" fill="#3c2417"/>
            <path id="Path_4517" data-name="Path 4517" d="M1339.79,121.881a5.258,5.258,0,0,1-2.87-2.344c1.922,1.768,5.01,1.947,7.457,1.536,6.692-1.028,14.158-2.9,20.478-.615a14.252,14.252,0,0,1,1.416,1.644C1358.836,118.74,1348.131,124.28,1339.79,121.881Z" transform="translate(-1332.558 -110.297)" fill="#512f20"/>
            <path id="Path_4518" data-name="Path 4518" d="M1340.695,102.242c-2.1,1.32-4.266,1.1-6.457.27a6.083,6.083,0,0,1-3.617-4.473,13.063,13.063,0,0,1,2.1-2.356,9.332,9.332,0,0,1,1.829-1.246C1333.4,98.267,1336.308,103.536,1340.695,102.242Z" transform="translate(-1328.351 -93.644)" fill="#512f20"/>
            <path id="Path_4519" data-name="Path 4519" d="M1337.307,129.12c8.726,5.779,21.125,6.4,30.9,2.658a7.052,7.052,0,0,1,.318,1.7,6.752,6.752,0,0,1-.193,1.993C1357.4,137.85,1346.228,137.325,1337.307,129.12Z" transform="translate(-1332.816 -116.805)" fill="#512f20"/>
            <path id="Path_4520" data-name="Path 4520" d="M1357.672,150.521a32.8,32.8,0,0,0,23.7.782,12.333,12.333,0,0,1-2,2.868C1371.824,155.294,1364.293,154.941,1357.672,150.521Z" transform="translate(-1346.416 -131.097)" fill="#512f20"/>
            <path id="Path_4521" data-name="Path 4521" d="M1361.075,99.521c.522.744.931,1.6,1.481,2.3-1.4.992-3.1,1.837-4.294,2.713C1359.745,103.249,1361.15,101.522,1361.075,99.521Z" transform="translate(-1346.81 -97.039)" fill="#333"/>
          </g>
        </g>
      </g>
    </g>
    <g id="Group_3549" data-name="Group 3549" transform="translate(6.184 41.796)">
      <path id="Path_4522" data-name="Path 4522" d="M1350.873,220.846c-3.477.208-5.2,1.673-8.677,1.881a2.587,2.587,0,0,1-2.6-.955c-.482-.484-2.352-2.641-2.834-3.125a74.008,74.008,0,0,0,4.531,9.508c.8,1.52,6.754,6.051,8.87,6.384a6.828,6.828,0,0,0,1.541-.064,24.614,24.614,0,0,0,5.72-3.474c3.434-3.41,5.775-8.5,7.16-13.134-.685.491-1.119,1.832-1.733,2.409a5.1,5.1,0,0,1-1.57,1.17,4.529,4.529,0,0,1-1.355.221C1357.493,221.812,1353.3,220.7,1350.873,220.846Z" transform="translate(-1336.761 -217.867)" fill="#3c2417"/>
      <path id="Path_4523" data-name="Path 4523" d="M1374.632,252.864c-.279.317-.563.626-.858.919a24.612,24.612,0,0,1-5.719,3.474,6.824,6.824,0,0,1-1.541.064c-1.123-.177-3.326-1.537-5.267-3C1365.405,252.047,1370.3,251.176,1374.632,252.864Z" transform="translate(-1353.112 -240.649)" fill="#512f20"/>
      <path id="Path_4524" data-name="Path 4524" d="M1340.356,224.571c-1.318-.512-3.148-3.13-3.148-3.13-.173-.434-.327-.849-.448-1.228.482.484,2.352,2.641,2.834,3.125a2.587,2.587,0,0,0,2.6.955c3.478-.208,5.2-1.673,8.677-1.881,2.012-.12,5.225.618,7.652.795-.368.055-.734.1-1.089.144-3.145.377-7.114-.8-9.42.019S1342.922,225.568,1340.356,224.571Z" transform="translate(-1336.761 -219.434)" fill="#422614"/>
      <path id="Path_4525" data-name="Path 4525" d="M1373.228,232.713a29.624,29.624,0,0,1-10.421.351l1.57,2.338a22.318,22.318,0,0,0,6.6.633Z" transform="translate(-1354.155 -227.781)" fill="#fff"/>
    </g>
  </g>
  <g id="Group_3564" data-name="Group 3564" transform="translate(0.25 116.519)">
    <path id="Path_4526" data-name="Path 4526" d="M1348.553,527.231s-40.718,5.744-66.567,4.307l.034-7.788,66.867-2.2Z" transform="translate(-1262.454 -495.393)" fill="#e6e6e6" style="mix-blend-mode: multiply;isolation: isolate"/>
    <g id="Group_3563" data-name="Group 3563">
      <g id="Group_3562" data-name="Group 3562">
        <g id="Group_3551" data-name="Group 3551" transform="translate(71.286)">
          <path id="Path_4527" data-name="Path 4527" d="M1451.036,449.917s1.567-3.215,3.866-4.5,12.326-2.419,13.492-2.6c1.31-.2.479,2.345-.511,2.9-1.989,1.111-10.869,1.913-11.973,2.739s-3.407,5.143-3.407,5.143Z" transform="translate(-1446.632 -442.804)" fill="#bf7764"/>
          <path id="Path_4528" data-name="Path 4528" d="M1452.612,460.91s1.567-3.215,3.866-4.5,11.1-2.132,12.757-2.406.39,2.469-.762,3.032c-2.047,1-9.677,2.193-10.781,3.019a31.274,31.274,0,0,0-3.613,4.532Z" transform="translate(-1447.685 -450.272)" fill="#bf7764"/>
          <path id="Path_4529" data-name="Path 4529" d="M1455.425,472.737s.991-3.334,2.8-4.81,9.126-3.082,10.491-3.5.58,2.423-.333,3.082c-1.621,1.172-7.92,3.02-8.766,3.937a31.1,31.1,0,0,0-2.58,4.821Z" transform="translate(-1449.563 -457.217)" fill="#bf7764"/>
          <path id="Path_4530" data-name="Path 4530" d="M1454.483,485.371s.645-3.3,2.472-4.254c1.353-.708,7.226-2.9,8.433-3.272a.98.98,0,0,1,1.009,1.656c-1.433,1.036-6.7,3.315-7.45,4.126a52.819,52.819,0,0,0-3.042,4.869Z" transform="translate(-1448.934 -466.164)" fill="#ffa07f"/>
          <path id="Path_4531" data-name="Path 4531" d="M1441.2,465.255s.177-3.109,1.066-4.4c.621-.9,3.431-1.659,3.431-1.659l-.546,1.765Z" transform="translate(-1440.063 -453.749)" fill="#bf7764"/>
          <path id="Path_4532" data-name="Path 4532" d="M1442.674,462.971l4.961,10.854s-1.282,5.262-4.055,6.074-4.274,2.153-5.088,1.01-1.048-9.707-.065-12.805S1442.674,462.971,1442.674,462.971Z" transform="translate(-1437.78 -456.272)" fill="#ffa07f"/>
        </g>
        <g id="Group_3554" data-name="Group 3554" transform="translate(0 6.163)">
          <g id="Group_3553" data-name="Group 3553">
            <g id="Group_3552" data-name="Group 3552">
              <path id="Path_4533" data-name="Path 4533" d="M1292.8,461.355s2.271,18.128,2.5,22.029c0,0-59.655,5.851-66.569,3.418-6.156-2.166-6.871-9.415-3.653-13.541s9.645-6.87,19.97-7.545S1292.8,461.355,1292.8,461.355Z" transform="translate(-1223.189 -461.355)" fill="#e6e6e6"/>
            </g>
          </g>
        </g>
        <g id="Group_3561" data-name="Group 3561" transform="translate(3.408 4.901)">
          <g id="Group_3556" data-name="Group 3556" transform="translate(20.895 4.836)">
            <g id="Group_3555" data-name="Group 3555">
              <path id="Path_4534" data-name="Path 4534" d="M1302.333,482.4c7.12,1.4,22.7,3.963,29.912,4.844l26.521,3.24c2.585.316,5.346.593,7.772-.922,1.025-.639,1.638-4.811-.223-7.585a16.441,16.441,0,0,0-7.272-6.36c-3.16-1.6-6.75-1.745-10.257-1.87-14.168-.508-50-1.635-50-1.635S1291.4,480.249,1302.333,482.4Z" transform="translate(-1296.347 -472.115)" fill="#bf7764"/>
            </g>
          </g>
          <g id="Group_3560" data-name="Group 3560">
            <g id="Group_3558" data-name="Group 3558">
              <g id="Group_3557" data-name="Group 3557">
                <path id="Path_4535" data-name="Path 4535" d="M1287.883,473.24c-2.785,2.6-6.423,4.045-9.7,5.961-1.334.781-2.971,1.567-4.281.886a4.224,4.224,0,0,1-1.565-1.875c-1.277-2.341-.073-6.516-1.579-9.62-1.057-2.179-2.639-6.989-1.367-7.186,3.349-.519,10.131,3.018,14.025,3.727a3.085,3.085,0,0,1,1.5.73C1286.579,467.332,1290.245,471.039,1287.883,473.24Z" transform="translate(-1257.138 -460.094)" fill="#bf7764"/>
                <path id="Path_4536" data-name="Path 4536" d="M1249.233,479.661c-2.814.4-3.394,1.6-6.471,1.106a45.192,45.192,0,0,1-8.563-1.738c-1.787-.529-.06-3.039,1.775-2.729a26.387,26.387,0,0,0,5.531.653c2.657.107,4.627-1.714,7.132-2.071C1250.322,474.643,1250.922,479.421,1249.233,479.661Z" transform="translate(-1233.447 -469.121)" fill="#bf7764"/>
                <path id="Path_4537" data-name="Path 4537" d="M1251.537,493.32c-3.754.523-4.847,1.728-8.686,1.382-3.266-.294-2.451-.927-5.788-1.245-2.289-.218-1.666-3.123.619-2.906,3.416.326,4.626.477,4.626.477,3.408-.019,6.473-1.892,9.815-2.357C1254.372,488.358,1253.791,493.006,1251.537,493.32Z" transform="translate(-1234.902 -478.325)" fill="#bf7764"/>
                <path id="Path_4538" data-name="Path 4538" d="M1252.4,502.825c-3.673.935-6.4,2.114-8.032,2.318-.758.094-4.147-.307-5.076-.368a7.227,7.227,0,0,1-2.705-.81.992.992,0,0,1,.615-1.77c1.114-.059,3.386-.338,5.771-.626,3.384-.408,6.223-2.6,9.494-3.431C1254.667,497.579,1254.6,502.264,1252.4,502.825Z" transform="translate(-1235.285 -484.628)" fill="#bf7764"/>
                <path id="Path_4539" data-name="Path 4539" d="M1266.019,504.955a45.034,45.034,0,0,1-6.07,3.611c-.678.352-3.4,1.147-4.973,1.854-.849.38-3.388,1.1-3.388,1.1a.992.992,0,0,1-.038-1.873c1.024-.442,2.965-1.213,5.1-2.311,3.031-1.558,5.025-4.879,7.8-6.8C1266.322,499.248,1267.892,503.662,1266.019,504.955Z" transform="translate(-1245.105 -486.104)" fill="#bf7764"/>
                <path id="Path_4540" data-name="Path 4540" d="M1254.714,466.62c-2.331-2.406-3.782-4.094-5.321-4.2a34.174,34.174,0,0,1-4.947-.579,4.561,4.561,0,0,1-2.721-2.26c-.8-2,3.564-1.695,6.684-1.968a9.015,9.015,0,0,1,5.279.916c1.63.82,7.256,3.8,7.256,3.8Z" transform="translate(-1238.911 -457.558)" fill="#bf7764"/>
              </g>
            </g>
            <g id="Group_3559" data-name="Group 3559" transform="translate(0 7.152)">
              <path id="Path_4541" data-name="Path 4541" d="M1235.973,479.114c-1.834-.309-3.562,2.2-1.775,2.729,1.511.447,2.659.742,3.605.951a6.937,6.937,0,0,1,1.156-3.178C1238.113,479.527,1237.636,479.395,1235.973,479.114Z" transform="translate(-1233.447 -479.088)" fill="#af6b5d"/>
              <path id="Path_4542" data-name="Path 4542" d="M1251.549,526.059a.992.992,0,0,0,.038,1.873s2.539-.719,3.388-1.1c.268-.12.57-.243.889-.365a20.657,20.657,0,0,1-1.581-1.585C1253.141,525.4,1252.174,525.79,1251.549,526.059Z" transform="translate(-1245.105 -509.67)" fill="#af6b5d"/>
              <path id="Path_4543" data-name="Path 4543" d="M1239.2,494.485c-.449-.044-.948-.093-1.514-.147-2.285-.218-2.907,2.687-.619,2.906a9.677,9.677,0,0,1,2.723.558A12.343,12.343,0,0,1,1239.2,494.485Z" transform="translate(-1234.902 -489.265)" fill="#af6b5d"/>
              <path id="Path_4544" data-name="Path 4544" d="M1240.766,509.358c-1.506.178-2.8.321-3.564.361a.992.992,0,0,0-.615,1.77,7.227,7.227,0,0,0,2.705.81c.617.041,2.32.231,3.615.327-.569-.749-1.1-1.506-1.589-2.237A10.988,10.988,0,0,1,1240.766,509.358Z" transform="translate(-1235.285 -499.302)" fill="#af6b5d"/>
            </g>
          </g>
          <path id="Path_4545" data-name="Path 4545" d="M1337,459.634s-1.311,13.618.7,19.282c0,0,57.31,6.126,63.409,5.55,8.38-.791,11.727-13.879.189-19.663Z" transform="translate(-1302.319 -458.944)" fill="#e6e6e6"/>
        </g>
      </g>
    </g>
  </g>
  <g id="Group_3573" data-name="Group 3573" transform="translate(25.137 61.664)">
    <path id="Path_4546" data-name="Path 4546" d="M1309.42,288.483c-.206,10.64-.408,20.764-.408,20.764l1.1.022s.2-10.125.408-20.765c.118-6.084,3.2-8.376,5.757-9.315a11.629,11.629,0,0,1,.866-1.515C1314.212,278.452,1309.567,280.9,1309.42,288.483Z" transform="translate(-1305.389 -277.674)" fill="#28364a"/>
    <g id="Group_3565" data-name="Group 3565" transform="translate(0 29.692)">
      <path id="Path_4547" data-name="Path 4547" d="M1304.449,375.978c-1.8,0-3.265-2-3.265-4.462s1.464-4.462,3.265-4.462,3.265,2,3.265,4.462S1306.249,375.978,1304.449,375.978Z" transform="translate(-1300.162 -367.054)" fill="#b6bfc6"/>
      <path id="Path_4548" data-name="Path 4548" d="M1303.631,376.176c-1.73,0-3.137-1.913-3.137-4.265s1.407-4.266,3.137-4.266,3.137,1.914,3.137,4.266S1305.361,376.176,1303.631,376.176Z" transform="translate(-1299.701 -367.449)" fill="#c0d1dd"/>
      <ellipse id="Ellipse_135" data-name="Ellipse 135" cx="2.744" cy="3.873" rx="2.744" ry="3.873" transform="translate(1.186 0.589)" fill="#80a9da"/>
      <ellipse id="Ellipse_136" data-name="Ellipse 136" cx="1.816" cy="2.652" rx="1.816" ry="2.652" transform="translate(0 1.673)" fill="#daedf5"/>
      <path id="Path_4549" data-name="Path 4549" d="M1300.211,377.759c-.834,0-1.512-1.028-1.512-2.291s.678-2.291,1.512-2.291,1.511,1.028,1.511,2.291S1301.044,377.759,1300.211,377.759Z" transform="translate(-1298.503 -371.143)" fill="#2b6fc2"/>
      <path id="Path_4550" data-name="Path 4550" d="M1302.733,376.611a3.224,3.224,0,0,0,.2-1.143c0-1.263-.678-2.291-1.511-2.291a1.217,1.217,0,0,0-.909.461,3.939,3.939,0,0,0,.632,1.83A4.126,4.126,0,0,0,1302.733,376.611Z" transform="translate(-1299.715 -371.143)" fill="#80a9da"/>
    </g>
    <g id="Group_3572" data-name="Group 3572" transform="translate(38.719 0.716)">
      <g id="Group_3571" data-name="Group 3571">
        <path id="Path_4551" data-name="Path 4551" d="M1422.648,290.589c-.148-7.6-5.056-10-7.986-10.76.569.526,1.7,1.674,1.7,1.674,2.4,1.113,5.08,3.589,5.186,9.108.206,10.64.408,20.765.408,20.765l1.1-.022S1422.854,301.228,1422.648,290.589Z" transform="translate(-1414.662 -279.828)" fill="#28364a"/>
        <g id="Group_3570" data-name="Group 3570" transform="translate(0.443 30.298)">
          <g id="Group_3569" data-name="Group 3569">
            <g id="Group_3568" data-name="Group 3568">
              <g id="Group_3566" data-name="Group 3566" transform="translate(0.266 11.306)">
                <path id="Path_4552" data-name="Path 4552" d="M1425.244,423.135c-2.18-.313-6.74-2.019-7.208-5.289-.4-2.812-1.23-12.175-1.239-12.27a.467.467,0,0,1,.93-.082c.008.094.835,9.432,1.233,12.219.342,2.4,3.944,4.141,6.416,4.5a.467.467,0,0,1-.133.924Z" transform="translate(-1416.795 -405.069)" fill="#a2a9ae"/>
                <path id="Path_4553" data-name="Path 4553" d="M1441.459,457.585l-.776-.147a.74.74,0,0,1-.588-.862h0a.74.74,0,0,1,.862-.588l.776.147a.74.74,0,0,1,.588.862h0A.74.74,0,0,1,1441.459,457.585Z" transform="translate(-1432.347 -439.064)" fill="#c1c6c9"/>
              </g>
              <g id="Group_3567" data-name="Group 3567" transform="translate(4.473 11.075)">
                <path id="Path_4554" data-name="Path 4554" d="M1433.02,422.438c2.18-.313,6.741-2.019,7.208-5.289.4-2.812,1.23-12.175,1.239-12.269a.467.467,0,1,0-.93-.082c-.008.094-.835,9.432-1.233,12.219-.342,2.4-3.944,4.142-6.417,4.5a.467.467,0,1,0,.133.924Z" transform="translate(-1431.481 -404.372)" fill="#a2a9ae"/>
                <path id="Path_4555" data-name="Path 4555" d="M1430.334,456.888l.776-.147a.74.74,0,0,0,.588-.862h0a.74.74,0,0,0-.862-.588l-.776.147a.741.741,0,0,0-.588.862h0A.74.74,0,0,0,1430.334,456.888Z" transform="translate(-1429.459 -438.367)" fill="#c1c6c9"/>
              </g>
              <path id="Path_4556" data-name="Path 4556" d="M1417.368,383.262h-1.373v-4.876a7.353,7.353,0,0,1,14.706,0v4.807h-1.373v-4.807a5.98,5.98,0,0,0-11.96,0Z" transform="translate(-1415.995 -371.034)" fill="#28364a"/>
            </g>
          </g>
        </g>
      </g>
    </g>
  </g>
</svg>
