<svg xmlns="http://www.w3.org/2000/svg" xmlns:xlink="http://www.w3.org/1999/xlink" width="30" height="30" viewBox="0 0 30 30">
  <defs>
    <clipPath id="clip-path">
      <circle id="Ellipse_143" data-name="Ellipse 143" cx="15" cy="15" r="15" transform="translate(0)" fill="#fff" stroke="#707070" stroke-width="1"/>
    </clipPath>
  </defs>
  <g id="Group_3897" data-name="Group 3897" transform="translate(15)">
    <circle id="Ellipse_144" data-name="Ellipse 144" cx="15" cy="15" r="15" transform="translate(-15)" fill="#eee"/>
    <g id="Mask_Group_17" data-name="Mask Group 17" transform="translate(-15)" clip-path="url(#clip-path)">
      <g id="man" transform="translate(-2.068 3.587)">
        <rect id="Rectangle_995" data-name="Rectangle 995" width="6.287" height="2.667" transform="translate(13.591 19.125)" fill="#32303a"/>
        <g id="Group_3861" data-name="Group 3861" transform="translate(13.358 17.007)">
          <path id="Path_4766" data-name="Path 4766" d="M1074.18,445.9l-.8-.37v-2.549h-5.145v2.549l-.805.347.214,7.228h.591v1.108h5.145v-1.108h.587Z" transform="translate(-1067.428 -442.981)" fill="#f7cdb9"/>
          <path id="Path_4767" data-name="Path 4767" d="M1070.583,442.981v2l5.145.38v-2.38Z" transform="translate(-1069.777 -442.981)" fill="#deb4a0" style="mix-blend-mode: multiply;isolation: isolate"/>
        </g>
        <g id="Group_3866" data-name="Group 3866" transform="translate(5.904 19.125)">
          <g id="Group_3862" data-name="Group 3862" transform="translate(4.296 0.264)">
            <path id="Path_4768" data-name="Path 4768" d="M1065.037,454.481l-.191.718a3.359,3.359,0,0,1-3.193,2.5,3.661,3.661,0,0,1-3.408-2.828l-.1-.388c-4.185,1.572-2.9,14.678-2.9,14.678l-.026,10.886h13.113l-.175-10.886S1069.222,456.053,1065.037,454.481Z" transform="translate(-1055.055 -453.928)" fill="#fff"/>
            <path id="Path_4769" data-name="Path 4769" d="M1078.281,462.74l-.494.946h-1.5l-.48-.946,1.238-1.012Z" transform="translate(-1070.509 -459.324)" fill="#96281b"/>
            <path id="Path_4770" data-name="Path 4770" d="M1068.144,454.716l-1.582,1.666-2.706-3.228,1.689-.841.635.588Z" transform="translate(-1061.61 -452.313)" fill="#e6e7e8"/>
            <path id="Path_4771" data-name="Path 4771" d="M1083.258,452.316l-2.6,2.4,1.582,1.667,2.705-3.23Z" transform="translate(-1074.123 -452.315)" fill="#e6e7e8"/>
            <path id="Path_4772" data-name="Path 4772" d="M1077.443,470.286l.612,19.7-1.356,1.5-1.356-1.5.6-19.7Z" transform="translate(-1070.164 -465.699)" fill="#96281b"/>
          </g>
          <path id="Path_4773" data-name="Path 4773" d="M1059.759,457.743c-.411-2.4-3.073-2.4-7.258-3.976l-3.448,13.957-3.448-13.957c-4.185,1.572-6.847,1.573-7.258,3.976-.664,3.883,1.553,5.579,1.57,5.557,0,0,.181,17.236-.091,21.391h8.584l.643-3,.643,3h8.584c-.272-4.155-.091-21.391-.091-21.391C1058.206,463.322,1060.423,461.626,1059.759,457.743Z" transform="translate(-1038.222 -453.132)" fill="#32303a"/>
          <g id="Group_3865" data-name="Group 3865" transform="translate(5.522 0)">
            <g id="Group_3863" data-name="Group 3863">
              <path id="Path_4774" data-name="Path 4774" d="M1059.857,452.393l.084,2.458,1.228,1.01-.955,1.306,4.92,8.7-3.111-14.592Z" transform="translate(-1059.857 -451.279)" fill="#4f4c4d"/>
            </g>
            <g id="Group_3864" data-name="Group 3864" transform="translate(5.341)">
              <path id="Path_4775" data-name="Path 4775" d="M1086.059,452.393l-.084,2.458-1.228,1.01.955,1.306-4.92,8.7,3.111-14.592Z" transform="translate(-1080.783 -451.279)" fill="#4f4c4d"/>
            </g>
          </g>
        </g>
        <g id="Group_3868" data-name="Group 3868" transform="translate(0 22.375)">
          <g id="Group_3867" data-name="Group 3867" transform="translate(7.127 9.531)">
            <path id="Path_4776" data-name="Path 4776" d="M1046.423,504.6s-1.009.112-1.793.17l-.573.035-.494.015-.474,0-.075,3.215.594,0,.594-.018.668-.04c.9-.067,1.978-.19,1.978-.19a1.422,1.422,0,0,0,.972-1.77C1047.673,505.14,1047.046,504.52,1046.423,504.6Z" transform="translate(-1043.015 -503.768)" fill="#f7cdb9"/>
            <path id="Path_4777" data-name="Path 4777" d="M1046.773,501.36a2.008,2.008,0,0,0-1.255.812,4.982,4.982,0,0,0-.521.769.675.675,0,0,0,.083.75.331.331,0,0,0,.552-.115s.039-.075.1-.178a3.6,3.6,0,0,1,.266-.374,1.452,1.452,0,0,1,.889-.6c.21-.024.35-.281.314-.575S1046.973,501.338,1046.773,501.36Z" transform="translate(-1044.434 -501.359)" fill="#f7cdb9"/>
          </g>
          <path id="Path_4778" data-name="Path 4778" d="M1022.7,478.53c-1.32,0-5.041.2-6.153-.708-.782-.637-2.414-2.709-.7-6.208a27.993,27.993,0,0,1,5.937-7.6l2.584,5.4c-2.023,1.91-2.512,1.788-4.414,3.9-.576.641-.347.859-.332.87.3.248,2.142.11,3.348.013l.309,4.275A3.424,3.424,0,0,1,1022.7,478.53Z" transform="translate(-1015.09 -464.015)" fill="#32303a"/>
        </g>
        <g id="Group_3870" data-name="Group 3870" transform="translate(21.506 22.375)">
          <g id="Group_3869" data-name="Group 3869" transform="translate(0 9.531)">
            <path id="Path_4779" data-name="Path 4779" d="M1100.779,504.6s1.009.112,1.793.17l.572.035.494.015.474,0,.075,3.215-.594,0-.594-.018-.668-.04c-.9-.067-1.979-.19-1.979-.19a1.421,1.421,0,0,1-.972-1.77C1099.529,505.14,1100.157,504.52,1100.779,504.6Z" transform="translate(-1099.352 -503.768)" fill="#f7cdb9"/>
            <path id="Path_4780" data-name="Path 4780" d="M1107.864,501.36a2.008,2.008,0,0,1,1.255.812,5,5,0,0,1,.521.769.675.675,0,0,1-.083.75.331.331,0,0,1-.552-.115s-.039-.075-.1-.178a3.626,3.626,0,0,0-.266-.374,1.452,1.452,0,0,0-.888-.6c-.21-.024-.351-.281-.314-.575S1107.663,501.338,1107.864,501.36Z" transform="translate(-1105.367 -501.359)" fill="#f7cdb9"/>
          </g>
          <path id="Path_4781" data-name="Path 4781" d="M1111.749,478.53c1.32,0,5.041.2,6.153-.708.782-.637,2.414-2.709.695-6.208a28,28,0,0,0-5.937-7.6l-2.511,5.458c2.023,1.91,2.44,1.727,4.342,3.843.576.641.347.859.332.87-.3.248-2.142.11-3.348.013l-.309,4.275A3.425,3.425,0,0,0,1111.749,478.53Z" transform="translate(-1107.393 -464.015)" fill="#32303a"/>
        </g>
        <g id="Group_3875" data-name="Group 3875" transform="translate(9.968)">
          <g id="Group_3874" data-name="Group 3874" transform="translate(0.334 2.005)">
            <path id="Path_4782" data-name="Path 4782" d="M1067.5,391.827l.174-2.264c0-2.961-2.83-5.36-5.788-5.36s-5.788,2.4-5.788,5.36l.174,2.262a1.048,1.048,0,0,0-.44.223,1.067,1.067,0,0,0-.378.817v1.115a1.071,1.071,0,0,0,1.065,1.071c0,2.8,3.359,5.446,5.366,5.446s5.366-2.65,5.366-5.446a1.071,1.071,0,0,0,1.065-1.071v-1.115A1.069,1.069,0,0,0,1067.5,391.827Z" transform="translate(-1055.458 -384.203)" fill="#f7cdb9"/>
            <path id="Path_4783" data-name="Path 4783" d="M1082.516,391.827l.174-2.264c0-2.961-2.83-5.36-5.788-5.36h0v7.611a22.355,22.355,0,0,0-1.286,4.073h1.286V400.5h0c2.007,0,5.366-2.65,5.366-5.446a1.071,1.071,0,0,0,1.065-1.071v-1.115A1.069,1.069,0,0,0,1082.516,391.827Z" transform="translate(-1070.47 -384.203)" fill="#f7cdb9" style="mix-blend-mode: multiply;isolation: isolate"/>
            <g id="Group_3873" data-name="Group 3873" transform="translate(3.119 7.84)">
              <g id="Group_3871" data-name="Group 3871">
                <path id="Path_4784" data-name="Path 4784" d="M1069.37,416.579a.847.847,0,1,1-.876-.816A.847.847,0,0,1,1069.37,416.579Z" transform="translate(-1067.677 -415.548)" fill="#f7cdb9" style="mix-blend-mode: multiply;isolation: isolate"/>
                <path id="Path_4785" data-name="Path 4785" d="M1069.37,415.739a.847.847,0,1,1-.876-.816A.847.847,0,0,1,1069.37,415.739Z" transform="translate(-1067.677 -414.922)" fill="#3c2415"/>
                <path id="Path_4786" data-name="Path 4786" d="M1071.715,419.1a.212.212,0,1,1-.219-.2A.212.212,0,0,1,1071.715,419.1Z" transform="translate(-1070.369 -417.881)" fill="#fff"/>
              </g>
              <g id="Group_3872" data-name="Group 3872" transform="translate(4.931)">
                <path id="Path_4787" data-name="Path 4787" d="M1088.69,416.579a.847.847,0,1,1-.876-.816A.847.847,0,0,1,1088.69,416.579Z" transform="translate(-1086.997 -415.548)" fill="#f7cdb9" style="mix-blend-mode: multiply;isolation: isolate"/>
                <path id="Path_4788" data-name="Path 4788" d="M1088.69,415.739a.847.847,0,1,1-.876-.816A.847.847,0,0,1,1088.69,415.739Z" transform="translate(-1086.997 -414.922)" fill="#3c2415"/>
                <path id="Path_4789" data-name="Path 4789" d="M1091.035,419.1a.212.212,0,1,1-.219-.2A.212.212,0,0,1,1091.035,419.1Z" transform="translate(-1089.689 -417.881)" fill="#fff"/>
              </g>
            </g>
          </g>
          <path id="Path_4790" data-name="Path 4790" d="M1075.4,432.125a4.255,4.255,0,0,0-2.543-.9h-.034a4.255,4.255,0,0,0-2.543.9.426.426,0,0,0-.119.3,13.035,13.035,0,0,0,.213,2.2.424.424,0,0,0,.131.18,4.2,4.2,0,0,0,4.669,0,.43.43,0,0,0,.132-.18,13.072,13.072,0,0,0,.213-2.2A.427.427,0,0,0,1075.4,432.125Zm-.853,2.078a5.019,5.019,0,0,1-1.172.4v-.575a.536.536,0,0,0-1.072,0v.575a5,5,0,0,1-1.171-.4,10.478,10.478,0,0,1-.108-1.6,3.428,3.428,0,0,1,3.63,0A10.514,10.514,0,0,1,1074.547,434.2Z" transform="translate(-1066.074 -417.222)" fill="#4f3c30"/>
          <path id="Path_4791" data-name="Path 4791" d="M1067.352,380.717c.235-.715.041-1.85-.651-3.637a.47.47,0,0,0-.811-.115c-.653.819-1.591.811-2.937.077-1.984-1.082-3.56-.775-4.607.066-7.146,1.124-3.005,10.335-3.005,10.335s-.49-5.545,2.023-5.179a21.546,21.546,0,0,0,7.1,0c2.513-.366,2.023,5.179,2.023,5.179S1068.433,383.72,1067.352,380.717Z" transform="translate(-1054.148 -376.346)" fill="#4f3c30"/>
          <path id="Path_4792" data-name="Path 4792" d="M1069.143,410.537h-1.16a3.428,3.428,0,0,0-1.6-.315,3.3,3.3,0,0,0-2.422.676,1.579,1.579,0,0,0-1.64,0,3.311,3.311,0,0,0-2.418-.673,3.429,3.429,0,0,0-1.6.315h-1.169v.836l.384.135a1.932,1.932,0,0,0-.055.469c0,1.039.253,2.419,2.438,2.419a2.512,2.512,0,0,0,2.708-2.376,1.425,1.425,0,0,0,.016-.507.938.938,0,0,1,.512-.114.927.927,0,0,1,.52.119,1.423,1.423,0,0,0,.017.5,2.512,2.512,0,0,0,2.708,2.376c2.186,0,2.438-1.381,2.438-2.419a1.923,1.923,0,0,0-.056-.472l.376-.132Zm-6.951,1.4c-.253,1.221-.739,2.034-2.288,2.034-1.766,0-2.01-.957-2.01-1.991,0-.328,0-1.325,2.01-1.325,1.387,0,1.933.314,2.148.577A.807.807,0,0,1,1062.192,411.933Zm4.192,2.034c-1.549,0-2.035-.813-2.288-2.034a.806.806,0,0,1,.141-.7c.214-.263.761-.577,2.147-.577,2.01,0,2.01,1,2.01,1.325C1068.394,413.01,1068.151,413.967,1066.384,413.967Z" transform="translate(-1056.374 -401.576)" fill="#32303a"/>
        </g>
      </g>
    </g>
  </g>
</svg>
