<svg xmlns="http://www.w3.org/2000/svg" xmlns:xlink="http://www.w3.org/1999/xlink" width="64.5" height="63" viewBox="0 0 64.5 63">
  <defs>
    <clipPath id="clip-path">
      <circle id="Ellipse_127" data-name="Ellipse 127" cx="28" cy="28" r="28" transform="translate(-0.085 -0.085)" fill="#fff"/>
    </clipPath>
    <linearGradient id="linear-gradient" y1="0.5" x2="1" y2="0.5" gradientUnits="objectBoundingBox">
      <stop offset="0.184" stop-color="#a0a0a0"/>
      <stop offset="0.254" stop-color="#b6beb9"/>
      <stop offset="0.338" stop-color="#d1d2cf"/>
      <stop offset="0.428" stop-color="#dbe2db"/>
      <stop offset="0.517" stop-color="#e3f5f5"/>
      <stop offset="0.597" stop-color="#dbe2db"/>
      <stop offset="0.692" stop-color="#d1d2cf"/>
      <stop offset="0.766" stop-color="#b5baab"/>
      <stop offset="1" stop-color="#a0a0a0"/>
    </linearGradient>
    <linearGradient id="linear-gradient-2" x1="0.032" y1="0.968" x2="0.917" y2="0.083" gradientUnits="objectBoundingBox">
      <stop offset="0.184" stop-color="#a3a3a3"/>
      <stop offset="0.254" stop-color="#b6beb9"/>
      <stop offset="0.338" stop-color="#ccd2cf"/>
      <stop offset="0.428" stop-color="#dbe2db"/>
      <stop offset="0.517" stop-color="#e3f5f5"/>
      <stop offset="0.597" stop-color="#dbe2db"/>
      <stop offset="0.692" stop-color="#ccd2cf"/>
      <stop offset="0.766" stop-color="#b0bac2"/>
      <stop offset="0.881" stop-color="#a3a3a3"/>
    </linearGradient>
    <linearGradient id="linear-gradient-3" y1="0.5" x2="1" y2="0.5" gradientUnits="objectBoundingBox">
      <stop offset="0" stop-color="#e0eaff"/>
      <stop offset="0.144" stop-color="#b5b5b5"/>
      <stop offset="0.254" stop-color="#a69b8f"/>
      <stop offset="0.353" stop-color="#969696"/>
      <stop offset="0.512" stop-color="#848484"/>
      <stop offset="0.667" stop-color="#9b9a9a"/>
      <stop offset="0.766" stop-color="#a4968f"/>
      <stop offset="0.861" stop-color="#acabb3"/>
      <stop offset="1" stop-color="#e0eaff"/>
    </linearGradient>
    <linearGradient id="linear-gradient-4" x1="-0.307" y1="2.064" x2="4.743" y2="-7.721" gradientUnits="objectBoundingBox">
      <stop offset="0.045" stop-color="#898989"/>
      <stop offset="0.308" stop-color="#b4b7a8"/>
      <stop offset="0.527" stop-color="#e0eaff"/>
      <stop offset="0.721" stop-color="#b3b6ad"/>
      <stop offset="1" stop-color="#898989"/>
    </linearGradient>
    <linearGradient id="linear-gradient-5" x1="-1.461" y1="4.836" x2="3.321" y2="-5.738" xlink:href="#linear-gradient-4"/>
    <linearGradient id="linear-gradient-6" x1="-2.661" y1="3.426" x2="3.845" y2="-2.597" xlink:href="#linear-gradient-4"/>
    <linearGradient id="linear-gradient-7" x1="-3.057" y1="7.392" x2="1.993" y2="-2.392" xlink:href="#linear-gradient-4"/>
    <linearGradient id="linear-gradient-8" x1="-3.504" y1="6.779" x2="2.065" y2="-1.955" xlink:href="#linear-gradient-4"/>
    <linearGradient id="linear-gradient-9" x1="-3.513" y1="9.373" x2="1.27" y2="-1.202" xlink:href="#linear-gradient-4"/>
    <linearGradient id="linear-gradient-10" x1="-5.453" y1="6.01" x2="1.054" y2="-0.013" xlink:href="#linear-gradient-4"/>
    <linearGradient id="linear-gradient-11" x1="-1.208" y1="3.841" x2="3.841" y2="-6.052" xlink:href="#linear-gradient-4"/>
    <linearGradient id="linear-gradient-12" x1="-8.308" y1="6.207" x2="1.477" y2="-0.132" xlink:href="#linear-gradient-4"/>
    <linearGradient id="linear-gradient-13" x1="-5.701" y1="6.677" x2="1.648" y2="-0.654" xlink:href="#linear-gradient-4"/>
    <linearGradient id="linear-gradient-14" x1="-3.886" y1="7.294" x2="1.737" y2="-1.421" xlink:href="#linear-gradient-4"/>
    <linearGradient id="linear-gradient-15" x1="-2.238" y1="8.668" x2="2.142" y2="-4.45" xlink:href="#linear-gradient-4"/>
    <linearGradient id="linear-gradient-16" x1="-1.753" y1="8.468" x2="2.403" y2="-6.21" xlink:href="#linear-gradient-4"/>
    <linearGradient id="linear-gradient-17" x1="-1.387" y1="7.866" x2="2.692" y2="-8.007" xlink:href="#linear-gradient-4"/>
    <linearGradient id="linear-gradient-18" x1="-1.115" y1="6.918" x2="3.064" y2="-9.52" xlink:href="#linear-gradient-4"/>
    <linearGradient id="linear-gradient-19" x1="-0.847" y1="5.288" x2="3.437" y2="-9.659" xlink:href="#linear-gradient-4"/>
    <linearGradient id="linear-gradient-20" x1="-0.55" y1="4.28" x2="3.677" y2="-10.657" xlink:href="#linear-gradient-4"/>
    <linearGradient id="linear-gradient-21" x1="-0.29" y1="3.036" x2="4.119" y2="-10.757" xlink:href="#linear-gradient-4"/>
    <linearGradient id="linear-gradient-22" x1="-0.013" y1="2.195" x2="4.368" y2="-12.199" xlink:href="#linear-gradient-4"/>
    <linearGradient id="linear-gradient-23" x1="-0.823" y1="1.983" x2="6.624" y2="-6.016" xlink:href="#linear-gradient-4"/>
    <linearGradient id="linear-gradient-24" x1="-1.465" y1="2.148" x2="7.038" y2="-4.874" xlink:href="#linear-gradient-4"/>
    <linearGradient id="linear-gradient-25" x1="-2.027" y1="2.484" x2="6.997" y2="-4.48" xlink:href="#linear-gradient-4"/>
    <linearGradient id="linear-gradient-26" x1="-3.152" y1="2.828" x2="7.232" y2="-3.726" xlink:href="#linear-gradient-4"/>
    <linearGradient id="linear-gradient-27" x1="-3.861" y1="3.152" x2="6.518" y2="-3.149" xlink:href="#linear-gradient-4"/>
    <linearGradient id="linear-gradient-28" x1="-4.192" y1="3.778" x2="5.201" y2="-2.81" xlink:href="#linear-gradient-4"/>
    <linearGradient id="linear-gradient-29" x1="-4.319" y1="4.411" x2="4.003" y2="-2.356" xlink:href="#linear-gradient-4"/>
    <linearGradient id="linear-gradient-30" x1="-3.944" y1="5.426" x2="2.851" y2="-2.152" xlink:href="#linear-gradient-4"/>
    <linearGradient id="linear-gradient-31" x1="-3.446" y1="8.232" x2="1.604" y2="-1.663" xlink:href="#linear-gradient-4"/>
    <linearGradient id="linear-gradient-32" x1="0.326" y1="1.067" x2="4.706" y2="-13.325" xlink:href="#linear-gradient-4"/>
    <linearGradient id="linear-gradient-33" x1="0.482" y1="0.607" x2="4.893" y2="-13.189" xlink:href="#linear-gradient-4"/>
    <linearGradient id="linear-gradient-34" x1="0.545" y1="0.41" x2="4.775" y2="-14.532" xlink:href="#linear-gradient-4"/>
    <linearGradient id="linear-gradient-35" x1="0.568" y1="0.349" x2="4.854" y2="-14.601" xlink:href="#linear-gradient-4"/>
    <linearGradient id="linear-gradient-36" x1="0.509" y1="0.533" x2="4.689" y2="-15.902" xlink:href="#linear-gradient-4"/>
    <linearGradient id="linear-gradient-37" x1="0.419" y1="0.837" x2="4.499" y2="-15.037" xlink:href="#linear-gradient-4"/>
    <linearGradient id="linear-gradient-38" x1="0.283" y1="1.28" x2="4.437" y2="-13.392" xlink:href="#linear-gradient-4"/>
    <linearGradient id="linear-gradient-39" x1="0.073" y1="1.79" x2="4.455" y2="-11.333" xlink:href="#linear-gradient-4"/>
    <linearGradient id="linear-gradient-40" x1="-0.774" y1="2.475" x2="4.848" y2="-6.239" xlink:href="#linear-gradient-4"/>
    <linearGradient id="linear-gradient-41" x1="-1.738" y1="2.722" x2="5.612" y2="-4.609" xlink:href="#linear-gradient-4"/>
    <linearGradient id="linear-gradient-42" x1="-3.365" y1="3.001" x2="6.419" y2="-3.337" xlink:href="#linear-gradient-4"/>
    <linearGradient id="linear-gradient-43" x1="-0.57" y1="1.667" x2="6.881" y2="-6.334" xlink:href="#linear-gradient-4"/>
    <linearGradient id="linear-gradient-44" x1="-0.49" y1="1.332" x2="8.014" y2="-5.689" xlink:href="#linear-gradient-4"/>
    <linearGradient id="linear-gradient-45" x1="-0.363" y1="1.19" x2="8.661" y2="-5.774" xlink:href="#linear-gradient-4"/>
    <linearGradient id="linear-gradient-46" x1="-0.493" y1="1.151" x2="9.892" y2="-5.404" xlink:href="#linear-gradient-4"/>
    <linearGradient id="linear-gradient-47" x1="-0.591" y1="1.167" x2="9.788" y2="-5.134" xlink:href="#linear-gradient-4"/>
    <linearGradient id="linear-gradient-48" x1="-0.696" y1="1.351" x2="8.697" y2="-5.236" xlink:href="#linear-gradient-4"/>
    <linearGradient id="linear-gradient-49" x1="-0.901" y1="1.641" x2="7.422" y2="-5.126" xlink:href="#linear-gradient-4"/>
    <linearGradient id="linear-gradient-50" x1="-1.034" y1="2.903" x2="4.543" y2="-5.834" xlink:href="#linear-gradient-4"/>
    <linearGradient id="linear-gradient-51" x1="-0.952" y1="2.124" x2="5.843" y2="-5.455" xlink:href="#linear-gradient-4"/>
    <linearGradient id="linear-gradient-52" x1="0.5" y1="1" x2="0.5" gradientUnits="objectBoundingBox">
      <stop offset="0" stop-color="#9e9ba3"/>
      <stop offset="0.308" stop-color="#b4b7a8"/>
      <stop offset="0.527" stop-color="#e0eaff"/>
      <stop offset="0.721" stop-color="#b3b6ad"/>
      <stop offset="0.891" stop-color="#9e9ba3"/>
    </linearGradient>
  </defs>
  <g id="Group_4410" data-name="Group 4410" transform="translate(-875 -270)">
    <g id="Group_4402" data-name="Group 4402" transform="translate(875.085 270.085)">
      <circle id="Ellipse_1" data-name="Ellipse 1" cx="28" cy="28" r="28" transform="translate(-0.085 -0.085)" fill="#eee"/>
      <g id="Mask_Group_14" data-name="Mask Group 14" transform="translate(0 0)" clip-path="url(#clip-path)">
        <g id="Group_3197" data-name="Group 3197" transform="translate(-0.398 8.638)">
          <g id="man" transform="translate(0.863 0)" style="mix-blend-mode: multiply;isolation: isolate">
            <g id="Group_3214" data-name="Group 3214" transform="translate(0)">
              <rect id="Rectangle_882" data-name="Rectangle 882" width="10.635" height="4.511" transform="translate(22.989 32.499)" fill="#c8c8c8"/>
              <g id="Group_3197-2" data-name="Group 3197" transform="translate(22.595 28.917)">
                <path id="Path_4044" data-name="Path 4044" d="M891.263,190.245l-1.356-.625v-4.311h-8.7v4.311l-1.362.588.362,12.226h1v1.874h8.7v-1.874h.993Z" transform="translate(-879.841 -185.309)" fill="#c8c8c8"/>
                <path id="Path_4045" data-name="Path 4045" d="M883,185.309v1.655l8.7,2.37v-4.025Z" transform="translate(-881.634 -185.309)" fill="#c8c8c8"/>
              </g>
              <g id="Group_3202" data-name="Group 3202" transform="translate(9.987 32.499)">
                <g id="Group_3198" data-name="Group 3198" transform="translate(7.268 0.446)">
                  <path id="Path_4046" data-name="Path 4046" d="M884.354,196.809l-.324,1.215a5.682,5.682,0,0,1-5.4,4.225c-3.843,0-5.309-3.338-5.764-4.784l-.174-.655c-7.079,2.659-4.907,24.829-4.907,24.829l-.045,18.413,10.8,0,11.381,0-.3-18.413S891.432,199.468,884.354,196.809Z" transform="translate(-867.469 -195.873)" fill="#c8c8c8"/>
                  <path id="Path_4047" data-name="Path 4047" d="M892.406,205.767l-.835,1.6h-2.542l-.812-1.6,2.095-1.712Z" transform="translate(-879.26 -199.991)" fill="#c8c8c8"/>
                  <path id="Path_4048" data-name="Path 4048" d="M883.522,198.705l-2.676,2.818-4.577-5.46,2.856-1.422,1.075.994Z" transform="translate(-872.47 -194.641)" fill="#c8c8c8"/>
                  <path id="Path_4049" data-name="Path 4049" d="M897.469,194.644l-4.4,4.063,2.676,2.82,4.576-5.463Z" transform="translate(-882.018 -194.643)" fill="#c8c8c8"/>
                  <path id="Path_4050" data-name="Path 4050" d="M891.309,212.613l1.035,33.319-2.295,2.536-2.294-2.536,1.011-33.319Z" transform="translate(-878.997 -204.854)" fill="#c8c8c8"/>
                </g>
                <path id="Path_4051" data-name="Path 4051" d="M887.065,202.82c-.695-4.064-5.2-4.065-12.277-6.725L868.954,219.7,863.121,196.1c-7.079,2.659-11.582,2.661-12.276,6.725-1.123,6.569,2.627,9.437,2.656,9.4,0,0,.306,29.154-.153,36.183l14.52,0,1.088-5.077,1.088,5.077,14.52,0c-.46-7.028-.154-36.183-.154-36.183C884.438,212.257,888.187,209.388,887.065,202.82Z" transform="translate(-850.635 -195.021)" fill="#c8c8c8"/>
                <g id="Group_3201" data-name="Group 3201" transform="translate(9.34)">
                  <g id="Group_3199" data-name="Group 3199">
                    <path id="Path_4052" data-name="Path 4052" d="M872.27,195.49l.142,4.159,2.077,1.708-1.616,2.209,8.322,14.723-5.262-24.683Z" transform="translate(-872.27 -193.607)" fill="#c8c8c8"/>
                  </g>
                  <g id="Group_3200" data-name="Group 3200" transform="translate(9.034)">
                    <path id="Path_4053" data-name="Path 4053" d="M902.121,195.49l-.142,4.159-2.076,1.708,1.616,2.209L893.2,218.289l5.262-24.683Z" transform="translate(-893.196 -193.607)" fill="#c8c8c8"/>
                  </g>
                </g>
              </g>
              <g id="Group_3203" data-name="Group 3203" transform="translate(15.976 49.164)">
                <rect id="Rectangle_883" data-name="Rectangle 883" width="15.309" height="8.703" rx="4.352" transform="translate(8.703 0) rotate(90)" fill="#c8c8c8"/>
                <path id="Path_4054" data-name="Path 4054" d="M871.55,232.209h-4.17a2.257,2.257,0,0,0-1.808.912,2.246,2.246,0,0,1,1.354-.459h4.17a2.267,2.267,0,0,1,2.267,2.267V245.7a2.245,2.245,0,0,1-.459,1.354,2.255,2.255,0,0,0,.912-1.808V234.475A2.266,2.266,0,0,0,871.55,232.209Z" transform="translate(-865.113 -232.209)" fill="#c8c8c8"/>
                <rect id="Rectangle_884" data-name="Rectangle 884" width="1.393" height="1.393" rx="0.696" transform="translate(5.048 1.235) rotate(90)" fill="#c8c8c8"/>
              </g>
              <g id="Group_3205" data-name="Group 3205" transform="translate(36.979 34.931)">
                <g id="Group_3204" data-name="Group 3204" transform="translate(6.658 48.74)">
                  <path id="Path_4055" data-name="Path 4055" d="M930.888,319.811l1.353-7.675,4.286.755-1.354,7.676c-.268,1.517-1.444,2.577-2.627,2.369S930.621,321.328,930.888,319.811Z" transform="translate(-929.861 -312.136)" fill="#c8c8c8"/>
                  <path id="Path_4056" data-name="Path 4056" d="M928.584,319.791a6.7,6.7,0,0,1,2.869-4.47.892.892,0,0,1,1.252.278.947.947,0,0,1-.275,1.284,4.872,4.872,0,0,0-2.04,3.066.907.907,0,1,1-1.806-.158Z" transform="translate(-928.58 -313.862)" fill="#c8c8c8"/>
                </g>
                <path id="Path_4057" data-name="Path 4057" d="M914.409,199.239c5.51,1.719,9.472,2.215,10.063,5.676,1.123,6.569,2.4,14.012,3.124,21.995.246,10.406-.695,23.379-.695,23.379h-5.7c-.032-.054-.142-8.311-.355-17.539-1.044-6.723-1.538-9.694-1.567-9.731l-6.12-19.459C913.253,203.363,913.912,200.432,914.409,199.239Z" transform="translate(-913.159 -199.239)" fill="#c8c8c8"/>
              </g>
              <g id="Group_3207" data-name="Group 3207" transform="translate(0 37.997)">
                <g id="Group_3206" data-name="Group 3206" transform="translate(12.056 16.122)">
                  <path id="Path_4058" data-name="Path 4058" d="M861.193,246.933s-1.707.19-3.033.288l-.969.058-.835.026-.8,0-.127,5.438,1,0,1.006-.03,1.129-.068c1.523-.114,3.347-.321,3.347-.321,1.171-.153,1.892-1.518,1.644-2.993S862.246,246.8,861.193,246.933Z" transform="translate(-855.428 -245.524)" fill="#c8c8c8"/>
                  <path id="Path_4059" data-name="Path 4059" d="M860.466,243.688a3.4,3.4,0,0,0-2.123,1.374,8.472,8.472,0,0,0-.881,1.3,1.142,1.142,0,0,0,.14,1.268.561.561,0,0,0,.934-.2c0-.008.065-.127.174-.3a6.113,6.113,0,0,1,.449-.634,2.457,2.457,0,0,1,1.5-1.011c.355-.04.593-.475.531-.972S860.806,243.65,860.466,243.688Z" transform="translate(-856.51 -243.686)" fill="#c8c8c8"/>
                </g>
                <path id="Path_4060" data-name="Path 4060" d="M840.369,230.895c-2.232,0-8.526.335-10.408-1.2-1.322-1.077-4.083-4.582-1.176-10.5a47.341,47.341,0,0,1,10.043-12.854l6.491,7.253c-3.422,3.231-6.37,4.9-9.587,8.48-.974,1.083-.587,1.453-.562,1.472.515.419,3.624.186,5.663.022l.523,7.232A5.8,5.8,0,0,1,840.369,230.895Z" transform="translate(-827.503 -206.343)" fill="#c8c8c8"/>
              </g>
              <g id="Group_3213" data-name="Group 3213" transform="translate(17.422)">
                <g id="Group_3211" data-name="Group 3211" transform="translate(0 3.131)">
                  <path id="Path_4061" data-name="Path 4061" d="M888.234,138.477l.295-3.83c0-5.008-4.787-9.066-9.791-9.066s-9.792,4.058-9.792,9.066l.294,3.826a1.772,1.772,0,0,0-.744.377,1.806,1.806,0,0,0-.638,1.382v1.886a1.811,1.811,0,0,0,1.8,1.812c0,4.73,5.682,9.213,9.077,9.213s9.078-4.483,9.078-9.212a1.812,1.812,0,0,0,1.8-1.812v-1.886A1.81,1.81,0,0,0,888.234,138.477Z" transform="translate(-867.858 -125.581)" fill="#c8c8c8"/>
                  <path id="Path_4062" data-name="Path 4062" d="M899.688,138.477l.295-3.83c0-5.008-4.787-9.066-9.791-9.066l0,12.874a37.8,37.8,0,0,0-2.176,6.89h2.176v7.8c3.4,0,9.079-4.483,9.079-9.212a1.812,1.812,0,0,0,1.8-1.812v-1.886A1.81,1.81,0,0,0,899.688,138.477Z" transform="translate(-879.312 -125.581)" fill="#c8c8c8"/>
                  <g id="Group_3210" data-name="Group 3210" transform="translate(5.239 12.194)">
                    <g id="Group_3208" data-name="Group 3208">
                      <path id="Path_4063" data-name="Path 4063" d="M882.857,156.049a1.432,1.432,0,1,1-1.481-1.381A1.432,1.432,0,0,1,882.857,156.049Z" transform="translate(-879.994 -154.304)" fill="#c8c8c8"/>
                      <path id="Path_4064" data-name="Path 4064" d="M882.857,155.209a1.432,1.432,0,1,1-1.481-1.382A1.432,1.432,0,0,1,882.857,155.209Z" transform="translate(-879.994 -153.827)" fill="#c8c8c8"/>
                      <path id="Path_4065" data-name="Path 4065" d="M884.324,157.726a.358.358,0,1,1-.37-.345A.358.358,0,0,1,884.324,157.726Z" transform="translate(-882.048 -155.846)" fill="#c8c8c8"/>
                    </g>
                    <g id="Group_3209" data-name="Group 3209" transform="translate(8.341 0)">
                      <circle id="Ellipse_121" data-name="Ellipse 121" cx="1.432" cy="1.432" r="1.432" transform="translate(0 0.363)" fill="#c8c8c8"/>
                      <circle id="Ellipse_122" data-name="Ellipse 122" cx="1.432" cy="1.432" r="1.432" fill="#c8c8c8"/>
                      <path id="Path_4066" data-name="Path 4066" d="M903.644,157.726a.358.358,0,1,1-.37-.345A.358.358,0,0,1,903.644,157.726Z" transform="translate(-901.368 -155.846)" fill="#c8c8c8"/>
                    </g>
                  </g>
                </g>
                <g id="Group_3212" data-name="Group 3212" transform="translate(0.145)">
                  <path id="Path_4067" data-name="Path 4067" d="M891.533,174.557c-1.3-1.358-4-1.5-4.3-1.514h-.058c-.3.012-3,.156-4.3,1.514a.724.724,0,0,0-.2.508,22.09,22.09,0,0,0,.36,3.726.726.726,0,0,0,.222.3,7.1,7.1,0,0,0,7.9,0,.729.729,0,0,0,.223-.305,22.106,22.106,0,0,0,.359-3.726A.721.721,0,0,0,891.533,174.557Zm-1.442,3.514a8.482,8.482,0,0,1-1.982.673v-.972a.907.907,0,1,0-1.813,0v.972a8.426,8.426,0,0,1-1.98-.673,17.661,17.661,0,0,1-.183-2.7,5.8,5.8,0,0,1,6.141,0A17.776,17.776,0,0,1,890.091,178.071Z" transform="translate(-876.421 -149.422)" fill="#c8c8c8"/>
                  <path id="Path_4068" data-name="Path 4068" d="M878.976,118.329c-16.052.247-9.427,18.692-9.427,18.692s-.829-10.1,3.422-9.486a36.445,36.445,0,0,0,12.011,0c4.25-.618,3.422,9.486,3.422,9.486S895.028,118.576,878.976,118.329Z" transform="translate(-868.194 -118.329)" fill="#c8c8c8"/>
                </g>
              </g>
            </g>
            <g id="Group_3232" data-name="Group 3232" transform="translate(0)">
              <rect id="Rectangle_885" data-name="Rectangle 885" width="10.635" height="4.511" transform="translate(22.989 32.499)" fill="#32303a"/>
              <g id="Group_3215" data-name="Group 3215" transform="translate(22.595 28.917)">
                <path id="Path_4069" data-name="Path 4069" d="M891.263,190.245l-1.356-.625v-4.311h-8.7v4.311l-1.362.588.362,12.226h1v1.874h8.7v-1.874h.993Z" transform="translate(-879.841 -185.309)" fill="#f2ae75"/>
                <path id="Path_4070" data-name="Path 4070" d="M883,185.309v1.655l8.7,2.37v-4.025Z" transform="translate(-881.634 -185.309)" fill="#deb4a0" style="mix-blend-mode: multiply;isolation: isolate"/>
              </g>
              <g id="Group_3220" data-name="Group 3220" transform="translate(9.987 32.499)">
                <g id="Group_3216" data-name="Group 3216" transform="translate(7.268 0.446)">
                  <path id="Path_4071" data-name="Path 4071" d="M884.354,196.809l-.324,1.215a5.682,5.682,0,0,1-5.4,4.225c-3.843,0-5.309-3.338-5.764-4.784l-.174-.655c-7.079,2.659-4.907,24.829-4.907,24.829l-.045,18.413,10.8,0,11.381,0-.3-18.413S891.432,199.468,884.354,196.809Z" transform="translate(-867.469 -195.873)" fill="#fff"/>
                  <path id="Path_4072" data-name="Path 4072" d="M892.406,205.767l-.835,1.6h-2.542l-.812-1.6,2.095-1.712Z" transform="translate(-879.26 -199.991)" fill="#0c6a93"/>
                  <path id="Path_4073" data-name="Path 4073" d="M883.522,198.705l-2.676,2.818-4.577-5.46,2.856-1.422,1.075.994Z" transform="translate(-872.47 -194.641)" fill="#e6e7e8"/>
                  <path id="Path_4074" data-name="Path 4074" d="M897.469,194.644l-4.4,4.063,2.676,2.82,4.576-5.463Z" transform="translate(-882.018 -194.643)" fill="#e6e7e8"/>
                  <path id="Path_4075" data-name="Path 4075" d="M891.309,212.613l1.035,33.319-2.295,2.536-2.294-2.536,1.011-33.319Z" transform="translate(-878.997 -204.854)" fill="#0c6a93"/>
                </g>
                <path id="Path_4076" data-name="Path 4076" d="M887.065,202.82c-.695-4.064-5.2-4.065-12.277-6.725L868.954,219.7,863.121,196.1c-7.079,2.659-11.582,2.661-12.276,6.725-1.123,6.569,2.627,9.437,2.656,9.4,0,0,.306,29.154-.153,36.183l14.52,0,1.088-5.077,1.088,5.077,14.52,0c-.46-7.028-.154-36.183-.154-36.183C884.438,212.257,888.187,209.388,887.065,202.82Z" transform="translate(-850.635 -195.021)" fill="#32303a"/>
                <g id="Group_3219" data-name="Group 3219" transform="translate(9.34)">
                  <g id="Group_3217" data-name="Group 3217">
                    <path id="Path_4077" data-name="Path 4077" d="M872.27,195.49l.142,4.159,2.077,1.708-1.616,2.209,8.322,14.723-5.262-24.683Z" transform="translate(-872.27 -193.607)" fill="#4f4c4d"/>
                  </g>
                  <g id="Group_3218" data-name="Group 3218" transform="translate(9.034)">
                    <path id="Path_4078" data-name="Path 4078" d="M902.121,195.49l-.142,4.159-2.076,1.708,1.616,2.209L893.2,218.289l5.262-24.683Z" transform="translate(-893.196 -193.607)" fill="#4f4c4d"/>
                  </g>
                </g>
              </g>
              <g id="Group_3221" data-name="Group 3221" transform="translate(15.976 49.164)">
                <rect id="Rectangle_886" data-name="Rectangle 886" width="15.309" height="8.703" rx="4.352" transform="translate(8.703 0) rotate(90)" fill="#686671"/>
                <path id="Path_4079" data-name="Path 4079" d="M871.55,232.209h-4.17a2.257,2.257,0,0,0-1.808.912,2.246,2.246,0,0,1,1.354-.459h4.17a2.267,2.267,0,0,1,2.267,2.267V245.7a2.245,2.245,0,0,1-.459,1.354,2.255,2.255,0,0,0,.912-1.808V234.475A2.266,2.266,0,0,0,871.55,232.209Z" transform="translate(-865.113 -232.209)" fill="#c8c8c8" style="mix-blend-mode: multiply;isolation: isolate"/>
                <rect id="Rectangle_887" data-name="Rectangle 887" width="1.393" height="1.393" rx="0.696" transform="translate(5.048 1.235) rotate(90)" fill="#383643"/>
              </g>
              <g id="Group_3223" data-name="Group 3223" transform="translate(36.979 34.931)">
                <g id="Group_3222" data-name="Group 3222" transform="translate(6.658 48.74)">
                  <path id="Path_4080" data-name="Path 4080" d="M930.888,319.811l1.353-7.675,4.286.755-1.354,7.676c-.268,1.517-1.444,2.577-2.627,2.369S930.621,321.328,930.888,319.811Z" transform="translate(-929.861 -312.136)" fill="#f7cdb9"/>
                  <path id="Path_4081" data-name="Path 4081" d="M928.584,319.791a6.7,6.7,0,0,1,2.869-4.47.892.892,0,0,1,1.252.278.947.947,0,0,1-.275,1.284,4.872,4.872,0,0,0-2.04,3.066.907.907,0,1,1-1.806-.158Z" transform="translate(-928.58 -313.862)" fill="#f7cdb9"/>
                </g>
                <path id="Path_4082" data-name="Path 4082" d="M914.409,199.239c5.51,1.719,9.472,2.215,10.063,5.676,1.123,6.569,2.4,14.012,3.124,21.995.246,10.406-.695,23.379-.695,23.379h-5.7c-.032-.054-.142-8.311-.355-17.539-1.044-6.723-1.538-9.694-1.567-9.731l-6.12-19.459C913.253,203.363,913.912,200.432,914.409,199.239Z" transform="translate(-913.159 -199.239)" fill="#32303a"/>
              </g>
              <g id="Group_3225" data-name="Group 3225" transform="translate(0 37.997)">
                <g id="Group_3224" data-name="Group 3224" transform="translate(12.056 16.122)">
                  <path id="Path_4083" data-name="Path 4083" d="M861.193,246.933s-1.707.19-3.033.288l-.969.058-.835.026-.8,0-.127,5.438,1,0,1.006-.03,1.129-.068c1.523-.114,3.347-.321,3.347-.321,1.171-.153,1.892-1.518,1.644-2.993S862.246,246.8,861.193,246.933Z" transform="translate(-855.428 -245.524)" fill="#f2ae75"/>
                  <path id="Path_4084" data-name="Path 4084" d="M860.466,243.688a3.4,3.4,0,0,0-2.123,1.374,8.472,8.472,0,0,0-.881,1.3,1.142,1.142,0,0,0,.14,1.268.561.561,0,0,0,.934-.2c0-.008.065-.127.174-.3a6.113,6.113,0,0,1,.449-.634,2.457,2.457,0,0,1,1.5-1.011c.355-.04.593-.475.531-.972S860.806,243.65,860.466,243.688Z" transform="translate(-856.51 -243.686)" fill="#f2ae75"/>
                </g>
                <path id="Path_4085" data-name="Path 4085" d="M840.369,230.895c-2.232,0-8.526.335-10.408-1.2-1.322-1.077-4.083-4.582-1.176-10.5a47.341,47.341,0,0,1,10.043-12.854l6.491,7.253c-3.422,3.231-6.37,4.9-9.587,8.48-.974,1.083-.587,1.453-.562,1.472.515.419,3.624.186,5.663.022l.523,7.232A5.8,5.8,0,0,1,840.369,230.895Z" transform="translate(-827.503 -206.343)" fill="#32303a"/>
              </g>
              <g id="Group_3231" data-name="Group 3231" transform="translate(17.422)">
                <g id="Group_3229" data-name="Group 3229" transform="translate(0 3.131)">
                  <path id="Path_4086" data-name="Path 4086" d="M888.234,138.477l.295-3.83c0-5.008-4.787-9.066-9.791-9.066s-9.792,4.058-9.792,9.066l.294,3.826a1.772,1.772,0,0,0-.744.377,1.806,1.806,0,0,0-.638,1.382v1.886a1.811,1.811,0,0,0,1.8,1.812c0,4.73,5.682,9.213,9.077,9.213s9.078-4.483,9.078-9.212a1.812,1.812,0,0,0,1.8-1.812v-1.886A1.81,1.81,0,0,0,888.234,138.477Z" transform="translate(-867.858 -125.581)" fill="#f2ae75"/>
                  <path id="Path_4087" data-name="Path 4087" d="M899.688,138.477l.295-3.83c0-5.008-4.787-9.066-9.791-9.066l0,12.874a37.8,37.8,0,0,0-2.176,6.89h2.176v7.8c3.4,0,9.079-4.483,9.079-9.212a1.812,1.812,0,0,0,1.8-1.812v-1.886A1.81,1.81,0,0,0,899.688,138.477Z" transform="translate(-879.312 -125.581)" fill="#f6ccb8" opacity="0.8" style="mix-blend-mode: multiply;isolation: isolate"/>
                  <g id="Group_3228" data-name="Group 3228" transform="translate(5.239 12.194)">
                    <g id="Group_3226" data-name="Group 3226">
                      <path id="Path_4088" data-name="Path 4088" d="M882.857,156.049a1.432,1.432,0,1,1-1.481-1.381A1.432,1.432,0,0,1,882.857,156.049Z" transform="translate(-879.994 -154.304)" fill="#f6ccb8" style="mix-blend-mode: multiply;isolation: isolate"/>
                      <path id="Path_4089" data-name="Path 4089" d="M882.857,155.209a1.432,1.432,0,1,1-1.481-1.382A1.432,1.432,0,0,1,882.857,155.209Z" transform="translate(-879.994 -153.827)" fill="#3c2417"/>
                      <path id="Path_4090" data-name="Path 4090" d="M884.324,157.726a.358.358,0,1,1-.37-.345A.358.358,0,0,1,884.324,157.726Z" transform="translate(-882.048 -155.846)" fill="#fff"/>
                    </g>
                    <g id="Group_3227" data-name="Group 3227" transform="translate(8.341 0)">
                      <circle id="Ellipse_123" data-name="Ellipse 123" cx="1.432" cy="1.432" r="1.432" transform="translate(0 0.363)" fill="#f6ccb8" style="mix-blend-mode: multiply;isolation: isolate"/>
                      <circle id="Ellipse_124" data-name="Ellipse 124" cx="1.432" cy="1.432" r="1.432" fill="#3c2417"/>
                      <path id="Path_4091" data-name="Path 4091" d="M903.644,157.726a.358.358,0,1,1-.37-.345A.358.358,0,0,1,903.644,157.726Z" transform="translate(-901.368 -155.846)" fill="#fff"/>
                    </g>
                  </g>
                </g>
                <g id="Group_3230" data-name="Group 3230" transform="translate(0.145)">
                  <path id="Path_4092" data-name="Path 4092" d="M891.533,174.557c-1.3-1.358-4-1.5-4.3-1.514h-.058c-.3.012-3,.156-4.3,1.514a.724.724,0,0,0-.2.508,22.09,22.09,0,0,0,.36,3.726.726.726,0,0,0,.222.3,7.1,7.1,0,0,0,7.9,0,.729.729,0,0,0,.223-.305,22.106,22.106,0,0,0,.359-3.726A.721.721,0,0,0,891.533,174.557Zm-1.442,3.514a8.482,8.482,0,0,1-1.982.673v-.972a.907.907,0,1,0-1.813,0v.972a8.426,8.426,0,0,1-1.98-.673,17.661,17.661,0,0,1-.183-2.7,5.8,5.8,0,0,1,6.141,0A17.776,17.776,0,0,1,890.091,178.071Z" transform="translate(-876.421 -149.422)" fill="#3c2415"/>
                  <path id="Path_4093" data-name="Path 4093" d="M878.976,118.329c-16.052.247-9.427,18.692-9.427,18.692s-.829-10.1,3.422-9.486a36.445,36.445,0,0,0,12.011,0c4.25-.618,3.422,9.486,3.422,9.486S895.028,118.576,878.976,118.329Z" transform="translate(-868.194 -118.329)" fill="#3c2417"/>
                </g>
              </g>
            </g>
          </g>
          <g id="man-2" data-name="man" transform="translate(0 0)">
            <rect id="Rectangle_888" data-name="Rectangle 888" width="10.635" height="4.511" transform="translate(22.989 32.499)" fill="#32303a"/>
            <g id="Group_3233" data-name="Group 3233" transform="translate(22.595 28.917)">
              <path id="Path_4094" data-name="Path 4094" d="M889.263,190.245l-1.356-.625v-4.311h-8.7v4.311l-1.362.588.363,12.226h1v1.874h8.7v-1.874h.993Z" transform="translate(-877.841 -185.309)" fill="#f2ae75"/>
              <path id="Path_4095" data-name="Path 4095" d="M881,185.309v1.655l8.7,2.37v-4.025Z" transform="translate(-879.634 -185.309)" fill="#deb4a0" style="mix-blend-mode: multiply;isolation: isolate"/>
            </g>
            <g id="Group_3238" data-name="Group 3238" transform="translate(9.987 32.499)">
              <g id="Group_3234" data-name="Group 3234" transform="translate(7.268 0.446)">
                <path id="Path_4096" data-name="Path 4096" d="M882.353,196.809l-.324,1.215a5.681,5.681,0,0,1-5.4,4.225c-3.843,0-5.309-3.338-5.765-4.784l-.175-.655c-7.079,2.659-4.907,24.829-4.907,24.829l-.045,18.413,10.8,0,11.38,0-.3-18.413S889.432,199.468,882.353,196.809Z" transform="translate(-865.469 -195.873)" fill="#fff"/>
                <path id="Path_4097" data-name="Path 4097" d="M890.407,205.767l-.835,1.6h-2.542l-.812-1.6,2.095-1.712Z" transform="translate(-877.26 -199.991)" fill="#0c6a93"/>
                <path id="Path_4098" data-name="Path 4098" d="M881.522,198.705l-2.676,2.818-4.577-5.46,2.856-1.422,1.074.994Z" transform="translate(-870.47 -194.641)" fill="#e6e7e8"/>
                <path id="Path_4099" data-name="Path 4099" d="M895.469,194.644l-4.4,4.063,2.676,2.82,4.576-5.463Z" transform="translate(-880.018 -194.643)" fill="#e6e7e8"/>
                <path id="Path_4100" data-name="Path 4100" d="M889.309,212.613l1.035,33.319-2.294,2.536-2.294-2.536,1.011-33.319Z" transform="translate(-876.997 -204.854)" fill="#0c6a93"/>
              </g>
              <path id="Path_4101" data-name="Path 4101" d="M885.065,202.82c-.694-4.064-5.2-4.065-12.277-6.725L866.955,219.7,861.122,196.1c-7.079,2.659-11.583,2.661-12.277,6.725-1.122,6.569,2.627,9.437,2.656,9.4,0,0,.306,29.154-.153,36.183l14.52,0,1.088-5.077,1.088,5.077,14.52,0c-.46-7.028-.153-36.183-.153-36.183C882.438,212.257,886.188,209.388,885.065,202.82Z" transform="translate(-848.635 -195.021)" fill="#32303a"/>
              <g id="Group_3237" data-name="Group 3237" transform="translate(9.34)">
                <g id="Group_3235" data-name="Group 3235">
                  <path id="Path_4102" data-name="Path 4102" d="M870.27,195.49l.142,4.159,2.077,1.708-1.616,2.209,8.322,14.723-5.262-24.683Z" transform="translate(-870.27 -193.607)" fill="#4f4c4d"/>
                </g>
                <g id="Group_3236" data-name="Group 3236" transform="translate(9.034)">
                  <path id="Path_4103" data-name="Path 4103" d="M900.121,195.49l-.142,4.159-2.077,1.708,1.616,2.209L891.2,218.289l5.262-24.683Z" transform="translate(-891.196 -193.607)" fill="#4f4c4d"/>
                </g>
              </g>
            </g>
            <g id="Group_3239" data-name="Group 3239" transform="translate(15.976 49.164)">
              <rect id="Rectangle_889" data-name="Rectangle 889" width="15.309" height="8.703" rx="4.352" transform="translate(8.703 0) rotate(90)" fill="#686671"/>
              <path id="Path_4104" data-name="Path 4104" d="M869.55,232.209h-4.171a2.255,2.255,0,0,0-1.808.912,2.245,2.245,0,0,1,1.354-.459H869.1a2.266,2.266,0,0,1,2.266,2.267V245.7a2.244,2.244,0,0,1-.459,1.354,2.255,2.255,0,0,0,.912-1.808V234.475A2.266,2.266,0,0,0,869.55,232.209Z" transform="translate(-863.113 -232.209)" fill="#c8c8c8" style="mix-blend-mode: multiply;isolation: isolate"/>
              <rect id="Rectangle_890" data-name="Rectangle 890" width="1.393" height="1.393" rx="0.696" transform="translate(5.048 1.235) rotate(90)" fill="#383643"/>
            </g>
            <g id="Group_3241" data-name="Group 3241" transform="translate(36.979 34.931)">
              <g id="Group_3240" data-name="Group 3240" transform="translate(6.658 48.74)">
                <path id="Path_4105" data-name="Path 4105" d="M928.888,319.811l1.353-7.675,4.286.755-1.353,7.676c-.268,1.517-1.444,2.577-2.627,2.369S928.621,321.328,928.888,319.811Z" transform="translate(-927.861 -312.136)" fill="#f7cdb9"/>
                <path id="Path_4106" data-name="Path 4106" d="M926.584,319.791a6.7,6.7,0,0,1,2.869-4.47.892.892,0,0,1,1.252.278.946.946,0,0,1-.275,1.284,4.87,4.87,0,0,0-2.04,3.066.907.907,0,1,1-1.806-.158Z" transform="translate(-926.58 -313.862)" fill="#f7cdb9"/>
              </g>
              <path id="Path_4107" data-name="Path 4107" d="M912.409,199.239c5.51,1.719,9.472,2.215,10.063,5.676,1.122,6.569,2.4,14.012,3.124,21.995.246,10.406-.695,23.379-.695,23.379h-5.7c-.032-.054-.142-8.311-.355-17.539-1.044-6.723-1.538-9.694-1.567-9.731l-6.119-19.459C911.253,203.363,911.912,200.432,912.409,199.239Z" transform="translate(-911.159 -199.239)" fill="#32303a"/>
            </g>
            <g id="Group_3243" data-name="Group 3243" transform="translate(0 37.997)">
              <g id="Group_3242" data-name="Group 3242" transform="translate(12.056 16.122)">
                <path id="Path_4108" data-name="Path 4108" d="M859.193,246.933s-1.707.19-3.033.288l-.969.058-.835.026-.8,0-.127,5.438,1.005,0,1.005-.03,1.129-.068c1.523-.114,3.347-.321,3.347-.321,1.171-.153,1.892-1.518,1.644-2.993S860.246,246.8,859.193,246.933Z" transform="translate(-853.428 -245.524)" fill="#f2ae75"/>
                <path id="Path_4109" data-name="Path 4109" d="M858.466,243.688a3.4,3.4,0,0,0-2.123,1.374,8.475,8.475,0,0,0-.881,1.3,1.143,1.143,0,0,0,.14,1.268.561.561,0,0,0,.934-.2c0-.008.066-.127.174-.3a6.224,6.224,0,0,1,.449-.634,2.458,2.458,0,0,1,1.5-1.011c.355-.04.593-.475.531-.972S858.806,243.65,858.466,243.688Z" transform="translate(-854.511 -243.686)" fill="#f2ae75"/>
              </g>
              <path id="Path_4110" data-name="Path 4110" d="M838.37,230.895c-2.232,0-8.526.335-10.408-1.2-1.322-1.077-4.083-4.582-1.176-10.5a47.351,47.351,0,0,1,10.043-12.854l6.491,7.253c-3.423,3.231-6.37,4.9-9.587,8.48-.974,1.083-.586,1.453-.562,1.472.515.419,3.624.186,5.663.022l.523,7.232A5.8,5.8,0,0,1,838.37,230.895Z" transform="translate(-825.503 -206.343)" fill="#32303a"/>
            </g>
            <g id="Group_3249" data-name="Group 3249" transform="translate(17.422)">
              <g id="Group_3247" data-name="Group 3247" transform="translate(0 3.131)">
                <path id="Path_4111" data-name="Path 4111" d="M886.234,138.477l.295-3.83c0-5.008-4.787-9.066-9.791-9.066s-9.792,4.058-9.792,9.066l.294,3.826a1.774,1.774,0,0,0-.744.377,1.807,1.807,0,0,0-.638,1.382v1.886a1.81,1.81,0,0,0,1.8,1.812c0,4.73,5.682,9.213,9.078,9.213s9.077-4.483,9.077-9.212a1.812,1.812,0,0,0,1.8-1.812v-1.886A1.81,1.81,0,0,0,886.234,138.477Z" transform="translate(-865.858 -125.581)" fill="#f2ae75"/>
                <path id="Path_4112" data-name="Path 4112" d="M897.688,138.477l.295-3.83c0-5.008-4.787-9.066-9.792-9.066l0,12.874a37.814,37.814,0,0,0-2.176,6.89h2.176v7.8c3.4,0,9.079-4.483,9.079-9.212a1.812,1.812,0,0,0,1.8-1.812v-1.886A1.81,1.81,0,0,0,897.688,138.477Z" transform="translate(-877.312 -125.581)" fill="#f6ccb8" opacity="0.8" style="mix-blend-mode: multiply;isolation: isolate"/>
                <g id="Group_3246" data-name="Group 3246" transform="translate(5.239 12.194)">
                  <g id="Group_3244" data-name="Group 3244">
                    <path id="Path_4113" data-name="Path 4113" d="M880.857,156.049a1.432,1.432,0,1,1-1.481-1.381A1.432,1.432,0,0,1,880.857,156.049Z" transform="translate(-877.994 -154.304)" fill="#f6ccb8" style="mix-blend-mode: multiply;isolation: isolate"/>
                    <path id="Path_4114" data-name="Path 4114" d="M880.857,155.209a1.432,1.432,0,1,1-1.481-1.382A1.432,1.432,0,0,1,880.857,155.209Z" transform="translate(-877.994 -153.827)" fill="#3c2417"/>
                    <path id="Path_4115" data-name="Path 4115" d="M882.324,157.726a.358.358,0,1,1-.37-.345A.358.358,0,0,1,882.324,157.726Z" transform="translate(-880.048 -155.846)" fill="#fff"/>
                  </g>
                  <g id="Group_3245" data-name="Group 3245" transform="translate(8.341 0)">
                    <circle id="Ellipse_125" data-name="Ellipse 125" cx="1.432" cy="1.432" r="1.432" transform="translate(0 0.363)" fill="#f6ccb8" style="mix-blend-mode: multiply;isolation: isolate"/>
                    <circle id="Ellipse_126" data-name="Ellipse 126" cx="1.432" cy="1.432" r="1.432" fill="#3c2417"/>
                    <path id="Path_4116" data-name="Path 4116" d="M901.645,157.726a.358.358,0,1,1-.371-.345A.358.358,0,0,1,901.645,157.726Z" transform="translate(-899.368 -155.846)" fill="#fff"/>
                  </g>
                </g>
              </g>
              <g id="Group_3248" data-name="Group 3248" transform="translate(0.145)">
                <path id="Path_4117" data-name="Path 4117" d="M889.533,174.557c-1.3-1.358-4-1.5-4.3-1.514h-.058c-.3.012-3,.156-4.3,1.514a.724.724,0,0,0-.2.508,22.119,22.119,0,0,0,.36,3.726.724.724,0,0,0,.223.3,7.1,7.1,0,0,0,7.9,0,.729.729,0,0,0,.224-.305,22.121,22.121,0,0,0,.359-3.726A.721.721,0,0,0,889.533,174.557Zm-1.442,3.514a8.484,8.484,0,0,1-1.982.673v-.972a.907.907,0,1,0-1.813,0v.972a8.416,8.416,0,0,1-1.98-.673,17.624,17.624,0,0,1-.183-2.7,5.8,5.8,0,0,1,6.141,0A17.776,17.776,0,0,1,888.091,178.071Z" transform="translate(-874.421 -149.422)" fill="#3c2415"/>
                <path id="Path_4118" data-name="Path 4118" d="M876.976,118.329c-16.052.247-9.427,18.692-9.427,18.692s-.829-10.1,3.422-9.486a36.445,36.445,0,0,0,12.011,0c4.25-.618,3.422,9.486,3.422,9.486S893.028,118.576,876.976,118.329Z" transform="translate(-866.194 -118.329)" fill="#3c2417"/>
              </g>
            </g>
          </g>
        </g>
      </g>
    </g>
    <g id="Group_4403" data-name="Group 4403" transform="translate(757.791 80.73)">
      <path id="Path_5773" data-name="Path 5773" d="M181.685,237.921A14.324,14.324,0,1,1,167.36,223.6,14.324,14.324,0,0,1,181.685,237.921Z" transform="translate(-0.151 -0.151)" fill="url(#linear-gradient)"/>
      <path id="Path_5774" data-name="Path 5774" d="M168.622,252.038a12.855,12.855,0,1,1,12.855-12.855A12.87,12.87,0,0,1,168.622,252.038Z" transform="translate(-1.413 -1.413)" fill="url(#linear-gradient-2)"/>
      <path id="Path_5775" data-name="Path 5775" d="M180.4,243.69a10.493,10.493,0,0,1,.435,4.937,10.377,10.377,0,0,1-5.6,7.708,10.689,10.689,0,0,1-9.365,0,10.4,10.4,0,0,1-5.17-12.646,10.56,10.56,0,0,0,1.2,9.657A10.708,10.708,0,0,0,170.507,258v0l.043,0,.043,0v0a10.71,10.71,0,0,0,8.609-4.654,10.566,10.566,0,0,0,1.2-9.657Z" transform="translate(-3.387 -9.436)" fill="url(#linear-gradient-3)"/>
      <g id="Group_4388" data-name="Group 4388" transform="translate(154.602 231.172)">
        <path id="Path_5776" data-name="Path 5776" d="M158.677,254.081a2.278,2.278,0,0,0-2.346-1.909A2.279,2.279,0,0,0,158.677,254.081Z" transform="translate(-156.276 -244.525)" fill="url(#linear-gradient-4)"/>
        <path id="Path_5777" data-name="Path 5777" d="M160.682,244.663a2.279,2.279,0,0,0,2.477-1.734A2.277,2.277,0,0,0,160.682,244.663Z" transform="translate(-158.286 -240.246)" fill="url(#linear-gradient-5)"/>
        <path id="Path_5778" data-name="Path 5778" d="M163.029,237.96a2.659,2.659,0,0,0-1.655,3.118A2.659,2.659,0,0,0,163.029,237.96Z" transform="translate(-158.568 -237.96)" fill="url(#linear-gradient-6)"/>
        <path id="Path_5779" data-name="Path 5779" d="M198.466,254.081a2.278,2.278,0,0,0,2.346-1.909A2.278,2.278,0,0,0,198.466,254.081Z" transform="translate(-175.747 -244.525)" fill="url(#linear-gradient-7)"/>
        <path id="Path_5780" data-name="Path 5780" d="M194.776,248.788a2.279,2.279,0,0,0,2.127,2.15A2.277,2.277,0,0,0,194.776,248.788Z" transform="translate(-174.042 -242.964)" fill="url(#linear-gradient-8)"/>
        <path id="Path_5781" data-name="Path 5781" d="M196.349,244.663a2.277,2.277,0,0,0-2.478-1.734A2.279,2.279,0,0,0,196.349,244.663Z" transform="translate(-173.624 -240.246)" fill="url(#linear-gradient-9)"/>
        <path id="Path_5782" data-name="Path 5782" d="M196.221,241.078a2.659,2.659,0,0,0-1.654-3.118A2.659,2.659,0,0,0,196.221,241.078Z" transform="translate(-173.906 -237.96)" fill="url(#linear-gradient-10)"/>
        <path id="Path_5783" data-name="Path 5783" d="M162.588,245.97a2.28,2.28,0,0,0-2.342,1.778c0,.036,0,.072,0,.107A2.276,2.276,0,0,0,162.588,245.97Z" transform="translate(-158.083 -241.658)" fill="url(#linear-gradient-11)"/>
        <path id="Path_5784" data-name="Path 5784" d="M198.893,240.688a2.246,2.246,0,0,0-.884,1.792,10.378,10.378,0,0,1,.337,1.17A2.278,2.278,0,0,0,198.893,240.688Z" transform="translate(-175.536 -239.221)" fill="url(#linear-gradient-12)"/>
        <path id="Path_5785" data-name="Path 5785" d="M198.945,246.434c.036.268.063.539.078.811a2.278,2.278,0,0,0,1.488-2.561A2.279,2.279,0,0,0,198.945,246.434Z" transform="translate(-175.968 -241.067)" fill="url(#linear-gradient-13)"/>
        <path id="Path_5786" data-name="Path 5786" d="M199.051,250.239c-.009.131-.023.263-.037.395a2.277,2.277,0,0,0,2.107-2.155A2.29,2.29,0,0,0,199.051,250.239Z" transform="translate(-176 -242.821)" fill="url(#linear-gradient-14)"/>
        <path id="Path_5787" data-name="Path 5787" d="M197.582,256.967c-.062.159-.126.317-.2.472a2.281,2.281,0,0,0,2.7-1.21A2.288,2.288,0,0,0,197.582,256.967Z" transform="translate(-175.248 -246.345)" fill="url(#linear-gradient-15)"/>
        <path id="Path_5788" data-name="Path 5788" d="M196.156,259.945c-.09.152-.185.3-.283.45a2.281,2.281,0,0,0,2.851-.843A2.29,2.29,0,0,0,196.156,259.945Z" transform="translate(-174.549 -247.83)" fill="url(#linear-gradient-16)"/>
        <path id="Path_5789" data-name="Path 5789" d="M194.444,262.473q-.209.263-.435.511a2.277,2.277,0,0,0,2.9-.5A2.288,2.288,0,0,0,194.444,262.473Z" transform="translate(-173.687 -249.124)" fill="url(#linear-gradient-17)"/>
        <path id="Path_5790" data-name="Path 5790" d="M192.613,264.538q-.309.3-.641.579a2.28,2.28,0,0,0,2.834-.019A2.273,2.273,0,0,0,192.613,264.538Z" transform="translate(-172.746 -250.206)" fill="url(#linear-gradient-18)"/>
        <path id="Path_5791" data-name="Path 5791" d="M190.476,266.389c-.223.164-.45.323-.685.47a2.286,2.286,0,0,0,2.765.52A2.277,2.277,0,0,0,190.476,266.389Z" transform="translate(-171.738 -251.094)" fill="url(#linear-gradient-19)"/>
        <path id="Path_5792" data-name="Path 5792" d="M187.911,267.909a.186.186,0,0,0-.018.011c-.291.157-.592.3-.9.425a2.288,2.288,0,0,0,2.8.563A2.264,2.264,0,0,0,187.911,267.909Z" transform="translate(-170.447 -251.8)" fill="url(#linear-gradient-20)"/>
        <path id="Path_5793" data-name="Path 5793" d="M184.951,269.157a10.881,10.881,0,0,1-1.066.314,2.287,2.287,0,0,0,2.687.907A2.249,2.249,0,0,0,184.951,269.157Z" transform="translate(-169.009 -252.377)" fill="url(#linear-gradient-21)"/>
        <path id="Path_5794" data-name="Path 5794" d="M181.467,270a10.627,10.627,0,0,1-1.38.149,2.283,2.283,0,0,0,2.7,1.031A2.217,2.217,0,0,0,181.467,270Z" transform="translate(-167.254 -252.764)" fill="url(#linear-gradient-22)"/>
        <path id="Path_5795" data-name="Path 5795" d="M181.1,264.845a2.287,2.287,0,0,0-1.52,2.347c.216,0,.43,0,.645-.014A2.288,2.288,0,0,0,181.1,264.845Z" transform="translate(-167.015 -250.384)" fill="url(#linear-gradient-23)"/>
        <path id="Path_5796" data-name="Path 5796" d="M183.265,266.568a2.294,2.294,0,0,0,.743-2.594,2.284,2.284,0,0,0-1.153,2.675C182.993,266.626,183.129,266.6,183.265,266.568Z" transform="translate(-168.489 -249.981)" fill="url(#linear-gradient-24)"/>
        <path id="Path_5797" data-name="Path 5797" d="M186.241,265.707a2.288,2.288,0,0,0,.4-2.484,2.286,2.286,0,0,0-.983,2.7Q185.953,265.821,186.241,265.707Z" transform="translate(-169.771 -249.634)" fill="url(#linear-gradient-25)"/>
        <path id="Path_5798" data-name="Path 5798" d="M189.292,263.948a2.283,2.283,0,0,0-.321-2.612,2.276,2.276,0,0,0-.086,2.864C189.024,264.122,189.158,264.035,189.292,263.948Z" transform="translate(-171.105 -248.762)" fill="url(#linear-gradient-26)"/>
        <path id="Path_5799" data-name="Path 5799" d="M191.424,262.276a2.279,2.279,0,0,0-.167-2.851,2.277,2.277,0,0,0,0,2.981C191.316,262.362,191.372,262.32,191.424,262.276Z" transform="translate(-172.16 -247.879)" fill="url(#linear-gradient-27)"/>
        <path id="Path_5800" data-name="Path 5800" d="M193.6,259.946c.1-.114.19-.232.281-.351a2.292,2.292,0,0,0-.929-2.5A2.284,2.284,0,0,0,193.6,259.946Z" transform="translate(-173.081 -246.803)" fill="url(#linear-gradient-28)"/>
        <path id="Path_5801" data-name="Path 5801" d="M194.235,254.238a2.279,2.279,0,0,0,1.137,2.776c.03-.054.057-.111.087-.165A2.288,2.288,0,0,0,194.235,254.238Z" transform="translate(-173.732 -245.482)" fill="url(#linear-gradient-29)"/>
        <path id="Path_5802" data-name="Path 5802" d="M196.609,253.711a2.291,2.291,0,0,0-1.716-2.088,2.28,2.28,0,0,0,1.6,2.477C196.532,253.972,196.57,253.841,196.609,253.711Z" transform="translate(-174.083 -244.274)" fill="url(#linear-gradient-30)"/>
        <path id="Path_5803" data-name="Path 5803" d="M196.9,247.748a2.28,2.28,0,0,0-2.342-1.778,2.277,2.277,0,0,0,2.346,1.885C196.9,247.819,196.9,247.784,196.9,247.748Z" transform="translate(-173.94 -241.658)" fill="url(#linear-gradient-31)"/>
        <path id="Path_5804" data-name="Path 5804" d="M174.045,271.176a2.283,2.283,0,0,0,2.7-1.031,10.606,10.606,0,0,1-1.38-.149A2.216,2.216,0,0,0,174.045,271.176Z" transform="translate(-164.462 -252.764)" fill="url(#linear-gradient-32)"/>
        <path id="Path_5805" data-name="Path 5805" d="M172.966,269.471a10.881,10.881,0,0,1-1.066-.314,2.249,2.249,0,0,0-1.62,1.221A2.286,2.286,0,0,0,172.966,269.471Z" transform="translate(-162.722 -252.377)" fill="url(#linear-gradient-33)"/>
        <path id="Path_5806" data-name="Path 5806" d="M169.756,268.345c-.3-.129-.606-.268-.9-.425l-.018-.011a2.263,2.263,0,0,0-1.887,1A2.288,2.288,0,0,0,169.756,268.345Z" transform="translate(-161.185 -251.8)" fill="url(#linear-gradient-34)"/>
        <path id="Path_5807" data-name="Path 5807" d="M166.308,266.389a2.277,2.277,0,0,0-2.079.99,2.286,2.286,0,0,0,2.764-.52C166.759,266.712,166.531,266.553,166.308,266.389Z" transform="translate(-159.925 -251.094)" fill="url(#linear-gradient-35)"/>
        <path id="Path_5808" data-name="Path 5808" d="M164.753,265.117q-.332-.276-.641-.579a2.268,2.268,0,0,0-2.193.56A2.28,2.28,0,0,0,164.753,265.117Z" transform="translate(-158.858 -250.205)" fill="url(#linear-gradient-36)"/>
        <path id="Path_5809" data-name="Path 5809" d="M162.655,262.984q-.225-.248-.434-.511a2.288,2.288,0,0,0-2.47.013A2.276,2.276,0,0,0,162.655,262.984Z" transform="translate(-157.856 -249.124)" fill="url(#linear-gradient-37)"/>
        <path id="Path_5810" data-name="Path 5810" d="M160.838,260.395c-.1-.148-.193-.3-.283-.45a2.29,2.29,0,0,0-2.568-.393A2.28,2.28,0,0,0,160.838,260.395Z" transform="translate(-157.041 -247.83)" fill="url(#linear-gradient-38)"/>
        <path id="Path_5811" data-name="Path 5811" d="M159.45,257.44c-.07-.155-.133-.314-.2-.473a2.289,2.289,0,0,0-2.507-.736A2.28,2.28,0,0,0,159.45,257.44Z" transform="translate(-156.468 -246.345)" fill="url(#linear-gradient-39)"/>
        <path id="Path_5812" data-name="Path 5812" d="M158.335,250.634c-.013-.132-.027-.262-.036-.395a2.291,2.291,0,0,0-2.071-1.76A2.278,2.278,0,0,0,158.335,250.634Z" transform="translate(-156.228 -242.821)" fill="url(#linear-gradient-40)"/>
        <path id="Path_5813" data-name="Path 5813" d="M158.752,247.245c.015-.272.043-.543.078-.811a2.278,2.278,0,0,0-1.566-1.75A2.28,2.28,0,0,0,158.752,247.245Z" transform="translate(-156.686 -241.067)" fill="url(#linear-gradient-41)"/>
        <path id="Path_5814" data-name="Path 5814" d="M159.774,243.65a10.182,10.182,0,0,1,.337-1.169,2.25,2.25,0,0,0-.884-1.793A2.278,2.278,0,0,0,159.774,243.65Z" transform="translate(-157.463 -239.221)" fill="url(#linear-gradient-42)"/>
        <path id="Path_5815" data-name="Path 5815" d="M176.693,264.845a2.287,2.287,0,0,0,.875,2.333c.214.011.429.016.644.014A2.287,2.287,0,0,0,176.693,264.845Z" transform="translate(-165.657 -250.384)" fill="url(#linear-gradient-43)"/>
        <path id="Path_5816" data-name="Path 5816" d="M174.7,266.567c.136.03.272.059.41.082a2.285,2.285,0,0,0-1.153-2.675A2.291,2.291,0,0,0,174.7,266.567Z" transform="translate(-164.352 -249.981)" fill="url(#linear-gradient-44)"/>
        <path id="Path_5817" data-name="Path 5817" d="M172.373,265.919a2.286,2.286,0,0,0-.983-2.7,2.287,2.287,0,0,0,.4,2.484Q172.079,265.821,172.373,265.919Z" transform="translate(-163.14 -249.634)" fill="url(#linear-gradient-45)"/>
        <path id="Path_5818" data-name="Path 5818" d="M169.294,264.2a2.277,2.277,0,0,0-.085-2.864,2.284,2.284,0,0,0-.321,2.612C169.021,264.035,169.156,264.122,169.294,264.2Z" transform="translate(-161.954 -248.762)" fill="url(#linear-gradient-46)"/>
        <path id="Path_5819" data-name="Path 5819" d="M166.755,262.276c.053.046.109.087.162.13a2.277,2.277,0,0,0,0-2.981A2.279,2.279,0,0,0,166.755,262.276Z" transform="translate(-160.898 -247.879)" fill="url(#linear-gradient-47)"/>
        <path id="Path_5820" data-name="Path 5820" d="M164.2,259.6c.092.119.184.237.281.351a2.284,2.284,0,0,0,.647-2.851A2.291,2.291,0,0,0,164.2,259.6Z" transform="translate(-159.873 -246.803)" fill="url(#linear-gradient-48)"/>
        <path id="Path_5821" data-name="Path 5821" d="M162.565,257.014a2.279,2.279,0,0,0,1.137-2.776,2.289,2.289,0,0,0-1.224,2.611C162.508,256.9,162.534,256.96,162.565,257.014Z" transform="translate(-159.084 -245.482)" fill="url(#linear-gradient-49)"/>
        <path id="Path_5822" data-name="Path 5822" d="M162.559,248.788a2.277,2.277,0,0,0-2.124,2.11c0,.013,0,.027,0,.039A2.278,2.278,0,0,0,162.559,248.788Z" transform="translate(-158.172 -242.964)" fill="url(#linear-gradient-50)"/>
        <path id="Path_5823" data-name="Path 5823" d="M162.77,251.623a2.291,2.291,0,0,0-1.716,2.088c.039.13.076.261.121.389A2.28,2.28,0,0,0,162.77,251.623Z" transform="translate(-158.458 -244.274)" fill="url(#linear-gradient-51)"/>
      </g>
      <g id="Group_4389" data-name="Group 4389" transform="translate(152.709 223.27)">
        <path id="Path_5824" data-name="Path 5824" d="M167.209,252.27a14.5,14.5,0,1,1,14.5-14.5A14.517,14.517,0,0,1,167.209,252.27Zm0-28.649a14.149,14.149,0,1,0,14.149,14.149A14.165,14.165,0,0,0,167.209,223.621Z" transform="translate(-152.709 -223.27)" fill="#bab5b3"/>
      </g>
      <g id="Group_4390" data-name="Group 4390" transform="translate(154.178 224.74)">
        <path id="Path_5825" data-name="Path 5825" d="M168.471,252.064A13.031,13.031,0,1,1,181.5,239.033,13.047,13.047,0,0,1,168.471,252.064Zm0-25.711a12.68,12.68,0,1,0,12.679,12.681A12.695,12.695,0,0,0,168.471,226.352Z" transform="translate(-155.44 -226.002)" fill="#969696"/>
      </g>
      <g id="Group_4391" data-name="Group 4391" transform="translate(162.813 230.721)">
        <path id="Path_5826" data-name="Path 5826" d="M171.494,245.977q1.081-.915,1.982-1.739t1.552-1.524a10.483,10.483,0,0,0,1.012-1.233,1.7,1.7,0,0,0,.36-.866,1.1,1.1,0,0,0-.236-.783,1.151,1.151,0,0,0-1.414,0,1.1,1.1,0,0,0-.236.783v.693h-2.771v-3.284a6.234,6.234,0,0,1,.79-.325q.429-.145,1.012-.284a10.553,10.553,0,0,1,1.24-.215,11.539,11.539,0,0,1,1.337-.076,4.559,4.559,0,0,1,2.937.8,2.865,2.865,0,0,1,.97,2.349,3.483,3.483,0,0,1-.4,1.614,7.341,7.341,0,0,1-1,1.469,12.422,12.422,0,0,1-1.337,1.316q-.728.617-1.393,1.158h1.691v-.8h2.7V248.1h-8.8Z" transform="translate(-171.494 -237.122)" fill="url(#linear-gradient-52)"/>
      </g>
      <g id="Group_4394" data-name="Group 4394" transform="translate(162.141 230.048)">
        <g id="Group_4392" data-name="Group 4392">
          <path id="Path_5827" data-name="Path 5827" d="M180.388,248.191H170.244v-3.1l.238-.2c.711-.6,1.371-1.181,1.962-1.722s1.091-1.033,1.514-1.487q.132-.142.251-.276h-3.715v-4.372l.372-.186a6.873,6.873,0,0,1,.875-.361c.3-.1.663-.2,1.071-.3a11.4,11.4,0,0,1,1.318-.229,12.341,12.341,0,0,1,1.415-.081,5.209,5.209,0,0,1,3.364.95,3.514,3.514,0,0,1,1.216,2.868,4.165,4.165,0,0,1-.47,1.921,8.038,8.038,0,0,1-1.1,1.6c-.164.188-.336.374-.514.556h2.342Zm-9.875-.269h9.606V244.04h-2.731l.238-.231c.255-.248.5-.507.731-.77a7.8,7.8,0,0,0,1.06-1.55,3.9,3.9,0,0,0,.439-1.8,3.258,3.258,0,0,0-1.117-2.66,4.959,4.959,0,0,0-3.194-.889,12.056,12.056,0,0,0-1.384.079,10.975,10.975,0,0,0-1.287.223c-.4.095-.753.194-1.047.294a6.786,6.786,0,0,0-.841.347l-.223.111v3.937h3.578v-1.1a.831.831,0,0,1,.121-.5.783.783,0,0,1,.835,0,.826.826,0,0,1,.122.5,1.312,1.312,0,0,1-.292.64,7.763,7.763,0,0,1-.517.673v.052h-.044q-.188.219-.41.459c-.428.459-.942.965-1.529,1.5s-1.257,1.125-1.97,1.728l-.143.121Zm4.367-8.239c-.179,0-.225.039-.225.039a.78.78,0,0,0-.045.314v.89q.169-.213.295-.4a1.25,1.25,0,0,0,.245-.492.711.711,0,0,0-.049-.316A.464.464,0,0,0,174.879,239.683Z" transform="translate(-170.244 -235.872)" fill="#969696"/>
        </g>
        <g id="Group_4393" data-name="Group 4393" transform="translate(0.471 0.471)">
          <path id="Path_5828" data-name="Path 5828" d="M180.322,248.125h-9.2V245.71l.072-.06c.716-.607,1.381-1.19,1.976-1.734s1.109-1.049,1.54-1.513a10.4,10.4,0,0,0,.992-1.209,1.48,1.48,0,0,0,.326-.753.921.921,0,0,0-.179-.643.961.961,0,0,0-1.124,0,.918.918,0,0,0-.179.642v.895h-3.175v-3.611l.111-.056a6.515,6.515,0,0,1,.815-.336c.289-.1.635-.2,1.03-.289a10.761,10.761,0,0,1,1.263-.218,11.8,11.8,0,0,1,1.361-.078,4.767,4.767,0,0,1,3.066.843,3.067,3.067,0,0,1,1.044,2.5,3.7,3.7,0,0,1-.417,1.706,7.558,7.558,0,0,1-1.032,1.509,12.63,12.63,0,0,1-1.356,1.336h3.069Zm-8.8-.4h8.4v-2.672h-2.3v.8h-2.46l.441-.358q.663-.539,1.389-1.155a12.215,12.215,0,0,0,1.316-1.295,7.18,7.18,0,0,0,.977-1.429,3.3,3.3,0,0,0,.373-1.522,2.648,2.648,0,0,0-.9-2.192,4.391,4.391,0,0,0-2.809-.751,11.466,11.466,0,0,0-1.314.075,10.511,10.511,0,0,0-1.217.211c-.382.091-.716.184-.993.279a6,6,0,0,0-.653.26v2.956h2.368v-.491a1.286,1.286,0,0,1,.293-.924,1.345,1.345,0,0,1,1.7,0,1.288,1.288,0,0,1,.293.924,1.868,1.868,0,0,1-.395.979A10.821,10.821,0,0,1,175,242.677c-.439.472-.966.988-1.564,1.536-.578.529-1.222,1.1-1.916,1.684Zm4.769-2.272h.925v-.773Q176.74,245.079,176.292,245.449Z" transform="translate(-171.119 -236.747)" fill="#969696"/>
        </g>
      </g>
    </g>
  </g>
</svg>
