<svg id="Group_3893" data-name="Group 3893" xmlns="http://www.w3.org/2000/svg" xmlns:xlink="http://www.w3.org/1999/xlink" width="32" height="32" viewBox="0 0 32 32">
  <defs>
    <clipPath id="clip-path">
      <circle id="Ellipse_127" data-name="Ellipse 127" cx="16" cy="16" r="16" fill="#fff"/>
    </clipPath>
  </defs>
  <circle id="Ellipse_1" data-name="Ellipse 1" cx="16" cy="16" r="16" fill="#eee"/>
  <g id="Mask_Group_14" data-name="Mask Group 14" clip-path="url(#clip-path)">
    <g id="Group_3197" data-name="Group 3197" transform="translate(0 5.069)">
      <g id="man" transform="translate(0.488 0)" style="mix-blend-mode: multiply;isolation: isolate">
        <g id="Group_3214" data-name="Group 3214" transform="translate(0)">
          <rect id="Rectangle_882" data-name="Rectangle 882" width="6.01" height="2.549" transform="translate(12.991 18.365)" fill="#c8c8c8"/>
          <g id="Group_3197-2" data-name="Group 3197" transform="translate(12.769 16.341)">
            <path id="Path_4044" data-name="Path 4044" d="M886.3,188.1l-.766-.353v-2.436h-4.918v2.436l-.769.332.2,6.909h.565v1.059h4.918v-1.059h.561Z" transform="translate(-879.841 -185.309)" fill="#c8c8c8"/>
            <path id="Path_4045" data-name="Path 4045" d="M883,185.309v.935l4.919,1.339v-2.275Z" transform="translate(-882.226 -185.309)" fill="#c8c8c8"/>
          </g>
          <g id="Group_3202" data-name="Group 3202" transform="translate(5.644 18.365)">
            <g id="Group_3198" data-name="Group 3198" transform="translate(4.107 0.252)">
              <path id="Path_4046" data-name="Path 4046" d="M877.011,196.809l-.183.687a3.211,3.211,0,0,1-3.052,2.387,3.5,3.5,0,0,1-3.257-2.7l-.1-.37c-4,1.5-2.773,14.031-2.773,14.031l-.025,10.405h12.535l-.168-10.405S881.011,198.312,877.011,196.809Z" transform="translate(-867.469 -196.28)" fill="#c8c8c8"/>
              <path id="Path_4047" data-name="Path 4047" d="M890.585,205.023l-.472.9h-1.437l-.459-.9,1.184-.968Z" transform="translate(-883.155 -201.758)" fill="#c8c8c8"/>
              <path id="Path_4048" data-name="Path 4048" d="M880.368,196.938l-1.512,1.593-2.587-3.086,1.614-.8.607.562Z" transform="translate(-874.122 -194.641)" fill="#c8c8c8"/>
              <path id="Path_4049" data-name="Path 4049" d="M895.556,194.644l-2.486,2.3,1.512,1.594,2.586-3.087Z" transform="translate(-886.825 -194.643)" fill="#c8c8c8"/>
              <path id="Path_4050" data-name="Path 4050" d="M889.763,212.613l.585,18.829-1.3,1.433-1.3-1.433.571-18.829Z" transform="translate(-882.806 -208.229)" fill="#c8c8c8"/>
            </g>
            <path id="Path_4051" data-name="Path 4051" d="M871.222,199.9c-.393-2.3-2.937-2.3-6.938-3.8l-3.3,13.341-3.3-13.341c-4,1.5-6.545,1.5-6.938,3.8-.634,3.712,1.484,5.333,1.5,5.312,0,0,.173,16.475-.087,20.447h8.205l.615-2.869.615,2.869h8.205c-.26-3.972-.087-20.447-.087-20.447C869.737,205.228,871.856,203.607,871.222,199.9Z" transform="translate(-850.635 -195.488)" fill="#c8c8c8"/>
            <g id="Group_3201" data-name="Group 3201" transform="translate(5.278)">
              <g id="Group_3199" data-name="Group 3199">
                <path id="Path_4052" data-name="Path 4052" d="M872.27,194.671l.08,2.35,1.174.965-.913,1.248,4.7,8.32-2.974-13.948Z" transform="translate(-872.27 -193.607)" fill="#c8c8c8"/>
              </g>
              <g id="Group_3200" data-name="Group 3200" transform="translate(5.105)">
                <path id="Path_4053" data-name="Path 4053" d="M898.24,194.671l-.08,2.35-1.173.965.913,1.248-4.7,8.32,2.974-13.948Z" transform="translate(-893.197 -193.607)" fill="#c8c8c8"/>
              </g>
            </g>
          </g>
          <g id="Group_3203" data-name="Group 3203" transform="translate(9.028 27.783)">
            <rect id="Rectangle_883" data-name="Rectangle 883" width="8.651" height="4.918" rx="2.459" transform="translate(4.918 0) rotate(90)" fill="#c8c8c8"/>
            <path id="Path_4054" data-name="Path 4054" d="M868.95,232.209h-2.357a1.275,1.275,0,0,0-1.022.516,1.269,1.269,0,0,1,.765-.259h2.357a1.281,1.281,0,0,1,1.281,1.281v6.09a1.269,1.269,0,0,1-.259.765,1.274,1.274,0,0,0,.515-1.021v-6.09A1.281,1.281,0,0,0,868.95,232.209Z" transform="translate(-865.313 -232.209)" fill="#c8c8c8"/>
            <rect id="Rectangle_884" data-name="Rectangle 884" width="0.787" height="0.787" rx="0.393" transform="translate(2.853 0.698) rotate(90)" fill="#c8c8c8"/>
          </g>
          <g id="Group_3205" data-name="Group 3205" transform="translate(20.897 19.739)">
            <g id="Group_3204" data-name="Group 3204" transform="translate(3.762 27.543)">
              <path id="Path_4055" data-name="Path 4055" d="M930.865,316.473l.765-4.337,2.422.427-.765,4.338a1.268,1.268,0,1,1-2.422-.427Z" transform="translate(-930.284 -312.136)" fill="#c8c8c8"/>
              <path id="Path_4056" data-name="Path 4056" d="M928.582,317.783a3.788,3.788,0,0,1,1.621-2.526.5.5,0,0,1,.708.157.535.535,0,0,1-.156.726,2.753,2.753,0,0,0-1.153,1.733.512.512,0,1,1-1.021-.089Z" transform="translate(-928.58 -314.432)" fill="#c8c8c8"/>
            </g>
            <path id="Path_4057" data-name="Path 4057" d="M913.865,199.239c3.114.971,5.353,1.252,5.687,3.207.634,3.712,1.358,7.918,1.765,12.429.139,5.881-.393,13.211-.393,13.211H917.7c-.018-.03-.08-4.7-.2-9.911-.59-3.8-.869-5.478-.885-5.5l-3.458-11C913.212,201.57,913.585,199.913,913.865,199.239Z" transform="translate(-913.159 -199.239)" fill="#c8c8c8"/>
          </g>
          <g id="Group_3207" data-name="Group 3207" transform="translate(0 21.473)">
            <g id="Group_3206" data-name="Group 3206" transform="translate(6.813 9.11)">
              <path id="Path_4058" data-name="Path 4058" d="M858.686,246.928s-.965.108-1.714.163l-.547.033-.472.015-.453,0-.072,3.073.568,0,.568-.017.638-.039c.861-.064,1.891-.182,1.891-.182a1.358,1.358,0,0,0,.929-1.691C859.881,247.443,859.281,246.851,858.686,246.928Z" transform="translate(-855.428 -246.132)" fill="#c8c8c8"/>
              <path id="Path_4059" data-name="Path 4059" d="M859.1,243.687a1.921,1.921,0,0,0-1.2.776,4.788,4.788,0,0,0-.5.735.646.646,0,0,0,.079.717.317.317,0,0,0,.528-.11s.037-.072.1-.17a3.446,3.446,0,0,1,.254-.358,1.389,1.389,0,0,1,.849-.571c.2-.023.335-.269.3-.549S859.3,243.665,859.1,243.687Z" transform="translate(-856.869 -243.686)" fill="#c8c8c8"/>
            </g>
            <path id="Path_4060" data-name="Path 4060" d="M834.774,220.217c-1.261,0-4.818.189-5.882-.676-.747-.608-2.307-2.589-.664-5.934a26.755,26.755,0,0,1,5.675-7.264l3.668,4.1c-1.934,1.826-3.6,2.769-5.418,4.792-.55.612-.331.821-.318.832.291.237,2.048.105,3.2.012l.3,4.087A3.277,3.277,0,0,1,834.774,220.217Z" transform="translate(-827.503 -206.343)" fill="#c8c8c8"/>
          </g>
          <g id="Group_3213" data-name="Group 3213" transform="translate(9.845)">
            <g id="Group_3211" data-name="Group 3211" transform="translate(0 1.769)">
              <path id="Path_4061" data-name="Path 4061" d="M879.372,132.868l.167-2.164c0-2.83-2.705-5.123-5.533-5.123s-5.533,2.293-5.533,5.123l.166,2.162a1,1,0,0,0-.42.213,1.021,1.021,0,0,0-.361.781v1.066a1.023,1.023,0,0,0,1.018,1.024c0,2.673,3.211,5.206,5.13,5.206s5.13-2.533,5.13-5.206a1.024,1.024,0,0,0,1.017-1.024v-1.066A1.023,1.023,0,0,0,879.372,132.868Z" transform="translate(-867.858 -125.581)" fill="#c8c8c8"/>
              <path id="Path_4062" data-name="Path 4062" d="M894.611,132.868l.167-2.164c0-2.83-2.705-5.123-5.533-5.123v7.275a21.366,21.366,0,0,0-1.23,3.894h1.23v4.406c1.92,0,5.131-2.533,5.131-5.206a1.024,1.024,0,0,0,1.017-1.024v-1.066A1.023,1.023,0,0,0,894.611,132.868Z" transform="translate(-883.097 -125.581)" fill="#c8c8c8"/>
              <g id="Group_3210" data-name="Group 3210" transform="translate(2.961 6.891)">
                <g id="Group_3208" data-name="Group 3208">
                  <path id="Path_4063" data-name="Path 4063" d="M881.612,155.448a.809.809,0,1,1-.837-.781A.809.809,0,0,1,881.612,155.448Z" transform="translate(-879.994 -154.462)" fill="#c8c8c8"/>
                  <path id="Path_4064" data-name="Path 4064" d="M881.612,154.608a.809.809,0,1,1-.837-.781A.809.809,0,0,1,881.612,154.608Z" transform="translate(-879.994 -153.827)" fill="#c8c8c8"/>
                  <path id="Path_4065" data-name="Path 4065" d="M884.013,157.576a.2.2,0,1,1-.209-.2A.2.2,0,0,1,884.013,157.576Z" transform="translate(-882.727 -156.514)" fill="#c8c8c8"/>
                </g>
                <g id="Group_3209" data-name="Group 3209" transform="translate(4.714 0)">
                  <circle id="Ellipse_121" data-name="Ellipse 121" cx="0.809" cy="0.809" r="0.809" transform="translate(0 0.205)" fill="#c8c8c8"/>
                  <circle id="Ellipse_122" data-name="Ellipse 122" cx="0.809" cy="0.809" r="0.809" fill="#c8c8c8"/>
                  <path id="Path_4066" data-name="Path 4066" d="M903.333,157.576a.2.2,0,1,1-.209-.2A.2.2,0,0,1,903.333,157.576Z" transform="translate(-902.047 -156.514)" fill="#c8c8c8"/>
                </g>
              </g>
            </g>
            <g id="Group_3212" data-name="Group 3212" transform="translate(0.082)">
              <path id="Path_4067" data-name="Path 4067" d="M887.679,173.9a4.065,4.065,0,0,0-2.43-.856h-.033a4.066,4.066,0,0,0-2.431.856.409.409,0,0,0-.114.287,12.48,12.48,0,0,0,.2,2.106.41.41,0,0,0,.126.172,4.013,4.013,0,0,0,4.463,0,.411.411,0,0,0,.126-.173,12.489,12.489,0,0,0,.2-2.105A.408.408,0,0,0,887.679,173.9Zm-.815,1.986a4.794,4.794,0,0,1-1.12.38v-.549a.512.512,0,1,0-1.025,0v.549a4.762,4.762,0,0,1-1.119-.38,9.976,9.976,0,0,1-.1-1.525,3.278,3.278,0,0,1,3.47,0A10.054,10.054,0,0,1,886.864,175.884Z" transform="translate(-879.14 -159.694)" fill="#c8c8c8"/>
              <path id="Path_4068" data-name="Path 4068" d="M874.287,118.329c-9.071.14-5.327,10.563-5.327,10.563s-.468-5.71,1.934-5.36a20.594,20.594,0,0,0,6.787,0c2.4-.349,1.934,5.36,1.934,5.36S883.358,118.469,874.287,118.329Z" transform="translate(-868.194 -118.329)" fill="#c8c8c8"/>
            </g>
          </g>
        </g>
        <g id="Group_3232" data-name="Group 3232" transform="translate(0)">
          <rect id="Rectangle_885" data-name="Rectangle 885" width="6.01" height="2.549" transform="translate(12.991 18.365)" fill="#32303a"/>
          <g id="Group_3215" data-name="Group 3215" transform="translate(12.769 16.341)">
            <path id="Path_4069" data-name="Path 4069" d="M886.3,188.1l-.766-.353v-2.436h-4.918v2.436l-.769.332.2,6.909h.565v1.059h4.918v-1.059h.561Z" transform="translate(-879.841 -185.309)" fill="#f2ae75"/>
            <path id="Path_4070" data-name="Path 4070" d="M883,185.309v.935l4.919,1.339v-2.275Z" transform="translate(-882.226 -185.309)" fill="#deb4a0" style="mix-blend-mode: multiply;isolation: isolate"/>
          </g>
          <g id="Group_3220" data-name="Group 3220" transform="translate(5.644 18.365)">
            <g id="Group_3216" data-name="Group 3216" transform="translate(4.107 0.252)">
              <path id="Path_4071" data-name="Path 4071" d="M877.011,196.809l-.183.687a3.211,3.211,0,0,1-3.052,2.387,3.5,3.5,0,0,1-3.257-2.7l-.1-.37c-4,1.5-2.773,14.031-2.773,14.031l-.025,10.405h12.535l-.168-10.405S881.011,198.312,877.011,196.809Z" transform="translate(-867.469 -196.28)" fill="#fff"/>
              <path id="Path_4072" data-name="Path 4072" d="M890.585,205.023l-.472.9h-1.437l-.459-.9,1.184-.968Z" transform="translate(-883.155 -201.758)" fill="#0c6a93"/>
              <path id="Path_4073" data-name="Path 4073" d="M880.368,196.938l-1.512,1.593-2.587-3.086,1.614-.8.607.562Z" transform="translate(-874.122 -194.641)" fill="#e6e7e8"/>
              <path id="Path_4074" data-name="Path 4074" d="M895.556,194.644l-2.486,2.3,1.512,1.594,2.586-3.087Z" transform="translate(-886.825 -194.643)" fill="#e6e7e8"/>
              <path id="Path_4075" data-name="Path 4075" d="M889.763,212.613l.585,18.829-1.3,1.433-1.3-1.433.571-18.829Z" transform="translate(-882.806 -208.229)" fill="#0c6a93"/>
            </g>
            <path id="Path_4076" data-name="Path 4076" d="M871.222,199.9c-.393-2.3-2.937-2.3-6.938-3.8l-3.3,13.341-3.3-13.341c-4,1.5-6.545,1.5-6.938,3.8-.634,3.712,1.484,5.333,1.5,5.312,0,0,.173,16.475-.087,20.447h8.205l.615-2.869.615,2.869h8.205c-.26-3.972-.087-20.447-.087-20.447C869.737,205.228,871.856,203.607,871.222,199.9Z" transform="translate(-850.635 -195.488)" fill="#32303a"/>
            <g id="Group_3219" data-name="Group 3219" transform="translate(5.278)">
              <g id="Group_3217" data-name="Group 3217">
                <path id="Path_4077" data-name="Path 4077" d="M872.27,194.671l.08,2.35,1.174.965-.913,1.248,4.7,8.32-2.974-13.948Z" transform="translate(-872.27 -193.607)" fill="#4f4c4d"/>
              </g>
              <g id="Group_3218" data-name="Group 3218" transform="translate(5.105)">
                <path id="Path_4078" data-name="Path 4078" d="M898.24,194.671l-.08,2.35-1.173.965.913,1.248-4.7,8.32,2.974-13.948Z" transform="translate(-893.197 -193.607)" fill="#4f4c4d"/>
              </g>
            </g>
          </g>
          <g id="Group_3221" data-name="Group 3221" transform="translate(9.028 27.783)">
            <rect id="Rectangle_886" data-name="Rectangle 886" width="8.651" height="4.918" rx="2.459" transform="translate(4.918 0) rotate(90)" fill="#686671"/>
            <path id="Path_4079" data-name="Path 4079" d="M868.95,232.209h-2.357a1.275,1.275,0,0,0-1.022.516,1.269,1.269,0,0,1,.765-.259h2.357a1.281,1.281,0,0,1,1.281,1.281v6.09a1.269,1.269,0,0,1-.259.765,1.274,1.274,0,0,0,.515-1.021v-6.09A1.281,1.281,0,0,0,868.95,232.209Z" transform="translate(-865.313 -232.209)" fill="#c8c8c8" style="mix-blend-mode: multiply;isolation: isolate"/>
            <rect id="Rectangle_887" data-name="Rectangle 887" width="0.787" height="0.787" rx="0.393" transform="translate(2.853 0.698) rotate(90)" fill="#383643"/>
          </g>
          <g id="Group_3223" data-name="Group 3223" transform="translate(20.897 19.739)">
            <g id="Group_3222" data-name="Group 3222" transform="translate(3.762 27.543)">
              <path id="Path_4080" data-name="Path 4080" d="M930.865,316.473l.765-4.337,2.422.427-.765,4.338a1.268,1.268,0,1,1-2.422-.427Z" transform="translate(-930.284 -312.136)" fill="#f7cdb9"/>
              <path id="Path_4081" data-name="Path 4081" d="M928.582,317.783a3.788,3.788,0,0,1,1.621-2.526.5.5,0,0,1,.708.157.535.535,0,0,1-.156.726,2.753,2.753,0,0,0-1.153,1.733.512.512,0,1,1-1.021-.089Z" transform="translate(-928.58 -314.432)" fill="#f7cdb9"/>
            </g>
            <path id="Path_4082" data-name="Path 4082" d="M913.865,199.239c3.114.971,5.353,1.252,5.687,3.207.634,3.712,1.358,7.918,1.765,12.429.139,5.881-.393,13.211-.393,13.211H917.7c-.018-.03-.08-4.7-.2-9.911-.59-3.8-.869-5.478-.885-5.5l-3.458-11C913.212,201.57,913.585,199.913,913.865,199.239Z" transform="translate(-913.159 -199.239)" fill="#32303a"/>
          </g>
          <g id="Group_3225" data-name="Group 3225" transform="translate(0 21.473)">
            <g id="Group_3224" data-name="Group 3224" transform="translate(6.813 9.11)">
              <path id="Path_4083" data-name="Path 4083" d="M858.686,246.928s-.965.108-1.714.163l-.547.033-.472.015-.453,0-.072,3.073.568,0,.568-.017.638-.039c.861-.064,1.891-.182,1.891-.182a1.358,1.358,0,0,0,.929-1.691C859.881,247.443,859.281,246.851,858.686,246.928Z" transform="translate(-855.428 -246.132)" fill="#f2ae75"/>
              <path id="Path_4084" data-name="Path 4084" d="M859.1,243.687a1.921,1.921,0,0,0-1.2.776,4.788,4.788,0,0,0-.5.735.646.646,0,0,0,.079.717.317.317,0,0,0,.528-.11s.037-.072.1-.17a3.446,3.446,0,0,1,.254-.358,1.389,1.389,0,0,1,.849-.571c.2-.023.335-.269.3-.549S859.3,243.665,859.1,243.687Z" transform="translate(-856.869 -243.686)" fill="#f2ae75"/>
            </g>
            <path id="Path_4085" data-name="Path 4085" d="M834.774,220.217c-1.261,0-4.818.189-5.882-.676-.747-.608-2.307-2.589-.664-5.934a26.755,26.755,0,0,1,5.675-7.264l3.668,4.1c-1.934,1.826-3.6,2.769-5.418,4.792-.55.612-.331.821-.318.832.291.237,2.048.105,3.2.012l.3,4.087A3.277,3.277,0,0,1,834.774,220.217Z" transform="translate(-827.503 -206.343)" fill="#32303a"/>
          </g>
          <g id="Group_3231" data-name="Group 3231" transform="translate(9.845)">
            <g id="Group_3229" data-name="Group 3229" transform="translate(0 1.769)">
              <path id="Path_4086" data-name="Path 4086" d="M879.372,132.868l.167-2.164c0-2.83-2.705-5.123-5.533-5.123s-5.533,2.293-5.533,5.123l.166,2.162a1,1,0,0,0-.42.213,1.021,1.021,0,0,0-.361.781v1.066a1.023,1.023,0,0,0,1.018,1.024c0,2.673,3.211,5.206,5.13,5.206s5.13-2.533,5.13-5.206a1.024,1.024,0,0,0,1.017-1.024v-1.066A1.023,1.023,0,0,0,879.372,132.868Z" transform="translate(-867.858 -125.581)" fill="#f2ae75"/>
              <path id="Path_4087" data-name="Path 4087" d="M894.611,132.868l.167-2.164c0-2.83-2.705-5.123-5.533-5.123v7.275a21.366,21.366,0,0,0-1.23,3.894h1.23v4.406c1.92,0,5.131-2.533,5.131-5.206a1.024,1.024,0,0,0,1.017-1.024v-1.066A1.023,1.023,0,0,0,894.611,132.868Z" transform="translate(-883.097 -125.581)" fill="#f6ccb8" opacity="0.8" style="mix-blend-mode: multiply;isolation: isolate"/>
              <g id="Group_3228" data-name="Group 3228" transform="translate(2.961 6.891)">
                <g id="Group_3226" data-name="Group 3226">
                  <path id="Path_4088" data-name="Path 4088" d="M881.612,155.448a.809.809,0,1,1-.837-.781A.809.809,0,0,1,881.612,155.448Z" transform="translate(-879.994 -154.462)" fill="#f6ccb8" style="mix-blend-mode: multiply;isolation: isolate"/>
                  <path id="Path_4089" data-name="Path 4089" d="M881.612,154.608a.809.809,0,1,1-.837-.781A.809.809,0,0,1,881.612,154.608Z" transform="translate(-879.994 -153.827)" fill="#3c2417"/>
                  <path id="Path_4090" data-name="Path 4090" d="M884.013,157.576a.2.2,0,1,1-.209-.2A.2.2,0,0,1,884.013,157.576Z" transform="translate(-882.727 -156.514)" fill="#fff"/>
                </g>
                <g id="Group_3227" data-name="Group 3227" transform="translate(4.714 0)">
                  <circle id="Ellipse_123" data-name="Ellipse 123" cx="0.809" cy="0.809" r="0.809" transform="translate(0 0.205)" fill="#f6ccb8" style="mix-blend-mode: multiply;isolation: isolate"/>
                  <circle id="Ellipse_124" data-name="Ellipse 124" cx="0.809" cy="0.809" r="0.809" fill="#3c2417"/>
                  <path id="Path_4091" data-name="Path 4091" d="M903.333,157.576a.2.2,0,1,1-.209-.2A.2.2,0,0,1,903.333,157.576Z" transform="translate(-902.047 -156.514)" fill="#fff"/>
                </g>
              </g>
            </g>
            <g id="Group_3230" data-name="Group 3230" transform="translate(0.082)">
              <path id="Path_4092" data-name="Path 4092" d="M887.679,173.9a4.065,4.065,0,0,0-2.43-.856h-.033a4.066,4.066,0,0,0-2.431.856.409.409,0,0,0-.114.287,12.48,12.48,0,0,0,.2,2.106.41.41,0,0,0,.126.172,4.013,4.013,0,0,0,4.463,0,.411.411,0,0,0,.126-.173,12.489,12.489,0,0,0,.2-2.105A.408.408,0,0,0,887.679,173.9Zm-.815,1.986a4.794,4.794,0,0,1-1.12.38v-.549a.512.512,0,1,0-1.025,0v.549a4.762,4.762,0,0,1-1.119-.38,9.976,9.976,0,0,1-.1-1.525,3.278,3.278,0,0,1,3.47,0A10.054,10.054,0,0,1,886.864,175.884Z" transform="translate(-879.14 -159.694)" fill="#3c2415"/>
              <path id="Path_4093" data-name="Path 4093" d="M874.287,118.329c-9.071.14-5.327,10.563-5.327,10.563s-.468-5.71,1.934-5.36a20.594,20.594,0,0,0,6.787,0c2.4-.349,1.934,5.36,1.934,5.36S883.358,118.469,874.287,118.329Z" transform="translate(-868.194 -118.329)" fill="#3c2417"/>
            </g>
          </g>
        </g>
      </g>
      <g id="man-2" data-name="man" transform="translate(0 0)">
        <rect id="Rectangle_888" data-name="Rectangle 888" width="6.01" height="2.549" transform="translate(12.991 18.365)" fill="#32303a"/>
        <g id="Group_3233" data-name="Group 3233" transform="translate(12.769 16.341)">
          <path id="Path_4094" data-name="Path 4094" d="M884.3,188.1l-.766-.353v-2.436h-4.918v2.436l-.77.332.205,6.909h.565v1.059h4.918v-1.059h.561Z" transform="translate(-877.841 -185.309)" fill="#f2ae75"/>
          <path id="Path_4095" data-name="Path 4095" d="M881,185.309v.935l4.918,1.339v-2.275Z" transform="translate(-880.226 -185.309)" fill="#deb4a0" style="mix-blend-mode: multiply;isolation: isolate"/>
        </g>
        <g id="Group_3238" data-name="Group 3238" transform="translate(5.644 18.365)">
          <g id="Group_3234" data-name="Group 3234" transform="translate(4.107 0.252)">
            <path id="Path_4096" data-name="Path 4096" d="M875.011,196.809l-.183.687a3.21,3.21,0,0,1-3.052,2.387,3.5,3.5,0,0,1-3.258-2.7l-.1-.37c-4,1.5-2.773,14.031-2.773,14.031l-.025,10.405h12.535l-.168-10.405S879.011,198.312,875.011,196.809Z" transform="translate(-865.469 -196.28)" fill="#fff"/>
            <path id="Path_4097" data-name="Path 4097" d="M888.585,205.023l-.472.9h-1.437l-.459-.9,1.184-.968Z" transform="translate(-881.155 -201.758)" fill="#0c6a93"/>
            <path id="Path_4098" data-name="Path 4098" d="M878.368,196.938l-1.512,1.593-2.586-3.086,1.614-.8.607.562Z" transform="translate(-872.122 -194.641)" fill="#e6e7e8"/>
            <path id="Path_4099" data-name="Path 4099" d="M893.556,194.644l-2.486,2.3,1.513,1.594,2.586-3.087Z" transform="translate(-884.825 -194.643)" fill="#e6e7e8"/>
            <path id="Path_4100" data-name="Path 4100" d="M887.763,212.613l.585,18.829-1.3,1.433-1.3-1.433.571-18.829Z" transform="translate(-880.806 -208.229)" fill="#0c6a93"/>
          </g>
          <path id="Path_4101" data-name="Path 4101" d="M869.222,199.9c-.392-2.3-2.938-2.3-6.938-3.8l-3.3,13.341-3.3-13.341c-4,1.5-6.545,1.5-6.938,3.8-.634,3.712,1.485,5.333,1.5,5.312,0,0,.173,16.475-.087,20.447h8.205l.615-2.869.615,2.869h8.205c-.26-3.972-.087-20.447-.087-20.447C867.737,205.228,869.856,203.607,869.222,199.9Z" transform="translate(-848.635 -195.488)" fill="#32303a"/>
          <g id="Group_3237" data-name="Group 3237" transform="translate(5.278)">
            <g id="Group_3235" data-name="Group 3235">
              <path id="Path_4102" data-name="Path 4102" d="M870.27,194.671l.08,2.35,1.174.965-.913,1.248,4.7,8.32-2.974-13.948Z" transform="translate(-870.27 -193.607)" fill="#4f4c4d"/>
            </g>
            <g id="Group_3236" data-name="Group 3236" transform="translate(5.105)">
              <path id="Path_4103" data-name="Path 4103" d="M896.24,194.671l-.08,2.35-1.174.965.913,1.248-4.7,8.32,2.974-13.948Z" transform="translate(-891.196 -193.607)" fill="#4f4c4d"/>
            </g>
          </g>
        </g>
        <g id="Group_3239" data-name="Group 3239" transform="translate(9.028 27.783)">
          <rect id="Rectangle_889" data-name="Rectangle 889" width="8.651" height="4.918" rx="2.459" transform="translate(4.918 0) rotate(90)" fill="#686671"/>
          <path id="Path_4104" data-name="Path 4104" d="M866.95,232.209h-2.357a1.274,1.274,0,0,0-1.021.516,1.269,1.269,0,0,1,.765-.259h2.357a1.281,1.281,0,0,1,1.281,1.281v6.09a1.268,1.268,0,0,1-.259.765,1.274,1.274,0,0,0,.516-1.021v-6.09A1.281,1.281,0,0,0,866.95,232.209Z" transform="translate(-863.313 -232.209)" fill="#c8c8c8" style="mix-blend-mode: multiply;isolation: isolate"/>
          <rect id="Rectangle_890" data-name="Rectangle 890" width="0.787" height="0.787" rx="0.393" transform="translate(2.853 0.698) rotate(90)" fill="#383643"/>
        </g>
        <g id="Group_3241" data-name="Group 3241" transform="translate(20.897 19.739)">
          <g id="Group_3240" data-name="Group 3240" transform="translate(3.762 27.543)">
            <path id="Path_4105" data-name="Path 4105" d="M928.865,316.473l.765-4.337,2.422.427-.765,4.338a1.268,1.268,0,1,1-2.422-.427Z" transform="translate(-928.284 -312.136)" fill="#f7cdb9"/>
            <path id="Path_4106" data-name="Path 4106" d="M926.582,317.783a3.787,3.787,0,0,1,1.621-2.526.5.5,0,0,1,.708.157.535.535,0,0,1-.156.726,2.753,2.753,0,0,0-1.152,1.733.512.512,0,1,1-1.021-.089Z" transform="translate(-926.58 -314.432)" fill="#f7cdb9"/>
          </g>
          <path id="Path_4107" data-name="Path 4107" d="M911.865,199.239c3.114.971,5.353,1.252,5.687,3.207.634,3.712,1.358,7.918,1.765,12.429.139,5.881-.393,13.211-.393,13.211H915.7c-.018-.03-.08-4.7-.2-9.911-.59-3.8-.869-5.478-.885-5.5l-3.458-11C911.212,201.57,911.585,199.913,911.865,199.239Z" transform="translate(-911.159 -199.239)" fill="#32303a"/>
        </g>
        <g id="Group_3243" data-name="Group 3243" transform="translate(0 21.473)">
          <g id="Group_3242" data-name="Group 3242" transform="translate(6.813 9.11)">
            <path id="Path_4108" data-name="Path 4108" d="M856.686,246.928s-.965.108-1.714.163l-.547.033-.472.015-.453,0-.072,3.073.568,0,.568-.017.638-.039c.86-.064,1.891-.182,1.891-.182a1.358,1.358,0,0,0,.929-1.691C857.881,247.443,857.281,246.851,856.686,246.928Z" transform="translate(-853.428 -246.132)" fill="#f2ae75"/>
            <path id="Path_4109" data-name="Path 4109" d="M857.1,243.687a1.921,1.921,0,0,0-1.2.776,4.788,4.788,0,0,0-.5.735.646.646,0,0,0,.079.717.317.317,0,0,0,.528-.11s.037-.072.1-.17a3.493,3.493,0,0,1,.254-.358,1.389,1.389,0,0,1,.85-.571c.2-.023.335-.269.3-.549S857.3,243.665,857.1,243.687Z" transform="translate(-854.869 -243.686)" fill="#f2ae75"/>
          </g>
          <path id="Path_4110" data-name="Path 4110" d="M832.774,220.217c-1.262,0-4.818.189-5.882-.676-.747-.608-2.307-2.589-.664-5.934a26.757,26.757,0,0,1,5.675-7.264l3.668,4.1c-1.934,1.826-3.6,2.769-5.418,4.792-.55.612-.331.821-.318.832.291.237,2.048.105,3.2.012l.3,4.087A3.28,3.28,0,0,1,832.774,220.217Z" transform="translate(-825.503 -206.343)" fill="#32303a"/>
        </g>
        <g id="Group_3249" data-name="Group 3249" transform="translate(9.845)">
          <g id="Group_3247" data-name="Group 3247" transform="translate(0 1.769)">
            <path id="Path_4111" data-name="Path 4111" d="M877.372,132.868l.167-2.164c0-2.83-2.705-5.123-5.533-5.123s-5.533,2.293-5.533,5.123l.166,2.162a1,1,0,0,0-.42.213,1.021,1.021,0,0,0-.361.781v1.066a1.023,1.023,0,0,0,1.018,1.024c0,2.673,3.211,5.206,5.13,5.206s5.13-2.533,5.13-5.206a1.024,1.024,0,0,0,1.017-1.024v-1.066A1.023,1.023,0,0,0,877.372,132.868Z" transform="translate(-865.858 -125.581)" fill="#f2ae75"/>
            <path id="Path_4112" data-name="Path 4112" d="M892.611,132.868l.167-2.164c0-2.83-2.705-5.123-5.533-5.123v7.275a21.369,21.369,0,0,0-1.229,3.894h1.229v4.406c1.92,0,5.131-2.533,5.131-5.206a1.024,1.024,0,0,0,1.017-1.024v-1.066A1.023,1.023,0,0,0,892.611,132.868Z" transform="translate(-881.097 -125.581)" fill="#f6ccb8" opacity="0.8" style="mix-blend-mode: multiply;isolation: isolate"/>
            <g id="Group_3246" data-name="Group 3246" transform="translate(2.961 6.891)">
              <g id="Group_3244" data-name="Group 3244">
                <path id="Path_4113" data-name="Path 4113" d="M879.612,155.448a.809.809,0,1,1-.837-.781A.809.809,0,0,1,879.612,155.448Z" transform="translate(-877.994 -154.462)" fill="#f6ccb8" style="mix-blend-mode: multiply;isolation: isolate"/>
                <path id="Path_4114" data-name="Path 4114" d="M879.612,154.608a.809.809,0,1,1-.837-.781A.809.809,0,0,1,879.612,154.608Z" transform="translate(-877.994 -153.827)" fill="#3c2417"/>
                <path id="Path_4115" data-name="Path 4115" d="M882.013,157.576a.2.2,0,1,1-.209-.2A.2.2,0,0,1,882.013,157.576Z" transform="translate(-880.727 -156.514)" fill="#fff"/>
              </g>
              <g id="Group_3245" data-name="Group 3245" transform="translate(4.714 0)">
                <circle id="Ellipse_125" data-name="Ellipse 125" cx="0.809" cy="0.809" r="0.809" transform="translate(0 0.205)" fill="#f6ccb8" style="mix-blend-mode: multiply;isolation: isolate"/>
                <circle id="Ellipse_126" data-name="Ellipse 126" cx="0.809" cy="0.809" r="0.809" fill="#3c2417"/>
                <path id="Path_4116" data-name="Path 4116" d="M901.333,157.576a.2.2,0,1,1-.209-.2A.2.2,0,0,1,901.333,157.576Z" transform="translate(-900.047 -156.514)" fill="#fff"/>
              </g>
            </g>
          </g>
          <g id="Group_3248" data-name="Group 3248" transform="translate(0.082)">
            <path id="Path_4117" data-name="Path 4117" d="M885.679,173.9a4.065,4.065,0,0,0-2.43-.856h-.032a4.066,4.066,0,0,0-2.431.856.409.409,0,0,0-.114.287,12.5,12.5,0,0,0,.2,2.106.41.41,0,0,0,.126.172,4.013,4.013,0,0,0,4.463,0,.412.412,0,0,0,.126-.173,12.489,12.489,0,0,0,.2-2.105A.408.408,0,0,0,885.679,173.9Zm-.815,1.986a4.8,4.8,0,0,1-1.12.38v-.549a.512.512,0,1,0-1.025,0v.549a4.759,4.759,0,0,1-1.119-.38,9.972,9.972,0,0,1-.1-1.525,3.278,3.278,0,0,1,3.47,0A10.054,10.054,0,0,1,884.864,175.884Z" transform="translate(-877.14 -159.694)" fill="#3c2415"/>
            <path id="Path_4118" data-name="Path 4118" d="M872.287,118.329c-9.071.14-5.327,10.563-5.327,10.563s-.468-5.71,1.934-5.36a20.595,20.595,0,0,0,6.787,0c2.4-.349,1.934,5.36,1.934,5.36S881.358,118.469,872.287,118.329Z" transform="translate(-866.194 -118.329)" fill="#3c2417"/>
          </g>
        </g>
      </g>
    </g>
  </g>
</svg>
