<svg xmlns="http://www.w3.org/2000/svg" width="189.571" height="349.979" viewBox="0 0 189.571 349.979">
  <g id="Group_5172" data-name="Group 5172" transform="translate(-249.027 -293)">
    <g id="woman_crossing_arms" data-name="woman crossing arms" transform="translate(249.027 293.722)">
      <g id="Group_3485" data-name="Group 3485" transform="translate(58.428 311.689)">
        <path id="Path_4391" data-name="Path 4391" d="M2555.136,2352.91c-.765-1.5-5.077-4.876-6.808-9.764-.986-2.785-1.726-14.937-2.731-16.422-1.674-2.476-3.784-2.385-7.187-3.285-.68,2.933-.627,14.345-.862,17.426C2542.856,2362.829,2555.779,2354.172,2555.136,2352.91Z" transform="translate(-2537.016 -2323.439)" fill="#ffa07f"/>
        <g id="Group_3484" data-name="Group 3484" transform="translate(0 10.132)">
          <path id="Path_4392" data-name="Path 4392" d="M2557.675,2376.033c-.353-.368-.707-.756-1.062-1.155-1.122-1.306-2.633-3.215-3.381-4.169-3.371-4.473-6.085-8.918-6.085-8.918.381.645.473,2.528,4.821,9.413,1.144,1.811-8.157,3.38-10.518-3.135-1.162-3.208-4.872-15.374-4.872-15.374-1.358.007.16,16.52.16,16.52s1.758,10.918,5.192,10.915l15.559-.013C2558.744,2378.031,2558.793,2377.067,2557.675,2376.033Z" transform="translate(-2536.013 -2352.695)" fill="#735b4c"/>
          <path id="Path_4393" data-name="Path 4393" d="M2536.917,2379.659c-.1-.517-.15-.829-.15-.829s-.6-6.573-.709-11.427C2538.331,2371.062,2538.248,2375.518,2536.917,2379.659Z" transform="translate(-2536.042 -2362.309)" fill="#564439"/>
          <path id="Path_4394" data-name="Path 4394" d="M2577.67,2406.29c.4.508.9,1.133,1.413,1.769a13.115,13.115,0,0,1-6.344,2.211C2574.833,2409.805,2577.137,2408.477,2577.67,2406.29Z" transform="translate(-2560.02 -2387.729)" fill="#9c806e"/>
          <path id="Path_4395" data-name="Path 4395" d="M2544.274,2419.006c4.777,2.514,11.315,2.514,17.1.754a3.852,3.852,0,0,0-.031-1.92c.142.153.284.306.425.454,1.119,1.034,1.069,2-.187,4.084l-15.559.013c-1.631,0-2.883-2.46-3.749-5.045A6.873,6.873,0,0,0,2544.274,2419.006Z" transform="translate(-2540.104 -2394.956)" fill="#564439"/>
        </g>
      </g>
      <g id="Group_3487" data-name="Group 3487" transform="translate(14.481 311.689)">
        <path id="Path_4396" data-name="Path 4396" d="M2421.609,2352.91c.765-1.5,5.077-4.876,6.808-9.764.986-2.785,1.726-14.937,2.73-16.422,1.674-2.476,3.784-2.385,7.188-3.285.68,2.933.627,14.345.862,17.426C2433.889,2362.829,2420.967,2354.172,2421.609,2352.91Z" transform="translate(-2417.268 -2323.439)" fill="#ffa07f"/>
        <g id="Group_3486" data-name="Group 3486" transform="translate(0 10.132)">
          <path id="Path_4397" data-name="Path 4397" d="M2409.915,2376.033c.353-.368.708-.756,1.061-1.155,1.123-1.306,2.633-3.215,3.381-4.169,3.372-4.473,6.086-8.918,6.086-8.918-.38.645-.473,2.528-4.821,9.413-1.144,1.811,8.157,3.38,10.518-3.135,1.163-3.208,4.872-15.374,4.872-15.374,1.358.007-.16,16.52-.16,16.52s-1.758,10.918-5.192,10.915l-15.559-.013C2408.847,2378.031,2408.8,2377.067,2409.915,2376.033Z" transform="translate(-2409.116 -2352.695)" fill="#735b4c"/>
          <path id="Path_4398" data-name="Path 4398" d="M2469.676,2379.659c.1-.517.15-.829.15-.829s.6-6.573.709-11.427C2468.261,2371.062,2468.344,2375.518,2469.676,2379.659Z" transform="translate(-2448.089 -2362.309)" fill="#564439"/>
          <path id="Path_4399" data-name="Path 4399" d="M2420.34,2406.29c-.4.508-.9,1.133-1.413,1.769a13.114,13.114,0,0,0,6.344,2.211C2423.178,2409.805,2420.873,2408.477,2420.34,2406.29Z" transform="translate(-2415.53 -2387.729)" fill="#9c806e"/>
          <path id="Path_4400" data-name="Path 4400" d="M2427.407,2419.006c-4.777,2.514-11.315,2.514-17.1.754a3.853,3.853,0,0,1,.03-1.92c-.141.153-.283.306-.425.454-1.118,1.034-1.068,2,.187,4.084l15.559.013c1.631,0,2.883-2.46,3.749-5.045A6.873,6.873,0,0,1,2427.407,2419.006Z" transform="translate(-2409.116 -2394.956)" fill="#564439"/>
        </g>
      </g>
      <g id="Group_3502" data-name="Group 3502" transform="translate(0)">
        <g id="Group_3488" data-name="Group 3488" transform="translate(32.365 36.186)">
          <rect id="Rectangle_902" data-name="Rectangle 902" width="14.947" height="27.573" transform="translate(14.947 27.735) rotate(180)" fill="#ffa07f"/>
          <path id="Path_4401" data-name="Path 4401" d="M2460.757,1527.942H2475.7v10c-1.954,2.694-4.6,4.472-7.521,4.484-2.9-.02-5.5-1.768-7.426-4.422Z" transform="translate(-2460.757 -1527.942)" fill="#fa704e"/>
        </g>
        <g id="Group_3501" data-name="Group 3501">
          <g id="Group_3489" data-name="Group 3489" transform="translate(0 14.166)">
            <path id="Path_4402" data-name="Path 4402" d="M2391.743,1465.277a22.953,22.953,0,0,0-12.589-.074,17.2,17.2,0,0,0-10.031,7.013c-3.441,5.472-1.648,12.4,2.461,17.188a6.847,6.847,0,0,0,.433,1.813c1.108,2.843,4,4.993,6.9,6.287a19.6,19.6,0,0,0,9.88,1.868,12.031,12.031,0,0,0,8.642-4.749c2.678-3.821,2.3-9.881-2.655-12.161Z" transform="translate(-2367.305 -1464.359)" fill="#8b7351"/>
            <path id="Path_4403" data-name="Path 4403" d="M2378.652,1517.375c.115.141.231.281.349.419a6.876,6.876,0,0,0,.335,1.534,16.87,16.87,0,0,1,1.078-2.079c2.946-4.7,7.792-7.259,12.507-9.458C2387.209,1509.026,2381.557,1512.128,2378.652,1517.375Z" transform="translate(-2374.722 -1492.75)" fill="#68563d"/>
            <path id="Path_4404" data-name="Path 4404" d="M2415.7,1531.422a8.147,8.147,0,0,1,0-9.064c-2.515,2.381-4.335,6.251-3.079,9.593a9.555,9.555,0,0,0,6.407,5.212,13.023,13.023,0,0,0,4.56-1.67A11.183,11.183,0,0,1,2415.7,1531.422Z" transform="translate(-2396.664 -1502.271)" fill="#a28f74"/>
            <path id="Path_4405" data-name="Path 4405" d="M2413.41,1508.8c-7.075,3.3-11.374,11.441-8.083,18.648a20.9,20.9,0,0,0,3.5.852c-1.84-1.933-2.239-4.937-1.844-7.728a9.694,9.694,0,0,1,1.675-4.9,24.727,24.727,0,0,1,4.318-6.075C2413.114,1509.319,2413.258,1509.054,2413.41,1508.8Z" transform="translate(-2391.424 -1493.406)" fill="#d6c2a7"/>
            <path id="Path_4406" data-name="Path 4406" d="M2391.912,1466.2l-.163-.919a22.952,22.952,0,0,0-12.589-.074,17.2,17.2,0,0,0-10.031,7.013,11.949,11.949,0,0,0-1.811,6.71,17.9,17.9,0,0,1,3.788-5.8A26.469,26.469,0,0,1,2391.912,1466.2Z" transform="translate(-2367.311 -1464.359)" fill="#68563d"/>
            <path id="Path_4407" data-name="Path 4407" d="M2402.037,1468.978c-.047-.283-.09-.567-.127-.852l-.062.007a15.509,15.509,0,0,0-7.041-.212,16.174,16.174,0,0,0-7.71,3.771,14.573,14.573,0,0,0-4.3,7.037,12.347,12.347,0,0,0,.35,7.742,12.324,12.324,0,0,1-.155-7.708,14.358,14.358,0,0,1,4.366-6.806,15.613,15.613,0,0,1,7.517-3.48,15.157,15.157,0,0,1,5.13-.02,13.5,13.5,0,0,0-6.726,4.02,13.276,13.276,0,0,0-3.374,9.04,13.071,13.071,0,0,1,3.674-8.76,12.894,12.894,0,0,1,8.347-3.817Z" transform="translate(-2377.136 -1466.489)" fill="#a28f74"/>
          </g>
          <g id="Group_3490" data-name="Group 3490" transform="translate(50.24 25.735)">
            <path id="Path_4408" data-name="Path 4408" d="M2512.37,1506.335s2.305-1.309,2.761-2.16a15.731,15.731,0,0,0,1.525-5.34c.005-1.887-3.173-.881-4.264-.013Z" transform="translate(-2512.37 -1497.765)" fill="#f29879"/>
            <path id="Path_4409" data-name="Path 4409" d="M2516.53,1504.959a.1.1,0,0,1-.049-.013.07.07,0,0,1-.024-.106,6.16,6.16,0,0,0,1.327-3.615.724.724,0,0,0-.146-.548.74.74,0,0,0-.751-.091,2.062,2.062,0,0,0-.67.493.1.1,0,0,1-.125.007.069.069,0,0,1-.008-.108,2.2,2.2,0,0,1,.73-.532.942.942,0,0,1,.959.132.844.844,0,0,1,.189.65,6.3,6.3,0,0,1-1.357,3.7A.093.093,0,0,1,2516.53,1504.959Z" transform="translate(-2514.782 -1499.471)" fill="#bd6142"/>
          </g>
          <path id="Path_4410" data-name="Path 4410" d="M2466.965,1453.986a8.929,8.929,0,0,1,1.2,5.108c-.3,3.359-.885,8.55-.89,10.078a39.875,39.875,0,0,0,1.309,8.26,7.177,7.177,0,0,1,.525,2.864,5.648,5.648,0,0,1-.985,2.074l-.506.771a26.314,26.314,0,0,1-4.746,5.215,8.832,8.832,0,0,1-6.555,1.985c-2.132-.334-11.931-5.852-13.314-10.224a33.771,33.771,0,0,1-1.624-11.711c.012-4.081.22-13.049,2.5-15.316S2464.409,1449.277,2466.965,1453.986Z" transform="translate(-2415.722 -1441.407)" fill="#ffa07f"/>
          <g id="Group_3491" data-name="Group 3491" transform="translate(20.914 23.417)">
            <path id="Path_4411" data-name="Path 4411" d="M2433.417,1502.665s-3.1-1.786-3.709-2.938c-.38-.719-2.022-4.672-2.014-7.219s4.289-1.163,5.755.017Z" transform="translate(-2427.693 -1491.073)" fill="#ffa07f"/>
            <path id="Path_4412" data-name="Path 4412" d="M2433.892,1500.8a.131.131,0,0,0,.066-.017.094.094,0,0,0,.034-.143,8.313,8.313,0,0,1-1.762-4.889.982.982,0,0,1,.2-.739,1,1,0,0,1,1.014-.117,2.783,2.783,0,0,1,.9.671.134.134,0,0,0,.169.01.093.093,0,0,0,.011-.145,2.962,2.962,0,0,0-.982-.724,1.269,1.269,0,0,0-1.3.17,1.138,1.138,0,0,0-.26.876,8.507,8.507,0,0,0,1.8,5A.126.126,0,0,0,2433.892,1500.8Z" transform="translate(-2430.502 -1493.386)" fill="#bd6142"/>
          </g>
          <g id="Group_3499" data-name="Group 3499" transform="translate(34.244 21.134)">
            <path id="Path_4413" data-name="Path 4413" d="M2466.552,1487.892a5.677,5.677,0,0,1,6.728-1.443c.356.158.355-.85,0-1.25h0a1.993,1.993,0,0,0-1.176-.72,8.466,8.466,0,0,0-5.171,1.99,3.165,3.165,0,0,0-.694,1.119h0C2466.093,1488,2466.226,1488.124,2466.552,1487.892Z" transform="translate(-2466.182 -1484.479)" fill="#1a1a1a"/>
            <path id="Path_4414" data-name="Path 4414" d="M2506.014,1489.094c-.513-1.28-2.9-2.16-5.342-1.29-.306.108-.236-.751.071-1.1h0a1.723,1.723,0,0,1,.991-.631,6.093,6.093,0,0,1,4.053,1.767,2.627,2.627,0,0,1,.493.989h0C2506.378,1489.189,2506.263,1489.3,2506.014,1489.094Z" transform="translate(-2488.599 -1485.52)" fill="#1a1a1a"/>
            <g id="Group_3494" data-name="Group 3494" transform="translate(13.333 5.913)">
              <g id="Group_3493" data-name="Group 3493" transform="translate(0 0)">
                <g id="Group_3492" data-name="Group 3492">
                  <rect id="Rectangle_903" data-name="Rectangle 903" width="3.516" height="1.784" rx="0.892" transform="translate(0 3.516) rotate(-89.828)" fill="#1a1a1a"/>
                </g>
              </g>
            </g>
            <g id="Group_3497" data-name="Group 3497" transform="translate(2.979 5.994)">
              <g id="Group_3496" data-name="Group 3496" transform="translate(0 0)">
                <g id="Group_3495" data-name="Group 3495" transform="translate(0)">
                  <rect id="Rectangle_904" data-name="Rectangle 904" width="3.516" height="1.784" rx="0.892" transform="translate(0 3.516) rotate(-89.828)" fill="#1a1a1a"/>
                </g>
              </g>
            </g>
            <g id="Group_3498" data-name="Group 3498" transform="translate(7.764 4.54)">
              <path id="Path_4415" data-name="Path 4415" d="M2490.3,1507.914l2.233.944a.78.78,0,0,0,.3.062.8.8,0,0,0,.658-.344l1.031-1.5a.794.794,0,0,0-.138-1.057,7.029,7.029,0,0,1-1.842-2.724,6.605,6.605,0,0,1,.445-5.3.271.271,0,0,0-.468-.274,5.14,5.14,0,0,0-1.334,2.189c-.171.727.395,3.712,1.3,6a1.333,1.333,0,0,1-.979,1.7A5.991,5.991,0,0,0,2490.3,1507.914Z" transform="translate(-2489.715 -1497.589)" fill="#db7d63"/>
              <path id="Path_4416" data-name="Path 4416" d="M2491.729,1508.92a.779.779,0,0,1-.3-.062l-2.657-1.124a.271.271,0,1,1,.211-.5l2.657,1.123a.252.252,0,0,0,.305-.089l1.031-1.5a.253.253,0,0,0-.042-.338,7.574,7.574,0,0,1-1.992-2.93,7.038,7.038,0,0,1,.478-5.778.271.271,0,0,1,.468.274,6.6,6.6,0,0,0-.445,5.3,7.024,7.024,0,0,0,1.842,2.724.793.793,0,0,1,.137,1.057l-1.031,1.5A.8.8,0,0,1,2491.729,1508.92Z" transform="translate(-2488.601 -1497.589)" fill="#bd6142"/>
            </g>
            <path id="Path_4417" data-name="Path 4417" d="M2468.629,1517.481c0,.4,1.156.731,2.583.736s2.587-.318,2.588-.72-1.155-.731-2.583-.736S2468.63,1517.079,2468.629,1517.481Z" transform="translate(-2467.781 -1505.581)" fill="#ed766d"/>
            <path id="Path_4418" data-name="Path 4418" d="M2504.27,1517.585c0,.4.941.73,2.1.734s2.107-.32,2.109-.721-.941-.731-2.1-.734S2504.271,1517.183,2504.27,1517.585Z" transform="translate(-2491.079 -1505.648)" fill="#ed766d"/>
            <path id="Path_4419" data-name="Path 4419" d="M2483.25,1532.307a7.883,7.883,0,0,1-10.128-2.84c-.2-.307.292-.589.49-.284a7.3,7.3,0,0,0,9.353,2.635c.328-.155.614.334.285.49Z" transform="translate(-2470.688 -1513.615)" fill="#c24848"/>
          </g>
          <g id="Group_3500" data-name="Group 3500" transform="translate(20.79)">
            <path id="Path_4420" data-name="Path 4420" d="M2494.919,1440.645a17.626,17.626,0,0,1-7.094,11.483,7.607,7.607,0,0,0-1.082-7.521,10.637,10.637,0,0,0-7.96-3.765c-2.426-.1-4.867.449-7.273.121-2.145-.292-5.924-3.149-6.86-5.481a2.611,2.611,0,0,0,1.41-.536,7.239,7.239,0,0,0,1.743-2.488,18.72,18.72,0,0,1,5.314-6.594,13.789,13.789,0,0,1,15.051-.343,15.378,15.378,0,0,1,6.753,15.122Z" transform="translate(-2451.727 -1423.457)" fill="#ba996c"/>
            <path id="Path_4421" data-name="Path 4421" d="M2495.934,1471.531a11.29,11.29,0,0,1,.49,5.272,7.9,7.9,0,0,0-1.611-4.153,10.636,10.636,0,0,0-7.96-3.765c-2.426-.1-4.867.449-7.274.121a7.246,7.246,0,0,1-2.585-1.07,10,10,0,0,0,1.324-.236C2484.366,1466.209,2493.437,1464.473,2495.934,1471.531Z" transform="translate(-2459.796 -1451.501)" fill="#8b7351"/>
            <path id="Path_4422" data-name="Path 4422" d="M2428.631,1483.651a14.638,14.638,0,0,1,.184-2.24c.581-3.637,1.493-10.61,3.385-13.771,2.714-4.534,12.8-13.719,12.8-13.719a4.681,4.681,0,0,0-.87-4.9,4.149,4.149,0,0,0-3.826-.508,47.423,47.423,0,0,0-11.95,21.824,29.375,29.375,0,0,0-.477,13.117,19.335,19.335,0,0,0,1.152,3.537A13.421,13.421,0,0,1,2428.631,1483.651Z" transform="translate(-2427.336 -1439.678)" fill="#ba996c"/>
            <path id="Path_4423" data-name="Path 4423" d="M2434.8,1454.33s-1.75-13.731-1.087-18.148,9.658-10.889,18.39-10.863,13.705,5.032,13.235,15.246c0,0-15.422-11.873-21.95-3.445A50.032,50.032,0,0,0,2434.8,1454.33Z" transform="translate(-2431.404 -1424.674)" fill="#ba996c"/>
            <path id="Path_4424" data-name="Path 4424" d="M2482.413,1424.989c3.414,1.509-1.374,6.9-3.061,9.4,2.452-2.708,6.229-5.588,7.51-9.59a13.1,13.1,0,0,0-1.453.477A18.914,18.914,0,0,0,2482.413,1424.989Z" transform="translate(-2461.337 -1424.335)" fill="#8b7351"/>
            <path id="Path_4425" data-name="Path 4425" d="M2440.04,1435.908c-3.507,2.182-5.993,4.953-6.33,7.2a22.589,22.589,0,0,0-.144,3.42A22.226,22.226,0,0,1,2440.04,1435.908Z" transform="translate(-2431.404 -1431.596)" fill="#8b7351"/>
            <path id="Path_4426" data-name="Path 4426" d="M2516.2,1442.792c-5.541-3.458-11.379-4.965-17.433-3.048,8.814-1.153,14.311,1.33,18.5,6.85a15.8,15.8,0,0,0-.989-3.839Z" transform="translate(-2474.029 -1433.554)" fill="#d6c2a7"/>
            <path id="Path_4427" data-name="Path 4427" d="M2477.987,1452.649a4.241,4.241,0,0,0,1.941,1.036,6.375,6.375,0,0,0,2.186.137,43.988,43.988,0,0,0,4.382-.924,21.06,21.06,0,0,1,9.1-.008,15.544,15.544,0,0,1,2.2.719c.362.135.7.318,1.054.478a10.9,10.9,0,0,1,1.01.583,9.374,9.374,0,0,1,1.793,1.5,7.457,7.457,0,0,1,.726.935,6.348,6.348,0,0,1,.536,1.063,5.465,5.465,0,0,1,.342,2.336,7.061,7.061,0,0,1-.565,2.249,17.151,17.151,0,0,1-2.425,3.827,20.583,20.583,0,0,0,2.048-3.97,5.707,5.707,0,0,0,.006-4.2,7.15,7.15,0,0,0-2.879-3.089c-.307-.191-.625-.365-.948-.53-.334-.147-.657-.318-1-.443a14.9,14.9,0,0,0-2.088-.665,17.994,17.994,0,0,0-2.164-.389,21.33,21.33,0,0,0-2.2-.127,26.1,26.1,0,0,0-4.422.355,34.955,34.955,0,0,1-4.474.7,6.466,6.466,0,0,1-2.273-.321A4.122,4.122,0,0,1,2477.987,1452.649Z" transform="translate(-2460.445 -1442.373)" fill="#8b7351"/>
            <path id="Path_4428" data-name="Path 4428" d="M2499.421,1429.165a10.534,10.534,0,0,1,4-1.069,11.812,11.812,0,0,1,2.1.035,11.631,11.631,0,0,1,4.026,1.187,11.8,11.8,0,0,1,1.782,1.11,10.5,10.5,0,0,1,2.774,3.068,17.2,17.2,0,0,0-3.137-2.54,14.97,14.97,0,0,0-1.755-.937,14.32,14.32,0,0,0-3.788-1.119,15.018,15.018,0,0,0-1.982-.166A17.129,17.129,0,0,0,2499.421,1429.165Z" transform="translate(-2474.456 -1426.468)" fill="#8b7351"/>
            <path id="Path_4429" data-name="Path 4429" d="M2512.081,1463.455a11.223,11.223,0,0,1,3.693-.678,11.519,11.519,0,0,1,3.761.546,10.9,10.9,0,0,1,1.758.763,9.593,9.593,0,0,1,1.575,1.087,8.027,8.027,0,0,1,2.25,3.011,11.54,11.54,0,0,0-4.155-3.469,11.207,11.207,0,0,0-1.661-.679,14.641,14.641,0,0,0-3.543-.675A20.912,20.912,0,0,0,2512.081,1463.455Z" transform="translate(-2482.731 -1449.157)" fill="#8b7351"/>
            <path id="Path_4430" data-name="Path 4430" d="M2455.056,1431.744a10.2,10.2,0,0,0-6.66,1.01,14.491,14.491,0,0,0-5.1,4.412,33.809,33.809,0,0,0-3.447,5.959c-.494,1.045-.967,2.121-1.556,3.144a8.686,8.686,0,0,1-2.262,2.683,9.922,9.922,0,0,0,1.9-2.87c.493-1.041.877-2.134,1.328-3.216s.94-2.149,1.484-3.195a24.07,24.07,0,0,1,1.894-3,16.472,16.472,0,0,1,2.443-2.6,12.328,12.328,0,0,1,3.037-1.892,10.59,10.59,0,0,1,3.448-.888A8.277,8.277,0,0,1,2455.056,1431.744Z" transform="translate(-2433.022 -1428.557)" fill="#d6c2a7"/>
          </g>
        </g>
      </g>
      <path id="Path_4431" data-name="Path 4431" d="M2462.355,1580.053c0,3.137-12.292,24.933-19.583,24.933s-19.773-21.663-19.773-24.8,7.289-5.491,19.261-5.491C2454.848,1574.7,2462.355,1576.917,2462.355,1580.053Z" transform="translate(-2403.711 -1522.318)" fill="#ffa07f"/>
      <g id="Group_3503" data-name="Group 3503" transform="translate(18.133 89.334)">
        <path id="Path_4432" data-name="Path 4432" d="M2459.151,1723a213.237,213.237,0,0,1-1.667-41.6h-36.153a213.2,213.2,0,0,1-1.667,41.6s5.5,3.333,19.744,3.333S2459.151,1723,2459.151,1723Z" transform="translate(-2419.663 -1681.403)" fill="#282d38"/>
      </g>
      <path id="Path_4433" data-name="Path 4433" d="M2419.626,1864.46s-1.119,55.59-1.119,64.7-13.991,6.613-18.462,1.664c-1.793-3.723-7.725-72.259-7.725-76.249C2392.32,1848.792,2418.429,1852.368,2419.626,1864.46Z" transform="translate(-2383.657 -1703.499)" fill="#87756b"/>
      <path id="Path_4434" data-name="Path 4434" d="M2482.181,1864.892s8.605,55.59,8.605,64.7,13.99,6.613,18.462,1.664c1.793-3.723.239-72.259.239-76.249C2509.487,1849.224,2483.378,1852.8,2482.181,1864.892Z" transform="translate(-2442.396 -1703.781)" fill="#87756b"/>
      <g id="Group_3509" data-name="Group 3509" transform="translate(8.663 115.632)">
        <path id="Path_4435" data-name="Path 4435" d="M2433.01,2062.3l2.992,90.567s-7.073,5.278-12.7-.347c0,0-7.761-80.529-8.756-88.555S2430.923,2050.672,2433.01,2062.3Z" transform="translate(-2406.823 -1952.263)" fill="#87756b"/>
        <path id="Path_4436" data-name="Path 4436" d="M2506.4,2057.507l8.788,92.6s7.073,5.278,12.7-.347c0,0-1.141-83.762-2.84-92.484C2523.5,2049.333,2508.488,2045.883,2506.4,2057.507Z" transform="translate(-2466.891 -1948.645)" fill="#87756b"/>
        <g id="Group_3508" data-name="Group 3508" transform="translate(0 3.292)">
          <path id="Path_4437" data-name="Path 4437" d="M2403.642,1766.842c-4.059,9.19-6.1,18.326-10.771,27.4-.971,1.89-1.146,13.724,3.687,16.194,5.815,3.08,21.035,6.186,21.057,6.13q3.918.029,7.838,0c.022.056,15.242-3.05,21.057-6.13,4.833-2.47,4.658-14.3,3.687-16.194-4.667-9.071-6.712-18.207-10.771-27.4Q2421.544,1767.555,2403.642,1766.842Z" transform="translate(-2392.32 -1766.842)" fill="#87756b"/>
          <path id="Path_4438" data-name="Path 4438" d="M2451.133,1774.281c-.894-2.476-1.842-4.955-2.939-7.439q-17.882.713-35.785,0c-2.653,6.007-4.449,11.991-6.676,17.949a78.767,78.767,0,0,0,5.2-6.647C2424.179,1777.879,2438.664,1779.848,2451.133,1774.281Z" transform="translate(-2401.088 -1766.842)" fill="#655850"/>
          <g id="Group_3507" data-name="Group 3507" transform="translate(5.362 4.799)">
            <g id="Group_3504" data-name="Group 3504" transform="translate(0 1.276)">
              <path id="Path_4439" data-name="Path 4439" d="M2416.292,1785.187l6.359.684c.264.028.8,0,.988.253.127.169.01.423-.053.593-.1.282-.225.558-.337.836l-1.237,3.054-2.423,5.986c-.181.448-.361.9-.543,1.344-.157.381-.333.854-.739,1.022a2.642,2.642,0,0,1-1.451-.088l-1.655-.335-7-1.416c-.5-.1-.545.7-.054.8l6.872,1.39,1.718.348a3.865,3.865,0,0,0,1.6.126c1-.227,1.323-1.276,1.669-2.131l2.67-6.6,1.335-3.3a3.72,3.72,0,0,0,.455-1.522,1.1,1.1,0,0,0-.674-.95,5.2,5.2,0,0,0-1.606-.271l-1.927-.207-3.918-.422c-.5-.054-.557.747-.054.8Z" transform="translate(-2407.804 -1784.384)" fill="#443b36"/>
              <path id="Path_4440" data-name="Path 4440" d="M2421.046,1798.119l10.2-1.7c.5-.083.342-.871-.156-.788l-10.2,1.7c-.5.083-.342.871.156.788Z" transform="translate(-2416.158 -1791.733)" fill="#443b36"/>
            </g>
            <g id="Group_3505" data-name="Group 3505" transform="translate(32.507 1.214)">
              <path id="Path_4441" data-name="Path 4441" d="M2509.922,1785.268l-6.386-.236c-.265-.01-.8-.111-1.01.109-.146.15-.061.418-.019.6.069.294.156.585.234.877q.428,1.6.858,3.206.841,3.141,1.681,6.282c.126.47.25.941.378,1.41a1.731,1.731,0,0,0,.609,1.119,2.64,2.64,0,0,0,1.449.121l1.681-.094,7.109-.4c.5-.029.456.774-.043.8l-6.98.391-1.745.1a3.861,3.861,0,0,1-1.606-.106c-.966-.369-1.158-1.455-1.4-2.353l-1.853-6.923-.926-3.462a3.767,3.767,0,0,1-.267-1.574,1.067,1.067,0,0,1,.782-.845,5.173,5.173,0,0,1,1.625-.038l1.935.072,3.935.145a.4.4,0,0,1-.043.8Z" transform="translate(-2501.665 -1784.202)" fill="#443b36"/>
              <path id="Path_4442" data-name="Path 4442" d="M2514.68,1797.337l-9.908-3.148a.4.4,0,0,1,.25-.759l9.907,3.148a.4.4,0,0,1-.25.759Z" transform="translate(-2503.525 -1790.221)" fill="#443b36"/>
            </g>
            <g id="Group_3506" data-name="Group 3506" transform="translate(22.279)">
              <path id="Path_4443" data-name="Path 4443" d="M2481.314,1781.026q-.218,5.546-.191,11.1c.024,3.852.138,7.7.276,11.553q.144,3.995.31,7.99c.021.517.8.427.78-.088-.177-4.4-.358-8.808-.476-13.214-.1-3.62-.142-7.242-.094-10.863q.042-3.177.171-6.351c.02-.511-.757-.643-.776-.127Z" transform="translate(-2478.007 -1780.698)" fill="#443b36"/>
              <path id="Path_4444" data-name="Path 4444" d="M2472.2,1864.655a10.076,10.076,0,0,0,4.791,3.931c.472.184.791-.55.316-.734a9.355,9.355,0,0,1-4.478-3.676c-.279-.433-.906.046-.629.479Z" transform="translate(-2472.134 -1835.154)" fill="#443b36"/>
            </g>
          </g>
        </g>
        <path id="Path_4445" data-name="Path 4445" d="M2459.056,1763.315a252.947,252.947,0,0,1-39.7,0c.122-1.544.243-4.434.365-5.979a248.431,248.431,0,0,0,38.972,0C2458.813,1758.881,2458.935,1761.771,2459.056,1763.315Z" transform="translate(-2409.992 -1757.336)" fill="#ad4537"/>
      </g>
      <g id="Group_3510" data-name="Group 3510" transform="translate(55.331 55.727)">
        <path id="Path_4446" data-name="Path 4446" d="M2530.116,1584.826c2.405-1.269,5.975-.351,9.773,8.414s12.74,37.839,13.577,42.083-6.64,9.409-9.481,4.25-14.211-35.229-15.724-39.407S2526.038,1586.978,2530.116,1584.826Z" transform="translate(-2527.069 -1584.366)" fill="#ffa07f"/>
      </g>
      <g id="Group_3511" data-name="Group 3511" transform="translate(3.257 56.249)">
        <path id="Path_4447" data-name="Path 4447" d="M2391.545,1586.137c-2.548-.943-5.953.322-8.526,9.076s-6.049,38.447-6.3,42.576,6.727,8.853,8.839,3.634,8.961-36.758,9.894-40.9S2395.867,1587.736,2391.545,1586.137Z" transform="translate(-2376.709 -1585.873)" fill="#f59a7a"/>
      </g>
      <g id="Group_3512" data-name="Group 3512" transform="translate(12.103 53.237)">
        <path id="Path_4448" data-name="Path 4448" d="M2421.175,1620.96c-7.537,0-10.828-2.941-13.5-7.787s-3.2-10.551-3.5-16.075c-.271-4.962-.42-10.035-1.921-14.746a9.4,9.4,0,0,1,3.481-2.475c1.242-.319,10.21-2.553,10.21-2.553s5.55,28.492,12.666,28.492,13.353-28.643,13.353-28.643l9.6,2.59c1.992.569,2.39,1.558,3.369,2.588-1.5,4.71-1.651,9.783-1.922,14.746-.3,5.524-.834,11.229-3.5,16.075s-5.513,7.787-13.5,7.787Z" transform="translate(-2402.252 -1577.175)" fill="#282d38"/>
        <path id="Path_4449" data-name="Path 4449" d="M2411.713,1665.085a23.648,23.648,0,0,0,2.149,5.553c2.082,3.778,4.541,6.4,9.095,7.369A27.019,27.019,0,0,1,2411.713,1665.085Z" transform="translate(-2408.436 -1634.639)" fill="#14171c"/>
        <path id="Path_4450" data-name="Path 4450" d="M2512.054,1684.8c4.861-.918,7.1-3.568,9.228-7.429a21.125,21.125,0,0,0,.96-1.988A33.8,33.8,0,0,1,2512.054,1684.8Z" transform="translate(-2474.027 -1641.368)" fill="#14171c"/>
      </g>
      <g id="Group_3515" data-name="Group 3515" transform="translate(4.177 93.608)">
        <path id="Path_4451" data-name="Path 4451" d="M2382.9,1719.945c3.995-1.852,15.34-1.877,21.756-1.272s19.109-.747,28.074-1.293c4.71-.287,3.651,5.791,3.651,5.791s-15.145,3.293-25.089,4.774c-13.149,1.959-25.318,3.091-29.206,1.224C2380.25,1728.287,2376.622,1722.855,2382.9,1719.945Z" transform="translate(-2379.365 -1709.188)" fill="#f59a7a"/>
        <g id="Group_3514" data-name="Group 3514" transform="translate(48.399)">
          <path id="Path_4452" data-name="Path 4452" d="M2538.582,1694.338c.475,1.185-2.269,1.623-3,2.414a31.951,31.951,0,0,1-4.254,3.839,6.019,6.019,0,0,1-2.509,1.279c-.754.129-2.344.048-2.139-.58a7.1,7.1,0,0,1,1.934-3.207c.763-.539,1.68-1.1,2.424-1.663a36.249,36.249,0,0,1,3.187-2.277,11.731,11.731,0,0,1,3.992-.322A.968.968,0,0,1,2538.582,1694.338Z" transform="translate(-2524.047 -1693.745)" fill="#ed9576"/>
          <g id="Group_3513" data-name="Group 3513" transform="translate(0 1.094)">
            <path id="Path_4453" data-name="Path 4453" d="M2526.279,1704.212c2.924-1.042,3.607,1.73,4.65,4.654s1.164,4.251-1.76,5.294-8.206,3.683-9.917-1.113C2518.209,1710.123,2523.355,1705.255,2526.279,1704.212Z" transform="translate(-2519.115 -1701.535)" fill="#ffa07f"/>
            <path id="Path_4454" data-name="Path 4454" d="M2549.033,1719.021c1.2-.429,4.254-2.182,4.795-2.375s3.232-3.152,2.883-4.13-.219-.741-.805-.41-6.507,3.577-6.752,3.664S2547.924,1719.417,2549.033,1719.021Z" transform="translate(-2538.334 -1706.653)" fill="#ffa07f"/>
            <path id="Path_4455" data-name="Path 4455" d="M2537.967,1699.808c1.613-.67,4.2-1.755,4.749-1.95s4.955-1.586,5.3-.607c.284.8.057,1.348-.921,1.7s-5.379,2.872-6.963,3.241S2537.423,1700.034,2537.967,1699.808Z" transform="translate(-2531.347 -1696.905)" fill="#ffa07f"/>
            <path id="Path_4456" data-name="Path 4456" d="M2540.076,1704.973c1.613-.67,9.107-4.741,9.866-3.242a1.352,1.352,0,0,1-.84,1.926c-.978.349-5.379,2.872-6.962,3.241S2539.531,1705.2,2540.076,1704.973Z" transform="translate(-2532.72 -1699.844)" fill="#ffa07f"/>
            <path id="Path_4457" data-name="Path 4457" d="M2542.215,1709.924c1.613-.67,9.071-5.12,9.621-3.835.284.8.916,1.622-.3,2.33-1.068.622-5.4,3.84-6.981,4.209S2541.671,1710.151,2542.215,1709.924Z" transform="translate(-2534.133 -1702.757)" fill="#ffa07f"/>
            <path id="Path_4458" data-name="Path 4458" d="M2560.522,1712.006a19.956,19.956,0,0,1-5.128,4.061c-.1.047-.035.2.062.156a17.44,17.44,0,0,0,4.175-3.1c.347-.331.686-.669,1.023-1.01.076-.077-.057-.18-.132-.1Z" transform="translate(-2542.798 -1706.759)" fill="#c2826c"/>
            <path id="Path_4459" data-name="Path 4459" d="M2558.106,1706.108l-1.72,1.107c-.683.439-1.37.873-2.049,1.318-.012.008-.07.041-.027.018-.084.045-.173.083-.26.124l-1.376.655c-.1.046-.036.2.062.156l1.271-.6c.132-.063.271-.118.4-.192.219-.13.43-.277.645-.415l2.5-1.606.663-.427c.09-.058-.011-.192-.1-.134Z" transform="translate(-2541.019 -1702.911)" fill="#c2826c"/>
            <path id="Path_4460" data-name="Path 4460" d="M2555.611,1700.916q-1,.467-2,.92c-.435.2-.872.392-1.313.573s-.887.36-1.316.58q-.6.309-1.188.649c-.093.054.008.188.1.134a17.841,17.841,0,0,1,2.36-1.165c.893-.355,1.765-.769,2.637-1.173q.391-.181.782-.364c.1-.046.036-.2-.062-.156Z" transform="translate(-2539.144 -1699.521)" fill="#c2826c"/>
          </g>
        </g>
        <path id="Path_4461" data-name="Path 4461" d="M2431.146,1726.994a85.491,85.491,0,0,1-8.211-6.784,97.851,97.851,0,0,1-13.7.256c-6.416-.6-17.761-.579-21.756,1.273a9.446,9.446,0,0,0-1.109.6,7.736,7.736,0,0,0,6.006,3.658c3.942.789,7.687-1.182,11.629-.591a28.452,28.452,0,0,1,11.808,3.776c.535.118,1.072.225,1.61.314C2421.762,1728.81,2426.828,1727.853,2431.146,1726.994Z" transform="translate(-2383.941 -1710.982)" fill="#e69072"/>
      </g>
      <g id="Group_3517" data-name="Group 3517" transform="translate(3.95 91.231)">
        <path id="Path_4462" data-name="Path 4462" d="M2489.6,1713.554c-3.995-1.852-15.34-1.877-21.755-1.272s-22.1-3.1-31.06-3.651c-4.71-.287-.065,6.482-.065,6.482s14.545,4.959,24.489,6.44c13.149,1.959,25.318,3.09,29.206,1.224C2492.252,1721.9,2495.88,1716.464,2489.6,1713.554Z" transform="translate(-2415.295 -1701.093)" fill="#ffa07f"/>
        <g id="Group_3516" data-name="Group 3516">
          <path id="Path_4463" data-name="Path 4463" d="M2401.87,1691.026c-.254-1.8-2.924-3.087-3.6-3.154-1.12-.11-4.26-1.1-5.127-.981s-6.845.273-7.376.979,1.561,2.558,6.452,1.867c1.919-.271,7.107,2.765,7.107,2.765S2402.08,1692.512,2401.87,1691.026Z" transform="translate(-2383.268 -1686.881)" fill="#ffa07f"/>
          <path id="Path_4464" data-name="Path 4464" d="M2396.2,1701.634s-6.564.561-7.609,1.214-9.041,2.162-9.679,3.009.307,1.725,1.979,1.489,8.831-1.441,8.831-1.441,5.533-.146,6.224-1.065S2397.007,1701.559,2396.2,1701.634Z" transform="translate(-2378.711 -1696.523)" fill="#ffa07f"/>
          <path id="Path_4465" data-name="Path 4465" d="M2396.2,1715.156s-7.909.216-8.652.321-5.854.132-6.843-.612-.44-1.475,1.293-1.72,8.256-.419,8.844-.5,6.763-1.745,6.864-1.033S2397.492,1715.1,2396.2,1715.156Z" transform="translate(-2379.694 -1702.931)" fill="#ffa07f"/>
          <path id="Path_4466" data-name="Path 4466" d="M2401.8,1722.217s-4.321.447-4.94.534-5.083.586-6.41.773.074,1.078,2.308,1.737,6.386-.349,6.787-.047,3.952.824,5.1,1.167S2404.669,1721.916,2401.8,1722.217Z" transform="translate(-2386.048 -1709.971)" fill="#ffa07f"/>
          <path id="Path_4467" data-name="Path 4467" d="M2421.1,1708.074s4.173,1.643,4.945,1.351c2.313-.878,1.781-1.729,2.525-2.718s.2-5.889-.719-6.242-2.726-4.449-3.551-4.333S2420.449,1707.349,2421.1,1708.074Z" transform="translate(-2406.362 -1692.927)" fill="#ffa07f"/>
        </g>
      </g>
    </g>
    <g id="doctor_woman" data-name="doctor woman" transform="translate(301.521 293)">
      <g id="Group_3587" data-name="Group 3587" transform="translate(28.189 0)">
        <path id="Path_4557" data-name="Path 4557" d="M1975.36,1432.447c-1.919-1.8-3.516-3.948-6.123-4.656a22.936,22.936,0,0,0-8.081-.381c-4.966.454-10.038,1.52-14.064,4.286-6.084,4.18-8.789,11.658-8.715,18.737.14,13.3-9.017,40.979-3.127,43.635s40.7.98,46.759-2.79c8.376-5.216-4.125-37.268-2.638-46.6C1979.37,1444.676,1978.386,1435.289,1975.36,1432.447Z" transform="translate(-1933.272 -1425.203)" fill="#a3262a"/>
        <g id="Group_3574" data-name="Group 3574" transform="translate(4.397 39.154)">
          <path id="Path_4558" data-name="Path 4558" d="M1968.4,1559.96c-2.421,7.1-2.438,14.654-2.429,22.1.783.026,1.6.045,2.435.055C1966.453,1574.886,1967.243,1567.3,1968.4,1559.96Z" transform="translate(-1959.04 -1551.117)" fill="#801e21"/>
          <path id="Path_4559" data-name="Path 4559" d="M2046.99,1554.452c-1.131,7.431-.155,15.013-.577,22.464l.538-.081A82.8,82.8,0,0,0,2046.99,1554.452Z" transform="translate(-2011.626 -1547.517)" fill="#801e21"/>
          <path id="Path_4560" data-name="Path 4560" d="M2068.866,1561.328c2.053-1.3,2.839-4.232,2.881-8.047-1.49-6.369-4.074-12.576-5.643-18.855C2066.615,1543.451,2068.629,1552.309,2068.866,1561.328Z" transform="translate(-2024.498 -1534.426)" fill="#801e21"/>
          <path id="Path_4561" data-name="Path 4561" d="M2057.654,1589.442c.535-.121,1.039-.246,1.508-.375-.031-4.753-1.55-9.652-3.071-14.088A51.429,51.429,0,0,1,2057.654,1589.442Z" transform="translate(-2017.953 -1560.934)" fill="#801e21"/>
          <path id="Path_4562" data-name="Path 4562" d="M1945.968,1564.78c1.084.185,2.4.328,3.893.433.133-10.089-.665-20.7.472-30.787C1946.663,1543.935,1946.083,1554.605,1945.968,1564.78Z" transform="translate(-1945.968 -1534.426)" fill="#801e21"/>
        </g>
        <g id="Group_3575" data-name="Group 3575" transform="translate(38.041 26.369)">
          <path id="Path_4563" data-name="Path 4563" d="M2043.112,1506.3s2.359-1.349,2.824-2.222a16.121,16.121,0,0,0,1.546-5.478c0-1.935-3.254-.893-4.37,0Z" transform="translate(-2043.112 -1497.509)" fill="#f29879"/>
          <path id="Path_4564" data-name="Path 4564" d="M2047.326,1504.891a.1.1,0,0,1-.051-.013.072.072,0,0,1-.025-.108,6.311,6.311,0,0,0,1.349-3.709.747.747,0,0,0-.152-.562.76.76,0,0,0-.771-.091,2.112,2.112,0,0,0-.685.508.1.1,0,0,1-.129.007.071.071,0,0,1-.009-.111,2.261,2.261,0,0,1,.747-.547.964.964,0,0,1,.984.132.863.863,0,0,1,.2.666,6.457,6.457,0,0,1-1.38,3.793A.1.1,0,0,1,2047.326,1504.891Z" transform="translate(-2045.544 -1499.262)" fill="#bd6142"/>
        </g>
        <g id="Group_3576" data-name="Group 3576" transform="translate(19.615 40.353)">
          <rect id="Rectangle_907" data-name="Rectangle 907" width="15.321" height="28.263" transform="translate(15.321 28.429) rotate(180)" fill="#ffa07f"/>
          <path id="Path_4565" data-name="Path 4565" d="M1989.911,1537.887h15.321v10.255c-2,2.761-4.711,4.584-7.709,4.6-2.972-.02-5.638-1.812-7.612-4.532Z" transform="translate(-1989.911 -1537.887)" fill="#fa704e"/>
        </g>
        <path id="Path_4566" data-name="Path 4566" d="M1996.463,1452.716a9.151,9.151,0,0,1,1.241,5.232c-.294,3.444-.881,8.766-.881,10.333a40.862,40.862,0,0,0,1.367,8.463,7.34,7.34,0,0,1,.547,2.933,5.79,5.79,0,0,1-1,2.13l-.516.792a26.993,26.993,0,0,1-4.849,5.361,9.053,9.053,0,0,1-6.714,2.054c-2.186-.335-12.247-5.962-13.678-10.439a34.6,34.6,0,0,1-1.7-12c0-4.183.186-13.376,2.517-15.707S1993.829,1447.9,1996.463,1452.716Z" transform="translate(-1957.461 -1439.825)" fill="#ffa07f"/>
        <path id="Path_4567" data-name="Path 4567" d="M1997.469,1460.513c.087-.907.168-1.784.235-2.565a9.151,9.151,0,0,0-1.241-5.232c-2.634-4.82-21.339-3.178-23.67-.847s-2.517,11.523-2.517,15.707a37.185,37.185,0,0,0,.751,8.506c1.431-6.608,9.069-15.629,11.283-16.77S1992.493,1461,1997.469,1460.513Z" transform="translate(-1957.461 -1439.825)" fill="#d67f60"/>
        <g id="Group_3577" data-name="Group 3577" transform="translate(7.951 24.087)">
          <path id="Path_4568" data-name="Path 4568" d="M1962.13,1502.79s-3.184-1.82-3.812-3c-.391-.735-2.087-4.783-2.087-7.394s4.393-1.2,5.9,0Z" transform="translate(-1956.231 -1490.921)" fill="#ffa07f"/>
          <path id="Path_4569" data-name="Path 4569" d="M1962.609,1500.884a.134.134,0,0,0,.068-.018.1.1,0,0,0,.034-.146,8.525,8.525,0,0,1-1.821-5.006,1.008,1.008,0,0,1,.2-.758,1.026,1.026,0,0,1,1.04-.123,2.851,2.851,0,0,1,.924.686.137.137,0,0,0,.174.01.1.1,0,0,0,.011-.149,3.038,3.038,0,0,0-1.009-.738,1.3,1.3,0,0,0-1.328.178,1.169,1.169,0,0,0-.264.9,8.717,8.717,0,0,0,1.863,5.119A.128.128,0,0,0,1962.609,1500.884Z" transform="translate(-1959.115 -1493.287)" fill="#bd6142"/>
        </g>
        <g id="Group_3585" data-name="Group 3585" transform="translate(19.923 22.904)">
          <path id="Path_4570" data-name="Path 4570" d="M1991.11,1491.255a8.429,8.429,0,0,1,5.078-2.389c.313-.058.125-.741-.227-.994h0a1.626,1.626,0,0,0-1.067-.355,6.9,6.9,0,0,0-3.74,2.536,2.572,2.572,0,0,0-.344,1.017h0C1990.764,1491.425,1990.893,1491.5,1991.11,1491.255Z" transform="translate(-1990.8 -1487.504)" fill="#1a1a1a"/>
          <path id="Path_4571" data-name="Path 4571" d="M2034.671,1492.192a8.427,8.427,0,0,0-5.444-1.362c-.318,0-.266-.7.03-1.019h0a1.627,1.627,0,0,1,.978-.555,6.905,6.905,0,0,1,4.161,1.764,2.586,2.586,0,0,1,.535.931h0C2035.042,1492.292,2034.93,1492.39,2034.671,1492.192Z" transform="translate(-2015.777 -1488.649)" fill="#1a1a1a"/>
          <g id="Group_3580" data-name="Group 3580" transform="translate(13.786 5.52)">
            <g id="Group_3579" data-name="Group 3579">
              <g id="Group_3578" data-name="Group 3578">
                <rect id="Rectangle_908" data-name="Rectangle 908" width="1.828" height="3.604" rx="0.914" fill="#1a1a1a"/>
              </g>
            </g>
          </g>
          <g id="Group_3583" data-name="Group 3583" transform="translate(3.172 5.635)">
            <g id="Group_3582" data-name="Group 3582">
              <g id="Group_3581" data-name="Group 3581">
                <rect id="Rectangle_909" data-name="Rectangle 909" width="1.828" height="3.604" rx="0.914" fill="#1a1a1a"/>
              </g>
            </g>
          </g>
          <g id="Group_3584" data-name="Group 3584" transform="translate(8.092 4.121)">
            <path id="Path_4572" data-name="Path 4572" d="M2015.917,1509.994l2.291.961a.816.816,0,0,0,.986-.291l1.052-1.542a.813.813,0,0,0-.144-1.083,7.209,7.209,0,0,1-1.9-2.786,6.771,6.771,0,0,1,.44-5.432.278.278,0,0,0-.48-.279,5.262,5.262,0,0,0-1.36,2.248c-.173.745.416,3.8,1.348,6.145a1.367,1.367,0,0,1-1,1.748A6.116,6.116,0,0,0,2015.917,1509.994Z" transform="translate(-2015.31 -1499.404)" fill="#db7d63"/>
            <path id="Path_4573" data-name="Path 4573" d="M2017.376,1511.018a.811.811,0,0,1-.312-.063l-2.727-1.144a.277.277,0,0,1,.214-.512l2.728,1.144a.258.258,0,0,0,.313-.093l1.053-1.542a.259.259,0,0,0-.044-.346,7.767,7.767,0,0,1-2.051-3,7.212,7.212,0,0,1,.472-5.924.277.277,0,0,1,.48.279,6.772,6.772,0,0,0-.44,5.432,7.21,7.21,0,0,0,1.9,2.786.813.813,0,0,1,.144,1.083l-1.052,1.542A.817.817,0,0,1,2017.376,1511.018Z" transform="translate(-2014.166 -1499.404)" fill="#bd6142"/>
          </g>
          <path id="Path_4574" data-name="Path 4574" d="M1993.671,1519.867c0,.412,1.187.746,2.651.746s2.65-.334,2.65-.746-1.187-.746-2.65-.746S1993.671,1519.455,1993.671,1519.867Z" transform="translate(-1992.677 -1508.171)" fill="#ed766d"/>
          <path id="Path_4575" data-name="Path 4575" d="M2030.205,1519.867c0,.412.933.746,2.084.746s2.084-.334,2.084-.746-.933-.746-2.084-.746S2030.205,1519.455,2030.205,1519.867Z" transform="translate(-2016.558 -1508.171)" fill="#ed766d"/>
          <path id="Path_4576" data-name="Path 4576" d="M2008.7,1535.031a8.08,8.08,0,0,1-10.39-2.88c-.206-.313.3-.6.5-.293a7.485,7.485,0,0,0,9.6,2.672c.336-.16.631.34.293.5Z" transform="translate(-1995.679 -1516.41)" fill="#c24848"/>
        </g>
        <g id="Group_3586" data-name="Group 3586" transform="translate(6.935)">
          <path id="Path_4577" data-name="Path 4577" d="M2025.043,1438.946a18.068,18.068,0,0,1-7.237,11.792,7.8,7.8,0,0,0-1.132-7.706,10.9,10.9,0,0,0-8.17-3.834c-2.488-.1-4.988.475-7.455.146-2.2-.293-6.082-3.21-7.049-5.6a2.674,2.674,0,0,0,1.444-.554,7.415,7.415,0,0,0,1.779-2.555,19.188,19.188,0,0,1,5.427-6.775,14.134,14.134,0,0,1,15.426-.4,15.788,15.788,0,0,1,7.119,13.907Q2025.157,1438.164,2025.043,1438.946Z" transform="translate(-1979.903 -1421.371)" fill="#a3262a"/>
          <path id="Path_4578" data-name="Path 4578" d="M2026.117,1470.638a11.564,11.564,0,0,1,.518,5.4,8.1,8.1,0,0,0-1.664-4.252,10.9,10.9,0,0,0-8.171-3.834c-2.487-.1-4.988.475-7.455.147a7.428,7.428,0,0,1-2.653-1.089,10.2,10.2,0,0,0,1.356-.246C2014.244,1465.217,2023.536,1463.41,2026.117,1470.638Z" transform="translate(-1988.201 -1450.127)" fill="#7a1c20"/>
          <path id="Path_4579" data-name="Path 4579" d="M1957.332,1483.241a14.939,14.939,0,0,1,.181-2.3c.585-3.73,2.377-7.155,4.307-10.4a111.7,111.7,0,0,1,9.29-13.316,15.381,15.381,0,0,0,2.909-4.511,4.8,4.8,0,0,0-.907-5.02,4.252,4.252,0,0,0-3.924-.51,48.613,48.613,0,0,0-12.182,22.408,30.109,30.109,0,0,0-.448,13.446,19.807,19.807,0,0,0,1.191,3.622A13.734,13.734,0,0,1,1957.332,1483.241Z" transform="translate(-1955.056 -1438.083)" fill="#a3262a"/>
          <path id="Path_4580" data-name="Path 4580" d="M1963.465,1453.145s-1.836-14.069-1.17-18.6,9.867-11.191,18.817-11.191,14.063,5.116,13.613,15.587c0,0-15.844-12.123-22.51-3.464A51.291,51.291,0,0,0,1963.465,1453.145Z" transform="translate(-1959.084 -1422.669)" fill="#a3262a"/>
          <path id="Path_4581" data-name="Path 4581" d="M1994,1457.107c.005.013.012.026.017.039C1994.018,1457.121,1994.013,1457.106,1994,1457.107Z" transform="translate(-1979.903 -1444.731)" fill="#a3262a"/>
          <path id="Path_4582" data-name="Path 4582" d="M2019.2,1423.673a19.016,19.016,0,0,0-2.023-.216,20.986,20.986,0,0,0-1.639,6.354A9.946,9.946,0,0,1,2019.2,1423.673Z" transform="translate(-1993.982 -1422.735)" fill="#7a1c20"/>
          <path id="Path_4583" data-name="Path 4583" d="M2008.894,1454.291c.339.072.678.139,1.019.2a33.716,33.716,0,0,1,2.9-1.726q-.571-.254-1.121-.539A34.48,34.48,0,0,0,2008.894,1454.291Z" transform="translate(-1989.639 -1441.539)" fill="#b55155"/>
          <path id="Path_4584" data-name="Path 4584" d="M1985.189,1434.267c-2.826-1.85-4.83-4.492-4.623-8.193a24.873,24.873,0,0,0-9.955,5.718,54.89,54.89,0,0,0,11.429,4.958A29.49,29.49,0,0,1,1985.189,1434.267Z" transform="translate(-1964.615 -1424.446)" fill="#b55155"/>
          <path id="Path_4585" data-name="Path 4585" d="M1971.813,1455.905a22.6,22.6,0,0,0-3.055,10.871A13.026,13.026,0,0,1,1971.813,1455.905Z" transform="translate(-1963.264 -1443.945)" fill="#7a1c20"/>
          <path id="Path_4586" data-name="Path 4586" d="M1958.9,1451.818A24.2,24.2,0,0,0,1954,1470.6,19.529,19.529,0,0,1,1958.9,1451.818Z" transform="translate(-1953.297 -1441.273)" fill="#7a1c20"/>
          <path id="Path_4587" data-name="Path 4587" d="M2021.24,1455.978c-.827.384-1.634.81-2.42,1.272a23.441,23.441,0,0,0,5.972-.286A30.86,30.86,0,0,1,2021.24,1455.978Z" transform="translate(-1996.128 -1443.993)" fill="#b55155"/>
          <path id="Path_4588" data-name="Path 4588" d="M2057.579,1438.253a16.248,16.248,0,0,0-1.791-3.939c-3.165-2.222-7.188-3.179-11.213-3.524C2049.263,1432.263,2054.156,1434.565,2057.579,1438.253Z" transform="translate(-2012.963 -1427.528)" fill="#7a1c20"/>
          <path id="Path_4589" data-name="Path 4589" d="M2032.059,1441.3c7.087,2.8,14.8,7.64,16.29,15.707a17.481,17.481,0,0,0,1.074-2.766C2046.026,1447.648,2039.721,1442.377,2032.059,1441.3Z" transform="translate(-2004.782 -1434.401)" fill="#7a1c20"/>
        </g>
      </g>
      <path id="Path_4590" data-name="Path 4590" d="M1991.355,1592.425c0,3.114-12.2,24.755-19.443,24.755s-19.633-21.508-19.633-24.623,7.237-5.452,19.125-5.452C1983.9,1587.106,1991.355,1589.311,1991.355,1592.425Z" transform="translate(-1917.507 -1529.707)" fill="#ffa07f"/>
      <g id="Group_3589" data-name="Group 3589" transform="translate(29.849 312.44)">
        <path id="Path_4591" data-name="Path 4591" d="M1950.548,2352.971c.764-1.5,5.073-4.872,6.8-9.757.986-2.783,1.725-14.925,2.729-16.409,1.673-2.474,3.781-2.383,7.182-3.283.68,2.931.627,14.334.861,17.412C1962.819,2362.882,1949.906,2354.232,1950.548,2352.971Z" transform="translate(-1946.21 -2323.522)" fill="#ffa07f"/>
        <g id="Group_3588" data-name="Group 3588" transform="translate(0 10.124)">
          <path id="Path_4592" data-name="Path 4592" d="M1938.863,2376.075c.352-.368.707-.755,1.061-1.154,1.121-1.3,2.631-3.213,3.378-4.166,3.369-4.47,6.081-8.911,6.081-8.911-.381.644-.473,2.526-4.818,9.405-1.143,1.811,8.151,3.379,10.51-3.132,1.162-3.205,4.869-15.362,4.869-15.362,1.357.007-.16,16.508-.16,16.508s-1.756,10.91-5.188,10.907l-15.547-.013C1937.8,2378.072,1937.746,2377.108,1938.863,2376.075Z" transform="translate(-1938.065 -2352.755)" fill="#e6e6e6"/>
          <path id="Path_4593" data-name="Path 4593" d="M1998.578,2379.7c.1-.517.15-.829.15-.829s.6-6.567.709-11.418C1997.164,2371.108,1997.248,2375.56,1998.578,2379.7Z" transform="translate(-1977.008 -2362.362)" fill="#ccc"/>
          <path id="Path_4594" data-name="Path 4594" d="M1949.28,2406.309c-.4.507-.9,1.132-1.412,1.767a13.1,13.1,0,0,0,6.34,2.21C1952.116,2409.822,1949.812,2408.494,1949.28,2406.309Z" transform="translate(-1944.473 -2387.762)" fill="#f2f2f2"/>
          <path id="Path_4595" data-name="Path 4595" d="M1956.342,2419.016c-4.774,2.512-11.306,2.512-17.085.753a3.857,3.857,0,0,1,.031-1.918c-.142.153-.283.306-.425.453-1.118,1.033-1.068,2,.187,4.081l15.547.013c1.629,0,2.88-2.458,3.746-5.041A6.875,6.875,0,0,1,1956.342,2419.016Z" transform="translate(-1938.065 -2394.984)" fill="#ccc"/>
        </g>
      </g>
      <g id="Group_3591" data-name="Group 3591" transform="translate(73.561 312.44)">
        <path id="Path_4596" data-name="Path 4596" d="M2083.39,2352.971c-.765-1.5-5.073-4.872-6.8-9.757-.986-2.783-1.725-14.925-2.729-16.409-1.673-2.474-3.781-2.383-7.182-3.283-.679,2.931-.627,14.334-.861,17.412C2071.12,2362.882,2084.033,2354.232,2083.39,2352.971Z" transform="translate(-2065.284 -2323.522)" fill="#ffa07f"/>
        <g id="Group_3590" data-name="Group 3590" transform="translate(0 10.124)">
          <path id="Path_4597" data-name="Path 4597" d="M2085.927,2376.075c-.353-.368-.707-.755-1.061-1.154-1.121-1.3-2.631-3.213-3.379-4.166-3.369-4.47-6.081-8.911-6.081-8.911.38.644.473,2.526,4.817,9.405,1.144,1.811-8.15,3.379-10.51-3.132-1.162-3.205-4.869-15.362-4.869-15.362-1.357.007.16,16.508.16,16.508s1.756,10.91,5.188,10.907l15.547-.013C2087,2378.072,2087.045,2377.108,2085.927,2376.075Z" transform="translate(-2064.281 -2352.755)" fill="#e6e6e6"/>
          <path id="Path_4598" data-name="Path 4598" d="M2065.185,2379.7c-.1-.517-.15-.829-.15-.829s-.6-6.567-.709-11.418C2066.6,2371.108,2066.515,2375.56,2065.185,2379.7Z" transform="translate(-2064.311 -2362.362)" fill="#ccc"/>
          <path id="Path_4599" data-name="Path 4599" d="M2105.907,2406.309c.4.507.9,1.132,1.412,1.767a13.1,13.1,0,0,1-6.34,2.21C2103.071,2409.822,2105.375,2408.494,2105.907,2406.309Z" transform="translate(-2088.27 -2387.762)" fill="#f2f2f2"/>
          <path id="Path_4600" data-name="Path 4600" d="M2072.537,2419.016c4.774,2.512,11.306,2.512,17.085.753a3.849,3.849,0,0,0-.031-1.918c.142.153.283.306.425.453,1.117,1.033,1.068,2-.187,4.081l-15.547.013c-1.629,0-2.881-2.458-3.746-5.041A6.877,6.877,0,0,0,2072.537,2419.016Z" transform="translate(-2068.37 -2394.984)" fill="#ccc"/>
        </g>
      </g>
      <g id="Group_3592" data-name="Group 3592" transform="translate(24.222 123.47)">
        <path id="Path_4601" data-name="Path 4601" d="M1948.929,1874.806s-1.111,55.194-1.111,64.242-13.891,6.566-18.33,1.652c-1.781-3.7-7.67-71.745-7.67-75.706C1921.818,1859.25,1947.741,1862.8,1948.929,1874.806Z" transform="translate(-1921.818 -1833.068)" fill="#007b7d"/>
        <path id="Path_4602" data-name="Path 4602" d="M2011.039,1875.235s8.544,55.194,8.544,64.242,13.891,6.566,18.331,1.652c1.78-3.7.237-71.745.237-75.706C2038.151,1859.679,2012.227,1863.229,2011.039,1875.235Z" transform="translate(-1980.139 -1833.349)" fill="#007b7d"/>
        <path id="Path_4603" data-name="Path 4603" d="M1962.218,2071.233l2.971,89.923s-7.023,5.24-12.608-.345c0,0-7.705-79.956-8.693-87.926S1960.146,2059.692,1962.218,2071.233Z" transform="translate(-1936.218 -1965.253)" fill="#007b7d"/>
        <path id="Path_4604" data-name="Path 4604" d="M2035.086,2066.479l8.725,91.936s7.023,5.24,12.609-.344c0,0-1.133-83.166-2.821-91.826C2052.063,2058.363,2037.158,2054.938,2035.086,2066.479Z" transform="translate(-1995.858 -1961.661)" fill="#007b7d"/>
        <path id="Path_4605" data-name="Path 4605" d="M1933.059,1777.884c-4.03,9.124-6.06,18.195-10.694,27.2-.965,1.877-1.138,13.627,3.661,16.078,5.774,3.058,20.885,6.142,20.907,6.086q3.891.03,7.782,0c.022.056,15.133-3.027,20.907-6.086,4.8-2.452,4.625-14.2,3.661-16.078-4.634-9.006-6.664-18.077-10.694-27.2Q1950.833,1778.592,1933.059,1777.884Z" transform="translate(-1921.818 -1777.884)" fill="#007b7d"/>
        <path id="Path_4606" data-name="Path 4606" d="M1994.2,1910.2l.124-6.358h5.083l.933,6.218,4.932-15.026s-4.111,6.6-13.776,7.583Z" transform="translate(-1967.366 -1854.463)" fill="#005c5e"/>
      </g>
      <g id="Group_3597" data-name="Group 3597" transform="translate(25.268 92.071)">
        <g id="Group_3595" data-name="Group 3595">
          <g id="Group_3594" data-name="Group 3594">
            <g id="Group_3593" data-name="Group 3593">
              <path id="Path_4607" data-name="Path 4607" d="M1981.883,1735.856c-2.76-16.1-9.041-32.411-8.136-48.634h-40.773c.905,16.223-5.375,32.538-8.135,48.634,0,0,7.952,3.9,28.522,3.9S1981.883,1735.856,1981.883,1735.856Z" transform="translate(-1924.838 -1687.222)" fill="#00c4c2"/>
            </g>
          </g>
        </g>
        <g id="Group_3596" data-name="Group 3596">
          <path id="Path_4608" data-name="Path 4608" d="M1936.6,1709.875c-.315-2.84-1.4-7.977,1.49-10.034,4.371-3.109,18.652.143,29.055-2.238a11.539,11.539,0,0,0,6.34-4.5c.067-2.543.119-3.345.261-5.885h-40.773c.905,16.223-5.375,32.538-8.135,48.634a29.531,29.531,0,0,0,5.788,1.78C1927.8,1727.434,1938.142,1723.773,1936.6,1709.875Z" transform="translate(-1924.838 -1687.222)" fill="#009392"/>
        </g>
      </g>
      <g id="Group_3601" data-name="Group 3601" transform="translate(27.638 58.251)">
        <g id="Group_3600" data-name="Group 3600">
          <g id="Group_3599" data-name="Group 3599">
            <g id="Group_3598" data-name="Group 3598">
              <path id="Path_4609" data-name="Path 4609" d="M1950.468,1633.04c-7.484,0-10.75-2.92-13.4-7.731s-3.18-10.475-3.479-15.96c-.269-4.927-.418-9.964-1.908-14.641a9.334,9.334,0,0,1,3.456-2.458c1.233-.317,10.137-2.534,10.137-2.534s6.436,10.942,13.5,10.942,12.332-11.091,12.332-11.091l9.534,2.572c1.977.565,2.374,1.547,3.344,2.569-1.49,4.677-1.638,9.714-1.908,14.641-.3,5.485-.828,11.149-3.479,15.96s-5.473,7.731-13.4,7.731Z" transform="translate(-1931.68 -1589.566)" fill="#00c4c2"/>
            </g>
          </g>
        </g>
      </g>
      <g id="Group_3603" data-name="Group 3603" transform="translate(15.252 61.969)">
        <g id="Group_3602" data-name="Group 3602" transform="translate(2.535 5.92)">
          <path id="Path_4610" data-name="Path 4610" d="M1913.86,1617.526c-2.723-.716-6.1,1.318-7.873,12.091s-2.892,39.487-2.737,44.418,8.906,8.506,10.556,1.992,4.989-37.022,5.531-42.073S1918.477,1618.741,1913.86,1617.526Z" transform="translate(-1903.236 -1617.397)" fill="#ffa07f"/>
        </g>
        <path id="Path_4611" data-name="Path 4611" d="M1912.266,1646.814s2.953-20.03,3.275-25.251-2.421-22.67-5.558-21.168c-1.735.831-6.424,5.468-7.471,7.579-3.855,7.778-6.188,33.62-6.6,36.515a15.94,15.94,0,0,0,6.454,3.01A28.164,28.164,0,0,0,1912.266,1646.814Z" transform="translate(-1895.917 -1600.303)" fill="#00c4c2"/>
      </g>
      <g id="Group_3609" data-name="Group 3609" transform="translate(0 121.337)">
        <g id="Group_3604" data-name="Group 3604" transform="translate(0 8.027)">
          <rect id="Rectangle_910" data-name="Rectangle 910" width="55.877" height="41.532" rx="9.698" transform="matrix(-0.944, 0.329, -0.329, -0.944, 66.428, 39.222)" fill="#d6c3df"/>
          <rect id="Rectangle_911" data-name="Rectangle 911" width="55.877" height="41.533" rx="9.698" transform="matrix(-0.944, 0.329, -0.329, -0.944, 66.622, 39.779)" fill="#ba9bc9"/>
          <path id="Path_4612" data-name="Path 4612" d="M2014.19,1841.96l-5.062,1.973-6.089-17.486,5.062-1.973Z" transform="translate(-1950.687 -1814.233)" fill="#e6e6e6"/>
        </g>
        <g id="Group_3608" data-name="Group 3608" transform="translate(17.815)">
          <path id="Path_4613" data-name="Path 4613" d="M1918.669,1825.333s4.386-2.564,6.29-4.917c0,0-10.178-42.621-11.644-45.913s-9.052-3.839-9.805-.663.84,14.638,2.122,19.524S1918.669,1825.333,1918.669,1825.333Z" transform="translate(-1903.316 -1771.726)" fill="#ffa07f"/>
          <g id="Group_3607" data-name="Group 3607" transform="translate(8.078 34.201)">
            <g id="Group_3606" data-name="Group 3606" transform="translate(2.64 8.55)">
              <g id="Group_3605" data-name="Group 3605">
                <path id="Path_4614" data-name="Path 4614" d="M1951.135,1906.857a12.593,12.593,0,0,0-2.961-8.253c-1.29-1.371-2.995-3.42-5-3.437a7.826,7.826,0,0,0-7.022,3.858c-1.566,2.471-1.78,7.3-1.8,9.281-.03,3.6,4.377,2.967,8.777,3S1951.1,1910.457,1951.135,1906.857Z" transform="translate(-1934.323 -1895.167)" fill="#f8f9fb"/>
                <path id="Path_4615" data-name="Path 4615" d="M1971.335,1932.051s-1.662,7.295-2.688,8.4a2.035,2.035,0,0,1-2.881-.451c-.35-.6-.022-6.268.375-6.7S1971.276,1930.513,1971.335,1932.051Z" transform="translate(-1954.759 -1918.941)" fill="#f8f9fb"/>
                <path id="Path_4616" data-name="Path 4616" d="M1958.573,1932.576s-.144,6.379-.936,7.665a2.035,2.035,0,0,1-2.914.115c-.459-.52-1.234-6.145-.928-6.644S1958.217,1931.078,1958.573,1932.576Z" transform="translate(-1946.985 -1919.277)" fill="#f8f9fb"/>
                <path id="Path_4617" data-name="Path 4617" d="M1948.488,1931.678s.407,6.357-.384,7.643c-.557.9-2.284.347-2.933-.388-.46-.52-1.477-5.884-1.17-6.382S1948.131,1930.18,1948.488,1931.678Z" transform="translate(-1940.591 -1918.661)" fill="#f8f9fb"/>
                <path id="Path_4618" data-name="Path 4618" d="M1938.436,1929.643s.653,5.019-.139,6.306c-.557.9-1.154,1.237-1.8.5-.46-.52-2.505-5.489-2.2-5.988S1938.08,1928.145,1938.436,1929.643Z" transform="translate(-1934.264 -1917.324)" fill="#f8f9fb"/>
              </g>
              <path id="Path_4619" data-name="Path 4619" d="M1965.358,1945.216q.285-2.282.569-4.565c.018-.141.242-.142.224,0l-.568,4.565c-.018.141-.242.142-.224,0Z" transform="translate(-1954.589 -1924.83)" fill="#c3ced9"/>
              <path id="Path_4620" data-name="Path 4620" d="M1955.74,1944.62q.29-2.539.58-5.079c.016-.142.24-.143.224,0q-.29,2.539-.581,5.079c-.016.141-.24.143-.224,0Z" transform="translate(-1948.302 -1924.104)" fill="#c3ced9"/>
              <path id="Path_4621" data-name="Path 4621" d="M1944.468,1939.968a41.627,41.627,0,0,1-.614-4.582c-.011-.143.213-.142.224,0a41.039,41.039,0,0,0,.606,4.523c.027.141-.189.2-.216.059Z" transform="translate(-1940.533 -1921.387)" fill="#c3ced9"/>
            </g>
            <path id="Path_4622" data-name="Path 4622" d="M1940.141,1881.938l-3.216-11.46-10.283,2.626s3.98,11.983,4.306,13.462S1940.816,1885,1940.141,1881.938Z" transform="translate(-1926.642 -1870.478)" fill="#f8f9fb"/>
          </g>
        </g>
      </g>
      <g id="Group_3623" data-name="Group 3623" transform="translate(67.814 20.334)">
        <g id="Group_3610" data-name="Group 3610" transform="translate(2.21 40.776)">
          <path id="Path_4623" data-name="Path 4623" d="M2055.427,1598.777c1.816-1.7,5.185-1.747,10.644,5.069s20.342,30.309,22.1,33.851-3.593,9.9-7.34,6.03-21.011-27.653-23.351-30.974S2052.348,1601.656,2055.427,1598.777Z" transform="translate(-2054.068 -1597.822)" fill="#ffa07f"/>
        </g>
        <path id="Path_4624" data-name="Path 4624" d="M2078.05,1623s-13.156-20.122-17.973-24.754-11.852-1.9-12.373,3.042,11.033,22.581,16.14,28.24C2063.844,1629.526,2073.586,1626.956,2078.05,1623Z" transform="translate(-2047.687 -1555.766)" fill="#00c4c2"/>
        <g id="Group_3622" data-name="Group 3622" transform="translate(26.133 0)">
          <g id="Group_3613" data-name="Group 3613" transform="translate(0 32.289)">
            <g id="Group_3611" data-name="Group 3611" transform="translate(0 10.086)">
              <path id="Path_4625" data-name="Path 4625" d="M2148.274,1606.628s-4.983-.99-7.968-.493c0,0-15.934,33.323-17.019,36.759s4.228,8.877,6.9,7,4.138-3.14,6.419-7.647S2148.274,1606.628,2148.274,1606.628Z" transform="translate(-2123.143 -1604.763)" fill="#ffa07f"/>
              <path id="Path_4626" data-name="Path 4626" d="M2161.157,1602.666l-4.783,10.9s7.77,4.711,9.982,5.2l4.808-11.454S2166.553,1601.2,2161.157,1602.666Z" transform="translate(-2144.865 -1602.438)" fill="#f8f9fb"/>
            </g>
            <g id="Group_3612" data-name="Group 3612" transform="translate(15.917)">
              <path id="Path_4627" data-name="Path 4627" d="M2178.515,1589.229c-7.049,1.851-8.074,2.627-9.284-2.387s6.459-12.282,11.357-13.464S2183.389,1587.949,2178.515,1589.229Z" transform="translate(-2169.103 -1573.314)" fill="#f8f9fb"/>
              <path id="Path_4628" data-name="Path 4628" d="M2190.574,1582.188a15.043,15.043,0,0,1-6.049,6.528s5.087,2.674,5.722,1.751c.679-.987-.217-3.121.31-3.927C2191.7,1584.8,2190.574,1582.188,2190.574,1582.188Z" transform="translate(-2179.184 -1579.115)" fill="#c4ccd4"/>
            </g>
          </g>
          <g id="Group_3619" data-name="Group 3619" transform="translate(11.099)">
            <g id="Group_3617" data-name="Group 3617" transform="translate(13.845 25.963)">
              <g id="Group_3614" data-name="Group 3614" transform="translate(0.561 2.735)">
                <rect id="Rectangle_912" data-name="Rectangle 912" width="2.554" height="20.111" transform="translate(0.134 0) rotate(0.382)" fill="#2e3030"/>
                <rect id="Rectangle_913" data-name="Rectangle 913" width="0.465" height="20.111" transform="translate(2.451 0.015) rotate(0.384)" fill="#5d6060"/>
              </g>
              <g id="Group_3615" data-name="Group 3615" transform="translate(0.137 0)">
                <rect id="Rectangle_914" data-name="Rectangle 914" width="3.604" height="0.589" transform="translate(0.146 2.893) rotate(0.382)" fill="#c7cccc"/>
                <rect id="Rectangle_915" data-name="Rectangle 915" width="3.895" height="2.952" transform="matrix(1, 0.007, -0.007, 1, 0.02, 0)" fill="#b9bfbf"/>
                <rect id="Rectangle_916" data-name="Rectangle 916" width="0.504" height="1.969" transform="translate(3.017 0.811) rotate(0.382)" fill="#c7cccc"/>
              </g>
              <g id="Group_3616" data-name="Group 3616" transform="translate(0 18.932)">
                <rect id="Rectangle_917" data-name="Rectangle 917" width="3.895" height="4.517" transform="matrix(1, 0.007, -0.007, 1, 0.03, 0)" fill="#b9bfbf"/>
                <rect id="Rectangle_918" data-name="Rectangle 918" width="0.504" height="3.012" transform="translate(3.025 1.229) rotate(0.386)" fill="#c7cccc"/>
              </g>
            </g>
            <g id="Group_3618" data-name="Group 3618">
              <circle id="Ellipse_137" data-name="Ellipse 137" cx="11.325" cy="11.325" r="11.325" transform="translate(0 16.016) rotate(-45)" fill="#d2d6d6"/>
              <circle id="Ellipse_138" data-name="Ellipse 138" cx="11.07" cy="11.07" r="11.07" transform="translate(0.361 16.016) rotate(-45)" fill="#b9bfbf"/>
              <ellipse id="Ellipse_139" data-name="Ellipse 139" cx="10.644" cy="10.644" rx="10.644" ry="10.644" transform="translate(5.372 5.372)" fill="#65c8d0"/>
              <ellipse id="Ellipse_140" data-name="Ellipse 140" cx="10.219" cy="10.219" rx="10.219" ry="10.219" transform="matrix(0.938, -0.345, 0.345, 0.938, 2.897, 9.955)" fill="#c1e9ec"/>
              <path id="Path_4629" data-name="Path 4629" d="M2177.879,1516.271c-3.636-3.685-3.523-9.357-1.746-13.779a10.213,10.213,0,0,0,8.765,18.094C2182.464,1519.421,2179.8,1518.271,2177.879,1516.271Z" transform="translate(-2166.132 -1494.731)" fill="#a3dee3"/>
              <path id="Path_4630" data-name="Path 4630" d="M2210.959,1505.7a7,7,0,0,1,4.528,7.647c-.051.321.44.463.491.139a7.526,7.526,0,0,0-4.881-8.277c-.31-.112-.447.381-.139.491Z" transform="translate(-2191.531 -1496.497)" fill="#fff" stroke="#fff" stroke-miterlimit="10" stroke-width="0.246" style="mix-blend-mode: soft-light;isolation: isolate"/>
            </g>
          </g>
          <g id="Group_3621" data-name="Group 3621" transform="translate(16.272 28.994)">
            <path id="Path_4631" data-name="Path 4631" d="M2170.148,1577.411s1.43-7.477,3.906-9.454c2.782-2.222,4.209-2.726,5.559-3.094,1.821-.5,3.586-2,4.429-.206.2.417-.464,2.755-2.925,3.725-1.948.767-2.725,1.546-4.26,5.27S2169.749,1579.2,2170.148,1577.411Z" transform="translate(-2170.127 -1563.802)" fill="#f8f9fb"/>
            <g id="Group_3620" data-name="Group 3620" transform="translate(9.142 1.15)">
              <path id="Path_4632" data-name="Path 4632" d="M2204.97,1601.67s.022,2.377-.349,2.787-1.51,2.2-1.956,2.223-2.78-1.462-1.857-2.483A19.318,19.318,0,0,1,2204.97,1601.67Z" transform="translate(-2199.185 -1589.705)" fill="#f8f9fb"/>
              <path id="Path_4633" data-name="Path 4633" d="M2197.655,1584.847a29.741,29.741,0,0,0,3.7-2.086,18.745,18.745,0,0,0,2.343-3.417c.4-.97-1.19-3.034-1.743-2.422s-2.97,3.163-3.341,3.573S2194.786,1583.371,2197.655,1584.847Z" transform="translate(-2196.524 -1573.456)" fill="#f8f9fb"/>
              <path id="Path_4634" data-name="Path 4634" d="M2199.578,1594.212s2.776-.638,3.546-1.759a30.831,30.831,0,0,0,2.475-3.278c.463-.96-.739-3.262-1.3-2.689s-3.011,2.949-3.389,3.333S2197.161,1592.38,2199.578,1594.212Z" transform="translate(-2197.954 -1579.72)" fill="#f8f9fb"/>
              <path id="Path_4635" data-name="Path 4635" d="M2203.029,1567.749c-.531.588-1.766,3.189-2.27,3.746s-.671,2.215.358,2.666,2.133-1.477,3.166-2.619.557-3.913.177-4.257S2203.56,1567.162,2203.029,1567.749Z" transform="translate(-2199.032 -1567.122)" fill="#f8f9fb"/>
            </g>
          </g>
        </g>
      </g>
    </g>
  </g>
</svg>
