<svg xmlns="http://www.w3.org/2000/svg" xmlns:xlink="http://www.w3.org/1999/xlink" width="30" height="30" viewBox="0 0 30 30">
  <defs>
    <clipPath id="clip-path">
      <circle id="Ellipse_143" data-name="Ellipse 143" cx="15" cy="15" r="15" transform="translate(0)" fill="#fff" stroke="#707070" stroke-width="1"/>
    </clipPath>
  </defs>
  <g id="Group_3860" data-name="Group 3860" transform="translate(-4)">
    <g id="Group_3898" data-name="Group 3898" transform="translate(19)">
      <circle id="Ellipse_144" data-name="Ellipse 144" cx="15" cy="15" r="15" transform="translate(-15)" fill="#eee"/>
      <g id="Mask_Group_17" data-name="Mask Group 17" transform="translate(-15)" clip-path="url(#clip-path)">
        <g id="woman" transform="translate(3.41 2.142)">
          <path id="Path_4793" data-name="Path 4793" d="M489.086,385.577a1.274,1.274,0,0,0,.174-.275,1.383,1.383,0,0,0-.432-1.976,1.448,1.448,0,0,0,.013-.182,1.412,1.412,0,0,0-.236-.782,1.444,1.444,0,0,0-.639-2.145,1.363,1.363,0,0,0-.552-1.383,1.154,1.154,0,0,0-1.352-1.515,1.206,1.206,0,0,0-1.574-.771,1.094,1.094,0,0,0-.964-.587,1.549,1.549,0,0,0-1.812-1.166,1.583,1.583,0,0,0-2.886.539,1.217,1.217,0,0,0-.734.438,1.293,1.293,0,0,0-1.993.4,1.53,1.53,0,0,0-1.481,1.866,1.077,1.077,0,0,0-.751,1.024,1.03,1.03,0,0,0,.012.119,16.806,16.806,0,0,1-1.087,2.715c0,.012,0,.023,0,.034a1.577,1.577,0,0,0-.388,2.574,1.325,1.325,0,0,0,.181,1.35,1.08,1.08,0,0,0,.156,1.485,1.33,1.33,0,0,0,.73,1.755,1.164,1.164,0,0,0,.64,1.42,1.173,1.173,0,0,0,1.169,1.329c.02,0,.039,0,.058,0a1.419,1.419,0,0,0,1.675,1.275,1.1,1.1,0,0,0,1.317,1.067,1.277,1.277,0,0,0,1.718.474,1.5,1.5,0,0,0,2.509-.917,1.085,1.085,0,0,0,.665-.315,1.162,1.162,0,0,0,1.781-.464,1.449,1.449,0,0,0,.248.023,1.422,1.422,0,0,0,1.415-1.578,1.29,1.29,0,0,0,.7-1.036,1.4,1.4,0,0,0,.815-1.509,1.378,1.378,0,0,0,.476-1.042c0-.043,0-.085-.006-.127a1.287,1.287,0,0,0,.433-2.114Z" transform="translate(-469.308 -374.062)" fill="#3c2417"/>
          <g id="Group_3876" data-name="Group 3876" transform="translate(8.525 17.239)">
            <path id="Path_4794" data-name="Path 4794" d="M501.776,448.913v-2.555H497.77v2.555l-1,.278,1,6.258h4.006l1-6.258Z" transform="translate(-496.768 -446.358)" fill="#bf8858"/>
            <path id="Path_4795" data-name="Path 4795" d="M500.968,446.428v.928l4.006,1.61v-2.538Z" transform="translate(-499.967 -446.412)" fill="#deb4a0" style="mix-blend-mode: multiply;isolation: isolate"/>
          </g>
          <path id="Path_4796" data-name="Path 4796" d="M493.77,539.439c.053-5.282-1.29-7.341-1.29-7.341H480.842s-1.343,2.059-1.289,7.341Z" transform="translate(-475.132 -494.414)" fill="#2a2932"/>
          <g id="Group_3884" data-name="Group 3884" transform="translate(0 19.82)">
            <g id="Group_3879" data-name="Group 3879" transform="translate(4.457 0)">
              <rect id="Rectangle_996" data-name="Rectangle 996" width="8.138" height="14.763" transform="translate(3.042 3.101)" fill="#fff"/>
              <g id="Group_3877" data-name="Group 3877" transform="translate(0 0)">
                <path id="Path_4797" data-name="Path 4797" d="M485.781,463.788l-1.334-6.39c-5.638.3-1.815,3.288-3.094,5.121a4.108,4.108,0,0,0,.512,5.791,42.693,42.693,0,0,1-2.154,9.932h5.968v-2.034Z" transform="translate(-479.71 -457.346)" fill="#42404d"/>
                <path id="Path_4798" data-name="Path 4798" d="M489.957,458.811l2.2.83-.862,1.2,2.293,2.78-1.338-6.441Z" transform="translate(-487.513 -457.182)" fill="#2a2932"/>
              </g>
              <g id="Group_3878" data-name="Group 3878" transform="translate(8.074)">
                <path id="Path_4799" data-name="Path 4799" d="M513.568,463.788l1.334-6.39c5.638.3,1.815,3.288,3.094,5.121a4.108,4.108,0,0,1-.512,5.791,42.689,42.689,0,0,0,2.154,9.932h-5.968v-2.034Z" transform="translate(-513.568 -457.346)" fill="#42404d"/>
                <path id="Path_4800" data-name="Path 4800" d="M517.2,458.811l-2.2.83.862,1.2-2.293,2.78,1.338-6.441Z" transform="translate(-513.568 -457.182)" fill="#2a2932"/>
              </g>
            </g>
            <g id="Group_3881" data-name="Group 3881" transform="translate(0 0.573)">
              <g id="Group_3880" data-name="Group 3880" transform="translate(5.476 8.221)">
                <path id="Path_4801" data-name="Path 4801" d="M486.528,496.658s-.754.084-1.34.127l-.428.026-.369.011h-.354l-.056,2.4.444,0,.444-.013.5-.03c.673-.05,1.479-.142,1.479-.142a1.062,1.062,0,0,0,.726-1.323C487.463,497.061,486.994,496.6,486.528,496.658Z" transform="translate(-483.981 -496.035)" fill="#bf8858"/>
                <path id="Path_4802" data-name="Path 4802" d="M486.889,494.065a1.5,1.5,0,0,0-.938.607,3.7,3.7,0,0,0-.389.575.5.5,0,0,0,.062.56.248.248,0,0,0,.413-.086s.029-.056.077-.133a2.745,2.745,0,0,1,.2-.28,1.087,1.087,0,0,1,.664-.447c.157-.018.262-.21.235-.429S487.04,494.048,486.889,494.065Z" transform="translate(-485.142 -494.064)" fill="#bf8858"/>
              </g>
              <path id="Path_4803" data-name="Path 4803" d="M466.251,471.332c-6.028-.535-5.877-2.809-4.317-5.569,1.191-2.107,3.981-5.547,5.818-6.177l-.167,1.811,1.053,1.891a10.177,10.177,0,0,0-4.036,3.947c-.357.536-.259.642-.248.651a9.033,9.033,0,0,0,2.9.21l.231,3.2C467.19,471.315,466.562,471.332,466.251,471.332Z" transform="translate(-461.018 -459.586)" fill="#42404d"/>
            </g>
            <g id="Group_3883" data-name="Group 3883" transform="translate(13.969 0.573)">
              <g id="Group_3882" data-name="Group 3882" transform="translate(0 8.221)">
                <path id="Path_4804" data-name="Path 4804" d="M520.666,496.658s.754.084,1.34.127l.428.026.369.011h.355l.056,2.4-.444,0-.444-.013-.5-.03c-.673-.05-1.479-.142-1.479-.142a1.062,1.062,0,0,1-.726-1.323C519.732,497.061,520.2,496.6,520.666,496.658Z" transform="translate(-519.599 -496.035)" fill="#bf8858"/>
                <path id="Path_4805" data-name="Path 4805" d="M526.386,494.065a1.5,1.5,0,0,1,.938.607,3.736,3.736,0,0,1,.39.575.5.5,0,0,1-.062.56.248.248,0,0,1-.412-.086s-.029-.056-.077-.133a2.7,2.7,0,0,0-.2-.28,1.085,1.085,0,0,0-.664-.447c-.157-.018-.262-.21-.235-.429S526.236,494.048,526.386,494.065Z" transform="translate(-524.52 -494.064)" fill="#bf8858"/>
              </g>
              <path id="Path_4806" data-name="Path 4806" d="M528.148,471.332c6.028-.535,5.878-2.809,4.317-5.569-1.191-2.107-3.981-5.547-5.818-6.177l.324,1.993-1.21,1.709a10.176,10.176,0,0,1,4.036,3.947c.356.536.259.642.249.651a9.035,9.035,0,0,1-2.9.21l-.231,3.2C527.208,471.315,527.837,471.332,528.148,471.332Z" transform="translate(-524.291 -459.586)" fill="#42404d"/>
            </g>
          </g>
          <g id="Group_3890" data-name="Group 3890" transform="translate(5.214 0.634)">
            <g id="Group_3888" data-name="Group 3888" transform="translate(0.69 2.65)">
              <path id="Path_4807" data-name="Path 4807" d="M495.973,394.925v-2.083c0-2.212-2.561-5.008-4.589-5.008s-4.589,2.8-4.589,5.008v2.083a1.011,1.011,0,0,0-1.02,1v1.042a1.011,1.011,0,0,0,1.02,1c0,2.212,2.561,5.088,4.589,5.088s4.589-2.875,4.589-5.088a1.011,1.011,0,0,0,1.02-1v-1.042A1.011,1.011,0,0,0,495.973,394.925Z" transform="translate(-485.776 -387.834)" fill="#bf8858"/>
              <path id="Path_4808" data-name="Path 4808" d="M506.04,399.351v3.706c2.027,0,4.589-2.875,4.589-5.088a1.011,1.011,0,0,0,1.02-1v-1.042a1.011,1.011,0,0,0-1.02-1v-2.083c0-2.212-2.561-5.008-4.589-5.008v8.112a13.62,13.62,0,0,0-1.02,3.2Z" transform="translate(-500.431 -387.834)" fill="#f6ccb8" opacity="0.8" style="mix-blend-mode: multiply;isolation: isolate"/>
              <g id="Group_3887" data-name="Group 3887" transform="translate(1.513 7.345)">
                <g id="Group_3885" data-name="Group 3885">
                  <path id="Path_4809" data-name="Path 4809" d="M497.086,422.281a.791.791,0,1,1-.818-.763A.791.791,0,0,1,497.086,422.281Z" transform="translate(-494.697 -420.831)" fill="#f7cdb9" style="mix-blend-mode: multiply;isolation: isolate"/>
                  <path id="Path_4810" data-name="Path 4810" d="M497.086,421.441a.791.791,0,1,1-.818-.763A.791.791,0,0,1,497.086,421.441Z" transform="translate(-494.697 -420.191)" fill="#3c2417"/>
                  <path id="Path_4811" data-name="Path 4811" d="M499.514,424a.2.2,0,1,1-.2-.191A.2.2,0,0,1,499.514,424Z" transform="translate(-497.45 -422.577)" fill="#fff"/>
                  <path id="Path_4812" data-name="Path 4812" d="M494.681,419.282a1.153,1.153,0,0,0-.93-.64,1.241,1.241,0,0,0-1.13.524.314.314,0,0,1-.06,0,.6.6,0,0,1-.169-.045.782.782,0,0,1-.228-.155.025.025,0,0,0-.028,0,.025.025,0,0,0-.011.033.863.863,0,0,0,.046.084.815.815,0,0,0,.135.17.786.786,0,0,0,.187.134.626.626,0,0,0,.075.032c.019.006.039.01.035.01a.129.129,0,0,0,.128-.069,1.083,1.083,0,0,1,1-.513.962.962,0,0,1,.768.52.1.1,0,1,0,.184-.079Z" transform="translate(-492.121 -418.635)" fill="#3c2417"/>
                </g>
                <g id="Group_3886" data-name="Group 3886" transform="translate(5.635)">
                  <path id="Path_4813" data-name="Path 4813" d="M518.086,422.281a.791.791,0,1,1-.818-.763A.791.791,0,0,1,518.086,422.281Z" transform="translate(-516.325 -420.831)" fill="#f7cdb9" style="mix-blend-mode: multiply;isolation: isolate"/>
                  <path id="Path_4814" data-name="Path 4814" d="M518.086,421.441a.791.791,0,1,1-.818-.763A.791.791,0,0,1,518.086,421.441Z" transform="translate(-516.325 -420.191)" fill="#3c2417"/>
                  <path id="Path_4815" data-name="Path 4815" d="M520.514,424a.2.2,0,1,1-.2-.191A.2.2,0,0,1,520.514,424Z" transform="translate(-519.077 -422.577)" fill="#fff"/>
                  <path id="Path_4816" data-name="Path 4816" d="M515.761,419.282a1.153,1.153,0,0,1,.93-.64,1.241,1.241,0,0,1,1.13.524.314.314,0,0,0,.06,0,.594.594,0,0,0,.169-.045.778.778,0,0,0,.228-.155.026.026,0,0,1,.029,0,.025.025,0,0,1,.011.033.888.888,0,0,1-.045.084.815.815,0,0,1-.135.17.779.779,0,0,1-.186.134.626.626,0,0,1-.075.032c-.019.006-.039.01-.035.01a.13.13,0,0,1-.128-.069,1.083,1.083,0,0,0-1-.513.962.962,0,0,0-.767.52.1.1,0,1,1-.184-.079Z" transform="translate(-515.753 -418.635)" fill="#3c2417"/>
                </g>
              </g>
            </g>
            <path id="Path_4817" data-name="Path 4817" d="M495.774,382.684a1.158,1.158,0,0,0,.044-1.332,1.194,1.194,0,0,0-.671-1.906,1.065,1.065,0,0,0-.306-.136,1.168,1.168,0,0,0-1.884-1.216,1.373,1.373,0,1,0-2.543,1.013,1.146,1.146,0,0,0-.394.181c0-.014,0-.027,0-.041a1.236,1.236,0,0,0-.5-.99,1.31,1.31,0,0,0-1.3-1.506c-.025,0-.049,0-.073,0a1.592,1.592,0,0,0-1.4.372,1.28,1.28,0,0,0-1.156,1.272,1.112,1.112,0,0,0-.876.617,1.3,1.3,0,0,0-.62,1.1,1.17,1.17,0,0,0-.763,1.393,1.473,1.473,0,0,0,.2,2.279,1.485,1.485,0,0,0-.018.218,1.5,1.5,0,0,0,2.544,1.083,1.1,1.1,0,0,0,.856-.836h.016a1.153,1.153,0,0,0,1.153-1.153c0-.007,0-.013,0-.02a1.188,1.188,0,0,0,.794-.733,1.464,1.464,0,0,0,.165-.047,1.525,1.525,0,0,0,1.411.97,1.151,1.151,0,0,0,1.145,1.035c.035,0,.069,0,.1-.005a1.221,1.221,0,0,0-.009.139,1.182,1.182,0,0,0,2.208.589,1.513,1.513,0,1,0,1.877-2.348Z" transform="translate(-482.883 -376.72)" fill="#3c2417"/>
            <g id="Group_3889" data-name="Group 3889" transform="translate(4.58 14.847)">
              <path id="Path_4818" data-name="Path 4818" d="M505.3,438.984a1.614,1.614,0,0,1-3.2,0Z" transform="translate(-502.092 -438.984)" fill="#f05d44"/>
              <path id="Rectangle_997" data-name="Rectangle 997" d="M0,0H2.671a0,0,0,0,1,0,0V0a.534.534,0,0,1-.534.534H.534A.534.534,0,0,1,0,0V0A0,0,0,0,1,0,0Z" transform="translate(0.25)" fill="#fff"/>
            </g>
          </g>
        </g>
      </g>
    </g>
  </g>
</svg>
