<svg id="Group_4467" data-name="Group 4467" xmlns="http://www.w3.org/2000/svg" width="70.368" height="93.153" viewBox="0 0 70.368 93.153">
  <g id="Group_4466" data-name="Group 4466" transform="translate(0.149 0)">
    <rect id="Rectangle_1244" data-name="Rectangle 1244" width="70.219" height="93.153" transform="translate(0 0)" fill="#edeef0"/>
    <rect id="Rectangle_1245" data-name="Rectangle 1245" width="28.09" height="2.025" transform="translate(9.21 8.197)" fill="#5b5b5f" opacity="0.4"/>
    <rect id="Rectangle_1246" data-name="Rectangle 1246" width="51.799" height="2.025" transform="translate(9.21 17.539)" fill="#5b5b5f" opacity="0.4"/>
    <rect id="Rectangle_1247" data-name="Rectangle 1247" width="51.799" height="2.025" transform="translate(9.21 26.881)" fill="#5b5b5f" opacity="0.4"/>
    <rect id="Rectangle_1248" data-name="Rectangle 1248" width="51.799" height="2.025" transform="translate(9.21 36.222)" fill="#5b5b5f" opacity="0.4"/>
    <rect id="Rectangle_1249" data-name="Rectangle 1249" width="51.799" height="2.025" transform="translate(9.21 45.564)" fill="#5b5b5f" opacity="0.4"/>
    <rect id="Rectangle_1250" data-name="Rectangle 1250" width="51.799" height="2.025" transform="translate(9.21 54.905)" fill="#5b5b5f" opacity="0.4"/>
    <rect id="Rectangle_1251" data-name="Rectangle 1251" width="51.799" height="2.025" transform="translate(9.21 64.247)" fill="#5b5b5f" opacity="0.4"/>
    <rect id="Rectangle_1252" data-name="Rectangle 1252" width="51.799" height="2.025" transform="translate(9.21 73.589)" fill="#5b5b5f" opacity="0.4"/>
    <rect id="Rectangle_1253" data-name="Rectangle 1253" width="51.799" height="2.025" transform="translate(9.21 82.93)" fill="#5b5b5f" opacity="0.4"/>
  </g>
  <g id="search_1_" data-name="search (1)" transform="translate(0 5.618)">
    <path id="Path_5907" data-name="Path 5907" d="M333.923,328.608h0a5.38,5.38,0,0,1-5.314,5.314h0a5.514,5.514,0,0,1-3.948-1.67l-17.005-18.524a1.468,1.468,0,0,1,0-2.126l3.948-3.948a1.468,1.468,0,0,1,2.126,0l18.524,17.157A5.175,5.175,0,0,1,333.923,328.608Z" transform="translate(-267.116 -267.115)" fill="#b06328"/>
    <rect id="Rectangle_1257" data-name="Rectangle 1257" width="4.251" height="6.377" transform="translate(43.993 40.987) rotate(135)" fill="#b0c4d8"/>
    <path id="Path_5908" data-name="Path 5908" d="M284.586,284.587l.759.759,1.518-1.518-4.555-4.555-3.037,3.037,2.278,2.277h0A2.029,2.029,0,0,1,284.586,284.587Z" transform="translate(-242.832 -242.833)" fill="#99b4cd"/>
    <path id="Path_5909" data-name="Path 5909" d="M22.775,0A22.775,22.775,0,1,0,45.55,22.775,22.745,22.745,0,0,0,22.775,0Zm0,41A18.22,18.22,0,1,1,41,22.775,18.274,18.274,0,0,1,22.775,41Z" transform="translate(0)" fill="#c4d7e5"/>
    <ellipse id="Ellipse_203" data-name="Ellipse 203" cx="18.22" cy="18.22" rx="18.22" ry="18.22" transform="translate(4.555 4.555)" fill="#70b7e5" opacity="0.68"/>
    <path id="Path_5910" data-name="Path 5910" d="M75.445,85.957A12.887,12.887,0,0,1,86.529,74.873h.152a2.235,2.235,0,0,0,.3-4.4,15.3,15.3,0,0,0-4.555-.152A13.528,13.528,0,0,0,71.042,81.705a11.421,11.421,0,0,0,.152,4.555c.456,2.581,4.1,2.278,4.4-.3C75.445,86.109,75.445,85.957,75.445,85.957Z" transform="translate(-61.628 -61.056)" fill="#bbe1fe" opacity="0.58"/>
    <path id="Path_5911" data-name="Path 5911" d="M36.427,54.648a18.274,18.274,0,0,1,18.22-18.22,19.024,19.024,0,0,1,12.147,4.555A18.012,18.012,0,0,0,53.129,34.91a18.274,18.274,0,0,0-18.22,18.22A18.554,18.554,0,0,0,40.982,66.8,19.024,19.024,0,0,1,36.427,54.648Z" transform="translate(-30.354 -30.355)" fill="#4c9cd6"/>
    <path id="Path_5912" data-name="Path 5912" d="M174.545,197.321h0a22.745,22.745,0,0,0,22.775-22.775h0a1.522,1.522,0,0,0-1.518,1.518,20.652,20.652,0,0,1-6.073,13.361,21.393,21.393,0,0,1-13.665,6.377A1.522,1.522,0,0,0,174.545,197.321Z" transform="translate(-151.77 -151.771)" fill="#b0c9db"/>
    <path id="Path_5913" data-name="Path 5913" d="M22.775,0h0A22.745,22.745,0,0,0,0,22.775H0a1.522,1.522,0,0,0,1.518-1.518A20.556,20.556,0,0,1,7.136,8.351,22.294,22.294,0,0,1,21.257,1.518,1.521,1.521,0,0,0,22.775,0Z" transform="translate(0)" fill="#e2e7f0"/>
    <path id="Path_5914" data-name="Path 5914" d="M337.16,356.533l-.911-.759a5.306,5.306,0,0,1,1.215,3.34h0a2.18,2.18,0,0,1-3.8,1.367l-15.942-15.943a2.2,2.2,0,0,0-3.188,0l-1.518,1.518,16.55,17.764a6.094,6.094,0,0,0,3.34,1.822,5.317,5.317,0,0,0,5.921-5.921A4.729,4.729,0,0,0,337.16,356.533Z" transform="translate(-272.176 -298.988)" fill="#a35425"/>
    <path id="Path_5915" data-name="Path 5915" d="M347.322,325.82a.913.913,0,0,1-.607-.152l-3.8-3.8a.751.751,0,0,1,1.063-1.063l3.8,3.8a.734.734,0,0,1,0,1.063C347.777,325.82,347.473,325.82,347.322,325.82Z" transform="translate(-297.976 -278.752)" fill="#c97629"/>
  </g>
</svg>
