<svg xmlns="http://www.w3.org/2000/svg" width="77.92" height="22.923" viewBox="0 0 77.92 22.923">
  <g id="Group_5183" data-name="Group 5183" transform="translate(-19.413 0)">
    <g id="Group_5182" data-name="Group 5182">
      <g id="Group_3142" data-name="Group 3142" transform="translate(-249.667 -437)">
        <path id="star_3_" data-name="star (3)" d="M23.858,9.154a1.269,1.269,0,0,0-1.094-.874l-6.9-.627-2.73-6.39a1.271,1.271,0,0,0-2.338,0L8.061,7.653,1.156,8.28A1.273,1.273,0,0,0,.434,10.5l5.219,4.577L4.114,21.86A1.269,1.269,0,0,0,6,23.233l5.955-3.559,5.953,3.559a1.271,1.271,0,0,0,1.892-1.373l-1.539-6.779,5.219-4.576a1.272,1.272,0,0,0,.373-1.351Zm0,0" transform="translate(323.08 436.509)" fill="#b0dff6"/>
        <path id="star_3_2" data-name="star (3)" d="M23.858,9.154a1.269,1.269,0,0,0-1.094-.874l-6.9-.627-2.73-6.39a1.271,1.271,0,0,0-2.338,0L8.061,7.653,1.156,8.28A1.273,1.273,0,0,0,.434,10.5l5.219,4.577L4.114,21.86A1.269,1.269,0,0,0,6,23.233l5.955-3.559,5.953,3.559a1.271,1.271,0,0,0,1.892-1.373l-1.539-6.779,5.219-4.576a1.272,1.272,0,0,0,.373-1.351Zm0,0" transform="translate(296.08 436.509)" fill="#ffc107"/>
        <path id="star_3_3" data-name="star (3)" d="M23.858,9.154a1.269,1.269,0,0,0-1.094-.874l-6.9-.627-2.73-6.39a1.271,1.271,0,0,0-2.338,0L8.061,7.653,1.156,8.28A1.273,1.273,0,0,0,.434,10.5l5.219,4.577L4.114,21.86A1.269,1.269,0,0,0,6,23.233l5.955-3.559,5.953,3.559a1.271,1.271,0,0,0,1.892-1.373l-1.539-6.779,5.219-4.576a1.272,1.272,0,0,0,.373-1.351Zm0,0" transform="translate(269.08 436.509)" fill="#ffc107"/>
      </g>
    </g>
  </g>
</svg>
