<svg id="hammer" xmlns="http://www.w3.org/2000/svg" width="62.854" height="60.383" viewBox="0 0 62.854 60.383">
  <g id="Group_4463" data-name="Group 4463" transform="translate(0 0)">
    <path id="Path_5887" data-name="Path 5887" d="M162.515,72.423,136.44,98.5a2.549,2.549,0,0,1-3.6,0l-2.8-2.8a2.549,2.549,0,0,1,0-3.6L156.11,66.018a2.549,2.549,0,0,1,3.6,0l2.8,2.8a2.549,2.549,0,0,1,0,3.6Z" transform="translate(-112.408 -55.742)" fill="#b9c1cb"/>
    <g id="Group_4462" data-name="Group 4462" transform="translate(16.881 9.529)">
      <path id="Path_5888" data-name="Path 5888" d="M229.5,92.233,216.762,104.97q-3.307-3.1-6.4-6.409l12.73-12.73Q226.4,88.926,229.5,92.233Z" transform="translate(-198.524 -82.83)" fill="#a0aab7"/>
      <path id="Path_5889" data-name="Path 5889" d="M132.614,98.277l-2.58-2.58a2.549,2.549,0,0,1,0-3.6l26.075-26.075a2.549,2.549,0,0,1,3.6,0l2.58,2.58a2.549,2.549,0,0,0-3.6,0L132.614,94.672a2.549,2.549,0,0,0,0,3.6Z" transform="translate(-129.288 -65.271)" fill="#a0aab7"/>
      <path id="Path_5890" data-name="Path 5890" d="M0,0H12.053V12.053H0Z" transform="translate(32.795 12.523) rotate(45)" fill="#a0aab7"/>
    </g>
    <path id="Path_5891" data-name="Path 5891" d="M146.836,33.122a3.349,3.349,0,0,1-4.337-.087,137.852,137.852,0,0,1-12.224-12.228,3.308,3.308,0,0,1-.087-4.282q1.851-2.257,3.9-4.313a24.035,24.035,0,0,0-13.624-6.319,2.665,2.665,0,0,1-2.284-1.882A2.7,2.7,0,0,1,120.136.639c8.464-2.172,15.178,1.536,20.507,5.911q1.665,1.41,3.281,2.869a137.809,137.809,0,0,1,11.034,11.159,3.351,3.351,0,0,1,.087,4.337A59.138,59.138,0,0,1,146.836,33.122Z" transform="translate(-102.827 0.001)" fill="#b9c1cb"/>
    <path id="Path_5892" data-name="Path 5892" d="M146.836,33.122a3.349,3.349,0,0,1-4.337-.087,137.852,137.852,0,0,1-12.224-12.228,3.308,3.308,0,0,1-.087-4.282q1.851-2.257,3.9-4.313a24.035,24.035,0,0,0-13.624-6.319,2.665,2.665,0,0,1-2.284-1.882A2.7,2.7,0,0,1,120.136.639c8.464-2.172,15.178,1.536,20.507,5.911q1.665,1.41,3.281,2.869C138.3,12.26,127.375,19.038,146.836,33.122Z" transform="translate(-102.827 0.001)" fill="#a0aab7"/>
    <path id="Path_5893" data-name="Path 5893" d="M331.687,199.948a22.435,22.435,0,0,1-2.841-2.841,3,3,0,0,1,.1-3.951q4.148-4.511,8.66-8.66a3,3,0,0,1,3.951-.1,22.434,22.434,0,0,1,2.841,2.841,3,3,0,0,1-.1,3.951q-4.148,4.511-8.66,8.66A3,3,0,0,1,331.687,199.948Z" transform="translate(-282.239 -156.881)" fill="#b9c1cb"/>
    <path id="Path_5894" data-name="Path 5894" d="M338.592,235.077q-1.459,1.419-2.957,2.8a3,3,0,0,1-3.951.1,22.432,22.432,0,0,1-2.841-2.841,3,3,0,0,1,.1-3.95q1.377-1.5,2.795-2.954a3.257,3.257,0,0,0,.563,3.188,24.466,24.466,0,0,0,3.1,3.1,3.259,3.259,0,0,0,3.192.563Z" transform="translate(-282.236 -194.908)" fill="#a0aab7"/>
    <path id="Path_5895" data-name="Path 5895" d="M19.439,252.85a28.709,28.709,0,0,1-4.981-4.981,3.747,3.747,0,0,1,.2-4.842q7.548-8.191,15.739-15.739a3.747,3.747,0,0,1,4.842-.2,28.709,28.709,0,0,1,4.981,4.981,3.747,3.747,0,0,1-.2,4.842q-7.548,8.191-15.739,15.739A3.747,3.747,0,0,1,19.439,252.85Z" transform="translate(-13.665 -193.259)" fill="#da4a54"/>
    <path id="Path_5896" data-name="Path 5896" d="M15.4,249.008q-.482-.555-.937-1.138a3.748,3.748,0,0,1,.2-4.842q7.548-8.192,15.74-15.74a3.747,3.747,0,0,1,4.841-.2q.581.454,1.136.936a3.993,3.993,0,0,0-3.122,1.035q-8.753,8.067-16.82,16.82a3.989,3.989,0,0,0-1.034,3.124Z" transform="translate(-13.666 -193.261)" fill="#c63d4f"/>
  </g>
</svg>
