<svg id="Layer_47" xmlns="http://www.w3.org/2000/svg" width="58.492" height="76.759" viewBox="0 0 58.492 76.759">
  <path id="Path_732" data-name="Path 732" d="M92.1,33.4H82.625a2.321,2.321,0,0,1-.18,3.27,2.233,2.233,0,0,1-1.53.6H61.3a2.311,2.311,0,0,1-2.31-2.31,2.233,2.233,0,0,1,.6-1.53H49.93a3.341,3.341,0,0,0-3.33,3.33V96.091a3.341,3.341,0,0,0,3.33,3.33H92.1a3.341,3.341,0,0,0,3.33-3.33V36.76A3.348,3.348,0,0,0,92.1,33.4Z" transform="translate(-45.85 -23.381)" fill="#b26e3b"/>
  <path id="Path_733" data-name="Path 733" d="M99.244,43.7H89.765a2.346,2.346,0,0,1-1.71.78H68.438a2.195,2.195,0,0,1-1.71-.78H57.07c-.15,0-.24.12-.27.27V103.3c0,.15.12.24.27.27H90.425l9.089-9.089V43.97C99.484,43.82,99.394,43.7,99.244,43.7Z" transform="translate(-52.991 -30.592)" fill="#e9e9ea"/>
  <path id="Path_734" data-name="Path 734" d="M169.07,213c-.15,0-.24.12-.27.27v8.819L177.889,213Z" transform="translate(-131.395 -149.109)" fill="#ffcd29"/>
  <path id="Path_735" data-name="Path 735" d="M81.01,120.6h3.03a1.408,1.408,0,0,1,1.41,1.41v3.03a1.408,1.408,0,0,1-1.41,1.41H81.01a1.408,1.408,0,0,1-1.41-1.41v-3.03A1.408,1.408,0,0,1,81.01,120.6Z" transform="translate(-68.951 -84.425)" fill="#6dcc6d"/>
  <path id="Path_736" data-name="Path 736" d="M81.01,158.5h3.03a1.408,1.408,0,0,1,1.41,1.41v3.03a1.408,1.408,0,0,1-1.41,1.41H81.01a1.408,1.408,0,0,1-1.41-1.41v-3.03A1.408,1.408,0,0,1,81.01,158.5Z" transform="translate(-68.951 -110.957)" fill="#6dcc6d"/>
  <path id="Path_737" data-name="Path 737" d="M81.01,82.6h3.03a1.408,1.408,0,0,1,1.41,1.41v3.03a1.408,1.408,0,0,1-1.41,1.41H81.01a1.408,1.408,0,0,1-1.41-1.41V84.01A1.408,1.408,0,0,1,81.01,82.6Z" transform="translate(-68.951 -57.823)" fill="#6dcc6d"/>
  <path id="Path_738" data-name="Path 738" d="M81.01,196.5h3.03a1.408,1.408,0,0,1,1.41,1.41v3.03a1.408,1.408,0,0,1-1.41,1.41H81.01a1.408,1.408,0,0,1-1.41-1.41v-3.03A1.408,1.408,0,0,1,81.01,196.5Z" transform="translate(-68.951 -137.558)" fill="#6dcc6d"/>
  <path id="Path_739" data-name="Path 739" d="M115.419,7.9a5.524,5.524,0,0,0-5.519,5.519V14.8h3.09v-1.38a2.46,2.46,0,0,1,4.919,0V14.8H121v-1.38A5.615,5.615,0,0,0,115.419,7.9Z" transform="translate(-90.163 -5.53)" fill="#e9e9ea"/>
  <path id="Path_740" data-name="Path 740" d="M109.827,30.9H90.21a2.31,2.31,0,0,0,0,4.619h19.617a2.31,2.31,0,1,0,0-4.619Z" transform="translate(-74.762 -21.631)" fill="#898989"/>
  <path id="Path_741" data-name="Path 741" d="M176.929,210.95a.758.758,0,0,0-.69-.45H167.42a1.011,1.011,0,0,0-1.02,1.02v8.819a.743.743,0,0,0,.75.75.862.862,0,0,0,.54-.21l9.089-9.089A.946.946,0,0,0,176.929,210.95Zm-9.029,7.559V212h6.509Z" transform="translate(-129.715 -147.359)" fill="#231f20"/>
  <path id="Path_742" data-name="Path 742" d="M90.354,30.9H80.875a.743.743,0,0,0-.75.75.815.815,0,0,0,.18.51,1.56,1.56,0,0,1-.12,2.19,1.523,1.523,0,0,1-1.05.39H59.548a1.549,1.549,0,0,1-1.56-1.56,1.679,1.679,0,0,1,.39-1.05.753.753,0,0,0-.06-1.05.815.815,0,0,0-.51-.18H48.179A4.084,4.084,0,0,0,44.1,34.979V94.311a4.084,4.084,0,0,0,4.079,4.079H90.354a4.084,4.084,0,0,0,4.079-4.079v-59.3A4.09,4.09,0,0,0,90.354,30.9Zm2.58,63.441a2.579,2.579,0,0,1-2.58,2.58H48.179a2.579,2.579,0,0,1-2.58-2.58V35.009a2.579,2.579,0,0,1,2.58-2.58h8.4a3.071,3.071,0,0,0,2.16,3.749,3.664,3.664,0,0,0,.78.09H79.165a3.072,3.072,0,0,0,3.06-3.06,3.27,3.27,0,0,0-.09-.78h8.249a2.579,2.579,0,0,1,2.58,2.58V94.341Z" transform="translate(-44.1 -21.631)" fill="#231f20"/>
  <path id="Path_743" data-name="Path 743" d="M108.077,28.4H88.46a3.06,3.06,0,0,0,0,6.119h19.617a3.06,3.06,0,1,0,0-6.119Zm0,4.619H88.46a1.56,1.56,0,0,1,0-3.12h19.617a1.549,1.549,0,0,1,1.56,1.56,1.568,1.568,0,0,1-1.56,1.56Z" transform="translate(-73.012 -19.881)" fill="#231f20"/>
  <path id="Path_744" data-name="Path 744" d="M97.494,41.2H88.015a.82.82,0,0,0-.57.24,1.566,1.566,0,0,1-1.17.51H66.688a1.566,1.566,0,0,1-1.17-.51.82.82,0,0,0-.57-.24H55.32a1.011,1.011,0,0,0-1.02,1.02v59.332a1.011,1.011,0,0,0,1.02,1.02H88.675a.862.862,0,0,0,.54-.21L98.3,93.273a.723.723,0,0,0,.21-.54V42.22A1.051,1.051,0,0,0,97.494,41.2Zm-.48,51.2-8.639,8.639H55.8V42.7h8.849a3.181,3.181,0,0,0,2.01.78H86.306a2.913,2.913,0,0,0,2.01-.78h8.7Z" transform="translate(-51.24 -28.842)" fill="#231f20"/>
  <path id="Path_745" data-name="Path 745" d="M113.669,5.4a6.266,6.266,0,0,0-6.269,6.269v1.38a.743.743,0,0,0,.75.75h3.09a.743.743,0,0,0,.75-.75v-1.38a1.71,1.71,0,0,1,3.42,0h0v1.38a.743.743,0,0,0,.75.75h3.09a.743.743,0,0,0,.75-.75v-1.38A6.357,6.357,0,0,0,113.669,5.4Zm4.769,6.9h-1.59v-.63a3.21,3.21,0,0,0-6.419,0v.63h-1.59v-.63a4.769,4.769,0,1,1,9.539,0Z" transform="translate(-88.413 -3.78)" fill="#231f20"/>
  <path id="Path_746" data-name="Path 746" d="M114.8,43.8a.743.743,0,0,0-.75.75v2.07a1.139,1.139,0,0,1-1.14,1.14H99.14A1.139,1.139,0,0,1,98,46.62V44.55a.75.75,0,0,0-1.5,0v2.07a2.643,2.643,0,0,0,2.64,2.64h13.768a2.643,2.643,0,0,0,2.64-2.64V44.55A.743.743,0,0,0,114.8,43.8Z" transform="translate(-80.782 -30.662)" fill="#231f20"/>
  <path id="Path_747" data-name="Path 747" d="M127.988,121.2H111.85a.75.75,0,1,0,0,1.5h16.138a.75.75,0,1,0,0-1.5Z" transform="translate(-91.003 -84.845)" fill="#231f20"/>
  <path id="Path_748" data-name="Path 748" d="M127.988,134.4H111.85a.75.75,0,1,0,0,1.5h16.138a.75.75,0,1,0,0-1.5Z" transform="translate(-91.003 -94.086)" fill="#231f20"/>
  <path id="Path_749" data-name="Path 749" d="M127.988,159.1H111.85a.75.75,0,0,0,0,1.5h16.138a.75.75,0,1,0,0-1.5Z" transform="translate(-91.003 -111.377)" fill="#231f20"/>
  <path id="Path_750" data-name="Path 750" d="M127.988,172.4H111.85a.75.75,0,1,0,0,1.5h16.138a.75.75,0,1,0,0-1.5Z" transform="translate(-91.003 -120.687)" fill="#231f20"/>
  <path id="Path_751" data-name="Path 751" d="M127.988,197.1H111.85a.75.75,0,0,0,0,1.5h16.138a.75.75,0,1,0,0-1.5Z" transform="translate(-91.003 -137.978)" fill="#231f20"/>
  <path id="Path_752" data-name="Path 752" d="M124.028,210.3H111.85a.75.75,0,1,0,0,1.5h12.178a.75.75,0,1,0,0-1.5Z" transform="translate(-91.003 -147.219)" fill="#231f20"/>
  <path id="Path_753" data-name="Path 753" d="M82.259,118.1h-3a2.151,2.151,0,0,0-2.16,2.16v3.03a2.151,2.151,0,0,0,2.16,2.16h3.03a2.151,2.151,0,0,0,2.16-2.16v-3.03A2.2,2.2,0,0,0,82.259,118.1Zm.66,5.159a.666.666,0,0,1-.66.66h-3a.666.666,0,0,1-.66-.66v-3.03a.666.666,0,0,1,.66-.66h3.03a.666.666,0,0,1,.66.66v3.03Z" transform="translate(-67.201 -82.675)" fill="#231f20"/>
  <path id="Path_754" data-name="Path 754" d="M90.9,119.575a.725.725,0,0,0-1.05,0l-3.09,3.09-1.08-1.17a.744.744,0,0,0-1.11.99l1.62,1.77a.751.751,0,0,0,.54.24h.03a.862.862,0,0,0,.54-.21l3.659-3.659A.859.859,0,0,0,90.9,119.575Z" transform="translate(-72.3 -83.55)" fill="#231f20"/>
  <path id="Path_755" data-name="Path 755" d="M82.259,156h-3a2.151,2.151,0,0,0-2.16,2.16v3.03a2.151,2.151,0,0,0,2.16,2.16h3.03a2.151,2.151,0,0,0,2.16-2.16v-3.03A2.216,2.216,0,0,0,82.259,156Zm.66,5.189a.666.666,0,0,1-.66.66h-3a.666.666,0,0,1-.66-.66v-3.03a.666.666,0,0,1,.66-.66h3.03a.666.666,0,0,1,.66.66v3.03Z" transform="translate(-67.201 -109.207)" fill="#231f20"/>
  <path id="Path_756" data-name="Path 756" d="M90.9,157.475a.725.725,0,0,0-1.05,0l-3.09,3.09-1.08-1.17a.744.744,0,0,0-1.11.99l1.62,1.77a.751.751,0,0,0,.54.24h.03a.862.862,0,0,0,.54-.21l3.659-3.659A.861.861,0,0,0,90.9,157.475Z" transform="translate(-72.3 -110.082)" fill="#231f20"/>
  <path id="Path_757" data-name="Path 757" d="M127.988,83.2H111.85a.75.75,0,0,0,0,1.5h16.138a.75.75,0,0,0,0-1.5Z" transform="translate(-91.003 -58.243)" fill="#231f20"/>
  <path id="Path_758" data-name="Path 758" d="M127.988,96.5H111.85a.75.75,0,0,0,0,1.5h16.138a.75.75,0,0,0,0-1.5Z" transform="translate(-91.003 -67.554)" fill="#231f20"/>
  <path id="Path_759" data-name="Path 759" d="M82.259,80.1h-3a2.151,2.151,0,0,0-2.16,2.16v3.03a2.151,2.151,0,0,0,2.16,2.16h3.03a2.151,2.151,0,0,0,2.16-2.16V82.26A2.216,2.216,0,0,0,82.259,80.1Zm.66,5.189a.666.666,0,0,1-.66.66h-3a.666.666,0,0,1-.66-.66V82.26a.666.666,0,0,1,.66-.66h3.03a.666.666,0,0,1,.66.66v3.03Z" transform="translate(-67.201 -56.073)" fill="#231f20"/>
  <path id="Path_760" data-name="Path 760" d="M90.827,81.575a.725.725,0,0,0-1.05,0l-3.12,3.12-1.08-1.17a.744.744,0,0,0-1.11.99l1.62,1.77a.751.751,0,0,0,.54.24h.03a.862.862,0,0,0,.54-.21l3.659-3.659A.859.859,0,0,0,90.827,81.575Z" transform="translate(-72.23 -56.948)" fill="#231f20"/>
  <path id="Path_761" data-name="Path 761" d="M82.259,194h-3a2.151,2.151,0,0,0-2.16,2.16v3.03a2.151,2.151,0,0,0,2.16,2.16h3.03a2.151,2.151,0,0,0,2.16-2.16v-3.03A2.2,2.2,0,0,0,82.259,194Zm.66,5.159a.666.666,0,0,1-.66.66h-3a.666.666,0,0,1-.66-.66v-3.03a.666.666,0,0,1,.66-.66h3.03a.666.666,0,0,1,.66.66v3.03Z" transform="translate(-67.201 -135.808)" fill="#231f20"/>
  <path id="Path_762" data-name="Path 762" d="M90.9,195.475a.725.725,0,0,0-1.05,0l-3.09,3.09-1.08-1.17a.744.744,0,0,0-1.11.99l1.62,1.77a.751.751,0,0,0,.54.24h.03a.862.862,0,0,0,.54-.21l3.659-3.66A.859.859,0,0,0,90.9,195.475Z" transform="translate(-72.3 -136.683)" fill="#231f20"/>
  <path id="Path_763" data-name="Path 763" d="M91.95,0a.743.743,0,0,0-.75.75.862.862,0,0,0,.21.54.761.761,0,0,0,1.08-.03A.851.851,0,0,0,92.7.75.743.743,0,0,0,91.95,0Z" transform="translate(-77.072)" fill="#55acd5"/>
  <path id="Path_764" data-name="Path 764" d="M218.75,223.1a.75.75,0,1,0,.75.75A.743.743,0,0,0,218.75,223.1Z" transform="translate(-165.837 -156.179)" fill="#ffcd29"/>
  <path id="Path_765" data-name="Path 765" d="M70.09,7.051a2.812,2.812,0,0,1-2.25-2.25c0-.03-.03-.06-.06-.03a.029.029,0,0,0-.03.03,2.812,2.812,0,0,1-2.25,2.25c-.03,0-.06.03-.03.06a.029.029,0,0,0,.03.03,2.812,2.812,0,0,1,2.25,2.25c0,.03.03.06.06.03a.029.029,0,0,0,.03-.03,2.812,2.812,0,0,1,2.25-2.25c.03,0,.06-.03.03-.06C70.12,7.051,70.12,7.051,70.09,7.051Z" transform="translate(-59.052 -3.331)" fill="#6dcc6d"/>
  <path id="Path_766" data-name="Path 766" d="M228.86,195.69h-.54v-.54a.75.75,0,0,0-1.5,0v.54h-.57a.75.75,0,1,0,0,1.5h.54v.54a.75.75,0,1,0,1.5,0v-.54h.54a.743.743,0,0,0,.75-.75A.718.718,0,0,0,228.86,195.69Z" transform="translate(-171.088 -136.088)" fill="#ea4647"/>
</svg>
