<svg id="Layer_26" xmlns="http://www.w3.org/2000/svg" width="63.788" height="76.876" viewBox="0 0 63.788 76.876">
  <path id="Path_687" data-name="Path 687" d="M98.575,19.6h-31.4a2.871,2.871,0,0,0-1.981.81L57.81,27.765A2.871,2.871,0,0,0,57,29.746V54.961L68.587,70.69H88.008L99.6,54.961V20.651A1,1,0,0,0,98.575,19.6Z" transform="translate(-45.443 -13.717)" fill="#e9e9ea"/>
  <path id="Path_688" data-name="Path 688" d="M65.755,20.97l-3.692,3.692L58.37,28.325a3.046,3.046,0,0,0-.57.81h7.685a1.064,1.064,0,0,0,1.051-1.051V20.4A3.46,3.46,0,0,0,65.755,20.97Z" transform="translate(-46.003 -14.276)" fill="#ffcd29"/>
  <path id="Path_689" data-name="Path 689" d="M91.471,116.4l-16.24,22.063H55.78L39.54,116.4a2.354,2.354,0,0,0-.84,1.831v36.922a2.421,2.421,0,0,0,2.431,2.431H89.85a2.421,2.421,0,0,0,2.431-2.431V118.231A2.328,2.328,0,0,0,91.471,116.4Z" transform="translate(-32.636 -81.459)" fill="#55acd5"/>
  <path id="Path_690" data-name="Path 690" d="M76.841,189.8H57.39L41,208.2a2.356,2.356,0,0,0,1.741.72H91.46a2.477,2.477,0,0,0,1.741-.72Z" transform="translate(-34.246 -132.826)" fill="#acdef9"/>
  <path id="Path_691" data-name="Path 691" d="M43.091,114.23a2.384,2.384,0,0,0-1.591.6l4.653,6.3V114.2H43.091Z" transform="translate(-34.596 -79.92)" fill="#55acd5"/>
  <path id="Path_692" data-name="Path 692" d="M202.062,114.3H199v6.934l4.653-6.3A2.474,2.474,0,0,0,202.062,114.3Z" transform="translate(-144.818 -79.99)" fill="#55acd5"/>
  <path id="Path_693" data-name="Path 693" d="M21.832,53.591h-.54v-.54a.75.75,0,0,0-1.5,0v.54h-.54a.75.75,0,1,0,0,1.5h.54v.54a.75.75,0,0,0,1.5,0v-.54h.54a.75.75,0,0,0,0-1.5Z" transform="translate(-18.5 -36.601)" fill="#6dcc6d"/>
  <path id="Path_694" data-name="Path 694" d="M213.288,31.218a1.066,1.066,0,0,0-.12-.27c-.03-.03-.06-.09-.09-.12a.782.782,0,0,0-1.051,0,.415.415,0,0,0-.09.12.228.228,0,0,0-.06.12.271.271,0,0,0-.03.15.511.511,0,0,0,0,.3c0,.06.03.09.03.15.03.03.03.09.06.12s.06.09.09.12a.725.725,0,0,0,1.051,0h0a.415.415,0,0,0,.09-.12.228.228,0,0,0,.06-.12.225.225,0,0,0,.03-.15A1.021,1.021,0,0,0,213.288,31.218Z" transform="translate(-153.793 -21.432)" fill="#55acd5"/>
  <path id="Path_695" data-name="Path 695" d="M37.788,76.918a1.066,1.066,0,0,0-.12-.27c-.03-.03-.06-.09-.09-.12a.782.782,0,0,0-1.051,0,.414.414,0,0,0-.09.12.228.228,0,0,0-.06.12.271.271,0,0,0-.03.15.512.512,0,0,0,0,.3c0,.06.03.09.03.15.03.03.03.09.06.12s.06.09.09.12a.725.725,0,0,0,1.051,0h0a.414.414,0,0,0,.09-.12.228.228,0,0,0,.06-.12.225.225,0,0,0,.03-.15,1.126,1.126,0,0,0,.03-.3Z" transform="translate(-30.974 -53.414)" fill="#55acd5"/>
  <path id="Path_696" data-name="Path 696" d="M42.788,28.718a1.066,1.066,0,0,0-.12-.27c-.03-.03-.06-.09-.09-.12a.782.782,0,0,0-1.051,0,.415.415,0,0,0-.09.12.228.228,0,0,0-.06.12.271.271,0,0,0-.03.15.512.512,0,0,0,0,.3c0,.06.03.09.03.15.03.03.03.09.06.12s.06.09.09.12a.725.725,0,0,0,1.051,0h0a.414.414,0,0,0,.09-.12.228.228,0,0,0,.06-.12.225.225,0,0,0,.03-.15A.925.925,0,0,0,42.788,28.718Z" transform="translate(-34.473 -19.682)" fill="#ffcd29"/>
  <path id="Path_697" data-name="Path 697" d="M219.183,2.461a3.045,3.045,0,0,1-2.4-2.4.065.065,0,0,0-.06-.06c-.03,0-.03.03-.06.06a3.045,3.045,0,0,1-2.4,2.4.065.065,0,0,0-.06.06c0,.03.03.03.06.06a3.045,3.045,0,0,1,2.4,2.4.065.065,0,0,0,.06.06c.03,0,.03-.03.06-.06a3.045,3.045,0,0,1,2.4-2.4.065.065,0,0,0,.06-.06C219.213,2.461,219.183,2.461,219.183,2.461Z" transform="translate(-155.455 0)" fill="#ffcd29"/>
  <path id="Path_698" data-name="Path 698" d="M65.281,18.017a.766.766,0,0,0-.72-.06,3.636,3.636,0,0,0-1.051.72l-7.354,7.354a3.636,3.636,0,0,0-.72,1.051.748.748,0,0,0,.36.991,1.067,1.067,0,0,0,.3.06H63.78a1.806,1.806,0,0,0,1.8-1.8V18.647A.684.684,0,0,0,65.281,18.017ZM64.11,26.332a.3.3,0,0,1-.3.3H57.687l6.424-6.424Z" transform="translate(-44.299 -12.524)" fill="#231f20"/>
  <path id="Path_699" data-name="Path 699" d="M176.292,30.6H173.65a.75.75,0,0,0,0,1.5h2.642a.75.75,0,0,0,0-1.5Z" transform="translate(-126.553 -21.415)" fill="#231f20"/>
  <path id="Path_700" data-name="Path 700" d="M92,206.011,75.613,187.64a.82.82,0,0,0-.57-.24H55.621a.82.82,0,0,0-.57.24l-16.39,18.371a.744.744,0,0,0,.03,1.021,3.227,3.227,0,0,0,2.281.961H89.691a3.227,3.227,0,0,0,2.281-.961A.716.716,0,0,0,92,206.011Zm-2.281.48H40.973a1.344,1.344,0,0,1-.6-.12l15.609-17.5H74.743l15.609,17.5A1.567,1.567,0,0,1,89.721,206.491Z" transform="translate(-32.477 -131.147)" fill="#231f20"/>
  <path id="Path_701" data-name="Path 701" d="M213.21,113.959a.759.759,0,0,0-1.051.15h0a.759.759,0,0,0,.15,1.051.809.809,0,0,0,.45.15.743.743,0,0,0,.75-.75.834.834,0,0,0-.3-.6Z" transform="translate(-153.925 -79.649)" fill="#231f20"/>
  <path id="Path_702" data-name="Path 702" d="M90.132,114.068a.753.753,0,0,0-1.051.06c0,.03-.03.03-.03.06L73.022,135.951H54.351L38.321,114.188a.759.759,0,0,0-1.051-.15c-.03,0-.03.03-.06.03a3.3,3.3,0,0,0-1.111,2.4v36.922a3.164,3.164,0,0,0,3.182,3.182H88a3.164,3.164,0,0,0,3.182-3.182V116.47A2.947,2.947,0,0,0,90.132,114.068Zm-.39,39.293a1.678,1.678,0,0,1-1.681,1.681H39.312a1.678,1.678,0,0,1-1.681-1.681V116.44a1.7,1.7,0,0,1,.09-.54L53.36,137.122a.784.784,0,0,0,.6.3H73.382a.784.784,0,0,0,.6-.3L89.622,115.9a1.7,1.7,0,0,1,.09.54Z" transform="translate(-30.817 -79.698)" fill="#231f20"/>
  <path id="Path_703" data-name="Path 703" d="M44.367,111.8H41.305a3.2,3.2,0,0,0-2.1.78.781.781,0,0,0-.12,1.021l4.653,6.3a.759.759,0,0,0,1.051.15.784.784,0,0,0,.3-.6V112.52A.71.71,0,0,0,44.367,111.8Zm-.75,5.4-2.792-3.812a1.4,1.4,0,0,1,.51-.09h2.311v3.9Z" transform="translate(-32.81 -78.24)" fill="#231f20"/>
  <path id="Path_704" data-name="Path 704" d="M202.383,112.68a3.14,3.14,0,0,0-2.1-.78H197.25a.743.743,0,0,0-.75.75v6.934a.743.743,0,0,0,.75.75.784.784,0,0,0,.6-.3l4.653-6.3A.78.78,0,0,0,202.383,112.68ZM198,117.273V113.4h2.311a1.525,1.525,0,0,1,.51.09Z" transform="translate(-143.068 -78.31)" fill="#231f20"/>
  <path id="Path_705" data-name="Path 705" d="M96.825,17.1h-31.4a3.427,3.427,0,0,0-2.491,1.051l-7.384,7.324A3.566,3.566,0,0,0,54.5,28V53.211a.809.809,0,0,0,.15.45L66.237,69.391a.784.784,0,0,0,.6.3H86.259a.784.784,0,0,0,.6-.3L98.446,53.662a.737.737,0,0,0,.15-.45V18.9A1.744,1.744,0,0,0,96.825,17.1Zm.3,35.871L85.9,68.22H67.228L56,52.971V28a2.022,2.022,0,0,1,.6-1.441L63.956,19.2a2.022,2.022,0,0,1,1.441-.6H96.8a.3.3,0,0,1,.3.3v34.07Z" transform="translate(-43.694 -11.967)" fill="#231f20"/>
  <path id="Path_706" data-name="Path 706" d="M107.827,83.8H80.15a.75.75,0,0,0,0,1.5H107.8a.751.751,0,0,0,.03-1.5Z" transform="translate(-61.119 -58.645)" fill="#231f20"/>
  <path id="Path_707" data-name="Path 707" d="M117.059,70.3H103.25a.75.75,0,0,0,0,1.5h13.808a.75.75,0,0,0,0-1.5Z" transform="translate(-77.285 -49.198)" fill="#231f20"/>
  <path id="Path_708" data-name="Path 708" d="M107.827,97.3H80.15a.75.75,0,0,0,0,1.5H107.8a.751.751,0,0,0,.03-1.5Z" transform="translate(-61.119 -68.093)" fill="#231f20"/>
  <path id="Path_709" data-name="Path 709" d="M107.827,110.9H80.15a.75.75,0,1,0,0,1.5H107.8a.751.751,0,0,0,.03-1.5Z" transform="translate(-61.119 -77.61)" fill="#231f20"/>
  <path id="Path_710" data-name="Path 710" d="M107.827,124.4H80.15a.75.75,0,0,0,0,1.5H107.8a.743.743,0,0,0,.75-.75.718.718,0,0,0-.72-.75Z" transform="translate(-61.119 -87.058)" fill="#231f20"/>
  <path id="Path_711" data-name="Path 711" d="M107.827,137.9H80.15a.75.75,0,0,0,0,1.5H107.8a.751.751,0,0,0,.03-1.5Z" transform="translate(-61.119 -96.505)" fill="#231f20"/>
  <path id="Path_712" data-name="Path 712" d="M107.827,151.5H80.15a.75.75,0,0,0,0,1.5H107.8a.751.751,0,0,0,.03-1.5Z" transform="translate(-61.119 -106.023)" fill="#231f20"/>
</svg>
