<svg id="Layer_15" xmlns="http://www.w3.org/2000/svg" width="60.685" height="76.759" viewBox="0 0 60.685 76.759">
  <path id="Path_713" data-name="Path 713" d="M95.733,32.323c.3-1.5,1.619-2.908,1.619-4.5s-1.319-3-1.619-4.5c-.3-1.529.36-3.358-.21-4.767-.6-1.439-2.369-2.249-3.238-3.538s-.929-3.238-2.039-4.318-3.028-1.169-4.318-2.039-2.1-2.638-3.538-3.238c-1.409-.6-3.238.09-4.767-.21-1.5-.3-2.908-1.619-4.5-1.619s-3,1.319-4.5,1.619c-1.529.3-3.358-.36-4.767.21-1.439.6-2.249,2.369-3.538,3.238s-3.238.929-4.318,2.039-1.169,3.028-2.039,4.318-2.638,2.1-3.238,3.538c-.6,1.409.09,3.238-.21,4.767-.3,1.5-1.619,2.908-1.619,4.5s1.319,3,1.619,4.5c.3,1.529-.36,3.358.21,4.767.6,1.439,2.369,2.249,3.238,3.538s.929,3.238,2.039,4.318,3.028,1.169,4.318,2.039,2.1,2.638,3.538,3.238c1.409.6,3.238-.09,4.767.21,1.5.3,2.908,1.619,4.5,1.619s3-1.319,4.5-1.619c1.529-.3,3.358.36,4.767-.21,1.439-.6,2.249-2.369,3.538-3.238s3.238-.929,4.318-2.039,1.169-3.028,2.039-4.318,2.638-2.1,3.238-3.538C96.093,35.682,95.4,33.853,95.733,32.323Z" transform="translate(-42.304 -2.517)" fill="#ffcd29"/>
  <path id="Path_714" data-name="Path 714" d="M90.38,28.1a16.88,16.88,0,1,0,16.85,16.88h0A16.891,16.891,0,0,0,90.38,28.1Z" transform="translate(-59.528 -19.671)" fill="#fcd770"/>
  <path id="Path_715" data-name="Path 715" d="M98.712,40a13.312,13.312,0,1,0,13.312,13.312h0A13.34,13.34,0,0,0,98.712,40Z" transform="translate(-67.86 -28.003)" fill="#ffae2c"/>
  <path id="Path_716" data-name="Path 716" d="M118.3,62.086a.235.235,0,0,0,0-.33.227.227,0,0,0-.12-.06l-5.487-.81a.247.247,0,0,1-.18-.12l-2.459-4.947a.208.208,0,0,0-.3-.09c-.03.03-.09.06-.09.09L107.2,60.767a.2.2,0,0,1-.18.12l-5.457.81c-.12.03-.21.12-.18.24a.156.156,0,0,0,.06.12l3.958,3.868a.185.185,0,0,1,.06.21l-.929,5.457a.233.233,0,0,0,.18.27.27.27,0,0,0,.15-.03l4.887-2.579a.256.256,0,0,1,.21,0l4.887,2.579a.208.208,0,0,0,.3-.09.225.225,0,0,0,.03-.15l-.929-5.457a.285.285,0,0,1,.06-.21Z" transform="translate(-79.049 -38.996)" fill="#ffcd29"/>
  <path id="Path_717" data-name="Path 717" d="M106.234,145.609c-1.289.869-2.1,2.638-3.538,3.238-1.409.6-3.238-.09-4.767.21-1.5.3-2.908,1.619-4.5,1.619s-3-1.319-4.5-1.619c-1.529-.3-3.358.36-4.767-.21-1.439-.6-2.249-2.369-3.538-3.238A13,13,0,0,0,77.9,144.5v30.912a1.74,1.74,0,0,0,1.739,1.739,1.8,1.8,0,0,0,1.019-.33l11.813-8.635a1.619,1.619,0,0,1,1.919,0l11.813,8.635a1.733,1.733,0,0,0,2.429-.39,1.8,1.8,0,0,0,.33-1.019V144.5A15.743,15.743,0,0,0,106.234,145.609Z" transform="translate(-62.609 -101.171)" fill="#ea4647"/>
  <path id="Path_718" data-name="Path 718" d="M170.58,145.609a4.28,4.28,0,0,0-.78.69v29.983l.78.57a1.733,1.733,0,0,0,2.429-.39,1.8,1.8,0,0,0,.33-1.019V144.5A15.138,15.138,0,0,0,170.58,145.609Z" transform="translate(-126.955 -101.171)" fill="#fc7783"/>
  <path id="Path_719" data-name="Path 719" d="M80.728,145.609A13,13,0,0,0,78,144.5v30.912a1.74,1.74,0,0,0,1.739,1.739,1.8,1.8,0,0,0,1.019-.33l.78-.57V146.3A6.119,6.119,0,0,0,80.728,145.609Z" transform="translate(-62.679 -101.171)" fill="#fc7783"/>
  <path id="Path_720" data-name="Path 720" d="M30.228,181.289h-.54v-.54a.75.75,0,0,0-1.5,0v.54h-.54a.75.75,0,1,0,0,1.5h.54v.54a.75.75,0,0,0,1.5,0v-.54h.54a.742.742,0,0,0,.75-.75.762.762,0,0,0-.75-.75Z" transform="translate(-26.9 -126.027)" fill="#55acd5"/>
  <path id="Path_721" data-name="Path 721" d="M48.087,213.891a1.065,1.065,0,0,0-.12-.27c-.03-.03-.06-.09-.09-.12a.751.751,0,0,0-1.049,0,.414.414,0,0,0-.09.12.227.227,0,0,0-.06.12.27.27,0,0,0-.03.15.511.511,0,0,0,0,.3c0,.06.03.09.03.15.03.06.03.09.06.12s.06.09.09.12a.752.752,0,0,0,1.049.03h0a.414.414,0,0,0,.09-.12.227.227,0,0,0,.06-.12.225.225,0,0,0,.03-.15.441.441,0,0,0,.03-.33Z" transform="translate(-40.711 -149.334)" fill="#6dcc6d"/>
  <path id="Path_722" data-name="Path 722" d="M198.339.591c0-.06-.03-.09-.03-.15-.03-.06-.03-.09-.06-.12s-.06-.09-.09-.12a.751.751,0,0,0-1.049,0,.414.414,0,0,0-.09.12.227.227,0,0,0-.06.12.27.27,0,0,0-.03.15c0,.06-.03.09-.03.15V.89c0,.06.03.09.03.15.03.06.03.09.06.12s.06.09.09.12a.752.752,0,0,0,1.049.03h0a.414.414,0,0,0,.09-.12.227.227,0,0,0,.06-.12.225.225,0,0,0,.03-.15c0-.06.03-.09.03-.15A.189.189,0,0,0,198.339.591Z" transform="translate(-145.929 0.013)" fill="#ea4647"/>
  <path id="Path_723" data-name="Path 723" d="M217.477,27.989a2.967,2.967,0,0,1-2.369-2.429.064.064,0,0,0-.06-.06c-.03,0-.03.03-.06.06a2.967,2.967,0,0,1-2.429,2.369.064.064,0,0,0-.06.06c0,.03.03.03.06.06a2.967,2.967,0,0,1,2.369,2.429.064.064,0,0,0,.06.06c.03,0,.03-.03.06-.06a2.967,2.967,0,0,1,2.429-2.369.064.064,0,0,0,.06-.06Z" transform="translate(-156.852 -17.851)" fill="#ffcd29"/>
  <path id="Path_724" data-name="Path 724" d="M53.2,158.5a2.557,2.557,0,0,1-2.009-2.069c0-.03-.03-.03-.06-.03a.029.029,0,0,0-.03.03,2.557,2.557,0,0,1-2.069,2.009c-.03,0-.03.03-.03.06a.029.029,0,0,0,.03.03,2.557,2.557,0,0,1,2.009,2.069c0,.03.03.03.06.03a.029.029,0,0,0,.03-.03,2.557,2.557,0,0,1,2.069-2.009c.03,0,.03-.03.03-.06Z" transform="translate(-42.374 -109.503)" fill="#ea4647"/>
  <path id="Path_725" data-name="Path 725" d="M95.532,29.124a6.644,6.644,0,0,0,.929-2.908,6.644,6.644,0,0,0-.929-2.908,7.042,7.042,0,0,1-.69-1.709,6.856,6.856,0,0,1,0-1.919,6.776,6.776,0,0,0-.24-3,6.409,6.409,0,0,0-1.979-2.309A7.03,7.03,0,0,1,91.3,13.023a7.436,7.436,0,0,1-.75-1.739,6.611,6.611,0,0,0-1.379-2.7,6.265,6.265,0,0,0-2.7-1.379,7.436,7.436,0,0,1-1.739-.75,8.039,8.039,0,0,1-1.349-1.319A6.669,6.669,0,0,0,81.08,3.159a6.334,6.334,0,0,0-3-.24,6.856,6.856,0,0,1-1.919,0,7.042,7.042,0,0,1-1.709-.69A6.644,6.644,0,0,0,71.546,1.3a6.73,6.73,0,0,0-2.938.9,7.042,7.042,0,0,1-1.709.69,6.856,6.856,0,0,1-1.919,0,6.776,6.776,0,0,0-3,.24,6.409,6.409,0,0,0-2.309,1.979,7.03,7.03,0,0,1-1.349,1.319,7.436,7.436,0,0,1-1.739.75,6.265,6.265,0,0,0-2.7,1.379,6.265,6.265,0,0,0-1.379,2.7,7.436,7.436,0,0,1-.75,1.739,8.038,8.038,0,0,1-1.319,1.349,6.669,6.669,0,0,0-1.979,2.309,6.334,6.334,0,0,0-.24,3,6.856,6.856,0,0,1,0,1.919,7.042,7.042,0,0,1-.69,1.709,6.644,6.644,0,0,0-.929,2.908,6.644,6.644,0,0,0,.929,2.908,7.042,7.042,0,0,1,.69,1.709,6.856,6.856,0,0,1,0,1.919,6.776,6.776,0,0,0,.24,3,6.409,6.409,0,0,0,1.979,2.309,7.03,7.03,0,0,1,1.319,1.349,7.436,7.436,0,0,1,.75,1.739,6.611,6.611,0,0,0,1.379,2.7,6.265,6.265,0,0,0,2.7,1.379,7.436,7.436,0,0,1,1.739.75,8.038,8.038,0,0,1,1.349,1.319,6.669,6.669,0,0,0,2.309,1.979,6.334,6.334,0,0,0,3,.24,6.856,6.856,0,0,1,1.919,0,7.042,7.042,0,0,1,1.709.69,6.644,6.644,0,0,0,2.908.929,6.522,6.522,0,0,0,2.908-.929,7.042,7.042,0,0,1,1.709-.69,6.856,6.856,0,0,1,1.919,0,6.776,6.776,0,0,0,3-.24,6.409,6.409,0,0,0,2.309-1.979,7.03,7.03,0,0,1,1.349-1.319,7.436,7.436,0,0,1,1.739-.75,6.265,6.265,0,0,0,2.7-1.379,6.265,6.265,0,0,0,1.379-2.7,7.436,7.436,0,0,1,.75-1.739,8.039,8.039,0,0,1,1.319-1.349,6.669,6.669,0,0,0,1.979-2.309,6.334,6.334,0,0,0,.24-3,6.856,6.856,0,0,1,0-1.919A10.108,10.108,0,0,1,95.532,29.124Zm-1.319-.66a9.033,9.033,0,0,0-.84,2.1,8.728,8.728,0,0,0-.03,2.339,5.216,5.216,0,0,1-.15,2.309,5.314,5.314,0,0,1-1.559,1.769,8.287,8.287,0,0,0-1.589,1.649,8.992,8.992,0,0,0-.929,2.129,5.282,5.282,0,0,1-1.019,2.1A5.281,5.281,0,0,1,86,43.875a7.919,7.919,0,0,0-2.129.929,8.287,8.287,0,0,0-1.649,1.589,5.314,5.314,0,0,1-1.769,1.559,4.838,4.838,0,0,1-2.309.12,8.728,8.728,0,0,0-2.339.03,7.5,7.5,0,0,0-2.1.84,5.463,5.463,0,0,1-2.249.78,5.463,5.463,0,0,1-2.249-.78,9.033,9.033,0,0,0-2.1-.84A6.649,6.649,0,0,0,66,48.013c-.42,0-.81.03-1.229.06a5.216,5.216,0,0,1-2.309-.15,5.314,5.314,0,0,1-1.769-1.559,8.287,8.287,0,0,0-1.649-1.589,8.992,8.992,0,0,0-2.129-.929,5.281,5.281,0,0,1-2.1-1.019,5.281,5.281,0,0,1-1.019-2.1,7.919,7.919,0,0,0-.929-2.129,8.287,8.287,0,0,0-1.589-1.649,5.542,5.542,0,0,1-1.559-1.739,5.216,5.216,0,0,1-.15-2.309,8.728,8.728,0,0,0-.03-2.339,7.5,7.5,0,0,0-.84-2.1,5.463,5.463,0,0,1-.78-2.249,5.463,5.463,0,0,1,.78-2.249,9.033,9.033,0,0,0,.84-2.1,8.728,8.728,0,0,0,.03-2.339,5.216,5.216,0,0,1,.15-2.309,4.966,4.966,0,0,1,1.559-1.739,8.287,8.287,0,0,0,1.589-1.649A8.992,8.992,0,0,0,53.8,11.7a5.281,5.281,0,0,1,1.019-2.1,5.281,5.281,0,0,1,2.1-1.019,7.919,7.919,0,0,0,2.129-.929,8.287,8.287,0,0,0,1.649-1.589,5.314,5.314,0,0,1,1.769-1.559,5.216,5.216,0,0,1,2.309-.15,8.728,8.728,0,0,0,2.339-.03,7.5,7.5,0,0,0,2.1-.84,5.463,5.463,0,0,1,2.249-.78,5.463,5.463,0,0,1,2.249.78,9.033,9.033,0,0,0,2.1.84,8.728,8.728,0,0,0,2.339.03,5.216,5.216,0,0,1,2.309.15,5.314,5.314,0,0,1,1.769,1.559,8.287,8.287,0,0,0,1.649,1.589A8.992,8.992,0,0,0,86,8.586a5.282,5.282,0,0,1,2.1,1.019,5.281,5.281,0,0,1,1.019,2.1,7.919,7.919,0,0,0,.929,2.129,8.287,8.287,0,0,0,1.589,1.649,5.542,5.542,0,0,1,1.559,1.739,4.838,4.838,0,0,1,.12,2.309,8.728,8.728,0,0,0,.03,2.339,7.5,7.5,0,0,0,.84,2.1,5.463,5.463,0,0,1,.78,2.249A5.388,5.388,0,0,1,94.213,28.464Z" transform="translate(-40.693 -0.906)" fill="#231f20"/>
  <path id="Path_726" data-name="Path 726" d="M171.937,142.172a.712.712,0,0,0-.69-.09l-.81.27a7.92,7.92,0,0,0-2.129.929,5.6,5.6,0,0,0-.9.78.7.7,0,0,0-.21.51v29.983a.783.783,0,0,0,.3.6l.78.57a2.49,2.49,0,0,0,3.478-.54,2.531,2.531,0,0,0,.48-1.469V142.771A.609.609,0,0,0,171.937,142.172Zm-1.169,31.542a1,1,0,0,1-.989.989,1.081,1.081,0,0,1-.6-.18l-.48-.36V144.87a4.726,4.726,0,0,1,.45-.36h0a6.72,6.72,0,0,1,1.589-.69Z" transform="translate(-125.134 -99.443)" fill="#231f20"/>
  <path id="Path_727" data-name="Path 727" d="M107.381,142.106a.712.712,0,0,0-.69-.09l-.81.27a7.919,7.919,0,0,0-2.129.929h0A8.287,8.287,0,0,0,102.1,144.8a5.314,5.314,0,0,1-1.769,1.559,4.838,4.838,0,0,1-2.309.12,8.727,8.727,0,0,0-2.339.03,7.5,7.5,0,0,0-2.1.84,5.463,5.463,0,0,1-2.249.78,5.463,5.463,0,0,1-2.249-.78,9.033,9.033,0,0,0-2.1-.84,8.728,8.728,0,0,0-2.339-.03,5.216,5.216,0,0,1-2.309-.15,5.314,5.314,0,0,1-1.769-1.559,8.287,8.287,0,0,0-1.649-1.589,8.992,8.992,0,0,0-2.129-.929c-.27-.09-.51-.18-.78-.27a.745.745,0,0,0-.959.45.875.875,0,0,0-.06.27v30.912a2.482,2.482,0,0,0,2.489,2.489,2.531,2.531,0,0,0,1.469-.48l11.813-8.635a.855.855,0,0,1,1.049,0l11.813,8.635a2.49,2.49,0,0,0,3.478-.54,2.531,2.531,0,0,0,.48-1.469V142.706A.449.449,0,0,0,107.381,142.106Zm-1.169,31.542a1,1,0,0,1-.989.989,1.081,1.081,0,0,1-.6-.18L92.81,165.823a2.339,2.339,0,0,0-2.818,0l-11.813,8.635a.97.97,0,0,1-1.379-.21,1.081,1.081,0,0,1-.18-.6V143.755a6.719,6.719,0,0,1,1.589.69,8.039,8.039,0,0,1,1.349,1.319,6.669,6.669,0,0,0,2.309,1.979,6.335,6.335,0,0,0,3,.24,6.855,6.855,0,0,1,1.919,0,7.042,7.042,0,0,1,1.709.69,6.644,6.644,0,0,0,2.908.929,6.644,6.644,0,0,0,2.908-.929,7.042,7.042,0,0,1,1.709-.69,6.855,6.855,0,0,1,1.919,0,6.776,6.776,0,0,0,3-.24,6.409,6.409,0,0,0,2.309-1.979,7.03,7.03,0,0,1,1.349-1.319h0a6.719,6.719,0,0,1,1.589-.69Z" transform="translate(-60.578 -99.377)" fill="#231f20"/>
  <path id="Path_728" data-name="Path 728" d="M80.257,144a6,6,0,0,0-.929-.81h0a8.992,8.992,0,0,0-2.129-.929c-.27-.09-.51-.18-.78-.27a.745.745,0,0,0-.959.45.876.876,0,0,0-.06.27v30.912a2.482,2.482,0,0,0,2.489,2.489,2.531,2.531,0,0,0,1.469-.48l.78-.57a.783.783,0,0,0,.3-.6V144.505A.671.671,0,0,0,80.257,144Zm-1.289,30.1-.48.36a.97.97,0,0,1-1.379-.21,1.081,1.081,0,0,1-.18-.6V143.755a6.72,6.72,0,0,1,1.589.69,3.028,3.028,0,0,1,.48.39Z" transform="translate(-60.858 -99.377)" fill="#231f20"/>
  <path id="Path_729" data-name="Path 729" d="M88.63,25.6a17.63,17.63,0,1,0,17.63,17.63h0A17.7,17.7,0,0,0,88.63,25.6Zm0,33.761A16.131,16.131,0,1,1,104.761,43.23,16.136,16.136,0,0,1,88.63,59.361Z" transform="translate(-57.778 -17.921)" fill="#231f20"/>
  <path id="Path_730" data-name="Path 730" d="M96.962,37.5a14.062,14.062,0,1,0,14.062,14.062h0A14.082,14.082,0,0,0,96.962,37.5Zm0,26.625a12.563,12.563,0,1,1,12.563-12.563A12.559,12.559,0,0,1,96.962,64.125Z" transform="translate(-66.11 -26.253)" fill="#231f20"/>
  <path id="Path_731" data-name="Path 731" d="M117.377,59.833a.978.978,0,0,0-.78-.66l-5.187-.75-2.339-4.707h0a.987.987,0,0,0-1.319-.45.936.936,0,0,0-.45.45l-2.339,4.707-5.187.75a.958.958,0,0,0-.81,1.109,1.013,1.013,0,0,0,.27.57l3.778,3.658-.9,5.187a1,1,0,0,0,.78,1.139,1.158,1.158,0,0,0,.63-.09l4.647-2.459,4.647,2.459a.993.993,0,0,0,1.319-.42,1.119,1.119,0,0,0,.09-.63l-.869-5.187,3.748-3.658A1,1,0,0,0,117.377,59.833Zm-5.247,3.778a.918.918,0,0,0-.27.87l.75,4.407-3.958-2.069a.956.956,0,0,0-.9,0L103.8,68.888l.75-4.407a1.025,1.025,0,0,0-.27-.87l-3.208-3.118,4.407-.63a.908.908,0,0,0,.72-.54l1.979-3.988,1.979,4.018a1.009,1.009,0,0,0,.72.54l4.407.63Z" transform="translate(-77.35 -37.223)" fill="#231f20"/>
</svg>
