<svg xmlns="http://www.w3.org/2000/svg" xmlns:xlink="http://www.w3.org/1999/xlink" width="42" height="42" viewBox="0 0 42 42">
  <defs>
    <clipPath id="clip-path">
      <circle id="Ellipse_127" data-name="Ellipse 127" cx="21" cy="21" r="21" fill="#fff"/>
    </clipPath>
  </defs>
  <g id="Mask_Group_14" data-name="Mask Group 14" clip-path="url(#clip-path)">
    <g id="Group_3197" data-name="Group 3197" transform="translate(-825.503 -111.676)">
      <g id="man" transform="translate(826.144 118.329)" style="mix-blend-mode: multiply;isolation: isolate">
        <g id="Group_3214" data-name="Group 3214" transform="translate(0 0)">
          <rect id="Rectangle_882" data-name="Rectangle 882" width="7.888" height="3.346" transform="translate(17.051 24.104)" fill="#c8c8c8"/>
          <g id="Group_3197-2" data-name="Group 3197" transform="translate(16.759 21.447)">
            <path id="Path_4044" data-name="Path 4044" d="M888.312,188.97l-1.006-.464v-3.2h-6.455v3.2l-1.01.436.269,9.068h.741v1.39h6.455v-1.39h.737Z" transform="translate(-879.841 -185.309)" fill="#c8c8c8"/>
            <path id="Path_4045" data-name="Path 4045" d="M883,185.309v1.228l6.456,1.758v-2.986Z" transform="translate(-881.985 -185.309)" fill="#c8c8c8"/>
          </g>
          <g id="Group_3202" data-name="Group 3202" transform="translate(7.407 24.104)">
            <g id="Group_3198" data-name="Group 3198" transform="translate(5.39 0.331)">
              <path id="Path_4046" data-name="Path 4046" d="M879.993,196.809l-.24.9a4.214,4.214,0,0,1-4.006,3.134c-2.85,0-3.938-2.476-4.275-3.548l-.129-.486c-5.25,1.973-3.639,18.415-3.639,18.415l-.033,13.657,8.011,0,8.441,0-.22-13.657S885.243,198.781,879.993,196.809Z" transform="translate(-867.469 -196.115)" fill="#c8c8c8"/>
              <path id="Path_4047" data-name="Path 4047" d="M891.325,205.325l-.62,1.187h-1.886l-.6-1.187,1.554-1.27Z" transform="translate(-881.574 -201.04)" fill="#c8c8c8"/>
              <path id="Path_4048" data-name="Path 4048" d="M881.649,197.655l-1.985,2.09-3.395-4.05,2.119-1.055.8.737Z" transform="translate(-873.451 -194.641)" fill="#c8c8c8"/>
              <path id="Path_4049" data-name="Path 4049" d="M896.333,194.644l-3.262,3.013,1.985,2.092,3.394-4.052Z" transform="translate(-884.873 -194.643)" fill="#c8c8c8"/>
              <path id="Path_4050" data-name="Path 4050" d="M890.391,212.613l.768,24.713-1.7,1.881-1.7-1.881.75-24.713Z" transform="translate(-881.26 -206.859)" fill="#c8c8c8"/>
            </g>
            <path id="Path_4051" data-name="Path 4051" d="M877.655,201.083c-.515-3.014-3.855-3.015-9.106-4.988l-4.326,17.51L859.9,196.1c-5.25,1.972-8.59,1.973-9.106,4.988-.833,4.872,1.948,7,1.97,6.972,0,0,.227,21.624-.114,26.837h10.769l.807-3.765.807,3.765H875.8c-.341-5.213-.114-26.837-.114-26.837C875.707,208.082,878.488,205.955,877.655,201.083Z" transform="translate(-850.635 -195.298)" fill="#c8c8c8"/>
            <g id="Group_3201" data-name="Group 3201" transform="translate(6.928)">
              <g id="Group_3199" data-name="Group 3199">
                <path id="Path_4052" data-name="Path 4052" d="M872.27,195l.105,3.084,1.54,1.267-1.2,1.639,6.173,10.92-3.9-18.307Z" transform="translate(-872.27 -193.607)" fill="#c8c8c8"/>
              </g>
              <g id="Group_3200" data-name="Group 3200" transform="translate(6.701)">
                <path id="Path_4053" data-name="Path 4053" d="M899.816,195l-.105,3.084-1.54,1.267,1.2,1.639-6.173,10.92,3.9-18.307Z" transform="translate(-893.197 -193.607)" fill="#c8c8c8"/>
              </g>
            </g>
          </g>
          <g id="Group_3203" data-name="Group 3203" transform="translate(11.85 36.465)">
            <rect id="Rectangle_883" data-name="Rectangle 883" width="11.355" height="6.455" rx="3.228" transform="translate(6.455 0) rotate(90)" fill="#c8c8c8"/>
            <path id="Path_4054" data-name="Path 4054" d="M870.006,232.209h-3.093a1.674,1.674,0,0,0-1.341.677,1.666,1.666,0,0,1,1-.34h3.093a1.681,1.681,0,0,1,1.681,1.681v7.993a1.665,1.665,0,0,1-.34,1,1.673,1.673,0,0,0,.677-1.341V233.89A1.681,1.681,0,0,0,870.006,232.209Z" transform="translate(-865.231 -232.209)" fill="#c8c8c8"/>
            <rect id="Rectangle_884" data-name="Rectangle 884" width="1.033" height="1.033" rx="0.516" transform="translate(3.744 0.916) rotate(90)" fill="#c8c8c8"/>
          </g>
          <g id="Group_3205" data-name="Group 3205" transform="translate(27.428 25.908)">
            <g id="Group_3204" data-name="Group 3204" transform="translate(4.938 36.15)">
              <path id="Path_4055" data-name="Path 4055" d="M930.874,317.829l1-5.693,3.179.56-1,5.693a1.664,1.664,0,1,1-3.179-.561Z" transform="translate(-930.112 -312.136)" fill="#c8c8c8"/>
              <path id="Path_4056" data-name="Path 4056" d="M928.583,318.6a4.972,4.972,0,0,1,2.128-3.315.662.662,0,0,1,.929.206.7.7,0,0,1-.2.952,3.613,3.613,0,0,0-1.513,2.274.673.673,0,1,1-1.34-.117Z" transform="translate(-928.58 -314.2)" fill="#c8c8c8"/>
            </g>
            <path id="Path_4057" data-name="Path 4057" d="M914.086,199.239c4.087,1.275,7.025,1.643,7.464,4.21.833,4.872,1.783,10.393,2.317,16.314.183,7.718-.515,17.34-.515,17.34h-4.229c-.024-.04-.105-6.164-.263-13.009-.775-4.987-1.141-7.19-1.162-7.217l-4.539-14.433C913.228,202.3,913.718,200.124,914.086,199.239Z" transform="translate(-913.159 -199.239)" fill="#c8c8c8"/>
          </g>
          <g id="Group_3207" data-name="Group 3207" transform="translate(0 28.183)">
            <g id="Group_3206" data-name="Group 3206" transform="translate(8.942 11.957)">
              <path id="Path_4058" data-name="Path 4058" d="M859.7,246.93s-1.266.141-2.249.214l-.718.043-.62.019-.595,0-.094,4.034.745,0,.746-.022.838-.051c1.129-.084,2.482-.238,2.482-.238a1.783,1.783,0,0,0,1.219-2.22C861.272,247.606,860.485,246.829,859.7,246.93Z" transform="translate(-855.428 -245.885)" fill="#c8c8c8"/>
              <path id="Path_4059" data-name="Path 4059" d="M859.657,243.688a2.521,2.521,0,0,0-1.575,1.019,6.287,6.287,0,0,0-.654.965.847.847,0,0,0,.1.94.416.416,0,0,0,.693-.145c0-.006.048-.094.129-.223a4.533,4.533,0,0,1,.333-.47,1.823,1.823,0,0,1,1.115-.75c.264-.03.44-.353.394-.721S859.909,243.659,859.657,243.688Z" transform="translate(-856.723 -243.686)" fill="#c8c8c8"/>
            </g>
            <path id="Path_4060" data-name="Path 4060" d="M837.046,224.553c-1.656,0-6.324.248-7.72-.888-.981-.8-3.028-3.4-.872-7.788a35.116,35.116,0,0,1,7.449-9.534l4.814,5.379c-2.538,2.4-4.725,3.635-7.111,6.29-.722.8-.435,1.077-.417,1.092.382.311,2.688.138,4.2.016l.388,5.364A4.3,4.3,0,0,1,837.046,224.553Z" transform="translate(-827.503 -206.343)" fill="#c8c8c8"/>
          </g>
          <g id="Group_3213" data-name="Group 3213" transform="translate(12.922)">
            <g id="Group_3211" data-name="Group 3211" transform="translate(0 2.322)">
              <path id="Path_4061" data-name="Path 4061" d="M882.971,135.146l.219-2.841c0-3.714-3.55-6.724-7.262-6.724s-7.262,3.01-7.262,6.724l.218,2.838a1.315,1.315,0,0,0-.552.28,1.339,1.339,0,0,0-.474,1.025v1.4a1.343,1.343,0,0,0,1.337,1.344c0,3.508,4.215,6.833,6.733,6.833s6.733-3.325,6.733-6.832A1.344,1.344,0,0,0,884,137.847v-1.4A1.342,1.342,0,0,0,882.971,135.146Z" transform="translate(-867.858 -125.581)" fill="#c8c8c8"/>
              <path id="Path_4062" data-name="Path 4062" d="M896.673,135.146l.219-2.841c0-3.714-3.55-6.724-7.262-6.724v9.549a28.043,28.043,0,0,0-1.614,5.11h1.614v5.783c2.52,0,6.734-3.325,6.734-6.832a1.344,1.344,0,0,0,1.335-1.344v-1.4A1.343,1.343,0,0,0,896.673,135.146Z" transform="translate(-881.56 -125.581)" fill="#c8c8c8"/>
              <g id="Group_3210" data-name="Group 3210" transform="translate(3.886 9.045)">
                <g id="Group_3208" data-name="Group 3208">
                  <path id="Path_4063" data-name="Path 4063" d="M882.118,155.692a1.062,1.062,0,1,1-1.1-1.025A1.062,1.062,0,0,1,882.118,155.692Z" transform="translate(-879.994 -154.398)" fill="#c8c8c8"/>
                  <path id="Path_4064" data-name="Path 4064" d="M882.118,154.852a1.062,1.062,0,1,1-1.1-1.025A1.062,1.062,0,0,1,882.118,154.852Z" transform="translate(-879.994 -153.827)" fill="#c8c8c8"/>
                  <path id="Path_4065" data-name="Path 4065" d="M884.139,157.637a.266.266,0,1,1-.275-.256A.265.265,0,0,1,884.139,157.637Z" transform="translate(-882.451 -156.243)" fill="#c8c8c8"/>
                </g>
                <g id="Group_3209" data-name="Group 3209" transform="translate(6.187 0)">
                  <circle id="Ellipse_121" data-name="Ellipse 121" cx="1.062" cy="1.062" r="1.062" transform="translate(0 0.269)" fill="#c8c8c8"/>
                  <circle id="Ellipse_122" data-name="Ellipse 122" cx="1.062" cy="1.062" r="1.062" fill="#c8c8c8"/>
                  <path id="Path_4066" data-name="Path 4066" d="M903.459,157.637a.265.265,0,1,1-.275-.256A.265.265,0,0,1,903.459,157.637Z" transform="translate(-901.771 -156.243)" fill="#c8c8c8"/>
                </g>
              </g>
            </g>
            <g id="Group_3212" data-name="Group 3212" transform="translate(0.108)">
              <path id="Path_4067" data-name="Path 4067" d="M889.244,174.166a5.335,5.335,0,0,0-3.19-1.123h-.043a5.337,5.337,0,0,0-3.19,1.123.537.537,0,0,0-.15.377,16.369,16.369,0,0,0,.267,2.764.538.538,0,0,0,.165.226,5.267,5.267,0,0,0,5.858,0,.539.539,0,0,0,.166-.226,16.385,16.385,0,0,0,.267-2.763A.535.535,0,0,0,889.244,174.166Zm-1.07,2.606a6.293,6.293,0,0,1-1.47.5v-.721a.672.672,0,1,0-1.345,0v.721a6.25,6.25,0,0,1-1.468-.5,13.094,13.094,0,0,1-.135-2,4.3,4.3,0,0,1,4.555,0A13.191,13.191,0,0,1,888.175,176.772Z" transform="translate(-878.036 -155.523)" fill="#c8c8c8"/>
              <path id="Path_4068" data-name="Path 4068" d="M876.191,118.329c-11.906.183-6.992,13.864-6.992,13.864s-.615-7.494,2.538-7.036a27.029,27.029,0,0,0,8.908,0c3.152-.459,2.538,7.036,2.538,7.036S888.1,118.512,876.191,118.329Z" transform="translate(-868.194 -118.329)" fill="#c8c8c8"/>
            </g>
          </g>
        </g>
        <g id="Group_3232" data-name="Group 3232" transform="translate(0 0)">
          <rect id="Rectangle_885" data-name="Rectangle 885" width="7.888" height="3.346" transform="translate(17.051 24.104)" fill="#32303a"/>
          <g id="Group_3215" data-name="Group 3215" transform="translate(16.759 21.447)">
            <path id="Path_4069" data-name="Path 4069" d="M888.312,188.97l-1.006-.464v-3.2h-6.455v3.2l-1.01.436.269,9.068h.741v1.39h6.455v-1.39h.737Z" transform="translate(-879.841 -185.309)" fill="#f2ae75"/>
            <path id="Path_4070" data-name="Path 4070" d="M883,185.309v1.228l6.456,1.758v-2.986Z" transform="translate(-881.985 -185.309)" fill="#deb4a0" style="mix-blend-mode: multiply;isolation: isolate"/>
          </g>
          <g id="Group_3220" data-name="Group 3220" transform="translate(7.407 24.104)">
            <g id="Group_3216" data-name="Group 3216" transform="translate(5.39 0.331)">
              <path id="Path_4071" data-name="Path 4071" d="M879.993,196.809l-.24.9a4.214,4.214,0,0,1-4.006,3.134c-2.85,0-3.938-2.476-4.275-3.548l-.129-.486c-5.25,1.973-3.639,18.415-3.639,18.415l-.033,13.657,8.011,0,8.441,0-.22-13.657S885.243,198.781,879.993,196.809Z" transform="translate(-867.469 -196.115)" fill="#fff"/>
              <path id="Path_4072" data-name="Path 4072" d="M891.325,205.325l-.62,1.187h-1.886l-.6-1.187,1.554-1.27Z" transform="translate(-881.574 -201.04)" fill="#0c6a93"/>
              <path id="Path_4073" data-name="Path 4073" d="M881.649,197.655l-1.985,2.09-3.395-4.05,2.119-1.055.8.737Z" transform="translate(-873.451 -194.641)" fill="#e6e7e8"/>
              <path id="Path_4074" data-name="Path 4074" d="M896.333,194.644l-3.262,3.013,1.985,2.092,3.394-4.052Z" transform="translate(-884.873 -194.643)" fill="#e6e7e8"/>
              <path id="Path_4075" data-name="Path 4075" d="M890.391,212.613l.768,24.713-1.7,1.881-1.7-1.881.75-24.713Z" transform="translate(-881.26 -206.859)" fill="#0c6a93"/>
            </g>
            <path id="Path_4076" data-name="Path 4076" d="M877.655,201.083c-.515-3.014-3.855-3.015-9.106-4.988l-4.326,17.51L859.9,196.1c-5.25,1.972-8.59,1.973-9.106,4.988-.833,4.872,1.948,7,1.97,6.972,0,0,.227,21.624-.114,26.837h10.769l.807-3.765.807,3.765H875.8c-.341-5.213-.114-26.837-.114-26.837C875.707,208.082,878.488,205.955,877.655,201.083Z" transform="translate(-850.635 -195.298)" fill="#32303a"/>
            <g id="Group_3219" data-name="Group 3219" transform="translate(6.928)">
              <g id="Group_3217" data-name="Group 3217">
                <path id="Path_4077" data-name="Path 4077" d="M872.27,195l.105,3.084,1.54,1.267-1.2,1.639,6.173,10.92-3.9-18.307Z" transform="translate(-872.27 -193.607)" fill="#4f4c4d"/>
              </g>
              <g id="Group_3218" data-name="Group 3218" transform="translate(6.701)">
                <path id="Path_4078" data-name="Path 4078" d="M899.816,195l-.105,3.084-1.54,1.267,1.2,1.639-6.173,10.92,3.9-18.307Z" transform="translate(-893.197 -193.607)" fill="#4f4c4d"/>
              </g>
            </g>
          </g>
          <g id="Group_3221" data-name="Group 3221" transform="translate(11.85 36.465)">
            <rect id="Rectangle_886" data-name="Rectangle 886" width="11.355" height="6.455" rx="3.228" transform="translate(6.455 0) rotate(90)" fill="#686671"/>
            <path id="Path_4079" data-name="Path 4079" d="M870.006,232.209h-3.093a1.674,1.674,0,0,0-1.341.677,1.666,1.666,0,0,1,1-.34h3.093a1.681,1.681,0,0,1,1.681,1.681v7.993a1.665,1.665,0,0,1-.34,1,1.673,1.673,0,0,0,.677-1.341V233.89A1.681,1.681,0,0,0,870.006,232.209Z" transform="translate(-865.231 -232.209)" fill="#c8c8c8" style="mix-blend-mode: multiply;isolation: isolate"/>
            <rect id="Rectangle_887" data-name="Rectangle 887" width="1.033" height="1.033" rx="0.516" transform="translate(3.744 0.916) rotate(90)" fill="#383643"/>
          </g>
          <g id="Group_3223" data-name="Group 3223" transform="translate(27.428 25.908)">
            <g id="Group_3222" data-name="Group 3222" transform="translate(4.938 36.15)">
              <path id="Path_4080" data-name="Path 4080" d="M930.874,317.829l1-5.693,3.179.56-1,5.693a1.664,1.664,0,1,1-3.179-.561Z" transform="translate(-930.112 -312.136)" fill="#f7cdb9"/>
              <path id="Path_4081" data-name="Path 4081" d="M928.583,318.6a4.972,4.972,0,0,1,2.128-3.315.662.662,0,0,1,.929.206.7.7,0,0,1-.2.952,3.613,3.613,0,0,0-1.513,2.274.673.673,0,1,1-1.34-.117Z" transform="translate(-928.58 -314.2)" fill="#f7cdb9"/>
            </g>
            <path id="Path_4082" data-name="Path 4082" d="M914.086,199.239c4.087,1.275,7.025,1.643,7.464,4.21.833,4.872,1.783,10.393,2.317,16.314.183,7.718-.515,17.34-.515,17.34h-4.229c-.024-.04-.105-6.164-.263-13.009-.775-4.987-1.141-7.19-1.162-7.217l-4.539-14.433C913.228,202.3,913.718,200.124,914.086,199.239Z" transform="translate(-913.159 -199.239)" fill="#32303a"/>
          </g>
          <g id="Group_3225" data-name="Group 3225" transform="translate(0 28.183)">
            <g id="Group_3224" data-name="Group 3224" transform="translate(8.942 11.957)">
              <path id="Path_4083" data-name="Path 4083" d="M859.7,246.93s-1.266.141-2.249.214l-.718.043-.62.019-.595,0-.094,4.034.745,0,.746-.022.838-.051c1.129-.084,2.482-.238,2.482-.238a1.783,1.783,0,0,0,1.219-2.22C861.272,247.606,860.485,246.829,859.7,246.93Z" transform="translate(-855.428 -245.885)" fill="#f2ae75"/>
              <path id="Path_4084" data-name="Path 4084" d="M859.657,243.688a2.521,2.521,0,0,0-1.575,1.019,6.287,6.287,0,0,0-.654.965.847.847,0,0,0,.1.94.416.416,0,0,0,.693-.145c0-.006.048-.094.129-.223a4.533,4.533,0,0,1,.333-.47,1.823,1.823,0,0,1,1.115-.75c.264-.03.44-.353.394-.721S859.909,243.659,859.657,243.688Z" transform="translate(-856.723 -243.686)" fill="#f2ae75"/>
            </g>
            <path id="Path_4085" data-name="Path 4085" d="M837.046,224.553c-1.656,0-6.324.248-7.72-.888-.981-.8-3.028-3.4-.872-7.788a35.116,35.116,0,0,1,7.449-9.534l4.814,5.379c-2.538,2.4-4.725,3.635-7.111,6.29-.722.8-.435,1.077-.417,1.092.382.311,2.688.138,4.2.016l.388,5.364A4.3,4.3,0,0,1,837.046,224.553Z" transform="translate(-827.503 -206.343)" fill="#32303a"/>
          </g>
          <g id="Group_3231" data-name="Group 3231" transform="translate(12.922)">
            <g id="Group_3229" data-name="Group 3229" transform="translate(0 2.322)">
              <path id="Path_4086" data-name="Path 4086" d="M882.971,135.146l.219-2.841c0-3.714-3.55-6.724-7.262-6.724s-7.262,3.01-7.262,6.724l.218,2.838a1.315,1.315,0,0,0-.552.28,1.339,1.339,0,0,0-.474,1.025v1.4a1.343,1.343,0,0,0,1.337,1.344c0,3.508,4.215,6.833,6.733,6.833s6.733-3.325,6.733-6.832A1.344,1.344,0,0,0,884,137.847v-1.4A1.342,1.342,0,0,0,882.971,135.146Z" transform="translate(-867.858 -125.581)" fill="#f2ae75"/>
              <path id="Path_4087" data-name="Path 4087" d="M896.673,135.146l.219-2.841c0-3.714-3.55-6.724-7.262-6.724v9.549a28.043,28.043,0,0,0-1.614,5.11h1.614v5.783c2.52,0,6.734-3.325,6.734-6.832a1.344,1.344,0,0,0,1.335-1.344v-1.4A1.343,1.343,0,0,0,896.673,135.146Z" transform="translate(-881.56 -125.581)" fill="#f6ccb8" opacity="0.8" style="mix-blend-mode: multiply;isolation: isolate"/>
              <g id="Group_3228" data-name="Group 3228" transform="translate(3.886 9.045)">
                <g id="Group_3226" data-name="Group 3226">
                  <path id="Path_4088" data-name="Path 4088" d="M882.118,155.692a1.062,1.062,0,1,1-1.1-1.025A1.062,1.062,0,0,1,882.118,155.692Z" transform="translate(-879.994 -154.398)" fill="#f6ccb8" style="mix-blend-mode: multiply;isolation: isolate"/>
                  <path id="Path_4089" data-name="Path 4089" d="M882.118,154.852a1.062,1.062,0,1,1-1.1-1.025A1.062,1.062,0,0,1,882.118,154.852Z" transform="translate(-879.994 -153.827)" fill="#3c2417"/>
                  <path id="Path_4090" data-name="Path 4090" d="M884.139,157.637a.266.266,0,1,1-.275-.256A.265.265,0,0,1,884.139,157.637Z" transform="translate(-882.451 -156.243)" fill="#fff"/>
                </g>
                <g id="Group_3227" data-name="Group 3227" transform="translate(6.187 0)">
                  <circle id="Ellipse_123" data-name="Ellipse 123" cx="1.062" cy="1.062" r="1.062" transform="translate(0 0.269)" fill="#f6ccb8" style="mix-blend-mode: multiply;isolation: isolate"/>
                  <circle id="Ellipse_124" data-name="Ellipse 124" cx="1.062" cy="1.062" r="1.062" fill="#3c2417"/>
                  <path id="Path_4091" data-name="Path 4091" d="M903.459,157.637a.265.265,0,1,1-.275-.256A.265.265,0,0,1,903.459,157.637Z" transform="translate(-901.771 -156.243)" fill="#fff"/>
                </g>
              </g>
            </g>
            <g id="Group_3230" data-name="Group 3230" transform="translate(0.108)">
              <path id="Path_4092" data-name="Path 4092" d="M889.244,174.166a5.335,5.335,0,0,0-3.19-1.123h-.043a5.337,5.337,0,0,0-3.19,1.123.537.537,0,0,0-.15.377,16.369,16.369,0,0,0,.267,2.764.538.538,0,0,0,.165.226,5.267,5.267,0,0,0,5.858,0,.539.539,0,0,0,.166-.226,16.385,16.385,0,0,0,.267-2.763A.535.535,0,0,0,889.244,174.166Zm-1.07,2.606a6.293,6.293,0,0,1-1.47.5v-.721a.672.672,0,1,0-1.345,0v.721a6.25,6.25,0,0,1-1.468-.5,13.094,13.094,0,0,1-.135-2,4.3,4.3,0,0,1,4.555,0A13.191,13.191,0,0,1,888.175,176.772Z" transform="translate(-878.036 -155.523)" fill="#3c2415"/>
              <path id="Path_4093" data-name="Path 4093" d="M876.191,118.329c-11.906.183-6.992,13.864-6.992,13.864s-.615-7.494,2.538-7.036a27.029,27.029,0,0,0,8.908,0c3.152-.459,2.538,7.036,2.538,7.036S888.1,118.512,876.191,118.329Z" transform="translate(-868.194 -118.329)" fill="#3c2417"/>
            </g>
          </g>
        </g>
      </g>
      <g id="man-2" data-name="man" transform="translate(825.503 118.329)">
        <rect id="Rectangle_888" data-name="Rectangle 888" width="7.888" height="3.346" transform="translate(17.051 24.104)" fill="#32303a"/>
        <g id="Group_3233" data-name="Group 3233" transform="translate(16.759 21.447)">
          <path id="Path_4094" data-name="Path 4094" d="M886.312,188.97l-1.006-.464v-3.2h-6.455v3.2l-1.01.436.269,9.068h.741v1.39h6.455v-1.39h.737Z" transform="translate(-877.841 -185.309)" fill="#f2ae75"/>
          <path id="Path_4095" data-name="Path 4095" d="M881,185.309v1.228l6.455,1.758v-2.986Z" transform="translate(-879.986 -185.309)" fill="#deb4a0" style="mix-blend-mode: multiply;isolation: isolate"/>
        </g>
        <g id="Group_3238" data-name="Group 3238" transform="translate(7.407 24.104)">
          <g id="Group_3234" data-name="Group 3234" transform="translate(5.39 0.331)">
            <path id="Path_4096" data-name="Path 4096" d="M877.992,196.809l-.24.9a4.214,4.214,0,0,1-4.006,3.134c-2.851,0-3.938-2.476-4.275-3.548l-.129-.486c-5.25,1.973-3.639,18.415-3.639,18.415l-.033,13.657,8.011,0,8.441,0-.22-13.657S883.243,198.781,877.992,196.809Z" transform="translate(-865.469 -196.115)" fill="#fff"/>
            <path id="Path_4097" data-name="Path 4097" d="M889.325,205.325l-.62,1.187h-1.886l-.6-1.187,1.554-1.27Z" transform="translate(-879.573 -201.04)" fill="#0c6a93"/>
            <path id="Path_4098" data-name="Path 4098" d="M879.649,197.655l-1.985,2.09-3.395-4.05,2.119-1.055.8.737Z" transform="translate(-871.451 -194.641)" fill="#e6e7e8"/>
            <path id="Path_4099" data-name="Path 4099" d="M894.333,194.644l-3.263,3.013,1.985,2.092,3.394-4.052Z" transform="translate(-882.873 -194.643)" fill="#e6e7e8"/>
            <path id="Path_4100" data-name="Path 4100" d="M888.391,212.613l.767,24.713-1.7,1.881-1.7-1.881.75-24.713Z" transform="translate(-879.26 -206.859)" fill="#0c6a93"/>
          </g>
          <path id="Path_4101" data-name="Path 4101" d="M875.655,201.083c-.515-3.014-3.856-3.015-9.106-4.988l-4.326,17.51L857.9,196.1c-5.25,1.972-8.591,1.973-9.106,4.988-.832,4.872,1.949,7,1.97,6.972,0,0,.227,21.624-.114,26.837h10.769l.807-3.765.807,3.765H873.8c-.341-5.213-.114-26.837-.114-26.837C873.707,208.082,876.488,205.955,875.655,201.083Z" transform="translate(-848.635 -195.298)" fill="#32303a"/>
          <g id="Group_3237" data-name="Group 3237" transform="translate(6.928)">
            <g id="Group_3235" data-name="Group 3235">
              <path id="Path_4102" data-name="Path 4102" d="M870.27,195l.105,3.084,1.54,1.267-1.2,1.639,6.173,10.92-3.9-18.307Z" transform="translate(-870.27 -193.607)" fill="#4f4c4d"/>
            </g>
            <g id="Group_3236" data-name="Group 3236" transform="translate(6.701)">
              <path id="Path_4103" data-name="Path 4103" d="M897.816,195l-.105,3.084-1.54,1.267,1.2,1.639-6.172,10.92,3.9-18.307Z" transform="translate(-891.196 -193.607)" fill="#4f4c4d"/>
            </g>
          </g>
        </g>
        <g id="Group_3239" data-name="Group 3239" transform="translate(11.85 36.465)">
          <rect id="Rectangle_889" data-name="Rectangle 889" width="11.355" height="6.455" rx="3.228" transform="translate(6.455 0) rotate(90)" fill="#686671"/>
          <path id="Path_4104" data-name="Path 4104" d="M868.006,232.209h-3.093a1.673,1.673,0,0,0-1.341.677,1.665,1.665,0,0,1,1-.34h3.093a1.681,1.681,0,0,1,1.681,1.681v7.993a1.665,1.665,0,0,1-.34,1,1.673,1.673,0,0,0,.677-1.341V233.89A1.681,1.681,0,0,0,868.006,232.209Z" transform="translate(-863.232 -232.209)" fill="#c8c8c8" style="mix-blend-mode: multiply;isolation: isolate"/>
          <rect id="Rectangle_890" data-name="Rectangle 890" width="1.033" height="1.033" rx="0.516" transform="translate(3.744 0.916) rotate(90)" fill="#383643"/>
        </g>
        <g id="Group_3241" data-name="Group 3241" transform="translate(27.428 25.908)">
          <g id="Group_3240" data-name="Group 3240" transform="translate(4.938 36.15)">
            <path id="Path_4105" data-name="Path 4105" d="M928.874,317.829l1-5.693,3.179.56-1,5.693a1.664,1.664,0,1,1-3.179-.561Z" transform="translate(-928.112 -312.136)" fill="#f7cdb9"/>
            <path id="Path_4106" data-name="Path 4106" d="M926.583,318.6a4.971,4.971,0,0,1,2.128-3.315.662.662,0,0,1,.929.206.7.7,0,0,1-.2.952,3.613,3.613,0,0,0-1.513,2.274.673.673,0,1,1-1.34-.117Z" transform="translate(-926.58 -314.2)" fill="#f7cdb9"/>
          </g>
          <path id="Path_4107" data-name="Path 4107" d="M912.086,199.239c4.087,1.275,7.025,1.643,7.464,4.21.832,4.872,1.782,10.393,2.317,16.314.183,7.718-.516,17.34-.516,17.34h-4.229c-.024-.04-.105-6.164-.263-13.009-.775-4.987-1.141-7.19-1.162-7.217l-4.539-14.433C911.228,202.3,911.718,200.124,912.086,199.239Z" transform="translate(-911.159 -199.239)" fill="#32303a"/>
        </g>
        <g id="Group_3243" data-name="Group 3243" transform="translate(0 28.183)">
          <g id="Group_3242" data-name="Group 3242" transform="translate(8.942 11.957)">
            <path id="Path_4108" data-name="Path 4108" d="M857.7,246.93s-1.266.141-2.249.214l-.718.043-.62.019-.595,0-.094,4.034.745,0,.746-.022.837-.051c1.129-.084,2.482-.238,2.482-.238a1.783,1.783,0,0,0,1.219-2.22C859.272,247.606,858.485,246.829,857.7,246.93Z" transform="translate(-853.428 -245.885)" fill="#f2ae75"/>
            <path id="Path_4109" data-name="Path 4109" d="M857.657,243.688a2.521,2.521,0,0,0-1.575,1.019,6.282,6.282,0,0,0-.653.965.848.848,0,0,0,.1.94.416.416,0,0,0,.693-.145c0-.006.049-.094.129-.223a4.57,4.57,0,0,1,.333-.47,1.823,1.823,0,0,1,1.115-.75c.264-.03.44-.353.394-.721S857.909,243.659,857.657,243.688Z" transform="translate(-854.724 -243.686)" fill="#f2ae75"/>
          </g>
          <path id="Path_4110" data-name="Path 4110" d="M835.046,224.553c-1.656,0-6.324.248-7.72-.888-.98-.8-3.028-3.4-.872-7.788a35.118,35.118,0,0,1,7.449-9.534l4.814,5.379c-2.538,2.4-4.725,3.635-7.111,6.29-.722.8-.435,1.077-.417,1.092.382.311,2.688.138,4.2.016l.388,5.364A4.306,4.306,0,0,1,835.046,224.553Z" transform="translate(-825.503 -206.343)" fill="#32303a"/>
        </g>
        <g id="Group_3249" data-name="Group 3249" transform="translate(12.922 0)">
          <g id="Group_3247" data-name="Group 3247" transform="translate(0 2.322)">
            <path id="Path_4111" data-name="Path 4111" d="M880.971,135.146l.219-2.841c0-3.714-3.55-6.724-7.262-6.724s-7.262,3.01-7.262,6.724l.218,2.838a1.316,1.316,0,0,0-.552.28,1.339,1.339,0,0,0-.473,1.025v1.4a1.343,1.343,0,0,0,1.336,1.344c0,3.508,4.214,6.833,6.733,6.833s6.733-3.325,6.733-6.832a1.344,1.344,0,0,0,1.335-1.344v-1.4A1.343,1.343,0,0,0,880.971,135.146Z" transform="translate(-865.858 -125.581)" fill="#f2ae75"/>
            <path id="Path_4112" data-name="Path 4112" d="M894.673,135.146l.219-2.841c0-3.714-3.551-6.724-7.262-6.724v9.549a28.053,28.053,0,0,0-1.614,5.11h1.614v5.783c2.52,0,6.734-3.325,6.734-6.832a1.344,1.344,0,0,0,1.335-1.344v-1.4A1.343,1.343,0,0,0,894.673,135.146Z" transform="translate(-879.56 -125.581)" fill="#f6ccb8" opacity="0.8" style="mix-blend-mode: multiply;isolation: isolate"/>
            <g id="Group_3246" data-name="Group 3246" transform="translate(3.886 9.045)">
              <g id="Group_3244" data-name="Group 3244">
                <path id="Path_4113" data-name="Path 4113" d="M880.118,155.692a1.062,1.062,0,1,1-1.1-1.025A1.062,1.062,0,0,1,880.118,155.692Z" transform="translate(-877.994 -154.398)" fill="#f6ccb8" style="mix-blend-mode: multiply;isolation: isolate"/>
                <path id="Path_4114" data-name="Path 4114" d="M880.118,154.852a1.062,1.062,0,1,1-1.1-1.025A1.062,1.062,0,0,1,880.118,154.852Z" transform="translate(-877.994 -153.827)" fill="#3c2417"/>
                <path id="Path_4115" data-name="Path 4115" d="M882.139,157.637a.266.266,0,1,1-.275-.256A.265.265,0,0,1,882.139,157.637Z" transform="translate(-880.451 -156.243)" fill="#fff"/>
              </g>
              <g id="Group_3245" data-name="Group 3245" transform="translate(6.187 0)">
                <circle id="Ellipse_125" data-name="Ellipse 125" cx="1.062" cy="1.062" r="1.062" transform="translate(0 0.269)" fill="#f6ccb8" style="mix-blend-mode: multiply;isolation: isolate"/>
                <circle id="Ellipse_126" data-name="Ellipse 126" cx="1.062" cy="1.062" r="1.062" fill="#3c2417"/>
                <path id="Path_4116" data-name="Path 4116" d="M901.46,157.637a.266.266,0,1,1-.275-.256A.266.266,0,0,1,901.46,157.637Z" transform="translate(-899.771 -156.243)" fill="#fff"/>
              </g>
            </g>
          </g>
          <g id="Group_3248" data-name="Group 3248" transform="translate(0.108)">
            <path id="Path_4117" data-name="Path 4117" d="M887.244,174.166a5.336,5.336,0,0,0-3.19-1.123h-.043a5.336,5.336,0,0,0-3.19,1.123.536.536,0,0,0-.15.377,16.4,16.4,0,0,0,.267,2.764.537.537,0,0,0,.165.226,5.267,5.267,0,0,0,5.857,0,.54.54,0,0,0,.166-.226,16.392,16.392,0,0,0,.267-2.763A.535.535,0,0,0,887.244,174.166Zm-1.07,2.606a6.294,6.294,0,0,1-1.47.5v-.721a.672.672,0,1,0-1.345,0v.721a6.248,6.248,0,0,1-1.469-.5,13.11,13.11,0,0,1-.135-2,4.3,4.3,0,0,1,4.555,0A13.191,13.191,0,0,1,886.175,176.772Z" transform="translate(-876.036 -155.523)" fill="#3c2415"/>
            <path id="Path_4118" data-name="Path 4118" d="M874.191,118.329c-11.906.183-6.992,13.864-6.992,13.864s-.615-7.494,2.538-7.036a27.03,27.03,0,0,0,8.908,0c3.152-.459,2.538,7.036,2.538,7.036S886.1,118.512,874.191,118.329Z" transform="translate(-866.194 -118.329)" fill="#3c2417"/>
          </g>
        </g>
      </g>
    </g>
  </g>
</svg>
