<svg xmlns="http://www.w3.org/2000/svg" xmlns:xlink="http://www.w3.org/1999/xlink" width="34" height="34" viewBox="0 0 34 34">
  <defs>
    <clipPath id="clip-path">
      <ellipse id="Ellipse_127" data-name="Ellipse 127" cx="17" cy="17" rx="17" ry="17" fill="#fff"/>
    </clipPath>
  </defs>
  <g id="Mask_Group_14" data-name="Mask Group 14" clip-path="url(#clip-path)">
    <g id="Group_3197" data-name="Group 3197" transform="translate(-0.242 5.261)">
      <g id="man" transform="translate(0.526 0)" style="mix-blend-mode: multiply;isolation: isolate">
        <g id="Group_3214" data-name="Group 3214" transform="translate(0)">
          <rect id="Rectangle_882" data-name="Rectangle 882" width="6.476" height="2.747" transform="translate(14 19.791)" fill="#c8c8c8"/>
          <g id="Group_3197-2" data-name="Group 3197" transform="translate(13.76 17.61)">
            <path id="Path_4044" data-name="Path 4044" d="M886.8,188.315l-.826-.381v-2.625h-5.3v2.625l-.829.358.221,7.445h.609v1.142h5.3v-1.142h.6Z" transform="translate(-879.841 -185.309)" fill="#c8c8c8"/>
            <path id="Path_4045" data-name="Path 4045" d="M883,185.309v1.008l5.3,1.443v-2.451Z" transform="translate(-882.166 -185.309)" fill="#c8c8c8"/>
          </g>
          <g id="Group_3202" data-name="Group 3202" transform="translate(6.082 19.791)">
            <g id="Group_3198" data-name="Group 3198" transform="translate(4.426 0.272)">
              <path id="Path_4046" data-name="Path 4046" d="M877.752,196.809l-.2.74a3.46,3.46,0,0,1-3.289,2.573,3.772,3.772,0,0,1-3.51-2.914l-.106-.4c-4.311,1.62-2.988,15.12-2.988,15.12l-.027,11.213h13.508l-.181-11.213S882.062,198.429,877.752,196.809Z" transform="translate(-867.469 -196.239)" fill="#c8c8c8"/>
              <path id="Path_4047" data-name="Path 4047" d="M890.769,205.1l-.509.974h-1.548l-.494-.974,1.276-1.043Z" transform="translate(-882.762 -201.58)" fill="#c8c8c8"/>
              <path id="Path_4048" data-name="Path 4048" d="M880.686,197.116l-1.63,1.716-2.787-3.325,1.74-.866.654.605Z" transform="translate(-873.955 -194.641)" fill="#c8c8c8"/>
              <path id="Path_4049" data-name="Path 4049" d="M895.749,194.644l-2.679,2.474,1.63,1.717,2.787-3.327Z" transform="translate(-886.34 -194.643)" fill="#c8c8c8"/>
              <path id="Path_4050" data-name="Path 4050" d="M889.919,212.614l.63,20.291-1.4,1.544-1.4-1.544.616-20.291Z" transform="translate(-882.422 -207.888)" fill="#c8c8c8"/>
            </g>
            <path id="Path_4051" data-name="Path 4051" d="M872.82,200.19c-.423-2.475-3.166-2.476-7.477-4.1l-3.552,14.377L858.239,196.1c-4.311,1.62-7.053,1.62-7.476,4.1-.684,4,1.6,5.747,1.617,5.725,0,0,.186,17.754-.093,22.035h8.842l.662-3.092.663,3.092H871.3c-.28-4.28-.093-22.035-.093-22.035C871.22,205.937,873.5,204.191,872.82,200.19Z" transform="translate(-850.635 -195.441)" fill="#c8c8c8"/>
            <g id="Group_3201" data-name="Group 3201" transform="translate(5.688)">
              <g id="Group_3199" data-name="Group 3199">
                <path id="Path_4052" data-name="Path 4052" d="M872.27,194.754l.086,2.532,1.265,1.04-.984,1.345,5.068,8.966-3.2-15.031Z" transform="translate(-872.27 -193.607)" fill="#c8c8c8"/>
              </g>
              <g id="Group_3200" data-name="Group 3200" transform="translate(5.502)">
                <path id="Path_4053" data-name="Path 4053" d="M898.632,194.754l-.087,2.532-1.264,1.04.984,1.345-5.068,8.966,3.2-15.031Z" transform="translate(-893.197 -193.607)" fill="#c8c8c8"/>
              </g>
            </g>
          </g>
          <g id="Group_3203" data-name="Group 3203" transform="translate(9.729 29.94)">
            <rect id="Rectangle_883" data-name="Rectangle 883" width="9.323" height="5.3" rx="2.65" transform="translate(5.3 0) rotate(90)" fill="#c8c8c8"/>
            <path id="Path_4054" data-name="Path 4054" d="M869.212,232.209h-2.54a1.375,1.375,0,0,0-1.1.556,1.368,1.368,0,0,1,.825-.279h2.54a1.38,1.38,0,0,1,1.38,1.38v6.562a1.367,1.367,0,0,1-.28.825,1.373,1.373,0,0,0,.555-1.1v-6.563A1.38,1.38,0,0,0,869.212,232.209Z" transform="translate(-865.292 -232.209)" fill="#c8c8c8"/>
            <rect id="Rectangle_884" data-name="Rectangle 884" width="0.848" height="0.848" rx="0.424" transform="translate(3.074 0.752) rotate(90)" fill="#c8c8c8"/>
          </g>
          <g id="Group_3205" data-name="Group 3205" transform="translate(22.52 21.272)">
            <g id="Group_3204" data-name="Group 3204" transform="translate(4.054 29.682)">
              <path id="Path_4055" data-name="Path 4055" d="M930.867,316.81l.824-4.674,2.61.46-.824,4.675a1.366,1.366,0,1,1-2.61-.46Z" transform="translate(-930.241 -312.136)" fill="#c8c8c8"/>
              <path id="Path_4056" data-name="Path 4056" d="M928.582,317.985a4.082,4.082,0,0,1,1.747-2.722.543.543,0,0,1,.763.169.577.577,0,0,1-.168.782,2.966,2.966,0,0,0-1.242,1.867.552.552,0,1,1-1.1-.1Z" transform="translate(-928.58 -314.374)" fill="#c8c8c8"/>
            </g>
            <path id="Path_4057" data-name="Path 4057" d="M913.92,199.239c3.356,1.047,5.768,1.349,6.128,3.457.684,4,1.464,8.533,1.9,13.395.15,6.337-.423,14.237-.423,14.237h-3.472c-.02-.033-.087-5.061-.216-10.681-.636-4.094-.937-5.9-.954-5.926l-3.727-11.85C913.216,201.751,913.618,199.966,913.92,199.239Z" transform="translate(-913.159 -199.239)" fill="#c8c8c8"/>
          </g>
          <g id="Group_3207" data-name="Group 3207" transform="translate(0 23.14)">
            <g id="Group_3206" data-name="Group 3206" transform="translate(7.342 9.818)">
              <path id="Path_4058" data-name="Path 4058" d="M858.939,246.928s-1.04.116-1.847.176l-.59.036-.509.016-.488,0-.077,3.312.612,0,.612-.018.688-.042c.927-.069,2.038-.2,2.038-.2a1.464,1.464,0,0,0,1-1.823C860.226,247.484,859.58,246.845,858.939,246.928Z" transform="translate(-855.428 -246.07)" fill="#c8c8c8"/>
              <path id="Path_4059" data-name="Path 4059" d="M859.241,243.687a2.07,2.07,0,0,0-1.293.837,5.15,5.15,0,0,0-.537.792.7.7,0,0,0,.085.772.342.342,0,0,0,.569-.119s.04-.077.106-.183a3.742,3.742,0,0,1,.274-.386,1.5,1.5,0,0,1,.915-.615c.216-.024.361-.289.323-.592S859.448,243.664,859.241,243.687Z" transform="translate(-856.832 -243.686)" fill="#c8c8c8"/>
            </g>
            <path id="Path_4060" data-name="Path 4060" d="M835.338,221.295c-1.359,0-5.192.2-6.338-.729-.805-.656-2.487-2.79-.716-6.395a28.829,28.829,0,0,1,6.116-7.828l3.953,4.417c-2.084,1.968-3.879,2.984-5.838,5.164-.593.66-.357.885-.343.9.314.255,2.207.113,3.449.013l.318,4.4A3.53,3.53,0,0,1,835.338,221.295Z" transform="translate(-827.503 -206.343)" fill="#c8c8c8"/>
          </g>
          <g id="Group_3213" data-name="Group 3213" transform="translate(10.61)">
            <g id="Group_3211" data-name="Group 3211" transform="translate(0 1.907)">
              <path id="Path_4061" data-name="Path 4061" d="M880.266,133.434l.18-2.332c0-3.05-2.915-5.521-5.963-5.521s-5.963,2.471-5.963,5.521l.179,2.33a1.079,1.079,0,0,0-.453.229,1.1,1.1,0,0,0-.389.841v1.148a1.1,1.1,0,0,0,1.1,1.1c0,2.88,3.461,5.61,5.528,5.61s5.528-2.73,5.528-5.61a1.1,1.1,0,0,0,1.1-1.1V134.5A1.1,1.1,0,0,0,880.266,133.434Z" transform="translate(-867.858 -125.581)" fill="#c8c8c8"/>
              <path id="Path_4062" data-name="Path 4062" d="M895.123,133.434l.18-2.332c0-3.05-2.915-5.521-5.963-5.521v7.84a23.026,23.026,0,0,0-1.325,4.2h1.325v4.748c2.069,0,5.529-2.73,5.529-5.61a1.1,1.1,0,0,0,1.1-1.1V134.5A1.1,1.1,0,0,0,895.123,133.434Z" transform="translate(-882.715 -125.581)" fill="#c8c8c8"/>
              <g id="Group_3210" data-name="Group 3210" transform="translate(3.191 7.426)">
                <g id="Group_3208" data-name="Group 3208">
                  <path id="Path_4063" data-name="Path 4063" d="M881.738,155.509a.872.872,0,1,1-.9-.841A.872.872,0,0,1,881.738,155.509Z" transform="translate(-879.994 -154.446)" fill="#c8c8c8"/>
                  <path id="Path_4064" data-name="Path 4064" d="M881.738,154.669a.872.872,0,1,1-.9-.841A.872.872,0,0,1,881.738,154.669Z" transform="translate(-879.994 -153.827)" fill="#c8c8c8"/>
                  <path id="Path_4065" data-name="Path 4065" d="M884.044,157.591a.218.218,0,1,1-.226-.21A.218.218,0,0,1,884.044,157.591Z" transform="translate(-882.658 -156.446)" fill="#c8c8c8"/>
                </g>
                <g id="Group_3209" data-name="Group 3209" transform="translate(5.08 0)">
                  <ellipse id="Ellipse_121" data-name="Ellipse 121" cx="0.872" cy="0.872" rx="0.872" ry="0.872" transform="translate(0 0.221)" fill="#c8c8c8"/>
                  <ellipse id="Ellipse_122" data-name="Ellipse 122" cx="0.872" cy="0.872" rx="0.872" ry="0.872" fill="#c8c8c8"/>
                  <path id="Path_4066" data-name="Path 4066" d="M903.365,157.591a.218.218,0,1,1-.225-.21A.218.218,0,0,1,903.365,157.591Z" transform="translate(-901.979 -156.446)" fill="#c8c8c8"/>
                </g>
              </g>
            </g>
            <g id="Group_3212" data-name="Group 3212" transform="translate(0.088)">
              <path id="Path_4067" data-name="Path 4067" d="M888.068,173.965a4.381,4.381,0,0,0-2.619-.922h-.035a4.382,4.382,0,0,0-2.619.922.441.441,0,0,0-.123.309,13.457,13.457,0,0,0,.219,2.269.443.443,0,0,0,.135.186,4.325,4.325,0,0,0,4.81,0,.443.443,0,0,0,.136-.186,13.465,13.465,0,0,0,.219-2.269A.439.439,0,0,0,888.068,173.965Zm-.878,2.14a5.165,5.165,0,0,1-1.207.41v-.592a.552.552,0,1,0-1.1,0v.592a5.131,5.131,0,0,1-1.206-.41,10.768,10.768,0,0,1-.111-1.643,3.533,3.533,0,0,1,3.74,0A10.845,10.845,0,0,1,887.19,176.105Z" transform="translate(-878.865 -158.658)" fill="#c8c8c8"/>
              <path id="Path_4068" data-name="Path 4068" d="M874.76,118.329c-9.775.15-5.741,11.383-5.741,11.383s-.5-6.153,2.084-5.777a22.194,22.194,0,0,0,7.314,0c2.588-.376,2.084,5.777,2.084,5.777S884.536,118.479,874.76,118.329Z" transform="translate(-868.194 -118.329)" fill="#c8c8c8"/>
            </g>
          </g>
        </g>
        <g id="Group_3232" data-name="Group 3232" transform="translate(0)">
          <rect id="Rectangle_885" data-name="Rectangle 885" width="6.476" height="2.747" transform="translate(14 19.791)" fill="#32303a"/>
          <g id="Group_3215" data-name="Group 3215" transform="translate(13.76 17.61)">
            <path id="Path_4069" data-name="Path 4069" d="M886.8,188.315l-.826-.381v-2.625h-5.3v2.625l-.829.358.221,7.445h.609v1.142h5.3v-1.142h.6Z" transform="translate(-879.841 -185.309)" fill="#f2ae75"/>
            <path id="Path_4070" data-name="Path 4070" d="M883,185.309v1.008l5.3,1.443v-2.451Z" transform="translate(-882.166 -185.309)" fill="#deb4a0" style="mix-blend-mode: multiply;isolation: isolate"/>
          </g>
          <g id="Group_3220" data-name="Group 3220" transform="translate(6.082 19.791)">
            <g id="Group_3216" data-name="Group 3216" transform="translate(4.426 0.272)">
              <path id="Path_4071" data-name="Path 4071" d="M877.752,196.809l-.2.74a3.46,3.46,0,0,1-3.289,2.573,3.772,3.772,0,0,1-3.51-2.914l-.106-.4c-4.311,1.62-2.988,15.12-2.988,15.12l-.027,11.213h13.508l-.181-11.213S882.062,198.429,877.752,196.809Z" transform="translate(-867.469 -196.239)" fill="#fff"/>
              <path id="Path_4072" data-name="Path 4072" d="M890.769,205.1l-.509.974h-1.548l-.494-.974,1.276-1.043Z" transform="translate(-882.762 -201.58)" fill="#0c6a93"/>
              <path id="Path_4073" data-name="Path 4073" d="M880.686,197.116l-1.63,1.716-2.787-3.325,1.74-.866.654.605Z" transform="translate(-873.955 -194.641)" fill="#e6e7e8"/>
              <path id="Path_4074" data-name="Path 4074" d="M895.749,194.644l-2.679,2.474,1.63,1.717,2.787-3.327Z" transform="translate(-886.34 -194.643)" fill="#e6e7e8"/>
              <path id="Path_4075" data-name="Path 4075" d="M889.919,212.614l.63,20.291-1.4,1.544-1.4-1.544.616-20.291Z" transform="translate(-882.422 -207.888)" fill="#0c6a93"/>
            </g>
            <path id="Path_4076" data-name="Path 4076" d="M872.82,200.19c-.423-2.475-3.166-2.476-7.477-4.1l-3.552,14.377L858.239,196.1c-4.311,1.62-7.053,1.62-7.476,4.1-.684,4,1.6,5.747,1.617,5.725,0,0,.186,17.754-.093,22.035h8.842l.662-3.092.663,3.092H871.3c-.28-4.28-.093-22.035-.093-22.035C871.22,205.937,873.5,204.191,872.82,200.19Z" transform="translate(-850.635 -195.441)" fill="#32303a"/>
            <g id="Group_3219" data-name="Group 3219" transform="translate(5.688)">
              <g id="Group_3217" data-name="Group 3217">
                <path id="Path_4077" data-name="Path 4077" d="M872.27,194.754l.086,2.532,1.265,1.04-.984,1.345,5.068,8.966-3.2-15.031Z" transform="translate(-872.27 -193.607)" fill="#4f4c4d"/>
              </g>
              <g id="Group_3218" data-name="Group 3218" transform="translate(5.502)">
                <path id="Path_4078" data-name="Path 4078" d="M898.632,194.754l-.087,2.532-1.264,1.04.984,1.345-5.068,8.966,3.2-15.031Z" transform="translate(-893.197 -193.607)" fill="#4f4c4d"/>
              </g>
            </g>
          </g>
          <g id="Group_3221" data-name="Group 3221" transform="translate(9.729 29.94)">
            <rect id="Rectangle_886" data-name="Rectangle 886" width="9.323" height="5.3" rx="2.65" transform="translate(5.3 0) rotate(90)" fill="#686671"/>
            <path id="Path_4079" data-name="Path 4079" d="M869.212,232.209h-2.54a1.375,1.375,0,0,0-1.1.556,1.368,1.368,0,0,1,.825-.279h2.54a1.38,1.38,0,0,1,1.38,1.38v6.562a1.367,1.367,0,0,1-.28.825,1.373,1.373,0,0,0,.555-1.1v-6.563A1.38,1.38,0,0,0,869.212,232.209Z" transform="translate(-865.292 -232.209)" fill="#c8c8c8" style="mix-blend-mode: multiply;isolation: isolate"/>
            <rect id="Rectangle_887" data-name="Rectangle 887" width="0.848" height="0.848" rx="0.424" transform="translate(3.074 0.752) rotate(90)" fill="#383643"/>
          </g>
          <g id="Group_3223" data-name="Group 3223" transform="translate(22.52 21.272)">
            <g id="Group_3222" data-name="Group 3222" transform="translate(4.054 29.682)">
              <path id="Path_4080" data-name="Path 4080" d="M930.867,316.81l.824-4.674,2.61.46-.824,4.675a1.366,1.366,0,1,1-2.61-.46Z" transform="translate(-930.241 -312.136)" fill="#f7cdb9"/>
              <path id="Path_4081" data-name="Path 4081" d="M928.582,317.985a4.082,4.082,0,0,1,1.747-2.722.543.543,0,0,1,.763.169.577.577,0,0,1-.168.782,2.966,2.966,0,0,0-1.242,1.867.552.552,0,1,1-1.1-.1Z" transform="translate(-928.58 -314.374)" fill="#f7cdb9"/>
            </g>
            <path id="Path_4082" data-name="Path 4082" d="M913.92,199.239c3.356,1.047,5.768,1.349,6.128,3.457.684,4,1.464,8.533,1.9,13.395.15,6.337-.423,14.237-.423,14.237h-3.472c-.02-.033-.087-5.061-.216-10.681-.636-4.094-.937-5.9-.954-5.926l-3.727-11.85C913.216,201.751,913.618,199.966,913.92,199.239Z" transform="translate(-913.159 -199.239)" fill="#32303a"/>
          </g>
          <g id="Group_3225" data-name="Group 3225" transform="translate(0 23.14)">
            <g id="Group_3224" data-name="Group 3224" transform="translate(7.342 9.818)">
              <path id="Path_4083" data-name="Path 4083" d="M858.939,246.928s-1.04.116-1.847.176l-.59.036-.509.016-.488,0-.077,3.312.612,0,.612-.018.688-.042c.927-.069,2.038-.2,2.038-.2a1.464,1.464,0,0,0,1-1.823C860.226,247.484,859.58,246.845,858.939,246.928Z" transform="translate(-855.428 -246.07)" fill="#f2ae75"/>
              <path id="Path_4084" data-name="Path 4084" d="M859.241,243.687a2.07,2.07,0,0,0-1.293.837,5.15,5.15,0,0,0-.537.792.7.7,0,0,0,.085.772.342.342,0,0,0,.569-.119s.04-.077.106-.183a3.742,3.742,0,0,1,.274-.386,1.5,1.5,0,0,1,.915-.615c.216-.024.361-.289.323-.592S859.448,243.664,859.241,243.687Z" transform="translate(-856.832 -243.686)" fill="#f2ae75"/>
            </g>
            <path id="Path_4085" data-name="Path 4085" d="M835.338,221.295c-1.359,0-5.192.2-6.338-.729-.805-.656-2.487-2.79-.716-6.395a28.829,28.829,0,0,1,6.116-7.828l3.953,4.417c-2.084,1.968-3.879,2.984-5.838,5.164-.593.66-.357.885-.343.9.314.255,2.207.113,3.449.013l.318,4.4A3.53,3.53,0,0,1,835.338,221.295Z" transform="translate(-827.503 -206.343)" fill="#32303a"/>
          </g>
          <g id="Group_3231" data-name="Group 3231" transform="translate(10.61)">
            <g id="Group_3229" data-name="Group 3229" transform="translate(0 1.907)">
              <path id="Path_4086" data-name="Path 4086" d="M880.266,133.434l.18-2.332c0-3.05-2.915-5.521-5.963-5.521s-5.963,2.471-5.963,5.521l.179,2.33a1.079,1.079,0,0,0-.453.229,1.1,1.1,0,0,0-.389.841v1.148a1.1,1.1,0,0,0,1.1,1.1c0,2.88,3.461,5.61,5.528,5.61s5.528-2.73,5.528-5.61a1.1,1.1,0,0,0,1.1-1.1V134.5A1.1,1.1,0,0,0,880.266,133.434Z" transform="translate(-867.858 -125.581)" fill="#f2ae75"/>
              <path id="Path_4087" data-name="Path 4087" d="M895.123,133.434l.18-2.332c0-3.05-2.915-5.521-5.963-5.521v7.84a23.026,23.026,0,0,0-1.325,4.2h1.325v4.748c2.069,0,5.529-2.73,5.529-5.61a1.1,1.1,0,0,0,1.1-1.1V134.5A1.1,1.1,0,0,0,895.123,133.434Z" transform="translate(-882.715 -125.581)" fill="#f6ccb8" opacity="0.8" style="mix-blend-mode: multiply;isolation: isolate"/>
              <g id="Group_3228" data-name="Group 3228" transform="translate(3.191 7.426)">
                <g id="Group_3226" data-name="Group 3226">
                  <path id="Path_4088" data-name="Path 4088" d="M881.738,155.509a.872.872,0,1,1-.9-.841A.872.872,0,0,1,881.738,155.509Z" transform="translate(-879.994 -154.446)" fill="#f6ccb8" style="mix-blend-mode: multiply;isolation: isolate"/>
                  <path id="Path_4089" data-name="Path 4089" d="M881.738,154.669a.872.872,0,1,1-.9-.841A.872.872,0,0,1,881.738,154.669Z" transform="translate(-879.994 -153.827)" fill="#3c2417"/>
                  <path id="Path_4090" data-name="Path 4090" d="M884.044,157.591a.218.218,0,1,1-.226-.21A.218.218,0,0,1,884.044,157.591Z" transform="translate(-882.658 -156.446)" fill="#fff"/>
                </g>
                <g id="Group_3227" data-name="Group 3227" transform="translate(5.08 0)">
                  <ellipse id="Ellipse_123" data-name="Ellipse 123" cx="0.872" cy="0.872" rx="0.872" ry="0.872" transform="translate(0 0.221)" fill="#f6ccb8" style="mix-blend-mode: multiply;isolation: isolate"/>
                  <ellipse id="Ellipse_124" data-name="Ellipse 124" cx="0.872" cy="0.872" rx="0.872" ry="0.872" fill="#3c2417"/>
                  <path id="Path_4091" data-name="Path 4091" d="M903.365,157.591a.218.218,0,1,1-.225-.21A.218.218,0,0,1,903.365,157.591Z" transform="translate(-901.979 -156.446)" fill="#fff"/>
                </g>
              </g>
            </g>
            <g id="Group_3230" data-name="Group 3230" transform="translate(0.088)">
              <path id="Path_4092" data-name="Path 4092" d="M888.068,173.965a4.381,4.381,0,0,0-2.619-.922h-.035a4.382,4.382,0,0,0-2.619.922.441.441,0,0,0-.123.309,13.457,13.457,0,0,0,.219,2.269.443.443,0,0,0,.135.186,4.325,4.325,0,0,0,4.81,0,.443.443,0,0,0,.136-.186,13.465,13.465,0,0,0,.219-2.269A.439.439,0,0,0,888.068,173.965Zm-.878,2.14a5.165,5.165,0,0,1-1.207.41v-.592a.552.552,0,1,0-1.1,0v.592a5.131,5.131,0,0,1-1.206-.41,10.768,10.768,0,0,1-.111-1.643,3.533,3.533,0,0,1,3.74,0A10.845,10.845,0,0,1,887.19,176.105Z" transform="translate(-878.865 -158.658)" fill="#3c2415"/>
              <path id="Path_4093" data-name="Path 4093" d="M874.76,118.329c-9.775.15-5.741,11.383-5.741,11.383s-.5-6.153,2.084-5.777a22.194,22.194,0,0,0,7.314,0c2.588-.376,2.084,5.777,2.084,5.777S884.536,118.479,874.76,118.329Z" transform="translate(-868.194 -118.329)" fill="#3c2417"/>
            </g>
          </g>
        </g>
      </g>
      <g id="man-2" data-name="man" transform="translate(0 0)">
        <rect id="Rectangle_888" data-name="Rectangle 888" width="6.476" height="2.747" transform="translate(14 19.791)" fill="#32303a"/>
        <g id="Group_3233" data-name="Group 3233" transform="translate(13.76 17.61)">
          <path id="Path_4094" data-name="Path 4094" d="M884.8,188.315l-.826-.381v-2.625h-5.3v2.625l-.829.358.221,7.445h.608v1.142h5.3v-1.142h.6Z" transform="translate(-877.841 -185.309)" fill="#f2ae75"/>
          <path id="Path_4095" data-name="Path 4095" d="M881,185.309v1.008l5.3,1.443v-2.451Z" transform="translate(-880.166 -185.309)" fill="#deb4a0" style="mix-blend-mode: multiply;isolation: isolate"/>
        </g>
        <g id="Group_3238" data-name="Group 3238" transform="translate(6.082 19.791)">
          <g id="Group_3234" data-name="Group 3234" transform="translate(4.426 0.272)">
            <path id="Path_4096" data-name="Path 4096" d="M875.751,196.809l-.2.74a3.46,3.46,0,0,1-3.289,2.573,3.772,3.772,0,0,1-3.51-2.914l-.106-.4c-4.311,1.62-2.988,15.12-2.988,15.12l-.027,11.213h13.508l-.181-11.213S880.062,198.429,875.751,196.809Z" transform="translate(-865.469 -196.239)" fill="#fff"/>
            <path id="Path_4097" data-name="Path 4097" d="M888.769,205.1l-.509.974h-1.548l-.494-.974,1.276-1.043Z" transform="translate(-880.762 -201.58)" fill="#0c6a93"/>
            <path id="Path_4098" data-name="Path 4098" d="M878.686,197.116l-1.63,1.716-2.787-3.325,1.74-.866.654.605Z" transform="translate(-871.956 -194.641)" fill="#e6e7e8"/>
            <path id="Path_4099" data-name="Path 4099" d="M893.749,194.644l-2.679,2.474,1.63,1.717,2.786-3.327Z" transform="translate(-884.34 -194.643)" fill="#e6e7e8"/>
            <path id="Path_4100" data-name="Path 4100" d="M887.919,212.614l.63,20.291-1.4,1.544-1.4-1.544.616-20.291Z" transform="translate(-880.422 -207.888)" fill="#0c6a93"/>
          </g>
          <path id="Path_4101" data-name="Path 4101" d="M870.821,200.19c-.423-2.475-3.166-2.476-7.477-4.1l-3.552,14.377L856.24,196.1c-4.311,1.62-7.054,1.62-7.477,4.1-.684,4,1.6,5.747,1.617,5.725,0,0,.186,17.754-.093,22.035h8.842l.662-3.092.663,3.092H869.3c-.28-4.28-.093-22.035-.093-22.035C869.221,205.937,871.5,204.191,870.821,200.19Z" transform="translate(-848.635 -195.441)" fill="#32303a"/>
          <g id="Group_3237" data-name="Group 3237" transform="translate(5.688)">
            <g id="Group_3235" data-name="Group 3235">
              <path id="Path_4102" data-name="Path 4102" d="M870.27,194.754l.087,2.532,1.265,1.04-.984,1.345,5.068,8.966-3.2-15.031Z" transform="translate(-870.27 -193.607)" fill="#4f4c4d"/>
            </g>
            <g id="Group_3236" data-name="Group 3236" transform="translate(5.502)">
              <path id="Path_4103" data-name="Path 4103" d="M896.631,194.754l-.086,2.532-1.265,1.04.984,1.345-5.068,8.966,3.2-15.031Z" transform="translate(-891.196 -193.607)" fill="#4f4c4d"/>
            </g>
          </g>
        </g>
        <g id="Group_3239" data-name="Group 3239" transform="translate(9.729 29.94)">
          <rect id="Rectangle_889" data-name="Rectangle 889" width="9.323" height="5.3" rx="2.65" transform="translate(5.3 0) rotate(90)" fill="#686671"/>
          <path id="Path_4104" data-name="Path 4104" d="M867.212,232.209h-2.54a1.373,1.373,0,0,0-1.1.556,1.367,1.367,0,0,1,.825-.279h2.54a1.38,1.38,0,0,1,1.38,1.38v6.562a1.366,1.366,0,0,1-.28.825,1.373,1.373,0,0,0,.556-1.1v-6.563A1.38,1.38,0,0,0,867.212,232.209Z" transform="translate(-863.292 -232.209)" fill="#c8c8c8" style="mix-blend-mode: multiply;isolation: isolate"/>
          <rect id="Rectangle_890" data-name="Rectangle 890" width="0.848" height="0.848" rx="0.424" transform="translate(3.074 0.752) rotate(90)" fill="#383643"/>
        </g>
        <g id="Group_3241" data-name="Group 3241" transform="translate(22.52 21.272)">
          <g id="Group_3240" data-name="Group 3240" transform="translate(4.054 29.682)">
            <path id="Path_4105" data-name="Path 4105" d="M928.867,316.81l.824-4.674,2.61.46-.824,4.675a1.366,1.366,0,1,1-2.61-.46Z" transform="translate(-928.241 -312.136)" fill="#f7cdb9"/>
            <path id="Path_4106" data-name="Path 4106" d="M926.582,317.985a4.081,4.081,0,0,1,1.747-2.722.543.543,0,0,1,.763.169.576.576,0,0,1-.168.782,2.966,2.966,0,0,0-1.242,1.867.552.552,0,1,1-1.1-.1Z" transform="translate(-926.58 -314.374)" fill="#f7cdb9"/>
          </g>
          <path id="Path_4107" data-name="Path 4107" d="M911.92,199.239c3.355,1.047,5.768,1.349,6.128,3.457.684,4,1.464,8.533,1.9,13.395.15,6.337-.423,14.237-.423,14.237h-3.472c-.02-.033-.086-5.061-.216-10.681-.636-4.094-.937-5.9-.954-5.926l-3.727-11.85C911.216,201.751,911.617,199.966,911.92,199.239Z" transform="translate(-911.159 -199.239)" fill="#32303a"/>
        </g>
        <g id="Group_3243" data-name="Group 3243" transform="translate(0 23.14)">
          <g id="Group_3242" data-name="Group 3242" transform="translate(7.342 9.818)">
            <path id="Path_4108" data-name="Path 4108" d="M856.939,246.928s-1.04.116-1.847.176l-.59.036-.509.016-.488,0-.077,3.312.612,0,.612-.018.688-.042c.927-.069,2.038-.2,2.038-.2a1.464,1.464,0,0,0,1-1.823C858.226,247.484,857.58,246.845,856.939,246.928Z" transform="translate(-853.428 -246.07)" fill="#f2ae75"/>
            <path id="Path_4109" data-name="Path 4109" d="M857.241,243.687a2.07,2.07,0,0,0-1.293.837,5.169,5.169,0,0,0-.536.792.7.7,0,0,0,.085.772.342.342,0,0,0,.569-.119s.04-.077.106-.183a3.777,3.777,0,0,1,.274-.386,1.5,1.5,0,0,1,.916-.615c.216-.024.361-.289.323-.592S857.448,243.664,857.241,243.687Z" transform="translate(-854.833 -243.686)" fill="#f2ae75"/>
          </g>
          <path id="Path_4110" data-name="Path 4110" d="M833.339,221.295c-1.359,0-5.192.2-6.338-.729-.805-.656-2.486-2.79-.716-6.395a28.835,28.835,0,0,1,6.116-7.828l3.953,4.417c-2.084,1.968-3.879,2.984-5.838,5.164-.593.66-.357.885-.343.9.314.255,2.207.113,3.449.013l.318,4.4A3.533,3.533,0,0,1,833.339,221.295Z" transform="translate(-825.503 -206.343)" fill="#32303a"/>
        </g>
        <g id="Group_3249" data-name="Group 3249" transform="translate(10.61)">
          <g id="Group_3247" data-name="Group 3247" transform="translate(0 1.907)">
            <path id="Path_4111" data-name="Path 4111" d="M878.266,133.434l.179-2.332c0-3.05-2.915-5.521-5.963-5.521s-5.963,2.471-5.963,5.521l.179,2.33a1.08,1.08,0,0,0-.453.229,1.1,1.1,0,0,0-.388.841v1.148a1.1,1.1,0,0,0,1.1,1.1c0,2.88,3.46,5.61,5.528,5.61s5.528-2.73,5.528-5.61a1.1,1.1,0,0,0,1.1-1.1V134.5A1.1,1.1,0,0,0,878.266,133.434Z" transform="translate(-865.858 -125.581)" fill="#f2ae75"/>
            <path id="Path_4112" data-name="Path 4112" d="M893.123,133.434l.179-2.332c0-3.05-2.915-5.521-5.963-5.521v7.84a23.027,23.027,0,0,0-1.325,4.2h1.325v4.748c2.069,0,5.529-2.73,5.529-5.61a1.1,1.1,0,0,0,1.1-1.1V134.5A1.1,1.1,0,0,0,893.123,133.434Z" transform="translate(-880.715 -125.581)" fill="#f6ccb8" opacity="0.8" style="mix-blend-mode: multiply;isolation: isolate"/>
            <g id="Group_3246" data-name="Group 3246" transform="translate(3.191 7.426)">
              <g id="Group_3244" data-name="Group 3244">
                <path id="Path_4113" data-name="Path 4113" d="M879.738,155.509a.872.872,0,1,1-.9-.841A.872.872,0,0,1,879.738,155.509Z" transform="translate(-877.994 -154.446)" fill="#f6ccb8" style="mix-blend-mode: multiply;isolation: isolate"/>
                <path id="Path_4114" data-name="Path 4114" d="M879.738,154.669a.872.872,0,1,1-.9-.841A.872.872,0,0,1,879.738,154.669Z" transform="translate(-877.994 -153.827)" fill="#3c2417"/>
                <path id="Path_4115" data-name="Path 4115" d="M882.044,157.591a.218.218,0,1,1-.226-.21A.218.218,0,0,1,882.044,157.591Z" transform="translate(-880.658 -156.446)" fill="#fff"/>
              </g>
              <g id="Group_3245" data-name="Group 3245" transform="translate(5.08 0)">
                <ellipse id="Ellipse_125" data-name="Ellipse 125" cx="0.872" cy="0.872" rx="0.872" ry="0.872" transform="translate(0 0.221)" fill="#f6ccb8" style="mix-blend-mode: multiply;isolation: isolate"/>
                <ellipse id="Ellipse_126" data-name="Ellipse 126" cx="0.872" cy="0.872" rx="0.872" ry="0.872" fill="#3c2417"/>
                <path id="Path_4116" data-name="Path 4116" d="M901.365,157.591a.218.218,0,1,1-.226-.21A.218.218,0,0,1,901.365,157.591Z" transform="translate(-899.978 -156.446)" fill="#fff"/>
              </g>
            </g>
          </g>
          <g id="Group_3248" data-name="Group 3248" transform="translate(0.088)">
            <path id="Path_4117" data-name="Path 4117" d="M886.068,173.965a4.381,4.381,0,0,0-2.619-.922h-.035a4.381,4.381,0,0,0-2.619.922.441.441,0,0,0-.123.309,13.471,13.471,0,0,0,.219,2.269.441.441,0,0,0,.135.186,4.325,4.325,0,0,0,4.809,0,.443.443,0,0,0,.136-.186,13.476,13.476,0,0,0,.219-2.269A.439.439,0,0,0,886.068,173.965Zm-.878,2.14a5.163,5.163,0,0,1-1.207.41v-.592a.552.552,0,1,0-1.1,0v.592a5.125,5.125,0,0,1-1.206-.41,10.749,10.749,0,0,1-.111-1.643,3.533,3.533,0,0,1,3.74,0A10.825,10.825,0,0,1,885.19,176.105Z" transform="translate(-876.865 -158.658)" fill="#3c2415"/>
            <path id="Path_4118" data-name="Path 4118" d="M872.76,118.329c-9.775.15-5.741,11.383-5.741,11.383s-.5-6.153,2.084-5.777a22.194,22.194,0,0,0,7.315,0c2.588-.376,2.084,5.777,2.084,5.777S882.535,118.479,872.76,118.329Z" transform="translate(-866.194 -118.329)" fill="#3c2417"/>
          </g>
        </g>
      </g>
    </g>
  </g>
</svg>
