<svg id="research-center" xmlns="http://www.w3.org/2000/svg" width="87.511" height="76.759" viewBox="0 0 87.511 76.759">
  <path id="Path_640" data-name="Path 640" d="M70.254,34.457a14.778,14.778,0,0,1-28.89,0H40.115v52.37H71.5V34.457Z" transform="translate(-12.054 -15.829)" fill="#ce9d78"/>
  <path id="Path_641" data-name="Path 641" d="M40.26,29.832c0-.226.024-.446.034-.67H38.845A1.434,1.434,0,0,0,37.411,30.6v.929a1.434,1.434,0,0,0,1.434,1.434H40.6A14.833,14.833,0,0,1,40.26,29.832Z" transform="translate(-11.289 -14.331)" fill="#ce9d78"/>
  <path id="Path_642" data-name="Path 642" d="M83.9,29.162H82.448c.01.224.034.444.034.67a14.828,14.828,0,0,1-.338,3.127H83.9a1.434,1.434,0,0,0,1.434-1.434V30.6A1.434,1.434,0,0,0,83.9,29.162Z" transform="translate(-23.943 -14.331)" fill="#ce9d78"/>
  <path id="Path_643" data-name="Path 643" d="M66.509,71.612H50.574a.8.8,0,0,0-.8.8V97.337H67.31V72.412A.8.8,0,0,0,66.509,71.612Z" transform="translate(-14.786 -26.339)" fill="#d4fbff"/>
  <path id="Path_644" data-name="Path 644" d="M51.151,57.493H48.166a.8.8,0,0,0-.8.8v2.985a.8.8,0,0,0,.8.8h2.985a.8.8,0,0,0,.8-.8V58.294A.8.8,0,0,0,51.151,57.493Z" transform="translate(-14.105 -22.345)" fill="#d4fbff"/>
  <path id="Path_645" data-name="Path 645" d="M62.588,57.493H59.6a.8.8,0,0,0-.8.8v2.985a.8.8,0,0,0,.8.8h2.985a.8.8,0,0,0,.8-.8V58.294A.8.8,0,0,0,62.588,57.493Z" transform="translate(-17.34 -22.345)" fill="#d4fbff"/>
  <path id="Path_646" data-name="Path 646" d="M74.025,57.493H71.04a.8.8,0,0,0-.8.8v2.985a.8.8,0,0,0,.8.8h2.985a.8.8,0,0,0,.8-.8V58.294A.8.8,0,0,0,74.025,57.493Z" transform="translate(-20.575 -22.345)" fill="#d4fbff"/>
  <path id="Path_647" data-name="Path 647" d="M11.195,57.044H31.934V93.217H11.195Z" transform="translate(-3.873 -22.218)" fill="#ce9d78"/>
  <path id="Path_648" data-name="Path 648" d="M9.612,51.749a1.434,1.434,0,0,0-1.434,1.434v.929a1.434,1.434,0,0,0,1.434,1.434H31.08v-3.8Z" transform="translate(-3.019 -20.72)" fill="#ce9d78"/>
  <path id="Path_649" data-name="Path 649" d="M20.524,67.627H17.539a.8.8,0,0,0-.8.8v2.985a.8.8,0,0,0,.8.8h2.985a.8.8,0,0,0,.8-.8V68.428A.8.8,0,0,0,20.524,67.627Z" transform="translate(-5.441 -25.212)" fill="#d4fbff"/>
  <path id="Path_650" data-name="Path 650" d="M31.962,67.627H28.977a.8.8,0,0,0-.8.8v2.985a.8.8,0,0,0,.8.8h2.985a.8.8,0,0,0,.8-.8V68.428A.8.8,0,0,0,31.962,67.627Z" transform="translate(-8.676 -25.212)" fill="#d4fbff"/>
  <path id="Path_651" data-name="Path 651" d="M20.524,81.079H17.539a.8.8,0,0,0-.8.8v2.985a.8.8,0,0,0,.8.8h2.985a.8.8,0,0,0,.8-.8V81.88A.8.8,0,0,0,20.524,81.079Z" transform="translate(-5.441 -29.017)" fill="#d4fbff"/>
  <path id="Path_652" data-name="Path 652" d="M31.962,81.079H28.977a.8.8,0,0,0-.8.8v2.985a.8.8,0,0,0,.8.8h2.985a.8.8,0,0,0,.8-.8V81.88A.8.8,0,0,0,31.962,81.079Z" transform="translate(-8.676 -29.017)" fill="#d4fbff"/>
  <path id="Path_653" data-name="Path 653" d="M83.885,57.044h20.739V93.217H83.885Z" transform="translate(-24.435 -22.218)" fill="#ce9d78"/>
  <path id="Path_654" data-name="Path 654" d="M105.353,51.749H83.885v3.8h21.468a1.434,1.434,0,0,0,1.434-1.434v-.929a1.434,1.434,0,0,0-1.434-1.434Z" transform="translate(-24.435 -20.72)" fill="#ce9d78"/>
  <path id="Path_655" data-name="Path 655" d="M104.652,67.627h-2.985a.8.8,0,0,0-.8.8v2.985a.8.8,0,0,0,.8.8h2.985a.8.8,0,0,0,.8-.8V68.428A.8.8,0,0,0,104.652,67.627Z" transform="translate(-29.239 -25.212)" fill="#d4fbff"/>
  <path id="Path_656" data-name="Path 656" d="M93.214,67.627H90.229a.8.8,0,0,0-.8.8v2.985a.8.8,0,0,0,.8.8h2.985a.8.8,0,0,0,.8-.8V68.428A.8.8,0,0,0,93.214,67.627Z" transform="translate(-26.004 -25.212)" fill="#d4fbff"/>
  <path id="Path_657" data-name="Path 657" d="M104.652,81.079h-2.985a.8.8,0,0,0-.8.8v2.985a.8.8,0,0,0,.8.8h2.985a.8.8,0,0,0,.8-.8V81.88A.8.8,0,0,0,104.652,81.079Z" transform="translate(-29.239 -29.017)" fill="#d4fbff"/>
  <path id="Path_658" data-name="Path 658" d="M93.214,81.079H90.229a.8.8,0,0,0-.8.8v2.985a.8.8,0,0,0,.8.8h2.985a.8.8,0,0,0,.8-.8V81.88A.8.8,0,0,0,93.214,81.079Z" transform="translate(-26.004 -29.017)" fill="#d4fbff"/>
  <path id="Path_659" data-name="Path 659" d="M82.614,107.486H10.2a3.322,3.322,0,0,0-3.322,3.322v1.722H85.936v-1.722a3.323,3.323,0,0,0-3.322-3.322Z" transform="translate(-2.651 -36.487)" fill="#ce9d78"/>
  <path id="Path_4744" data-name="Path 4744" d="M14.783,0A14.783,14.783,0,1,1,0,14.783,14.783,14.783,0,0,1,14.783,0Z" transform="translate(28.972 0.718)" fill="#fff"/>
  <path id="Path_660" data-name="Path 660" d="M56.168,11.631A14.775,14.775,0,0,1,70.9,25.339c.026-.356.055-.713.055-1.076a14.784,14.784,0,0,0-29.567,0c0,.363.029.719.055,1.076A14.773,14.773,0,0,1,56.168,11.631Z" transform="translate(-12.413 -8.763)" fill="#dbdbdb"/>
  <g id="Group_1486" data-name="Group 1486" transform="translate(0 0)">
    <path id="Path_662" data-name="Path 662" d="M50.867,62.515A1.52,1.52,0,0,0,52.386,61V58.011a1.52,1.52,0,0,0-1.518-1.518H47.883a1.521,1.521,0,0,0-1.519,1.518V61a1.52,1.52,0,0,0,1.519,1.519h2.985ZM47.8,61V58.011a.085.085,0,0,1,.085-.084h2.985a.084.084,0,0,1,.084.084V61a.085.085,0,0,1-.084.085H47.883A.084.084,0,0,1,47.8,61Z" transform="translate(-13.821 -22.062)" fill="#3a2c60"/>
    <path id="Path_663" data-name="Path 663" d="M59.32,62.515h2.985A1.52,1.52,0,0,0,63.824,61V58.011a1.52,1.52,0,0,0-1.518-1.518H59.32A1.52,1.52,0,0,0,57.8,58.011V61A1.52,1.52,0,0,0,59.32,62.515Zm-.085-4.5a.084.084,0,0,1,.084-.084H62.3a.084.084,0,0,1,.084.084V61a.085.085,0,0,1-.084.085H59.319A.085.085,0,0,1,59.236,61Z" transform="translate(-17.057 -22.062)" fill="#3a2c60"/>
    <path id="Path_664" data-name="Path 664" d="M70.758,62.515h2.985A1.52,1.52,0,0,0,75.261,61V58.011a1.52,1.52,0,0,0-1.518-1.518H70.758a1.52,1.52,0,0,0-1.518,1.518V61A1.52,1.52,0,0,0,70.758,62.515Zm-.085-4.5a.084.084,0,0,1,.084-.084h2.985a.084.084,0,0,1,.084.084V61a.085.085,0,0,1-.084.085H70.757A.085.085,0,0,1,70.674,61Z" transform="translate(-20.293 -22.062)" fill="#3a2c60"/>
    <path id="Path_665" data-name="Path 665" d="M20.241,66.627H17.256a1.52,1.52,0,0,0-1.518,1.518V71.13a1.52,1.52,0,0,0,1.518,1.518h2.985A1.521,1.521,0,0,0,21.76,71.13V68.145A1.52,1.52,0,0,0,20.241,66.627Zm.085,4.5a.085.085,0,0,1-.085.084H17.256a.084.084,0,0,1-.084-.084V68.145a.084.084,0,0,1,.084-.084h2.985a.085.085,0,0,1,.085.084Z" transform="translate(-5.158 -24.929)" fill="#3a2c60"/>
    <path id="Path_666" data-name="Path 666" d="M31.678,66.627H28.694a1.521,1.521,0,0,0-1.519,1.518V71.13a1.52,1.52,0,0,0,1.519,1.518h2.985A1.52,1.52,0,0,0,33.2,71.13V68.145A1.52,1.52,0,0,0,31.678,66.627Zm.084,4.5a.084.084,0,0,1-.084.084H28.694a.085.085,0,0,1-.085-.084V68.145a.085.085,0,0,1,.085-.084h2.985a.084.084,0,0,1,.084.084Z" transform="translate(-8.393 -24.929)" fill="#3a2c60"/>
    <path id="Path_667" data-name="Path 667" d="M20.241,80.079H17.256A1.52,1.52,0,0,0,15.738,81.6v2.985A1.52,1.52,0,0,0,17.256,86.1h2.985a1.521,1.521,0,0,0,1.519-1.519V81.6A1.52,1.52,0,0,0,20.241,80.079Zm.085,4.5a.085.085,0,0,1-.085.085H17.256a.085.085,0,0,1-.084-.085V81.6a.084.084,0,0,1,.084-.084h2.985a.085.085,0,0,1,.085.084Z" transform="translate(-5.158 -28.734)" fill="#3a2c60"/>
    <path id="Path_668" data-name="Path 668" d="M31.678,80.079H28.694A1.521,1.521,0,0,0,27.175,81.6v2.985A1.52,1.52,0,0,0,28.694,86.1h2.985A1.52,1.52,0,0,0,33.2,84.582V81.6A1.52,1.52,0,0,0,31.678,80.079Zm.084,4.5a.085.085,0,0,1-.084.085H28.694a.085.085,0,0,1-.085-.085V81.6a.085.085,0,0,1,.085-.084h2.985a.084.084,0,0,1,.084.084Z" transform="translate(-8.393 -28.734)" fill="#3a2c60"/>
    <path id="Path_669" data-name="Path 669" d="M104.369,66.627h-2.985a1.52,1.52,0,0,0-1.518,1.518V71.13a1.52,1.52,0,0,0,1.518,1.518h2.985a1.52,1.52,0,0,0,1.518-1.518V68.145A1.52,1.52,0,0,0,104.369,66.627Zm.084,4.5a.084.084,0,0,1-.084.084h-2.985a.084.084,0,0,1-.084-.084V68.145a.084.084,0,0,1,.084-.084h2.985a.084.084,0,0,1,.084.084Z" transform="translate(-28.956 -24.929)" fill="#3a2c60"/>
    <path id="Path_670" data-name="Path 670" d="M92.931,66.627H89.946a1.52,1.52,0,0,0-1.518,1.518V71.13a1.52,1.52,0,0,0,1.518,1.518h2.985a1.52,1.52,0,0,0,1.518-1.518V68.145A1.52,1.52,0,0,0,92.931,66.627Zm.084,4.5a.084.084,0,0,1-.084.084H89.946a.084.084,0,0,1-.084-.084V68.145a.084.084,0,0,1,.084-.084h2.985a.084.084,0,0,1,.084.084Z" transform="translate(-25.721 -24.929)" fill="#3a2c60"/>
    <path id="Path_671" data-name="Path 671" d="M104.369,80.079h-2.985A1.52,1.52,0,0,0,99.866,81.6v2.985a1.52,1.52,0,0,0,1.518,1.519h2.985a1.52,1.52,0,0,0,1.518-1.519V81.6A1.52,1.52,0,0,0,104.369,80.079Zm.084,4.5a.085.085,0,0,1-.084.085h-2.985a.085.085,0,0,1-.084-.085V81.6a.084.084,0,0,1,.084-.084h2.985a.084.084,0,0,1,.084.084Z" transform="translate(-28.956 -28.734)" fill="#3a2c60"/>
    <path id="Path_672" data-name="Path 672" d="M92.931,80.079H89.946A1.52,1.52,0,0,0,88.428,81.6v2.985A1.52,1.52,0,0,0,89.946,86.1h2.985a1.52,1.52,0,0,0,1.518-1.519V81.6A1.52,1.52,0,0,0,92.931,80.079Zm.084,4.5a.085.085,0,0,1-.084.085H89.946a.085.085,0,0,1-.084-.085V81.6a.084.084,0,0,1,.084-.084h2.985a.084.084,0,0,1,.084.084Z" transform="translate(-25.721 -28.734)" fill="#3a2c60"/>
    <path id="Path_673" data-name="Path 673" d="M101.562,113.519H96.57a.717.717,0,0,0,0,1.434h4.992a.717.717,0,0,0,0-1.434Z" transform="translate(-27.821 -38.194)" fill="#3a2c60"/>
    <path id="Path_674" data-name="Path 674" d="M87.778,83.8H84.985v-1a4.043,4.043,0,0,0-3.1-3.923V44.023H81.9a2.154,2.154,0,0,0,2.151-2.151v-.929A2.154,2.154,0,0,0,81.9,38.792H61.151V27.8a2.147,2.147,0,0,0,1.938-2.13v-.929a2.154,2.154,0,0,0-2.151-2.151h-.763a15.5,15.5,0,0,0-30.871,0h-.763a2.154,2.154,0,0,0-2.151,2.151v.929a2.147,2.147,0,0,0,1.938,2.13V38.792H7.577a2.154,2.154,0,0,0-2.151,2.151v.929a2.154,2.154,0,0,0,2.151,2.151h.012V78.878a4.043,4.043,0,0,0-3.1,3.923v1H1.7a.717.717,0,0,0,0,1.434H65.948a.717.717,0,0,0,0-1.434H5.928v-1a2.607,2.607,0,0,1,2.6-2.6H80.947a2.607,2.607,0,0,1,2.6,2.6v1H78.442a.717.717,0,0,0,0,1.434h9.335a.717.717,0,0,0,0-1.434ZM81.9,40.226a.717.717,0,0,1,.717.717v.929a.717.717,0,0,1-.717.717H61.15V40.226ZM61.655,24.746v.929a.717.717,0,0,1-.717.717h-.886a15.556,15.556,0,0,0,.187-2.363h.7A.717.717,0,0,1,61.655,24.746ZM44.739,9.914A14.067,14.067,0,1,1,30.673,23.981,14.083,14.083,0,0,1,44.739,9.914ZM27.824,25.674v-.929a.718.718,0,0,1,.717-.717h.7a15.563,15.563,0,0,0,.187,2.363h-.886A.717.717,0,0,1,27.824,25.674ZM6.86,41.872v-.929a.718.718,0,0,1,.717-.717H28.328v2.363H7.577a.718.718,0,0,1-.717-.717Zm2.164,2.151h19.3V78.762H9.024Zm20.739-.717V27.973a15.5,15.5,0,0,0,29.954,0V78.762H54.225V54.552a1.519,1.519,0,0,0-1.517-1.517H36.772a1.518,1.518,0,0,0-1.517,1.517V78.762H29.763Zm6.927,11.247a.083.083,0,0,1,.082-.082h7.251V66.1H43.19a.717.717,0,0,0,0,1.434h.833V78.762H36.689Zm8.767,24.209V67.537h.833a.717.717,0,1,0,0-1.434h-.833V54.47h7.251a.083.083,0,0,1,.082.082V78.762Zm15.694,0V44.023h19.3V78.762Z" transform="translate(-0.984 -8.48)" fill="#3a2c60"/>
  </g>
  <g id="Group_3759" data-name="Group 3759" transform="translate(-1348.761 -256.967)">
    <path id="Path_4745" data-name="Path 4745" d="M1440.28,290.6c.079-.136.027-.2-.131-.2-.721,0-1.4,0-2.082.01a.436.436,0,0,0-.281.214c-1.246,2.117-1.939,3.215-3.179,5.336v0a.2.2,0,0,1-.354,0l-.8-1.4c-.32-.563-.019-.042-.349-.6a.365.365,0,0,0-.25-.168c-.68-.011-1.361-.009-2.083-.008a.205.205,0,0,0-.177.307c1.44,2.5,2.249,3.89,3.694,6.4a.205.205,0,0,0,.355,0C1436.721,296.881,1438.191,294.218,1440.28,290.6Z" transform="translate(-39.598 -21.253)" fill="#3a2c60"/>
    <path id="Path_4746" data-name="Path 4746" d="M1386.5,279.276a.12.12,0,0,1-.207,0c-.391-.666-.76-1.29-1.119-1.919a.3.3,0,0,1,0-.253c.393-.7,3.8-6.716,4.213-7.4a.434.434,0,0,1,.323-.146q1.759-.016,3.518,0a.358.358,0,0,0,.391-.235c.135-.3.29-.591.455-.911a.12.12,0,0,0-.106-.175h-.174c-3.766,0-2.383,0-6.149.007a.471.471,0,0,1-.483-.288c-.316-.583-.652-1.156-1-1.754a.12.12,0,0,1,.1-.179h11.539a.119.119,0,0,1,.107.173v0q-1.521,2.651-3.041,5.3a.31.31,0,0,1-.318.173c-1.135-.005-2.269.009-3.4-.011a.526.526,0,0,0-.547.328C1390.267,272.636,1386.891,278.6,1386.5,279.276Z" transform="translate(0)" fill="#3a2c60"/>
  </g>
</svg>
