<svg xmlns="http://www.w3.org/2000/svg" width="96.147" height="69.773" viewBox="0 0 96.147 69.773">
  <g id="travel-itinerary" transform="translate(-2 -40.888)">
    <path id="Path_1549" data-name="Path 1549" d="M35.54,117.484,4,113.567V53.153l31.54,3.916Z" transform="translate(-1.237 -7.586)" fill="#f4efed"/>
    <path id="Path_1550" data-name="Path 1550" d="M7.815,113.567V53.626L4,53.153v60.414l3.815.473Z" transform="translate(-1.237 -7.585)" fill="#fff"/>
    <path id="Path_1551" data-name="Path 1551" d="M4,73.533,24.112,76.25l5.73-5.5h5.7V57.069L4,53.153Z" transform="translate(-1.237 -7.585)" fill="#7bac51"/>
    <path id="Path_1552" data-name="Path 1552" d="M200.873,107.219l-31.54-3.916V42.888l31.54,3.916Z" transform="translate(-103.49 -1.237)" fill="#f4efed"/>
    <path id="Path_1553" data-name="Path 1553" d="M242,51.911v60.414l3.815.474V52.385Z" transform="translate(-148.432 -6.817)" fill="#d6d1cf"/>
    <path id="Path_1554" data-name="Path 1554" d="M210.667,167.93l4.087-16.142,11.683-7.57v25.67Z" transform="translate(-129.053 -63.906)" fill="#7bac51"/>
    <path id="Path_1555" data-name="Path 1555" d="M118.207,103.3l-31.54,7.833V50.721l31.54-7.833Z" transform="translate(-52.364 -1.237)" fill="#f4efed"/>
    <path id="Path_1556" data-name="Path 1556" d="M7.815,53.626,4,53.153v20.38l3.815.516Z" transform="translate(-1.237 -7.585)" fill="#99ca6f"/>
    <path id="Path_1557" data-name="Path 1557" d="M86.667,64.4l17.79-6.045,13.75-15.465-31.54,7.833Z" transform="translate(-52.364 -1.237)" fill="#7bac51"/>
    <path id="Path_1558" data-name="Path 1558" d="M242,146.69v22.724l3.815.474v-25.67Z" transform="translate(-148.432 -63.906)" fill="#5d8e33"/>
    <g id="Group_1911" data-name="Group 1911" transform="translate(2 40.888)">
      <path id="Path_1559" data-name="Path 1559" d="M34.3,117.009a.714.714,0,0,1-.094-.006l-31.54-3.916A.763.763,0,0,1,2,112.33V51.915a.763.763,0,0,1,.857-.757L34.4,55.075a.763.763,0,0,1,.669.757v60.415a.763.763,0,0,1-.763.763ZM3.526,111.656l30.014,3.727V56.506L3.526,52.779Z" transform="translate(-2 -47.236)" fill="#690589"/>
      <path id="Path_1560" data-name="Path 1560" d="M85.43,110.662a.763.763,0,0,1-.763-.763V49.484a.763.763,0,0,1,.579-.741l31.54-7.833a.763.763,0,0,1,.947.741v60.415a.763.763,0,0,1-.579.741l-31.54,7.833A.774.774,0,0,1,85.43,110.662Zm.763-60.581v58.842l30.014-7.454V42.627Zm30.777,51.985h0Z" transform="translate(-53.127 -40.889)" fill="#690589"/>
      <path id="Path_1561" data-name="Path 1561" d="M199.636,106.745a.716.716,0,0,1-.094-.006L168,102.822a.763.763,0,0,1-.669-.757V41.651a.763.763,0,0,1,.857-.757l31.54,3.916a.763.763,0,0,1,.669.757v60.415a.762.762,0,0,1-.763.763Zm-30.777-5.353,30.014,3.726V46.241l-30.014-3.727Z" transform="translate(-104.253 -40.888)" fill="#690589"/>
      <path id="Path_1562" data-name="Path 1562" d="M22.875,75.776a.772.772,0,0,1-.1-.007L2.66,73.051A.763.763,0,0,1,2,72.3V51.915a.763.763,0,0,1,.857-.757L34.4,55.075a.763.763,0,0,1,.669.757V69.51a.763.763,0,0,1-.763.763H28.912L23.4,75.563A.763.763,0,0,1,22.875,75.776ZM3.526,71.628l19.086,2.579,5.464-5.248a.765.765,0,0,1,.528-.213H33.54V56.506L3.526,52.779Z" transform="translate(-2 -47.236)" fill="#690589"/>
      <path id="Path_1563" data-name="Path 1563" d="M85.43,63.926a.763.763,0,0,1-.763-.763V49.485a.763.763,0,0,1,.579-.741l31.54-7.833a.763.763,0,0,1,.754,1.248L103.79,57.624a.759.759,0,0,1-.325.215l-17.79,6.046a.766.766,0,0,1-.245.041Zm.763-13.845V62.1l16.591-5.638,11.979-13.473Z" transform="translate(-53.127 -40.889)" fill="#690589"/>
      <path id="Path_1564" data-name="Path 1564" d="M225.2,169.413a.712.712,0,0,1-.094-.006l-15.77-1.958a.763.763,0,0,1-.646-.944l4.087-16.141a.765.765,0,0,1,.325-.453l11.684-7.571a.763.763,0,0,1,1.178.641v25.67a.764.764,0,0,1-.763.763Zm-14.818-3.372,14.055,1.745v-23.4l-10.254,6.645Z" transform="translate(-129.816 -103.556)" fill="#690589"/>
      <path id="Path_1565" data-name="Path 1565" d="M12.763,127.283a.763.763,0,0,1-.763-.763v-4.578a.763.763,0,1,1,1.526,0v4.578A.763.763,0,0,1,12.763,127.283Z" transform="translate(-8.185 -90.545)" fill="#690589"/>
      <path id="Path_1566" data-name="Path 1566" d="M45.647,160.677a.778.778,0,0,1-.158-.016l-2.24-.472a.763.763,0,0,1,.315-1.493l2.24.472a.763.763,0,0,1-.157,1.51Z" transform="translate(-27.136 -113.737)" fill="#690589"/>
      <path id="Path_1567" data-name="Path 1567" d="M63.223,164.386a.777.777,0,0,1-.158-.016l-3.851-.813a.763.763,0,1,1,.315-1.493l3.851.813a.763.763,0,0,1-.157,1.51Z" transform="translate(-37.01 -115.821)" fill="#690589"/>
      <path id="Path_1568" data-name="Path 1568" d="M81.8,166.634a.759.759,0,0,1-.158-.016l-2.24-.472a.763.763,0,0,1,.315-1.493l1.868.394,1.44-1.254a.763.763,0,0,1,1,1.15l-1.726,1.5a.76.76,0,0,1-.5.188Z" transform="translate(-49.495 -116.783)" fill="#690589"/>
      <path id="Path_1569" data-name="Path 1569" d="M99.014,126.536a.763.763,0,0,1-.5-1.338l3.457-3.011a.763.763,0,1,1,1,1.15l-3.457,3.012A.761.761,0,0,1,99.014,126.536Zm6.914-6.023a.763.763,0,0,1-.5-1.338l3.457-3.012a.763.763,0,1,1,1,1.15l-3.457,3.011A.76.76,0,0,1,105.928,120.513Zm6.914-6.023a.763.763,0,0,1-.5-1.338l1.509-1.314a.767.767,0,0,1,.3-.16l2.49-.689a.763.763,0,0,1,.407,1.471l-2.323.643-1.378,1.2a.763.763,0,0,1-.5.188Zm8.417-3.226a.763.763,0,0,1-.2-1.5l4.419-1.222a.763.763,0,1,1,.407,1.471l-4.419,1.222A.769.769,0,0,1,121.259,111.264Zm8.837-2.445a.763.763,0,0,1-.2-1.5l4.419-1.222a.763.763,0,0,1,.407,1.471l-4.419,1.222A.768.768,0,0,1,130.1,108.819Z" transform="translate(-61.528 -81.201)" fill="#690589"/>
      <path id="Path_1570" data-name="Path 1570" d="M203.646,103.4a.763.763,0,0,1-.2-1.5l2.206-.61a.763.763,0,0,1,.407,1.471l-2.206.61A.789.789,0,0,1,203.646,103.4Z" transform="translate(-126.239 -78.231)" fill="#690589"/>
    </g>
    <circle id="Ellipse_112" data-name="Ellipse 112" cx="3.371" cy="3.371" r="3.371" transform="translate(14.899 83.221)" fill="#fcc24c"/>
    <path id="Path_1571" data-name="Path 1571" d="M37.943,158.11a4.134,4.134,0,1,1,4.134-4.134A4.138,4.138,0,0,1,37.943,158.11Zm0-6.741a2.608,2.608,0,1,0,2.608,2.608A2.61,2.61,0,0,0,37.943,151.369Z" transform="translate(-19.673 -67.385)" fill="#690589"/>
    <circle id="Ellipse_113" data-name="Ellipse 113" cx="3.371" cy="3.371" r="3.371" transform="translate(29.922 87.95) rotate(-22.514)" fill="#fcc24c"/>
    <path id="Path_1572" data-name="Path 1572" d="M79.967,166.456a4.134,4.134,0,1,1,4.134-4.134A4.138,4.138,0,0,1,79.967,166.456Zm0-6.741a2.608,2.608,0,1,0,2.608,2.607A2.61,2.61,0,0,0,79.967,159.715Z" transform="translate(-45.663 -72.547)" fill="#690589"/>
    <circle id="Ellipse_114" data-name="Ellipse 114" cx="3.371" cy="3.371" r="3.371" transform="translate(52.07 68.913)" fill="#fcc24c"/>
    <path id="Path_1573" data-name="Path 1573" d="M135.368,120.61a4.134,4.134,0,1,1,4.134-4.134A4.138,4.138,0,0,1,135.368,120.61Zm0-6.741a2.608,2.608,0,1,0,2.607,2.608A2.611,2.611,0,0,0,135.368,113.869Z" transform="translate(-79.927 -44.192)" fill="#690589"/>
    <circle id="Ellipse_115" data-name="Ellipse 115" cx="3.371" cy="3.371" r="3.371" transform="translate(78.243 61.317)" fill="#fcc24c"/>
    <path id="Path_1574" data-name="Path 1574" d="M203.967,100.7a4.134,4.134,0,1,1,4.134-4.134A4.138,4.138,0,0,1,203.967,100.7Zm0-6.741a2.608,2.608,0,1,0,2.608,2.608A2.61,2.61,0,0,0,203.967,93.959Z" transform="translate(-122.353 -31.879)" fill="#690589"/>
    <path id="Path_1575" data-name="Path 1575" d="M30.391,91.647a8.779,8.779,0,0,1,7.6,13.169l-7.6,13.169-7.6-13.169A8.779,8.779,0,0,1,30.391,91.647Z" transform="translate(24.888 -45.128)" fill="#ff4397"/>
    <path id="Path_1576" data-name="Path 1576" d="M29.151,117.51a.763.763,0,0,1-.661-.382l-7.6-13.169a9.543,9.543,0,1,1,16.528,0l-7.6,13.169a.764.764,0,0,1-.661.382Zm0-26.338A8.016,8.016,0,0,0,22.209,103.2l6.942,12.024L36.093,103.2a8.016,8.016,0,0,0-6.942-12.024Z" transform="translate(26.128 -43.89)" fill="#690589"/>
    <circle id="Ellipse_116" data-name="Ellipse 116" cx="3.761" cy="3.761" r="3.761" transform="translate(51.517 51.571)" fill="#f4efed"/>
    <path id="Path_1577" data-name="Path 1577" d="M37.309,111.937a4.524,4.524,0,1,1,4.524-4.524A4.529,4.529,0,0,1,37.309,111.937Zm0-7.522a3,3,0,1,0,3,3A3,3,0,0,0,37.309,104.415Z" transform="translate(17.969 -52.081)" fill="#690589"/>
  </g>
</svg>
