<svg xmlns="http://www.w3.org/2000/svg" width="23.414" height="17.56" viewBox="0 0 23.414 17.56">
<defs><style>.a{fill:#ff5b5b;}</style>
</defs>
<path class="a" d="M22.682,78.633H2.927v-13.9A.731.731,0,0,0,2.2,64H.732A.731.731,0,0,0,0,64.732V80.1A1.464,1.464,0,0,0,1.463,81.56H22.682a.731.731,0,0,0,.732-.732V79.365A.731.731,0,0,0,22.682,78.633Zm-1.463-13.17h-5.4a1.1,1.1,0,0,0-.776,1.874l1.482,1.482L13.17,72.174,9.815,68.819a1.463,1.463,0,0,0-2.069,0L4.6,71.96A.732.732,0,0,0,4.6,73l1.034,1.034a.732.732,0,0,0,1.035,0L8.78,71.923l3.355,3.355a1.463,1.463,0,0,0,2.069,0l4.39-4.39,1.482,1.482a1.1,1.1,0,0,0,1.874-.776V66.2A.731.731,0,0,0,21.219,65.463Z" transform="translate(0 -64)"/></svg>