<svg xmlns="http://www.w3.org/2000/svg" width="20.876" height="18.269" viewBox="0 0 20.876 18.269"><defs><style>.a{fill:#10c469;}</style></defs><path class="a" d="M19.922,40.873,15.983,39.4V34.973a1.468,1.468,0,0,0-.954-1.374L10.952,32.07a1.451,1.451,0,0,0-1.032,0L5.843,33.6a1.468,1.468,0,0,0-.954,1.374V39.4L.95,40.873A1.47,1.47,0,0,0,0,42.247v4.489a1.469,1.469,0,0,0,.811,1.313l4.077,2.039a1.46,1.46,0,0,0,1.313,0l4.236-2.12,4.236,2.12a1.46,1.46,0,0,0,1.313,0l4.077-2.039a1.469,1.469,0,0,0,.811-1.313V42.247A1.468,1.468,0,0,0,19.922,40.873ZM14.6,39.429l-3.466,1.3V37.949L14.6,36.441ZM6.279,34.916l4.159-1.558L14.6,34.916v.024l-4.159,1.688L6.279,34.94ZM9.7,46.785,6.238,48.518V45.293L9.7,43.711Zm0-4.567L5.545,43.906,1.386,42.218v-.024l4.159-1.558L9.7,42.194Zm9.786,4.567-3.466,1.733V45.293l3.466-1.582Zm0-4.567-4.159,1.688-4.159-1.688v-.024l4.159-1.558,4.159,1.558Z" transform="translate(0 -31.975)"/></svg>