<svg xmlns="http://www.w3.org/2000/svg" width="74.613" height="71.503" viewBox="0 0 74.613 71.503"><defs><style>.a{fill:#d1ebff;}</style></defs><path class="a" d="M74.418,27.512A3.958,3.958,0,0,0,71,24.785L49.469,22.829,40.954,2.9a3.965,3.965,0,0,0-7.293,0L25.145,22.829,3.606,24.785a3.97,3.97,0,0,0-2.251,6.939L17.633,46l-4.8,21.144a3.959,3.959,0,0,0,5.9,4.284l18.576-11.1,18.569,11.1a3.965,3.965,0,0,0,5.9-4.284L56.977,46,73.256,31.727a3.967,3.967,0,0,0,1.163-4.215Zm0,0" transform="translate(0 -0.491)"/></svg>